<?xml version="1.0" encoding="utf-8" ?>
<svg xmlns="http://www.w3.org/2000/svg" xmlns:xlink="http://www.w3.org/1999/xlink" width="1024" height="1024">
	<path d="M823.529 101.66C820.825 104.28 818.064 106.616 814.467 107.933Q813.743 108.202 812.996 108.396Q812.248 108.59 811.485 108.707Q810.722 108.824 809.95 108.864Q809.179 108.903 808.408 108.863Q807.637 108.824 806.873 108.707Q806.11 108.589 805.363 108.395Q804.615 108.201 803.892 107.931Q803.168 107.662 802.475 107.321C798.457 105.381 795.394 101.741 793.97 97.5347C792.7 93.782 792.804 89.5118 794.585 85.9409C796.766 81.5691 800.715 79.4988 805.2 78.1138C809.641 77.7577 814.302 78.2538 817.988 80.979C822.847 84.5724 824.079 90.1535 824.963 95.7547C831.46 102.015 838.264 107.884 844.685 114.246C852.259 109.149 864.87 100.274 872.953 96.9428C877.527 95.058 882.446 95.3079 887.266 94.6709C897.996 93.2527 908.389 90.5543 919.321 91.6009C923.087 91.9615 926.697 93.9981 930.409 94.796C957.582 100.636 978.786 111.043 996.246 133.376C1010.99 152.236 1017 176.164 1014.1 199.812C1010.35 230.423 995.497 249.027 972.016 267.471C974.611 296.952 973.507 326.595 973.95 356.149C974.261 376.904 976.732 397.502 977.004 418.227C977.199 433.178 976.444 447.997 976.056 462.927Q975.347 489.32 975.446 515.723C987.154 527.259 996.525 540.654 1000.75 556.703C1006.31 577.812 1004.12 600.95 992.877 619.853C982.117 637.952 963.624 651.069 943.274 656.148C916.38 662.861 895.926 656.359 872.898 642.616C869.117 654.523 868.322 668.896 859.827 678.723C857.292 681.656 854.167 683.609 850.445 684.678C839.42 687.847 819.398 685.684 807 686.567C806.848 697.266 812.8 757.172 808.536 763.377C808.38 763.603 808.2 763.816 807.99 763.993C805.99 765.671 802.366 765.813 799.862 765.972C786.867 766.795 773.586 766.078 760.541 766.411L644.943 768.867Q621.591 769.176 598.247 769.892C587.878 770.109 577.468 769.951 567.117 770.652C573.504 782.356 581.596 793.351 588.61 804.712C599.002 809.339 621.587 815.913 628.036 825.164C629.202 826.836 630.039 829.092 629.35 831.131C628.877 832.531 627.558 833.44 626.18 833.825C621.493 835.135 615.14 834.666 610.226 834.831Q595.657 835.275 581.095 835.887Q532.691 838.203 484.25 839.504C466.949 840.069 449.622 841.272 432.303 841.017C429.974 840.983 427.337 840.814 425.265 839.639C424.086 838.971 423.311 838.022 423.062 836.677C422.708 834.762 423.404 832.664 424.341 831.008C429.878 821.213 446.568 816.819 455.003 809.371C464.202 801.249 472.468 783.434 479.586 772.554C479.455 772.54 479.324 772.524 479.193 772.512L478.537 772.454C470.353 771.686 461.782 772.582 453.541 772.766L408.001 773.708L307.289 775.827L275.78 776.774C268.86 776.985 261.506 777.617 254.625 776.776C252.295 776.492 250.139 775.797 248.349 774.234C246.096 772.268 245.835 769.17 245.478 766.367C244.374 757.718 245.058 748.668 244.917 739.947Q244.48 713.811 243.403 687.694C213.766 689.599 182.837 694.128 158.535 672.973C152.355 667.594 147.602 661.365 146.056 653.154C144.151 643.041 145.678 632.3 145.912 622.077C146.216 608.871 146.258 595.537 146.001 582.328C145.426 552.792 143.465 523.202 142.447 493.668C141.343 461.62 141.12 429.583 138.896 397.575C122.544 396.867 107.949 392.732 92.7678 387.012L87.3365 388.347C81.6372 381.714 72.8293 378.271 65.9281 372.897C42.3913 354.571 25.943 328.225 22.4435 298.348Q22.2741 296.996 22.1384 295.64Q22.0026 294.284 21.9006 292.924Q21.7986 291.565 21.7304 290.204Q21.6623 288.843 21.6279 287.481Q21.5936 286.118 21.5931 284.755Q21.5926 283.393 21.626 282.03Q21.6594 280.668 21.7267 279.306Q21.7939 277.945 21.895 276.586Q21.9961 275.227 22.1309 273.871Q22.2657 272.515 22.4341 271.162Q22.6026 269.81 22.8046 268.462Q23.0066 267.114 23.2421 265.772Q23.4776 264.43 23.7463 263.093Q24.0151 261.757 24.3169 260.428Q24.6188 259.099 24.9536 257.778Q25.2884 256.457 25.6559 255.145Q26.0235 253.832 26.4235 252.529Q26.8236 251.227 27.2558 249.934Q27.6881 248.642 28.1524 247.36Q28.6167 246.079 29.1127 244.81Q29.6087 243.54 30.136 242.284Q30.6634 241.027 31.2218 239.784Q31.7803 238.54 32.3694 237.311Q32.9586 236.083 33.5781 234.869Q34.1977 233.655 34.8472 232.457Q35.4967 231.258 36.1758 230.077Q36.8548 228.895 37.5631 227.731Q38.2713 226.566 39.0083 225.42Q39.7452 224.274 40.5104 223.146Q41.2757 222.018 42.0687 220.91Q42.8617 219.801 43.682 218.713Q44.5023 217.625 45.3494 216.557Q46.232 215.438 47.142 214.341Q48.0519 213.244 48.9887 212.169Q49.9254 211.095 50.8884 210.044Q51.8513 208.993 52.8399 207.966Q53.8285 206.939 54.8421 205.937Q55.8557 204.935 56.8937 203.958Q57.9317 202.981 58.9935 202.03Q60.0553 201.079 61.1402 200.155Q62.2251 199.231 63.3325 198.333Q64.4398 197.436 65.569 196.566Q66.6982 195.696 67.8485 194.854Q68.9988 194.012 70.1694 193.199Q71.3401 192.386 72.5305 191.602Q73.7209 190.818 74.9303 190.064Q76.1396 189.309 77.3672 188.585Q78.5948 187.861 79.8399 187.167Q81.085 186.473 82.3468 185.81Q83.6087 185.147 84.8864 184.515Q86.1642 183.884 87.4572 183.284Q88.7502 182.684 90.0576 182.116Q91.3649 181.548 92.6859 181.013Q94.0069 180.477 95.3407 179.975Q96.6745 179.472 98.0203 179.002Q99.3661 178.533 100.723 178.096Q102.08 177.66 103.447 177.257Q104.815 176.855 106.191 176.486Q107.568 176.117 108.954 175.782Q110.339 175.447 111.733 175.147Q113.126 174.846 114.526 174.58Q115.926 174.314 117.333 174.083Q118.739 173.851 120.151 173.655Q121.563 173.458 122.979 173.296Q124.389 173.138 125.803 173.016Q127.217 172.893 128.634 172.806Q130.05 172.718 131.469 172.666Q132.887 172.614 134.306 172.597Q135.725 172.581 137.144 172.599Q138.563 172.618 139.982 172.672Q141.4 172.726 142.816 172.815Q144.233 172.904 145.646 173.029Q147.06 173.153 148.47 173.313Q149.881 173.473 151.286 173.667Q152.692 173.862 154.093 174.092Q155.493 174.321 156.888 174.586Q158.282 174.85 159.669 175.15Q161.057 175.449 162.436 175.782Q163.816 176.116 165.186 176.484Q166.557 176.852 167.918 177.254Q169.279 177.655 170.63 178.091Q171.981 178.527 173.32 178.996Q174.66 179.465 175.987 179.968Q177.314 180.47 178.629 181.005Q179.943 181.54 181.244 182.108Q182.544 182.676 183.831 183.276Q185.117 183.876 186.388 184.508Q187.658 185.14 188.913 185.803Q190.168 186.467 191.405 187.161Q192.643 187.856 193.863 188.581Q195.083 189.306 196.285 190.061Q197.487 190.816 198.669 191.601Q199.851 192.386 201.014 193.2Q202.177 194.014 203.318 194.857Q204.46 195.699 205.581 196.57Q206.701 197.441 207.8 198.34Q208.865 199.198 209.908 200.082Q210.951 200.966 211.972 201.875Q212.993 202.785 213.991 203.719Q214.99 204.654 215.965 205.612Q216.939 206.571 217.89 207.554Q218.841 208.536 219.768 209.542Q220.694 210.547 221.596 211.576Q222.497 212.604 223.373 213.654Q224.249 214.704 225.098 215.775Q225.948 216.847 226.771 217.939Q227.594 219.031 228.389 220.143Q229.185 221.255 229.953 222.386Q230.721 223.517 231.461 224.667Q232.201 225.817 232.912 226.985Q233.624 228.152 234.306 229.337Q234.988 230.522 235.641 231.724Q236.294 232.925 236.917 234.142Q237.54 235.359 238.133 236.592Q238.726 237.824 239.288 239.07Q239.85 240.316 240.381 241.576Q240.913 242.836 241.413 244.109Q241.913 245.381 242.382 246.666Q242.85 247.951 243.287 249.246Q243.724 250.542 244.128 251.848Q244.533 253.154 244.905 254.47Q245.277 255.786 245.617 257.11Q245.957 258.434 246.264 259.767Q246.571 261.099 246.845 262.439Q247.119 263.779 247.36 265.125Q247.601 266.471 247.808 267.822Q248.016 269.173 248.19 270.53Q248.364 271.886 248.505 273.246C251.054 298.596 243.86 326.363 229.81 347.592C224.677 355.348 218.386 362.188 212.527 369.383C212.132 388.294 213.687 407.917 213.943 426.924Q214.123 440.671 214.036 454.418C213.977 460.624 213.575 467 214.077 473.178C214.388 477.018 215.023 481.921 217.113 485.21C222.308 493.383 230.688 496.235 239.627 498.287C240.862 478.117 238.174 457.62 238.305 437.412C238.331 433.309 238.052 426.076 241.368 423.173C243.46 421.343 248.14 421.478 250.812 421.404C261.247 421.119 271.836 422.152 282.284 422.403L361.624 424.202C371.191 424.882 380.89 424.535 390.486 424.795L470.251 426.535L679.756 430.811C691.539 430.952 703.332 430.863 715.112 431.126C722.631 431.294 730.156 431.813 737.674 431.875C752.755 432 768.032 431.278 783.085 432.271C785.43 432.426 788.352 432.615 790.174 434.279C791.88 435.838 792.117 441.227 792.341 443.5C794.367 464.06 794.786 485.037 795.931 505.685Q799.037 565.833 802.935 625.934C804.077 643.838 804.384 662.298 806.619 680.075C816.702 680.014 843.562 681.754 851.725 676.815C860.806 671.32 864.137 648.009 866.584 637.911C854.669 626.221 845.225 612.75 841.005 596.406C835.498 575.077 838.251 554.894 849.407 535.929C844.461 510.372 842.696 483.222 843.266 457.202C843.557 443.914 844.758 430.639 845.033 417.35C845.316 403.651 844.888 389.889 844.855 376.182C844.816 360.404 845.126 344.63 844.929 328.852C842.848 328.413 840.733 327.979 838.73 327.251C833.21 325.244 830.962 321.162 828.712 316.111C825.845 315.696 822.854 315.362 820.189 314.171C811.64 310.352 808.874 300.917 805.661 292.901C795.809 291.977 787.419 289.362 778.221 285.884C779.046 291.171 780.823 296.604 781.025 301.946C781.095 303.796 780.899 305.861 779.381 307.146C775.681 310.278 764.23 309.045 759.485 309.059C761.727 324.659 762.6 340.112 766.391 355.536C769.109 356.759 771.767 358.051 773.935 360.144C776.787 362.898 778.211 366.674 778.138 370.617C778.063 374.684 776.245 378.511 773.319 381.318Q772.811 381.81 772.253 382.246Q771.696 382.682 771.097 383.058Q770.497 383.433 769.862 383.744Q769.227 384.055 768.562 384.299Q767.898 384.542 767.212 384.714Q766.526 384.886 765.825 384.986Q765.125 385.086 764.418 385.112Q763.711 385.139 763.005 385.091C758.7 384.797 754.682 382.458 752.025 379.099C749.63 376.07 748.437 372.25 749.052 368.406C750.118 361.748 756.044 358.875 761.078 355.416C760.573 346.467 758.247 338.069 756.884 329.27C755.857 322.637 755.816 315.895 755.614 309.197C742.889 308.882 730.109 310.031 717.394 310.533C716.561 320.077 716.972 329.833 717.047 339.411C717.083 343.957 717.402 348.763 716.703 353.266C716.202 356.499 715.149 359.721 713.194 362.38C708.054 369.37 700.51 374.861 694.659 381.34C695.901 383.813 696.893 386.388 697.177 389.162C697.571 393.019 696.652 396.791 694.155 399.807Q693.672 400.386 693.135 400.915Q692.598 401.444 692.012 401.918Q691.426 402.392 690.797 402.807Q690.167 403.221 689.5 403.573Q688.833 403.924 688.135 404.209Q687.437 404.493 686.715 404.708Q685.992 404.924 685.253 405.067Q684.513 405.211 683.762 405.282C679.952 405.623 676.072 404.23 673.267 401.645C669.96 398.597 668.479 394.265 668.506 389.834C668.529 385.934 670.047 382.355 672.913 379.697C678.437 374.573 682.716 377.247 689.116 377.408C692.137 377.484 708.796 358.946 711.569 356.129C713.161 342.14 711.85 325.445 712.476 310.935C705.19 310.926 697.807 311.251 690.543 311.799C686.185 312.129 681.534 312.991 677.189 312.764C675.576 312.68 673.963 312.244 672.713 311.18C667.423 306.681 668.938 285.327 668.48 278.094Q656.248 277.461 644.071 276.138C642.312 277.125 640.624 278.261 638.92 279.341C640.052 286.295 640.726 295.189 639.079 302.063C635.695 316.182 619.01 322.335 607.928 329.309C608.282 333.659 608.777 338.252 606.626 342.242C604.679 345.85 601.153 348.568 597.239 349.729C593.373 350.876 589.294 350.051 585.804 348.12C582.319 346.19 579.962 343.041 578.988 339.188Q578.799 338.432 578.688 337.662Q578.578 336.891 578.548 336.112Q578.517 335.334 578.567 334.557Q578.617 333.78 578.746 333.012Q578.875 332.244 579.083 331.493Q579.291 330.743 579.575 330.017Q579.859 329.292 580.216 328.6Q580.573 327.908 580.999 327.256Q581.399 326.647 581.858 326.08Q582.316 325.514 582.829 324.996Q583.342 324.478 583.904 324.013Q584.466 323.549 585.071 323.143Q585.677 322.737 586.319 322.393Q586.962 322.05 587.636 321.772Q588.31 321.494 589.008 321.285Q589.706 321.076 590.422 320.937C595.708 319.91 599.885 321.9 604.161 324.71C613.336 320.235 625.914 315.035 631.733 306.312C636.799 298.717 635.059 288.946 633.524 280.539C631.729 279.905 629.832 279.302 628.157 278.392C624.935 276.644 621.746 273.732 620.792 270.079C619.929 266.772 620.637 263.029 622.391 260.127C624.41 256.789 627.782 254.545 631.588 253.781C634.842 253.128 638.537 253.541 641.252 255.563C645.959 259.069 646.102 265.341 646.768 270.637C654.05 272.262 661.281 272.036 668.612 272.996C667.117 260.767 667.393 247.845 666.802 235.511C655.99 230.918 647.523 225.948 640.435 216.379C637.108 211.886 633.973 207.58 629.386 204.272C621.956 198.915 612.71 196.337 603.973 193.992C602.023 197.759 600.058 200.957 596.242 203.142C592.859 205.079 588.849 205.373 585.163 204.171C580.997 202.813 577.288 199.761 575.349 195.808Q575.032 195.157 574.783 194.477Q574.533 193.798 574.353 193.097Q574.173 192.395 574.065 191.68Q573.957 190.964 573.921 190.241Q573.885 189.518 573.923 188.795Q573.96 188.072 574.07 187.356Q574.18 186.641 574.362 185.94Q574.544 185.239 574.795 184.56C576.203 180.745 579.583 177.422 583.326 175.862C587.095 174.29 592.038 174.763 595.688 176.456C600.942 178.893 602.375 184.035 604.116 189.08C617.461 191.579 630.531 196.568 639.558 207.077C643.556 211.731 647.161 216.684 651.926 220.609C656.225 224.151 661.125 226.53 666.077 228.994C665.563 221.724 663.359 212.56 665.369 205.554C669.869 201.292 700.293 201.653 707.924 201.521C708.052 188.588 708.403 166.59 699.91 156.159C694.484 149.496 688.22 144.017 682.595 136.778C678.791 135.503 674.657 134.228 671.908 131.133C669.174 128.055 668.148 123.127 668.605 119.119C669.048 115.228 671.038 111.843 674.172 109.503Q674.8 109.032 675.474 108.628Q676.147 108.224 676.858 107.891Q677.569 107.558 678.311 107.299Q679.052 107.041 679.817 106.859Q680.581 106.678 681.359 106.576Q682.138 106.474 682.923 106.452Q683.708 106.43 684.491 106.489Q685.274 106.548 686.047 106.686C689.823 107.351 693.348 109.468 695.492 112.675C698.041 116.489 698.408 121.348 697.456 125.75C696.48 130.265 691.824 133.416 688.221 135.812C693.073 141.653 699.055 146.463 703.81 152.341C713.863 164.768 712.201 186.002 712.747 201.156C725.461 200.769 738.152 199.869 750.863 199.481C750.332 183.579 751.791 167.648 750.754 151.736C747.25 150.442 743.56 148.807 741.262 145.727C738.845 142.487 738.349 137.936 738.9 134.03C739.39 130.559 741.007 127.423 743.878 125.338C747.096 123 751.321 122.359 755.189 122.993C759.306 123.668 763.164 125.919 765.459 129.449C767.575 132.702 767.875 136.44 766.952 140.146C765.526 145.877 760.939 148.798 756.132 151.554C756.06 167.492 756.253 183.46 755.788 199.391C761.197 198.774 770.401 196.782 775.249 199.251C778.374 209.485 776.939 230.416 777.103 241.621C777.295 254.663 777.812 267.828 778.548 280.852C786.864 283.56 795.137 285.892 803.71 287.637C800.367 281.379 795.167 277.187 789.865 272.662C788.378 271.394 786.476 270.017 785.371 268.402C784.654 267.354 784.431 266.432 784.723 265.181C785.836 260.414 801.361 252.494 805.984 249.788C807.845 246.095 809.78 242.643 813.15 240.075C817.429 236.816 821.301 237.102 826.275 237.883C824.013 234.36 822.161 230.684 820.375 226.903C817.942 225.472 815.316 224.272 813.144 222.446C809.605 219.471 806.897 215.572 806.656 210.832C806.387 205.563 809.104 201.788 812.524 198.154C812.127 191.868 811.799 185.591 812.022 179.289C812.861 155.561 823.25 134.378 840.468 118.339C835.693 111.929 829.741 106.621 823.529 101.66ZM901.973 95.6887C896.645 96.465 891.26 97.1117 885.973 98.1223C886.332 101.063 886.724 103.903 887.43 106.785L893.693 110.126C895.63 111.105 897.556 112.162 899.526 113.065L904.138 106.991C904.204 102.429 905.145 99.3437 907.339 95.3961L901.973 95.6887ZM927.783 97.9338C922.721 108.276 912.743 111.682 905.402 119.905L907.619 143.55C915.819 140.9 950.155 127.836 956.065 129.136C957.451 130.849 958.258 132.869 958.999 134.927C963.147 146.46 965.966 158.76 969.61 170.5C972.635 180.247 990.675 231.054 990.38 237.407C989.456 238.804 988.319 239.392 986.825 240.058C981.589 242.39 975.688 243.757 970.215 245.454L945.473 253.272C943.251 253.951 937.06 255.053 935.606 256.559C934.744 257.452 935.096 258.556 935.229 259.629C936.083 265.511 937.291 271.33 938.444 277.158C963.611 270.086 985.379 255.797 998.417 232.659C1010 212.098 1013.79 187.36 1007.3 164.509C1000.87 141.863 984.083 121.538 963.494 110.211C952.851 104.355 940.119 98.5268 927.783 97.9338ZM865.602 106.45C859.308 109.526 853.02 112.738 847.52 117.129C851.593 120.956 855.444 124.988 859.318 129.014C867.5 128.252 875.778 128.153 883.99 127.862L899.508 127.431L898.433 119.32C893.793 117.118 888.977 114.769 884.745 111.854C881.832 113.437 877.012 116.114 873.624 115.031C870.572 114.056 867.832 109.267 866.069 106.66L865.602 106.45ZM842.826 121.332C826.926 134.89 819.922 152.072 816.162 172.216L826.625 171.811Q834.629 171.454 842.64 171.525C845.236 167.002 848.11 165.125 852.915 163.282C852.869 152.513 853.115 141.261 852.119 130.549C850.192 127.896 846.106 121.993 842.826 121.332ZM889.322 132.773C878.749 133.396 868.05 134.1 857.457 134.046Q858.063 149.347 858.922 164.635C861.433 167.421 863.702 169.656 863.532 173.695C863.454 175.547 863.027 177.284 862.503 179.052C867.027 185.991 871.905 193.379 875.269 200.949L875.854 201.338C875.939 200.72 876.061 200.094 876.069 199.47Q873.254 190.037 869.823 180.81C868.132 176.133 865.939 171.226 865.127 166.309C864.818 164.439 864.799 162.457 865.695 160.736C868.722 154.92 894.452 147.91 901.073 145.693C900.923 141.308 900.759 136.855 899.694 132.579C896.22 132.535 892.79 132.548 889.322 132.773ZM949.468 138.74C937.452 142.556 925.354 146.186 913.42 150.246C900.183 154.749 887.09 159.706 873.802 164.049Q883.525 198.606 894.199 232.881C896.711 240.712 898.856 249.937 902.52 257.214C903.765 257.691 903.881 257.456 905.118 257.137C930.833 250.358 955.419 240.117 981.007 233.18C976.517 218.357 954.772 145.183 949.468 138.74ZM134.537 177.219C128.872 177.507 123.558 177.991 118.04 179.308C123.454 191.218 127.771 203.841 131.952 216.238C140.019 213.036 159.847 203.857 167.567 205.021C174.005 209.973 186.147 254.231 192.535 265.551C198.203 268.693 204.457 271.174 210.691 272.94C206.971 262.459 202.012 249.452 194.933 240.853C189.64 238.856 184.804 237.589 182.296 231.938C180.826 228.625 180.902 224.876 182.285 221.548Q182.581 220.836 182.949 220.158Q183.317 219.48 183.754 218.845Q184.191 218.209 184.692 217.623Q185.193 217.036 185.753 216.505Q186.312 215.974 186.924 215.504Q187.535 215.034 188.192 214.631Q188.85 214.227 189.546 213.894Q190.241 213.561 190.968 213.303C195.152 211.818 199.048 212.392 203.159 213.803C206.721 216.408 209.553 219.29 210.337 223.805C211.014 227.707 209.836 231.599 207.575 234.791C206.129 236.831 204.16 238.463 202.186 239.967C206.426 247.621 210.56 255.361 213.961 263.432C215.606 267.333 216.735 271.415 218.339 275.314C222.786 277.737 227.435 279.486 232.263 280.99C236.27 277.225 239.494 274.652 244.904 273.128C239.707 242.183 225.74 216.141 199.754 197.753C181.163 184.599 157.573 175.839 134.537 177.219ZM825.504 177.282L815.539 177.771C815.549 183.87 815.579 190.117 816.745 196.121C821.333 194.717 826.108 194.142 830.475 196.619C834.538 198.923 836.926 203.228 837.989 207.651Q838.556 209.915 838.875 212.227C843.461 213.981 849.582 217.067 854.485 216.987L855.493 216.11C859.344 209.914 863.085 203.086 867.94 197.621C864.881 192.763 861.717 188.108 858.341 183.463C854.546 184.458 850.684 184.939 847.148 182.863C844.68 181.414 843.331 179.276 841.701 177.025C836.38 176.839 830.809 176.688 825.504 177.282ZM110.267 180.55C81.0309 188.478 55.5163 205.604 40.1948 232.31Q39.5474 233.423 38.928 234.552Q38.3085 235.682 37.7174 236.826Q37.1264 237.97 36.564 239.129Q36.0016 240.287 35.4683 241.459Q34.9351 242.632 34.4312 243.817Q33.9273 245.002 33.4531 246.199Q32.979 247.397 32.5348 248.606Q32.0906 249.815 31.6768 251.034Q31.2629 252.254 30.8796 253.483Q30.4963 254.713 30.1437 255.951Q29.7912 257.19 29.4696 258.437Q29.1481 259.684 28.8578 260.939Q28.5674 262.194 28.3085 263.455Q28.0495 264.717 27.8221 265.984Q27.5947 267.252 27.399 268.525Q27.2033 269.798 27.0394 271.075Q26.8755 272.353 26.7435 273.634Q26.6115 274.915 26.5115 276.199Q26.4115 277.483 26.3435 278.769Q26.2756 280.055 26.2397 281.342Q26.2039 282.63 26.2001 283.917Q26.1964 285.205 26.2248 286.493Q26.2532 287.78 26.3137 289.067Q26.3742 290.353 26.4667 291.638Q26.5593 292.922 26.6839 294.204Q26.8084 295.486 26.9649 296.764Q27.1214 298.043 27.3098 299.317Q27.4981 300.591 27.7181 301.86Q27.9382 303.129 28.1898 304.392Q28.4414 305.655 28.7245 306.911Q29.0075 308.167 29.3218 309.416Q29.6361 310.665 29.9815 311.906C37.5724 339.548 55.281 361.347 79.4218 376.366C78.7213 374.711 77.989 373.064 77.4025 371.365Q65.3905 340.542 53.9632 309.499C50.1403 299.079 44.8777 287.109 43.0546 276.269C53.7208 268.88 70.8939 266.353 83.0505 261.091C79.9975 253.6 77.0534 246.396 75.339 238.456C87.0315 231.778 100.227 227.514 112.897 223.078C117.362 221.514 122.019 220.136 126.327 218.201C123.792 210.975 115.329 185.047 111.6 180.547L110.267 180.55ZM869.84 203.774C865.64 209.55 862.546 216.38 858.987 222.586C858.997 228.631 861.876 243.502 857.874 247.658C854.28 251.39 846.915 252.61 841.994 253.953C849.469 260.046 857.765 267.002 867.11 269.894Q881.193 266.394 895.052 262.092C889.192 243.969 885.594 224.722 874.171 209.118C872.907 207.393 871.559 205.037 869.84 203.774ZM760.255 207.265C731.255 208.832 702.229 209.467 673.235 211.203L674.286 233.061C679.803 236.108 685.757 238.666 691.939 239.994C694.274 236.891 697.183 233.701 701.258 233.121C703.249 232.838 705.13 233.427 706.66 234.721C708.956 236.662 710.176 239.808 710.35 242.755C710.502 245.345 709.876 248.269 708.096 250.24C706.788 251.688 704.92 252.423 702.991 252.466C699.948 252.534 697.328 251.623 695.229 249.382C693.94 248.007 693.157 246.278 692.34 244.601C686.145 243.487 680.885 241.6 675.108 239.195C674.597 247.354 675.589 255.824 675.956 263.998L677.571 303.626L685.25 303.377L737.818 301.045C748.653 300.498 759.693 299.465 770.531 299.491C771.6 293.515 770.79 287.035 770.427 280.995C764.323 278.533 758.291 276.16 751.884 274.578C749.326 277.271 746.934 279.415 743.024 279.483C740.267 279.53 737.655 278.375 735.73 276.419C733.859 274.519 732.632 271.825 732.715 269.133Q732.728 268.714 732.784 268.298Q732.841 267.882 732.94 267.474Q733.04 267.067 733.183 266.672Q733.325 266.277 733.508 265.9Q733.69 265.522 733.912 265.165Q734.133 264.809 734.391 264.478Q734.649 264.147 734.94 263.844Q735.231 263.542 735.552 263.272C737.819 261.328 741.105 259.996 744.117 260.269C746.799 260.511 749.153 262.006 750.797 264.101C752.129 265.797 752.708 267.744 753.213 269.805C758.85 271.418 764.393 273.338 770.019 274.955C769.168 252.362 769.624 229.671 768.417 207.118L760.255 207.265ZM161.45 214.502L110.371 232.995C102.069 235.966 93.397 238.481 85.2402 241.791Q87.866 249.988 90.728 258.106C109.424 251.804 128.432 242.931 147.799 239.126C151.327 245.465 153.376 252.338 155.658 259.192C161.852 277.046 167.416 295.248 174.666 312.703C182.17 310.328 189.513 307.091 196.768 304.043C192.781 292.871 165.817 216.266 162.059 214.464L161.45 214.502ZM836.539 218.309C832.993 222.265 829.403 224.449 824.337 226.067C827.735 233.236 832.181 240.086 836.228 246.914C837.998 246.715 839.776 246.477 841.553 246.361C845.792 245.535 849.985 244.645 854.169 243.577C853.848 236.699 853.427 229.652 852.476 222.833C847.368 221.187 841.875 218.989 836.539 218.309ZM141.288 248.551C119.818 255.106 98.9665 262.697 77.882 270.394C69.5826 273.423 61.0174 276.059 52.8112 279.301C64.3188 313.813 78.1755 347.471 89.9251 381.888Q121.4 371.557 152.401 359.881C160.564 356.764 168.918 353.754 176.879 350.167Q165.481 314.008 152.989 278.213C150.515 271.009 148.061 263.909 145.412 256.777C144.421 254.111 143.91 251.445 142.607 248.881C142.143 248.707 141.79 248.499 141.288 248.551ZM836.198 253.781C834.584 259.111 832.858 263.537 827.563 266.262Q826.927 266.584 826.262 266.84Q825.598 267.096 824.91 267.284Q824.223 267.472 823.521 267.59Q822.818 267.708 822.107 267.756Q821.396 267.803 820.684 267.778Q819.972 267.754 819.266 267.658Q818.56 267.562 817.867 267.396Q817.175 267.23 816.502 266.995C811.521 265.219 808.882 261.232 806.879 256.59Q806.66 256.079 806.45 255.564C801.087 258.919 794.6 261.949 789.799 266.003C799.177 274.409 805.42 277.675 810.421 289.75C812.849 296.438 815.61 306.377 822.724 309.538C824.509 310.332 826.464 310.856 828.334 311.418C829.739 307.903 831.596 302.482 835.288 300.816C838.577 299.332 843.197 300.305 844.881 296.155C847.662 289.304 847.111 271.045 846.881 263.096C843.534 259.75 840.204 256.348 836.198 253.781ZM927.552 259.1C910.097 263.552 892.809 268.869 875.561 274.065C878.537 275.133 881.502 276.225 884.527 277.144C900.304 280.584 915.84 281.819 931.736 278.293C931.104 274.796 929.585 261.046 927.552 259.1ZM852.699 267.256C851.965 278.396 851.447 289.538 850.614 300.673C854.399 304.052 857.777 307.971 858.063 313.293C858.27 317.139 856.612 321.032 853.975 323.791Q852.556 325.253 851.07 326.645L851.057 385.042C851.127 394.715 851.79 404.412 851.65 414.08C851.416 430.165 850.155 446.23 849.992 462.318Q849.902 483.977 852.167 505.518C852.896 513.013 853.535 520.767 855.021 528.152C860.679 521.362 866.744 514.938 873.797 509.573C881.51 503.855 889.431 499.998 898.73 497.588C899.946 484.875 900.874 472.161 900.876 459.381C900.881 434.258 898.66 409.142 898.056 384.034Q897.076 349.156 896.809 314.265C896.788 304.207 897.699 294.111 897.444 284.066C879.753 279.96 868.65 275.969 852.699 267.256ZM964.162 272.471C944.538 281.258 925.03 285.261 903.54 284.422C902.145 303.352 902.688 322.148 903.061 341.098Q903.48 371.412 904.95 401.693C906.669 433.132 909.668 465.315 904.914 496.634C910.708 495.926 916.827 495.443 922.668 495.681C940.998 497.415 952.717 502.477 968.98 510.575Q968.995 488.532 969.52 466.494C970.016 451.567 971.008 436.539 970.75 421.604C970.314 396.348 967.488 371.188 967.079 345.908C966.851 331.766 968.315 283.005 964.688 272.664L964.162 272.471ZM194.804 273.297Q197.755 281.56 200.987 289.716C202.734 294.021 205.158 298.605 206.188 303.114C206.58 304.832 206.645 306.752 205.814 308.358C202.703 314.367 183.034 318.985 176.531 321.34C180.5 331.447 184.801 341.671 187.619 352.178L185.282 355.83C188.262 362.878 191.754 369.585 195.451 376.279C205.778 369.047 214.132 361.762 221.926 351.75C225.114 347.313 228.794 342.675 231.126 337.732C226.419 334.001 211.802 323.489 211.097 317.308C210.979 316.272 211.232 316.153 211.888 315.447C214.589 314.778 216.789 315.705 219.121 317.077C224.021 319.96 230.526 326.969 234.249 331.373C237.428 323.913 240.46 316.44 241.945 308.425C236.323 304.847 230.142 301.325 228.527 294.305C227.887 291.523 228.177 289.139 228.651 286.381C218.021 282.412 207.623 277.71 196.831 274.198C196.056 273.946 195.49 273.721 194.804 273.297ZM177.941 358.003C168.045 362.152 158.101 366.226 147.91 369.604C149.647 376.697 151.067 384.127 153.425 391.029C155.405 391.936 157.778 391.127 159.816 390.605C170.113 388.274 179.859 384.521 189.309 379.846C187.029 374.398 182.569 362.001 178.801 358.093L177.941 358.003ZM138.765 373.486C127.474 377.347 115.973 380.993 105.615 387.037C109.667 388.368 113.75 389.351 117.9 390.311C127.582 391.589 136.979 392.691 146.773 392.273C145.158 386.549 143.829 378.522 140.322 373.671C139.754 373.54 139.349 373.407 138.765 373.486ZM204.376 375.398C186.191 386.36 166.382 396.08 144.773 397.215C148.733 423.526 147.369 450.91 148.351 477.445L151.18 549.99C151.826 564.541 152.895 579.16 153.106 593.717Q153.261 606.716 152.889 619.711C152.528 629.874 150.728 641.8 153.125 651.773C154.979 659.487 160.629 665.475 166.826 670.086C173.41 674.986 181.019 678.508 188.739 681.21C207.784 684.87 224.715 682.376 243.729 681.785C243.077 665.034 243.21 648.293 242.829 631.541L239.909 504.752C229.126 502.769 218.785 499.65 212.107 490.278C209.241 486.256 207.7 481.675 207.077 476.816C205.629 465.514 207.103 452.297 207.134 440.783C207.183 422.284 206.421 403.912 206.1 385.436C206.067 383.506 206.538 375.883 204.376 375.398ZM251.472 432.055C250.82 441.544 251.713 450.905 251.921 460.387L252.974 516.442Q253.597 576.389 255.269 636.317Q257.612 700.386 258.122 764.495Q319.044 763.733 379.949 762.109L693.959 755.89C725.335 755.383 756.757 753.984 788.134 753.996C791.581 753.795 795.077 753.466 798.528 753.524C797.425 742.259 797.119 730.868 796.567 719.563Q795.518 698.563 794.236 677.576L786.105 533.892L783.568 484.007C782.976 470.348 782.971 456.237 781.016 442.695C766.867 442.773 752.729 442.315 738.584 442.121L627.499 440.167L427.957 436.756L308.985 433.673C289.802 433.157 270.664 432.227 251.472 432.055ZM919.545 501.736C910.13 502.142 900.849 502.57 891.551 504.218C894.051 505.701 895.456 507.269 897.229 509.516L897.884 509.754C897.521 507.838 897.193 506.668 895.512 505.476L895.815 504.537C897.113 504.304 898.057 504.638 899.151 505.332C900.385 506.115 901.441 507.269 901.853 508.696C902.192 509.87 901.861 511.149 901.177 512.134C899.393 514.705 895.769 517.289 892.648 517.809C891.026 518.079 889.29 517.827 887.977 516.78C886.411 515.532 885.698 513.573 885.62 511.625C885.542 509.658 886.014 507.909 886.57 506.042C880.471 509.755 874.871 513.738 869.675 518.654C868.482 519.898 867.234 521.118 866.119 522.431C870.294 528.685 875.03 534.794 882.91 536.257C890.158 537.602 898.163 535.095 905.111 533.236C906.511 529.164 908.031 522.094 912.032 519.921C915.907 517.817 922.772 520.102 926.909 520.942C925.718 517.043 922.91 504.696 920.888 502.007L919.545 501.736ZM925.678 501.918C927.211 508.478 929.192 514.908 931.256 521.319C935.883 521.985 947.507 522.55 950.119 526.215C950.622 526.92 950.841 527.491 950.894 528.364C950.147 529.396 949.658 529.667 948.382 529.892C941.683 531.076 922.645 525.639 915.342 523.784C908.163 535.512 905.864 551.598 905.936 565.19C908.769 566.876 911.606 568.488 914.538 569.995L915.94 559.959C916.659 554.306 917.156 548.476 918.252 542.886C931.875 544.493 945.227 547.829 958.705 550.314C960.957 538.392 963.051 526.448 965.796 514.627Q959.623 510.836 952.948 508.021C951.762 510.254 950.689 511.889 948.155 512.644C946.319 513.19 943.998 512.701 942.468 511.553C941.017 510.465 940.686 508.552 940.606 506.856C940.571 506.117 940.61 505.381 940.642 504.643C936.088 502.463 930.642 502.378 925.678 501.918ZM969.397 516.477C967.551 528.174 965.458 539.675 962.916 551.243C970.398 552.632 980.242 553.384 986.961 556.823C987.16 564.791 985.959 572.961 984.954 580.851C982.905 596.921 980.35 612.911 976.255 628.596C966.729 626.512 957.056 625.264 947.521 623.058C947.504 633.066 947.001 641.583 943.092 650.959L943.486 651.443C963.998 645.585 979.646 634.268 990.115 615.385C1000.48 596.682 1002.38 574.94 996.331 554.524Q995.905 553.104 995.422 551.702Q994.939 550.3 994.4 548.918Q993.86 547.537 993.265 546.179Q992.669 544.821 992.02 543.488Q991.37 542.155 990.666 540.849Q989.963 539.544 989.207 538.268Q988.452 536.992 987.645 535.748Q986.838 534.504 985.981 533.294Q985.124 532.084 984.219 530.909Q983.314 529.735 982.362 528.598Q981.409 527.461 980.412 526.364Q979.414 525.267 978.373 524.211Q977.332 523.155 976.249 522.142Q975.165 521.129 974.042 520.161Q972.919 519.194 971.757 518.272Q970.595 517.351 969.397 516.477ZM862.836 525.774C849.477 540.052 841.707 557.355 842.309 577.187C842.416 580.685 842.823 584.151 843.249 587.622C848.912 578.862 856.872 561.459 868.084 559.387C869.973 559.038 871.934 559.267 873.543 560.378C875.13 561.474 876.067 563.238 876.306 565.127C876.536 566.934 876.105 568.762 874.778 570.084C873.454 571.402 871.466 571.851 869.648 571.724C867.161 571.55 864.435 570.133 862.204 569.059C858.631 572.664 855.611 576.428 852.896 580.716C850.918 583.783 849.038 587.094 846.809 589.975C856.531 592.983 868.832 597.844 878.62 592.828C888.137 587.951 897.706 575.639 900.618 565.404C903.029 556.93 901.847 547.552 903.496 538.837C893.888 540.777 882.705 543.85 873.798 537.999C868.593 534.58 866.179 527.93 862.836 525.774ZM923.665 550.01Q920.954 567.248 918.627 584.543C917.369 593.259 915.727 602.116 915.409 610.919C934.149 614.686 952.987 617.778 971.754 621.367Q975.135 603.615 977.83 585.745C979.061 577.76 980.583 569.367 980.652 561.278C966.988 558.237 953.141 556.264 939.422 553.533C934.219 552.497 928.724 551.612 923.665 550.01ZM903.577 570.149C898.389 580.676 889.535 593.971 877.837 597.979C867.718 601.447 854.529 597.161 844.689 594.155C848.935 609.833 857.032 624.089 869.72 634.416C874.527 638.228 879.739 641.742 885.278 644.414C897.783 630.779 911.271 641.551 917.721 617.355C914.722 617.07 911.421 617.259 909.314 614.793C907.808 607.841 912.465 582.89 913.709 574.133C910.482 572.789 906.96 570.94 903.577 570.149ZM921.327 618.384C920.014 625.337 918.795 631.442 912.524 635.702C905.488 640.483 896.585 641.571 889.44 646.396C896.496 650.767 905.621 652.807 913.75 653.984C920.532 654.82 931.066 656.288 936.84 651.791C941.487 648.172 942.716 640.745 943.212 635.197Q943.481 631.999 943.394 628.791Q943.307 625.583 942.865 622.405C935.901 620.999 928.389 618.836 921.327 618.384ZM547.602 770.764C537.073 771.222 526.512 770.912 515.975 771.115C508.048 771.268 500.123 772.012 492.201 772.074C484.091 784.463 475.017 797.299 468.451 810.557C477.578 810.503 486.764 810.062 495.875 809.52L576.213 806.416C569.695 794.11 561.592 782.71 554.791 770.572L547.602 770.764ZM573.295 815.218C562.282 815.901 551.272 816.038 540.251 816.431C524.972 816.976 509.71 817.81 494.422 818.177C482.497 818.462 469.013 816.435 457.438 819.343C450.381 821.117 443.791 826.122 438.579 831.026C450.866 830.714 463.465 830.652 475.698 829.503C502.488 829.469 529.468 827.581 556.252 826.629L590.662 825.61C598.199 825.442 605.631 825.512 613.155 824.862C595.514 815.892 593.057 814.411 573.295 815.218Z"/>
	<path d="M932.615 216.456Q931.403 216.344 930.2 216.159C925.965 215.471 921.547 212.806 919.148 209.217C916.818 205.732 916.142 201.265 917.162 197.213C920.643 183.38 931.188 188.482 938.702 184.048C942.285 181.933 947.839 179.482 948.877 175.121C949.357 173.101 949.547 172.762 951.238 171.487C952.771 171.515 954.267 171.262 955.61 172.03C955.898 173.532 956.149 174.713 957.051 175.98C957.626 176.787 957.933 177.248 958.1 178.262C956.633 179.674 953.092 179.094 951.02 180.061C947.377 181.761 943.911 185.18 940.795 187.724C941.238 188.04 941.684 188.352 942.115 188.684C945.769 191.495 948.645 195.272 949.156 199.985C949.575 203.843 948.354 207.599 945.86 210.555C942.36 214.703 937.782 215.979 932.615 216.456Z"/>
	<path d="M129.525 237.713C128.544 237.995 127.193 238.427 126.166 238.31C124.821 238.157 124.661 237.987 123.951 236.957C123.994 236.475 123.994 236.101 124.209 235.635C126.791 230.044 142.305 226.789 148.072 225.058C148.928 224.924 149.905 224.715 150.77 224.772C151.926 224.849 152.55 225.395 153.256 226.222L152.928 227.308C147.724 232.606 136.42 235.256 129.525 237.713Z"/>
	<path d="M107.196 330.453C102.818 330.2 98.8117 329.566 95.1128 327.036Q94.4881 326.613 93.9089 326.129Q93.3297 325.645 92.8017 325.106Q92.2737 324.567 91.8022 323.977Q91.3307 323.388 90.9205 322.755Q90.5103 322.121 90.1654 321.45Q89.8206 320.779 89.5445 320.076Q89.2685 319.374 89.064 318.648Q88.8595 317.921 88.7286 317.178Q88.6425 316.693 88.5813 316.205Q88.5201 315.716 88.4841 315.225Q88.448 314.734 88.4372 314.242Q88.4264 313.75 88.4408 313.257Q88.4553 312.765 88.4949 312.274Q88.5345 311.784 88.5993 311.296Q88.664 310.808 88.7537 310.323Q88.8434 309.839 88.9578 309.36Q89.0722 308.881 89.211 308.409Q89.3497 307.937 89.5126 307.472Q89.6754 307.007 89.8618 306.552Q90.0482 306.096 90.2578 305.65Q90.4673 305.205 90.6994 304.771Q90.9315 304.336 91.1856 303.915Q91.4397 303.493 91.715 303.085Q91.9904 302.677 92.2863 302.283C96.2895 297.014 101.932 294.982 108.262 294.174C111.785 294.215 115.648 295.037 118.653 296.935C122.134 299.134 124.319 302.62 125.201 306.6C126.336 311.718 125.121 316.981 122.213 321.305C118.523 326.794 113.525 329.29 107.196 330.453Z"/>
	<path d="M272.748 749.205C270.086 738.613 271.298 725.66 271.105 714.751L269.963 661.25L266.822 522.946C266.32 499.509 265.362 475.976 265.487 452.539C265.499 450.234 265.467 448.18 266.397 446.02C275.365 445.811 284.295 446.46 293.251 446.757C302.436 447.062 311.638 447.151 320.827 447.389L423.708 449.739C442.644 450.14 461.586 449.739 480.518 450.195C487.731 450.369 495.839 449.978 502.86 451.541C503.76 452.489 504.187 453.255 504.503 454.504C505.461 458.293 506.34 482.275 505.982 486.622C505.826 488.516 505.486 489.849 504.492 491.464C501.667 492.679 497.258 492.412 494.206 492.441C477.159 492.598 460.027 491.439 442.975 491.121L323.114 489.135C306.229 488.843 289.319 487.979 272.438 487.945C272.8 529.838 275.142 571.749 275.882 613.647L277.909 704.326C278.187 717.37 277.662 730.482 278.421 743.506C293.38 743.571 308.401 743.036 323.361 742.74L403.773 741.116L576.461 738.955Q597.439 738.727 618.411 738.198C626.81 737.977 635.28 737.464 643.674 737.741C643.169 724.889 643.315 711.987 642.995 699.125L639.96 577.892L638.56 529.601C638.405 524.342 637.08 517.455 638.239 512.405C638.628 510.712 639.15 509.335 640.671 508.43L641.481 509.111C644.362 516.85 643.826 544.888 644.104 554.782L646.331 649.875L647.168 691.359C647.604 706.774 648.316 722.169 648.329 737.598C692.54 736.43 736.796 737.145 781.002 735.585C779.811 727.672 780.273 718.886 779.806 710.845Q777.875 680.087 776.301 649.309L772.015 570.297C771.01 553.897 769.313 537.352 768.999 520.933C768.937 517.723 768.793 514.239 770.643 511.459L771.401 511.576C772.644 513.476 773.194 515.535 773.636 517.748C774.949 524.326 774.553 531.897 774.94 538.633L777.681 585.495L783.67 696.379C784.273 708.274 785.48 720.168 785.851 732.067C785.936 734.81 786.437 737.928 784.876 740.261C779.493 743.13 713.857 742.072 702.533 742.393L384.268 748.212C366.384 748.495 348.383 748.72 330.516 749.343C315.099 749.881 287.031 751.91 272.748 749.205ZM271.528 451.114C271.625 461.868 272.089 472.615 272.139 483.366C328.346 483.766 384.5 485.971 440.692 486.961C460.864 487.317 481.154 488.516 501.32 487.968C500.938 477.371 501.563 465.937 499.874 455.497C489.836 454.81 479.684 455.125 469.623 454.948Q443.015 454.248 416.398 454.023L317.141 452.068C301.942 451.699 286.719 451.708 271.528 451.114Z"/>
	<path d="M640.818 493.534C627.954 495.17 611.521 493.363 598.171 493.216C583.965 493.059 569.727 493.224 555.516 493.192C544.991 493.168 532.678 494.26 522.544 491.366C519.321 487.141 519.823 458.381 519.971 452.167C533.126 452.654 546.449 452.371 559.628 452.529Q599.502 453.004 639.325 455.073C641.496 466.204 641.616 482.159 640.818 493.534ZM524.501 456.861C524.518 464.136 523.505 480.75 526.287 486.7C528.191 488.024 532.185 488.162 534.502 488.305C549.95 489.259 565.734 488.412 581.225 488.52C599.51 488.647 617.779 489.585 636.074 489.492C635.986 479.295 634.916 469.101 635.088 458.913C623.93 457.968 612.518 458.041 601.319 457.868L549.749 457.085C541.349 456.984 532.891 457.175 524.501 456.861Z"/>
	<path d="M657.912 494.493C656.287 481.827 654.481 468.232 655.784 455.492C682.827 455.532 709.977 455.523 737.003 456.272C747.732 456.569 758.644 456.395 769.332 457.343C770.892 463.497 773.006 488.577 770.877 494.518Q736.489 495.11 702.099 494.577C687.844 494.392 672.028 493.044 657.912 494.493ZM660.38 459.51C660.373 469.679 660.867 479.772 661.167 489.929C696.208 490.37 731.326 491.142 766.363 490.481C767.123 481.104 766.094 470.573 765.087 461.208C754.027 460.438 743.067 460.691 731.999 460.48Q696.194 459.631 660.38 459.51Z"/>
	<path d="M288.82 731.243C288.364 729.955 288.047 728.657 287.812 727.31C286.216 718.195 287.2 707.777 287.026 698.503L285.971 635.251L283.924 533.616C283.796 524.215 282.939 514.77 283.093 505.376C283.148 502.062 282.97 498.424 284.965 495.643C302.22 496.123 319.564 495.376 336.843 495.69L492.931 499.042C496.011 499.095 503.894 498.819 505.836 500.832C507.258 514.179 506.786 527.417 507.156 540.799L509.066 600.834L511.412 672.476C511.992 689.321 512.788 706.416 512.468 723.258C512.436 724.925 512.212 725.988 511.336 727.402C510.174 728.356 509.56 728.33 508.124 728.398L348.493 731.007L312.546 731.603C304.692 731.736 296.62 732.268 288.82 731.243ZM289.287 500.064C288.799 509.552 289.5 519.143 289.72 528.641L290.865 580.494L293.183 725.959C328.159 725.985 363.15 724.609 398.132 724.247C434.735 723.868 471.333 724.539 507.926 722.938C506.786 705.853 507.227 688.687 506.772 671.578Q505.291 612.299 502.86 553.052C501.424 556.628 500.083 559.61 496.32 561.277C494.348 562.15 492.119 562.254 490.104 561.454C487.61 560.462 485.951 558.351 485.039 555.877C484.049 553.19 484.623 550.417 485.106 547.688C475.14 538.697 464.235 530.613 453.968 521.942C450.591 522.203 447.548 522.233 444.17 521.838C436.417 531.617 429.323 541.967 421.784 551.92C415.448 560.284 407.339 569.147 402.473 578.438C400.621 581.974 400.311 585.914 398.799 589.555Q407.645 606.192 416.061 623.051L420.663 623.287C429.447 608.425 436.77 592.605 444.958 577.388C444.272 574.295 443.802 572.08 445.524 569.217C446.536 567.534 448.194 566.326 450.14 565.994C452.091 565.661 453.936 566.208 455.491 567.409C457.744 569.15 458.55 571.49 458.806 574.233C458.87 574.915 458.897 575.589 458.92 576.274C465.894 582.809 473.198 588.971 480.076 595.61C483.88 595.707 487.67 595.888 490.56 598.741C491.995 600.157 492.72 602.052 492.67 604.063Q492.661 604.557 492.598 605.048Q492.536 605.538 492.421 606.019Q492.307 606.5 492.141 606.966Q491.975 607.432 491.761 607.877Q491.546 608.322 491.285 608.742Q491.023 609.162 490.719 609.551Q490.414 609.94 490.069 610.295Q489.724 610.649 489.343 610.964C487.655 612.361 485.536 613 483.362 612.694C480.873 612.342 478.569 610.455 477.203 608.41C475.713 606.179 475.855 603.786 476.423 601.269Q476.733 599.936 477.087 598.613C470.642 592.171 463.443 586.436 457.144 579.876C454.069 580.782 451.261 581.089 448.06 581.134C439.37 595.362 433.048 610.947 424.235 625.048C426.285 627.241 428.12 629.395 427.939 632.583C427.749 635.952 425.143 638.464 422.741 640.514C423.146 664.689 423.981 688.911 424.096 713.081C425.721 713.228 428.328 713.192 429.525 714.35C429.917 714.729 430.071 715.043 430.338 715.489C430.21 716.688 430.014 717.324 428.958 718.045C427.275 719.193 425.252 719.102 423.292 719.191C419.772 719.152 417.131 719.393 414.193 717.195C413.875 716.409 413.572 716.195 413.899 715.342C414.763 713.092 417.242 712.501 419.295 711.703C420.64 687.886 417.958 663.637 417.951 639.771C415.545 638.228 412.996 636.646 412.284 633.673C411.673 631.123 412.538 628.657 413.562 626.35C408.169 616.187 400.654 599.615 394.14 591.063C391.23 590.232 388.374 589.56 386.665 586.793C385.754 585.32 385.725 583.603 386.183 581.971C386.717 580.068 387.929 578.763 389.275 577.379C383.71 564.654 378.359 551.028 371.511 538.97L370.995 538.79L370.811 538.437C369.53 538.745 368.915 538.928 368.126 540.041C365.237 544.119 363.243 550.883 361.274 555.572Q349.876 583.41 338.882 611.41C333.824 624.004 327.719 636.229 323.39 649.104C324.304 651.201 325.531 653.47 324.838 655.819C323.996 658.675 320.607 660.16 318.123 661.274C319.135 672.349 318.941 683.646 319.148 694.763C319.256 700.509 319.901 706.485 319.415 712.209C319.221 714.488 318.945 716.361 317.817 718.366L316.859 718.791C315.607 718.111 314.964 717.4 314.611 715.977C313.305 710.701 314.241 703.012 314.227 697.478C314.197 685.531 314.156 673.506 313.783 661.563C311.045 659.884 308.712 658.048 307.841 654.793C307.29 652.732 308.037 650.385 309.179 648.656C310.426 646.769 312.102 646.114 314.261 645.767C316.358 645.43 319.168 645.39 320.636 643.624C323.414 640.279 330.047 621.528 332.171 616.232L352.03 566.999C356.096 556.928 359.908 546.711 364.422 536.83C362.336 534.505 360.04 530.515 360.096 527.287C360.124 525.684 360.908 524.155 362.078 523.086C364.324 521.034 367.781 520.266 370.746 520.503C373.608 520.731 376.76 521.943 378.556 524.28C379.606 525.647 380.015 527.267 379.754 528.97C379.291 531.998 377.263 534.307 375.225 536.441C378.678 544.319 382.685 551.931 386.223 559.768C388.395 564.579 390.713 572.374 393.677 576.399C395.035 576.926 396.075 577.459 397.562 577.126C401.872 572.393 405.017 566.487 408.913 561.377C419.713 547.212 430.854 533.434 441.028 518.787C440.831 515.192 440.537 512.038 443.13 509.146C444.382 507.749 446.046 506.941 447.936 506.965C449.952 506.991 451.753 507.983 453.098 509.443C455.582 512.139 455.57 514.884 455.642 518.354C466.21 527.139 477.456 535.356 487.613 544.591C490.903 543.511 493.506 542.856 496.751 544.484C498.872 545.548 500.788 547.585 502.423 549.28C503.68 535.818 502.037 517.439 501.846 503.456C484.418 502.368 466.688 503.079 449.212 502.701L289.287 500.064ZM367.335 524.423C366.225 525.996 365.361 527.226 365.691 529.273C365.904 530.599 366.505 531.643 367.61 532.422C368.954 533.369 370.436 533.596 372.045 533.427C373.364 531.882 374.622 530.493 374.276 528.294C374.069 526.972 373.225 526.066 372.128 525.395C370.645 524.488 369.03 524.421 367.335 524.423ZM490.826 547.243C489.285 549.53 488.258 551.044 488.733 553.905C488.918 555.023 489.451 556.023 490.388 556.691C491.812 557.707 493.435 557.758 495.089 557.535C496.547 555.779 497.848 554.374 497.666 551.933C497.547 550.331 496.736 549.239 495.457 548.364C494.015 547.377 492.519 547.293 490.826 547.243ZM417.877 627.703C417.023 629.057 416.141 630.328 416.44 632.013C416.656 633.23 417.378 634.425 418.503 635.01C419.385 635.468 420.344 635.617 421.321 635.65C422.085 634.419 423.116 632.996 422.878 631.464C422.685 630.223 422.004 629.282 420.928 628.661C420.032 628.144 418.876 627.901 417.877 627.703ZM314.406 649.291C313.469 651.004 312.606 652.426 313.303 654.421C313.644 655.397 314.624 656.18 315.593 656.494C316.605 656.823 317.733 656.776 318.785 656.77C319.497 655.537 320.39 654.206 320.109 652.706C319.874 651.453 319.264 650.782 318.228 650.091C317.179 649.392 315.616 649.325 314.406 649.291Z"/>
	<path d="M522.387 507.098C527.872 506.743 533.392 506.799 538.887 506.749C547.324 506.197 556.35 506.972 564.846 507.009C585.271 507.099 605.878 507.097 626.28 507.902C628.646 518.876 628.336 530.868 628.871 542.094C629.843 562.479 630.921 583.076 630.932 603.476C625.563 603.833 620.255 603.971 614.875 603.96C597.123 603.637 579.443 603.722 561.69 603.864C549.72 603.96 537.572 604.373 525.621 603.601Q523.859 571.538 523.324 539.431C523.045 528.652 523.066 517.863 522.387 507.098ZM562.311 537.493C561.92 547.44 562.419 560.793 564.163 570.568C575.688 570.524 587.381 570.847 598.883 570.305C599.006 561.289 599.03 546.181 597.336 537.629Q579.824 537.411 562.311 537.493Z"/>
	<path d="M661.173 603.035C658.735 590.705 659.479 577.468 659.32 564.924L658.713 508.489Q689.371 508.371 720.026 508.76C733.059 508.851 746.249 508.635 759.252 509.511C760.125 521.424 766.387 598.347 763.901 602.118C748.834 601.806 733.636 602.55 718.559 602.799Q689.867 603.14 661.173 603.035ZM697.452 539.043C697.863 550.589 698.417 562.446 699.479 573.945Q711.986 573.877 724.492 573.648C727.256 573.601 730.161 573.879 732.893 573.665C732.367 562.232 732.61 550.789 731.173 539.412C719.932 539.506 708.677 538.898 697.452 539.043Z"/>
	<path d="M321.069 603.95C320.887 604.02 320.71 604.1 320.524 604.158C318.936 604.657 317.929 604.472 316.516 603.657C315.914 602.453 315.864 601.418 315.81 600.1C315.439 591.032 316.083 581.825 315.911 572.722C315.597 556.157 314.599 539.571 315.099 522.998C315.171 520.616 315.459 518.447 316.048 516.134C316.792 516.359 317.85 516.576 318.499 516.987C319.261 517.471 319.529 517.904 319.799 518.731C321.68 524.489 320.206 534.316 320.309 540.541C320.574 556.614 321.267 572.631 320.981 588.72C320.913 592.544 322.913 596.565 322.717 600.139C322.65 601.371 321.649 602.876 321.069 603.95Z"/>
	<path d="M953.44 596.901C951.32 597.318 949.225 597.541 947.094 597.034C944.07 596.314 941.377 594.535 939.802 591.82Q939.507 591.301 939.267 590.754Q939.027 590.207 938.845 589.638Q938.662 589.07 938.539 588.485Q938.417 587.901 938.355 587.307Q938.293 586.713 938.292 586.116Q938.292 585.518 938.353 584.924Q938.414 584.33 938.536 583.746Q938.657 583.161 938.839 582.592C940.205 578.339 942.921 576.479 946.716 574.562C948.9 574.397 951.301 574.179 953.439 574.735C956.289 575.476 958.867 577.396 960.303 579.975C961.758 582.59 962.007 585.84 961.138 588.688C959.878 592.816 957.115 594.961 953.44 596.901Z"/>
	<path d="M664.616 725.401C664.119 702.241 663.043 679.054 662.166 655.903C661.776 645.606 660.898 635.281 661.06 624.975C661.09 623.11 661.01 621.503 661.858 619.803C662.914 618.957 664.032 618.973 665.333 618.871C673.171 618.251 681.387 618.706 689.269 618.639L745.298 618.27C752.333 617.991 759.39 618.023 766.431 617.962C766.507 632.726 772.855 717.632 770.776 722.871C758.766 725.319 741.509 724.095 728.986 724.086C715.231 724.076 701.498 724.555 687.75 724.947Q676.187 725.384 664.616 725.401ZM742.814 622.74C717.49 623.361 691.792 621.947 666.545 623.743C666.028 638.423 667.397 653.317 668.052 667.99C673.567 661.798 681.845 648.605 690.626 648.021C693.154 647.853 695.343 648.867 697.493 650.068L698.107 650.534C710.371 659.919 715.988 683.47 734.894 680.829C740.342 680.068 744.609 677.626 747.882 673.17C753.356 665.715 754.988 654.772 757.719 646.054C758.985 642.014 760.888 637.911 761.576 633.735C762.188 630.02 761.901 626.335 761.489 622.611Q752.151 622.585 742.814 622.74Z"/>
	<path d="M633.625 726.027C610.298 725.973 586.83 726.714 563.501 727.201C552.731 727.425 541.419 728.578 530.718 727.443C530.031 726.221 529.946 725.211 529.848 723.821C528.867 709.918 529.247 695.752 528.581 681.797Q527.439 660.808 526.73 639.799C526.582 633.967 526.092 627.645 526.653 621.843C526.78 620.531 526.77 620.417 527.753 619.633C552.718 620.124 577.815 619.69 602.795 619.665C612.215 619.656 621.796 618.964 631.19 619.566C632.426 628.754 631.929 638.097 632.22 647.338L634.174 701.241C634.321 704.959 635.854 723.897 634.868 725.788L633.625 726.027ZM531.722 624.26C530.274 635.928 532.125 659.144 533.099 671.427C538.163 665.17 544.538 652.737 553.372 652.035C558.853 651.6 563.991 655.109 567.878 658.626C576.738 666.645 583.545 676.668 593.505 683.514C598.459 683.638 602.971 683.6 607.425 681.04C619.726 672.554 617.834 655.462 627.147 644.526C627.307 637.787 627.286 630.819 626.779 624.101Q579.249 623.034 531.722 624.26Z"/>
	<path d="M481.895 713.189C480.514 712.881 479.533 712.609 478.336 711.793C476.76 708.727 478.143 696.79 478.124 692.434C478.068 679.11 477.465 665.809 476.974 652.497C476.769 646.941 476.073 641.072 476.351 635.537C476.486 632.854 476.897 631.532 478.899 629.69C479.624 630.095 480.136 630.532 480.76 631.072C483.205 637.327 483.113 686.328 483.053 696.386C483.028 700.47 485.575 706.024 484.935 709.716C484.678 711.197 482.988 712.285 481.895 713.189Z"/>
	<path d="M916.056 900.145C912.566 899.583 909.962 898.329 906.91 896.611C880.4 881.69 855.062 864.141 829.377 847.826C821.978 843.126 793.774 826.943 790.154 822.399C789.497 820.691 790.06 819.327 790.52 817.649C797.823 819.763 812.298 829.891 819.244 834.256Q845.239 850.607 871.042 867.258C881.948 874.185 892.968 881.174 904.092 887.734C906.687 889.264 909.435 890.572 911.98 892.182C913.259 892.992 915.368 894.451 916.055 895.854C916.842 897.462 916.378 898.493 916.056 900.145Z"/>
	<path d="M851.021 910.756C848.593 910.306 846.123 909.535 843.785 908.745C837.61 906.658 832.402 903.945 826.899 900.457C807.864 888.391 789.963 874.304 771.952 860.769C763.48 854.402 754.272 848.466 746.142 841.73C745.042 840.818 743.871 839.86 743.333 838.495C742.741 836.994 743.374 835.596 743.878 834.174C744.189 834.269 744.502 834.357 744.81 834.459C753.137 837.206 764.66 847.909 772.031 853.456L804.182 877.227C810.992 882.239 817.72 887.661 824.935 892.069C829.11 894.619 850.68 905.413 851.676 907.858C851.987 908.623 851.277 909.98 851.021 910.756Z"/>
	<path d="M772.623 924.009C770.24 923.622 767.832 923.047 765.553 922.247C738.713 912.833 709.987 880.78 690.246 860.67C685.079 855.406 677.044 849.379 673.92 842.79C673.767 841.089 674.143 840.201 674.871 838.676C676.516 839.11 677.747 839.982 679.037 841.051C684.801 845.826 690.025 851.619 695.258 856.976C708.026 870.046 720.494 883.835 734.655 895.424C741.657 901.154 749.269 906.821 757.102 911.363C762.264 914.356 768.608 916.261 773.125 920.158C773.555 921.642 773.044 922.544 772.623 924.009Z"/>
	<path d="M133.693 907.136C133.084 907.036 132.529 906.778 131.954 906.56C131.247 905.401 131.267 905.378 131.431 904.025C135.474 897.9 236.867 847.514 250.545 840.846C250.838 840.988 251.155 841.087 251.423 841.272C252.466 841.991 252.644 842.479 252.777 843.626C251.569 845.98 246.768 848.067 244.442 849.345C230.315 857.109 215.384 863.68 201.054 871.124C178.456 882.863 156.283 895.386 133.693 907.136Z"/>
	<path d="M212.521 927.713C212.223 927.579 211.888 927.508 211.627 927.311C210.642 926.566 210.467 925.739 210.356 924.629C214.094 917.184 245.032 901.126 253.566 895.944Q261.688 891.096 269.291 885.471Q284.362 874.133 298.198 861.317C304.09 855.95 309.838 850.234 316.022 845.211L316.487 844.838C316.776 844.882 317.078 844.876 317.356 844.969C318.572 845.376 318.703 845.904 319.063 846.987C318.244 851.305 310.198 856.947 306.778 860.009C294.621 870.897 282.449 881.898 269.08 891.298C258.888 898.464 248.025 904.657 237.436 911.211Q224.764 919.139 212.521 927.713Z"/>
	<path d="M298.141 951.15C296.727 950.652 295.94 950.345 295.235 949.025C297.013 941.785 310.918 928.181 316.049 921.705Q333.584 899.531 350.506 876.886C357.255 867.73 363.544 857.917 370.858 849.22C371.219 849.339 371.634 849.459 371.961 849.651C373.17 850.362 373.256 850.704 373.634 851.969C371.807 860.724 309.114 938.516 298.141 951.15Z"/>
	<path d="M481.451 925.841C480.151 925.985 479.295 925.713 478.254 924.969C476.276 920.299 489.969 873.898 493.04 865.637C494.665 865.918 495.795 866.285 496.838 867.587C497.921 874.832 485.19 917.171 481.451 925.841Z"/>
	<path d="M625.467 924.859L623.108 924.717C618.044 922.043 597.542 885.164 594.236 878.216C592.868 875.342 592.767 874.117 593.84 871.139C594.512 871.278 595.316 871.404 595.959 871.677C596.923 872.085 597.399 872.575 598.012 873.405C605.416 883.422 611.531 895.44 617.834 906.18C620.444 910.628 624.774 916.305 626.362 921.188C626.89 922.81 626.195 923.483 625.467 924.859Z"/>
</svg>
