<?xml version="1.0" encoding="utf-8" ?>
<svg xmlns="http://www.w3.org/2000/svg" xmlns:xlink="http://www.w3.org/1999/xlink" width="1024" height="1024">
	<path d="M334.968 271.146C335.202 261.386 335.499 251.606 335.408 241.844C335.332 233.686 334.709 225.183 335.478 217.052C335.682 214.901 335.906 212.358 337.354 210.661C340.289 209.495 343.517 209.034 346.651 208.76C353.387 208.17 360.308 208.494 367.074 208.355L417.999 207.514L553.347 205.107C585.289 204.694 617.359 204.916 649.281 203.727C657.865 203.349 667.199 202.687 675.68 204.18C679.54 220.371 677.346 246.896 678.516 264.499C684.639 263.87 690.885 264.049 697.034 263.989L729.23 263.686L764.138 262.902C769.959 262.807 775.975 262.418 781.776 262.979C786.529 263.438 790.704 264.139 794.553 267.199C797.626 269.642 800.672 273.282 802.092 276.949C806.951 289.493 804.457 322.401 806.093 338.526L878.816 338.425C889.755 338.394 900.93 337.491 911.832 338.19C915.443 338.422 919.375 338.739 922.539 340.641C923.735 341.359 924.911 342.407 925.078 343.878C925.24 345.312 924.399 346.732 923.515 347.796C920.256 351.719 917.051 352.274 912.302 352.586C911.455 359.902 911.919 367.657 911.821 375.03C911.699 384.15 911.134 393.252 911.011 402.372C919.811 402.596 938.369 401.775 945.31 407.58C946.516 408.59 947.219 409.759 947.228 411.377C947.243 414.085 944.801 416.555 943.004 418.272C939.894 418.89 936.718 418.902 933.559 419.019C932.442 434.335 932.368 456.534 933.227 471.928C936.338 471.99 939.533 471.971 942.469 473.147C944.355 473.902 945.997 475.117 946.7 477.09C947.798 480.171 946.448 482.946 945.259 485.744C956.095 485.776 1007.53 484.628 1013.4 487.56C1014.57 488.142 1014.81 488.561 1015.13 489.778L1014.39 490.707C1012.47 491.612 1010.71 491.991 1008.59 492.156C1000.38 492.798 991.753 492.04 983.505 491.95C967.298 491.772 951.16 491.673 934.959 491.066L935.904 543.344C938.366 543.645 940.213 544.204 942.144 545.835C943.973 547.379 944.773 549.391 944.879 551.757C944.957 553.528 944.458 555.017 943.204 556.302C941.589 557.957 939.644 558.496 937.423 558.771C932.601 559.367 927.449 559.011 922.589 559.004L897.243 559.004L813.129 559.104C812.621 593.054 816.443 627.12 816.042 661.052C815.946 669.182 814.765 675.477 808.566 681.365C804.418 685.305 800.188 686.057 794.673 686.395C784.623 687.011 774.348 686.502 764.271 686.51L716.119 686.878L565.911 688.471L325.631 692.004L271.243 692.747C257.134 693.063 243.007 693.747 228.893 693.416C220.898 693.229 214.319 691.933 208.619 685.718C205.343 682.145 203.389 677.806 202.737 673.018C201.622 664.824 202.619 656 202.786 647.752C203.124 631.045 203.353 614.365 203.921 597.66C205.107 562.804 205.345 527.929 206.418 493.079C201.874 492.612 197.229 492.675 192.663 492.567C191.531 504.361 190.196 516.122 189.149 527.926C188.147 535.552 189.317 548.345 183.749 554.298C180.524 557.746 171.278 557.887 166.834 558.073C157.714 558.455 127.568 559.247 119.832 556.935C117.025 556.096 115.107 554.399 113.004 552.474C110.789 545.688 110.568 538.383 110.126 531.309C109.336 518.69 109.322 505.454 107.439 492.966C91.4204 491.984 75.0516 491.979 58.9999 491.985C48.5669 491.989 16.9278 493.614 9.19521 491.067C8.224 489.962 8.19729 489.879 8.04606 488.414L8.95703 487.326C10.427 486.664 11.7036 486.341 13.3127 486.189C20.3663 485.525 28.1222 486.154 35.25 486.095C59.0298 485.897 82.8029 486.763 106.578 486.489C105.858 467.211 104.485 447.983 103.49 428.718C103.313 425.287 101.928 409.955 104.055 408.1C106.029 406.378 110.882 406.953 113.391 406.949C111.567 398.449 112.645 388.641 112.878 379.994Q113.041 370.938 112.985 361.88C112.975 349.67 112.063 337.235 112.485 325.069C112.581 322.304 112.719 318.985 113.894 316.455C114.441 315.279 114.851 314.875 116.05 314.46C117.53 315.057 118.283 316.121 118.846 317.566C120.411 321.591 120.241 328.11 120.994 332.491C122.688 342.332 125.286 352.018 126.991 361.863C128.717 371.825 130.362 398.912 134.49 406.715L134.714 406.713C136.853 402.941 135.867 387.718 135.9 382.922Q136.097 354.284 136.006 325.646C135.976 317.492 135.391 309.253 135.654 301.112C135.714 299.253 135.713 294.835 136.922 293.449C138.695 291.417 142.718 291.072 145.277 290.808C149.521 290.37 159.18 289.172 162.556 292.227C164.147 293.666 164.583 295.905 164.789 297.941C165.701 306.945 164.927 316.57 164.898 325.641C164.842 342.837 164.991 359.947 166.296 377.103C169.047 358.338 170.682 339.14 172.332 320.241C172.912 313.598 172.928 306.834 173.777 300.232C174.004 298.462 174.406 296.168 175.424 294.656C176.058 293.715 177.367 292.929 178.477 292.847C179.24 292.791 179.518 293.286 180.066 293.741C182.418 299.337 179.934 308.807 179.052 314.748C181.799 315.078 188.299 315.113 190.162 317.116C193.499 320.702 189.835 342.253 189.003 347.666C190.402 345.999 191.946 343.911 194.101 343.2C195.189 342.842 195.218 342.815 196.278 343.339C196.616 344.154 196.675 344.554 196.528 345.453C195.836 349.666 191.5 352.232 188.294 354.405C182.299 375.949 185.086 387.497 191.166 407.97C193.039 408.012 194.875 407.862 196.543 408.83C197.681 410.564 197.734 412.863 197.793 414.884C198.037 423.328 196.942 432.08 196.311 440.508Q194.67 463.763 192.426 486.968L206.427 486.961C207.754 473.78 207.121 459.956 207.473 446.684C208.466 409.285 208.416 371.846 209.477 334.453C209.862 320.874 208.832 306.314 210.933 292.926C211.62 288.545 212.951 284.905 215.834 281.452C218.565 278.181 221.82 275.915 225.935 274.798C236.603 271.903 248.827 273.169 259.827 272.973L302.098 271.887C313.024 271.682 324.077 271.912 334.968 271.146ZM627.791 209.225C597.188 210.532 566.478 210.259 535.851 210.594L412.294 212.268C400.185 212.392 347.336 210.864 339.469 213.704C338.082 216.376 338.124 219.959 338.05 222.928C337.795 233.11 338.319 243.32 338.521 253.5Q338.846 275.404 338.908 297.311L339.956 495.735L340.006 572.235C340.027 585.282 339.13 599.15 340.48 612.098C378.023 610.531 415.634 611.155 453.178 609.98L581.748 607.468C599.201 607.083 619.863 607.9 636.92 606.123C639.476 595.311 640.118 584.459 641.811 573.539C648.059 573.167 668.592 571.537 673.687 573.697C674.157 574.504 674.293 574.346 674.109 575.131C672.697 581.15 654.299 601.088 649.263 606.46C661.531 606.628 673.802 606.394 686.071 606.435L670.949 209.368C656.655 208.779 642.089 208.761 627.791 209.225ZM756.298 269.223C743.253 269.906 730.13 269.537 717.067 269.811C704.577 270.073 691.5 271.102 679.043 270.298Q679.276 277.603 679.25 284.911C701.885 284.925 724.584 284.271 747.221 283.924C756.264 283.785 765.32 283.105 774.366 283.462C776.458 283.545 780.218 283.538 781.889 284.827C784.916 287.164 784.715 303.183 784.864 307.309L791.24 544.861L793.289 618.467C793.623 630.548 794.489 642.73 794.011 654.812C793.929 656.886 793.982 661.43 792.467 662.821C791.807 663.427 790.997 663.862 790.243 664.334C790.07 664.443 789.905 664.563 789.73 664.669C785.451 667.264 770.166 666.719 764.558 666.846C752.117 667.125 739.665 666.9 727.222 667.057L621.992 668.157L428.001 670.631L291.5 672.174C271.384 672.409 251.035 673.861 230.934 673.244C227.457 671.297 225.494 669.853 224.488 665.852C222.858 659.367 224.225 647.745 224.41 640.846Q224.961 624.168 225.004 607.481C225.195 574.298 224.938 305.323 230.087 295.83C233.508 293.736 238.033 293.132 241.974 292.717C252.735 291.584 263.69 292.147 274.497 291.945C289.713 291.661 304.899 290.962 320.125 290.991Q327.416 290.888 334.698 290.501C334.537 286.06 334.852 281.619 334.857 277.177C314.835 277.698 294.757 278.356 274.731 278.433C259.961 278.49 243.666 276.96 229.117 279.536C225.9 280.106 223.255 281.311 220.939 283.674C217.068 287.624 215.922 292.657 215.428 297.971C214.742 305.358 214.818 312.887 214.64 320.306L213.937 365.7L211.876 473.675L208.54 605.5L207.923 643.769C207.743 651.151 207.005 658.596 207.257 665.976C207.472 672.283 208.478 677.932 213.364 682.415C217.426 686.142 222.253 687.353 227.638 687.562C240.308 688.052 253.092 687.073 265.759 686.713C281.558 686.265 297.422 686.292 313.233 686.056L496.5 683.506L699.09 680.512L769.43 679.759C777.983 679.649 786.717 680.444 795.236 679.853C797.127 679.722 799.007 679.441 800.875 679.133Q803.207 677.191 805.286 674.979Q807.366 672.768 809.161 670.321C811.224 653.043 809.072 635.195 808.557 617.85L804.253 501.222L800.404 362.253Q799.973 336.343 798.895 310.452C798.628 303.142 798.633 295.761 798.059 288.468C797.704 283.95 796.597 279.505 793.769 275.856C790.606 271.774 785.858 269.59 780.792 269.054C772.936 268.223 764.215 268.981 756.298 269.223ZM335.592 292.84C333.976 302.825 334.219 313.393 333.851 323.489L331.77 374.248Q328.822 446.689 324.505 519.061C323.989 527.816 319.882 588.948 321.423 592.845L322.624 593.311C327.028 592.964 331.393 592.954 335.806 592.961C335.358 565.84 335.941 538.709 336.006 511.587L336.021 375.053Q336.114 347.996 336.516 320.941C336.589 313.19 337.367 302.222 336.376 294.743C336.258 293.848 336.161 293.504 335.592 292.84ZM140.468 296.12C140.444 297.707 140.202 299.471 140.844 300.929C147.089 301.367 153.569 300.683 159.829 300.455C159.846 298.887 160.021 298.451 159.104 297.131C154.448 294.64 145.79 295.968 140.468 296.12ZM761.776 299.73C744.137 300.537 726.335 300.375 708.674 300.555C699.331 300.65 689.273 300.307 680.027 301.559C679.832 332.221 681.807 363.201 683.11 393.846L688.176 523.536C689.317 552.97 690.939 582.542 691.09 611.994C674.809 613.274 658.71 613.516 642.392 613.176C640.782 615.225 639.295 616.729 637.219 618.315C622.082 617.616 606.836 618.275 591.679 618.064C574.438 617.823 557.223 616.884 539.976 616.868C503.004 616.831 466.067 618.02 429.102 618.213Q386.683 618.777 344.261 618.791Q331.547 618.697 318.838 618.344C312.933 618.165 306.961 617.684 301.064 618.056C304.612 617.018 308.264 615.93 311.932 615.432C319.478 614.407 328.22 614.915 335.347 612.135L335.805 611.289C334.214 609.303 330.978 609.107 328.549 608.846C317.589 607.669 305.71 609.955 295.071 606.807C304.174 604.917 313.398 604.469 322.651 603.863C326.819 603.59 331.626 603.741 335.635 602.691C336.284 601.366 336.624 600.761 336.44 599.24C335.55 597.715 334.739 597.175 333.07 596.763C328.409 595.613 322.486 595.523 317.818 596.492C316.922 596.678 317.295 596.64 316.297 596.495C315.2 593.062 317.532 586.338 317.915 582.63C318.769 574.363 318.81 565.837 319.124 557.525Q321.552 506.215 324.714 454.945L332.439 307.049Q315.974 306.856 299.509 307.104C294.842 307.155 290.021 306.9 285.376 307.22Q263.92 308.215 242.442 308.003C241.08 325.499 242.116 343.36 241.952 360.908L240.817 459.575L239.907 559.783C239.322 592.282 238.188 624.964 239.009 657.458L591.489 652.967L702.13 651.881Q727.319 651.944 752.502 651.444C761.188 651.306 770.249 651.612 778.869 650.667C779.046 622.25 777.87 593.805 777.129 565.395L773.99 442.288L771.127 344.479C770.583 329.652 770.564 314.558 769.159 299.789C766.706 299.718 764.225 299.556 761.776 299.73ZM154.349 305.232Q147.679 305.514 141.004 305.535L140.911 406.579Q145.95 406.702 150.988 406.877L160.539 407.016C160.284 394.301 160.466 381.569 160.237 368.845C159.854 347.576 159.143 326.384 159.453 305.107L154.349 305.232ZM177.21 326.959C176.524 331.996 176.161 337.433 175.002 342.363C178.139 342.493 181.319 342.529 184.441 342.847C185.625 337.933 185.395 332.709 186.14 327.71C183.174 327.448 180.184 327.092 177.21 326.959ZM897.127 343.788C876.631 344.435 856.041 344.058 835.533 344.054C826.923 344.053 817.738 343.393 809.196 344.168C808.043 344.273 807.14 344.441 806.188 345.139C806.155 346.496 806.196 346.552 806.972 347.672C809.731 349.021 822.602 347.899 826.904 347.965Q853.496 347.349 880.094 347.465C891.11 347.598 902.656 348.742 913.618 347.87C915.314 347.735 917.156 347.108 918.328 345.822C918.446 345.691 918.536 345.538 918.641 345.396L918.449 344.721C913.434 342.088 902.77 343.224 897.127 343.788ZM174.54 346.677C173.483 359.185 171.919 371.776 170.371 384.235C169.432 391.79 168.154 399.415 167.922 407.035C170.686 407.001 173.57 407.149 176.297 406.674C177.685 399.605 178.352 392.368 179.251 385.221L183.88 346.723C180.81 346.679 177.596 346.449 174.54 346.677ZM865.187 351.715C853.464 352.448 841.658 352.044 829.92 352.132C822.017 352.192 814.09 352.642 806.196 353.033C806.798 369.009 807.967 385.519 807.142 401.482Q829.066 401.215 850.99 401.465C861.944 401.401 872.943 401.264 883.89 401.64C891.282 401.894 899.027 402.865 906.399 402.25C908.001 385.631 907.252 368.416 907.013 351.712C895.037 351.638 876.494 350.496 865.187 351.715ZM811.913 405.682C810.39 405.857 808.664 405.8 807.456 406.84C807.844 407.829 807.54 407.604 808.398 408C812.897 410.072 824.997 408.622 830.495 408.668C847.821 408.812 865.173 409.472 882.492 409.445C895.708 409.425 910.258 408.209 923.321 409.968C924.535 410.132 925.283 410.222 926.114 411.172C925.484 412.235 924.724 412.738 923.552 413.08C918.945 414.425 909.655 413.503 904.34 413.604C885.249 413.966 866.211 414.595 847.11 414.373C837.195 414.259 827.282 413.245 817.368 413.308C814.941 413.323 810.348 412.952 808.305 414.313C808.04 415.606 807.999 415.719 808.513 416.923C810.517 418.392 814.659 418.613 817.079 418.351C817.245 418.333 817.41 418.296 817.575 418.269L889.607 417.082C901.098 416.982 913.246 418.173 924.63 416.925C925.376 416.843 926.067 416.654 926.776 416.413C928.659 415.771 930.469 414.872 932.39 414.341C935.18 413.569 937.969 413.506 940.694 412.424L941.122 411.62C938.833 408.848 930.995 408.185 927.509 407.849C907.22 405.898 886.079 405.889 865.693 405.99C860.509 406.016 855.302 406.483 850.128 406.407C837.452 406.221 824.605 404.541 811.913 405.682ZM108.911 411.794C109.105 437.686 111.298 463.688 112.824 489.534C113.835 506.651 114.056 526.181 116.3 543.003C116.595 545.213 116.976 548.983 118.619 550.519C120.369 552.156 122.844 552.855 125.161 553.16C130.484 553.862 136.029 553.037 141.386 553.026C151.364 553.007 161.8 553.773 171.724 552.94C174.179 552.734 178.053 552.194 179.802 550.278C181.314 548.622 181.605 545.562 181.989 543.412C184.241 520.869 186.64 498.378 188.319 475.78C189.895 454.564 190.735 433.24 193.09 412.094Q165.448 411.27 137.794 411.473C128.286 411.473 118.378 410.978 108.911 411.794ZM890.098 421.251L834.029 422.259C825.519 422.435 816.994 422.976 808.486 423.008Q808.809 448.213 810.164 473.384C822.479 472.858 834.825 472.974 847.149 472.94L896.489 472.743C906.949 472.707 917.47 472.422 927.92 472.777C929.561 455.881 928.554 437.939 928.293 420.971L890.098 421.251ZM932.166 476.746C899.989 477.525 867.773 477.553 835.583 477.905C828.876 477.979 822.144 477.387 815.455 477.582C813.813 477.63 812.204 477.679 810.674 478.34L810.685 478.968C812.935 480.577 817.4 480.054 820.125 480.017L891.992 479.505C908.987 479.509 927.057 481.054 943.805 478.237C940.392 477.501 935.655 476.097 932.166 476.746ZM821.26 483.765Q815.867 483.867 810.472 483.9L811.085 491.508C849.913 491.596 888.736 490.437 927.57 490.531C929.316 489.701 930.038 487.81 931.035 486.175C934.615 486.07 938.217 486.095 941.737 485.369C939.145 484.121 936.684 483.81 933.857 483.653C913.273 482.51 892.17 483.722 871.535 483.858C854.8 483.968 837.983 483.052 821.26 483.765ZM926.36 494.218C914.21 495.083 902.099 495.046 889.928 495.163C863.776 495.414 837.34 495.024 811.235 496.37C811.303 503.046 811.126 541.224 813.292 544.346L815.402 544.486C829.225 543.344 843.43 543.957 857.294 543.97L930.469 543.976C930.409 537.596 930.869 496.443 929.382 494.283C928.324 494.154 927.421 494.11 926.36 494.218ZM913.23 548.774C889.256 550.04 864.865 549.076 840.833 548.966C833.044 548.93 825.019 548.521 817.248 548.945C815.909 549.018 814.294 549.394 813.375 550.447C812.604 551.33 812.727 551.858 812.864 552.902C813.714 553.909 814.42 554.343 815.727 554.483C823.356 555.3 831.972 554.47 839.699 554.403L902.741 554.018C912.839 554.04 923.066 555.104 933.148 554.346C935.478 554.17 937.483 553.566 939.427 552.278L939.96 551.265C939.041 549.772 937.62 549.172 935.904 548.81C929.183 547.392 920.168 548.583 913.23 548.774ZM646.186 576.632C643.778 586.025 643.353 595.67 642.401 605.279C647.925 602.358 651.191 598.183 655.135 593.486C659.62 587.952 664.215 582.494 668.574 576.86C661.184 576.233 653.602 576.519 646.186 576.632Z"/>
	<path d="M385.495 285.515C420.481 284.026 455.699 284.27 490.719 283.756Q497.09 283.766 503.457 283.97C505.175 302.945 504.645 322.305 504.989 341.354Q506.156 383.139 506.899 424.933C493.146 425.732 479.164 424.991 465.377 425.024C453.115 425.053 440.875 425.821 428.614 425.99C419.546 426.114 410.088 425.461 401.089 426.436C395.738 426.748 390.469 426.298 385.146 425.812C385.724 419.45 385.407 412.838 385.32 406.454Q385.093 391.727 385.029 376.999Q384.872 331.256 385.495 285.515ZM460.712 289.225C448.607 289.83 436.409 289.627 424.287 289.858C412.817 290.076 400.914 290.794 389.477 290.18Q388.668 331.943 389.098 373.712C389.258 390.105 389.736 406.527 389.468 422.919C392.108 422.86 394.771 422.876 397.402 422.648L397.482 421.959C398.803 409.951 395.356 393.743 406.134 384.955C417.598 375.609 430.603 385.028 437.623 366.325C430.994 359.911 419.787 347.937 419.363 338.252C419.243 335.53 421.427 333.783 423.207 332.018C424.367 323.394 423.672 311.982 431.534 306.299C434.909 303.86 438.807 303.011 442.878 302.656C446.514 301.788 451.436 297.094 455.747 295.412C461.713 297.414 467.187 300.965 470.132 306.732C471.537 309.483 472.052 312.552 470.918 315.496C469.828 318.327 467.514 319.808 465.143 321.471C465.099 324.835 465.154 328.121 465.445 331.474C467.734 334.316 468.822 336.014 468.465 339.748C467.7 347.759 461.111 358.169 454.826 363.102Q453.347 364.251 451.821 365.337C454.033 370.857 456.568 375.839 462.338 378.324C473.084 382.952 483.911 378.802 489.65 392.422C493.48 401.514 493.043 412.085 492.983 421.759C496.283 421.724 499.637 421.802 502.926 421.534C503.18 398.567 501.98 375.653 501.267 352.704C500.608 331.486 500.423 310.23 499.977 289.004C486.963 288.931 473.696 288.507 460.712 289.225ZM438.818 320.615C436.707 320.994 432.422 321.286 431.282 323.286C429.831 325.831 428.514 333.221 427.638 336.44C428.129 337.339 428.695 337.989 429.391 338.737C429.553 340.021 429.222 340.71 428.798 341.895C427.526 345.445 428.592 349.023 430.163 352.357C432.231 356.745 435.924 360.641 440.565 362.266C443.336 363.237 445.514 362.741 448.219 361.865C453.103 359.541 457.464 356.369 459.362 351.081C461.127 346.167 459.317 342.601 459.695 337.959C459.813 336.517 460.802 335.631 460.846 334.043C460.102 333.229 458.837 332.277 458.219 331.413C457.989 331.092 457.78 329.835 457.667 329.435C456.156 324.109 455.621 320.743 449.39 320.392C446.058 320.204 442.13 320.235 438.818 320.615ZM442.034 368.024C439.049 374.407 435.259 379.172 429.149 382.846C433.341 386.568 437.768 390.892 443.814 390.654C444.641 390.622 445.457 390.527 446.28 390.457C446.475 390.44 446.67 390.43 446.865 390.416C452.635 388.542 455.712 386.221 459.517 381.518C453.927 377.935 451.491 374.6 448.542 368.734C446.379 368.516 444.18 368.372 442.034 368.024Z"/>
	<path d="M534.577 302.957C529.551 302.98 518.321 304.278 514.2 301.861C513.472 300.697 513.427 300.676 513.565 299.318C514.775 298.094 516.099 297.76 517.747 297.503C526.459 296.149 537.528 296.656 546.488 296.563C563.189 296.39 579.964 296.229 596.656 295.737C601.836 295.567 607.517 294.975 612.631 295.845C614.299 296.129 615.307 296.51 616.304 297.882C615.991 299.29 615.574 299.6 614.624 300.648C608.7 303.17 577.05 301.998 569.009 302.113C557.543 302.277 546.034 302.51 534.577 302.957Z"/>
	<path d="M603.375 324.121C597.666 324.444 585.515 325.449 580.501 323.298C579.719 322.514 578.911 321.847 578.641 320.73C578.456 319.963 578.619 320.062 579.045 319.253C582.287 317.003 586.111 317.346 589.895 317.284C597.056 316.875 606.062 316.138 613.063 317.682C614.772 318.058 615.591 318.523 616.564 319.965C616.619 321 616.786 321.534 615.886 322.279C613.209 324.493 606.755 324.007 603.375 324.121Z"/>
	<path d="M542.875 324.931C536.275 324.808 523.013 327.182 517.416 325.242C515.888 324.713 515.432 323.955 514.769 322.545C514.873 321.067 514.811 320.702 515.665 319.522C519.657 317.636 530.593 318.39 535.281 318.226C542.904 317.62 552.091 317.372 559.654 318.345C561.835 318.625 563.287 319.51 564.598 321.233C564.784 322.468 564.827 322.435 564.153 323.477C559.331 326.43 548.58 325.005 542.875 324.931Z"/>
	<path d="M437.758 331.362C436.318 331.479 435.361 331.652 434.08 330.825C433.785 329.843 433.654 330.129 434.086 329.341C435.19 327.33 436.9 327.055 438.945 326.534C440.004 326.792 440.91 327.165 441.901 327.616L442.175 328.557C440.968 329.994 439.428 330.577 437.758 331.362Z"/>
	<path d="M452.627 332.495C450.889 331.717 449.158 331.201 448.093 329.52C448.054 327.871 448.319 327.592 449.128 326.212Q449.926 326.43 450.71 326.695C452.196 327.211 452.88 327.776 453.586 329.167C453.616 330.665 453.333 331.235 452.627 332.495Z"/>
	<path d="M439.604 340.802C437.178 340.416 435.23 340.165 433.669 338.173C433.646 336.504 434.112 336.191 435.049 334.854C436.711 335.68 438.414 335.924 439.988 336.967C440.465 338.531 440.04 339.251 439.604 340.802Z"/>
	<path d="M454.11 341.419C453.337 341.071 452.519 340.735 451.792 340.3C450.748 339.675 450.391 339.267 450.063 338.115C450.537 336.678 451.481 336.097 452.631 335.222C453.211 335.318 454.168 335.402 454.729 335.651C455.991 336.213 456.096 336.472 456.479 337.686C456.124 339.326 455.194 340.215 454.11 341.419Z"/>
	<path d="M536.025 346.174C530.616 346.781 523.005 347.109 517.883 345.415C516.192 344.855 514.836 344.185 513.997 342.58L514.648 341.597C516.38 340.566 518.084 340.088 520.083 339.806C528.04 338.684 536.63 339.064 544.667 339.001C561.529 338.869 578.547 339.164 595.384 338.22Q601.999 337.923 608.614 338.207C611.394 338.328 614.997 337.958 617.009 340.159C617.356 341.658 617.43 341.654 616.731 343.01C614.846 344.271 613.194 344.602 610.948 344.838C604.075 345.561 596.794 344.916 589.864 345.036Q562.938 345.307 536.025 346.174Z"/>
	<path d="M442.653 354.922C442.177 354.649 441.231 354.201 440.835 353.77C439.967 352.825 439.926 352.404 439.976 351.227C441.433 349.959 444.465 349.92 446.378 349.455C447.202 347.963 444.26 344.991 444.038 343.101C443.779 340.89 444.466 339.79 445.704 338.098C450.014 339.843 446.295 346.02 448.803 349.06C449.282 349.642 449.604 350.006 449.949 350.704C450.307 351.427 450.049 351.614 449.816 352.335C447.918 353.798 444.948 354.273 442.653 354.922Z"/>
	<path d="M575.766 366.719C570.333 366.963 558.406 368.697 553.913 365.179L553.779 363.872C554.15 363.35 554.422 362.933 554.878 362.462C555.592 361.724 556.434 361.473 557.412 361.319C561.534 360.667 566.237 361.002 570.43 360.909L596.95 360.27C602.005 360.018 607.481 359.392 612.502 359.985C614.456 360.216 616.047 360.56 617.321 362.149C617.415 363.15 617.604 363.708 616.769 364.478C613.677 367.331 582.428 366.552 575.766 366.719Z"/>
	<path d="M537.504 367.926C531.911 368.474 525.839 368.591 520.213 368.355C517.811 368.254 515.576 368.086 513.915 366.244C513.76 365.16 514.077 363.958 514.826 363.116C515.918 361.889 517.091 362.013 518.612 361.793C523.882 361.671 537.867 360.029 541.632 363.564C542.054 364.85 542.12 364.818 541.589 366.05C540.267 367.161 539.16 367.49 537.504 367.926Z"/>
	<path d="M901.471 367.697C899.468 368.359 848.228 368.703 843.377 368.571C841.218 368.512 838.421 368.625 836.461 367.679C835.608 366.389 835.905 364.982 835.998 363.513C841.378 363.897 846.845 363.572 852.24 363.605C860.746 363.658 869.241 363.877 877.75 363.815C884.751 363.764 893.435 362.739 900.194 364.541C901.258 365.697 901.205 366.184 901.471 367.697Z"/>
	<path d="M551.379 388.607Q549.572 388.82 547.754 388.881C541.173 389.048 534.574 388.95 527.99 388.999C524.541 389.025 520.442 389.488 517.047 388.977C515.885 388.802 515.17 388.234 514.338 387.459C513.876 386.034 513.873 385.94 514.317 384.51C516.764 381.862 520.444 382.372 523.795 382.212C529.491 381.82 552.617 381.242 557.446 382.471C559.248 382.929 560.704 383.527 561.693 385.19L561.406 386.221C558.641 388.275 554.694 388.32 551.379 388.607Z"/>
	<path d="M894.083 389.184C888.245 389.283 864.4 390.551 860.686 387.852C859.893 387.275 860.166 387.562 860.005 386.427L860.905 385.301C862.929 384.314 865.127 384.359 867.339 384.211C872.74 383.878 896.757 382.902 899.972 385.326C900.286 386.6 900.354 386.621 899.798 387.794C897.88 388.746 896.199 388.978 894.083 389.184Z"/>
	<path d="M550.596 409.926C543.314 410.016 536.032 409.866 528.751 409.939C525.607 409.97 521.917 410.619 518.847 410.116C516.353 409.707 514.341 408.799 512.843 406.746L512.985 405.897C516.087 402.953 525.432 403.404 529.707 403.211C536.538 402.772 558.196 401.902 563.516 404.279C564.886 404.891 564.827 405.181 565.335 406.524C565.238 406.65 565.154 406.787 565.045 406.903C561.94 410.187 554.835 409.756 550.596 409.926Z"/>
	<path d="M914.097 440.2C897.89 439.854 881.679 440.25 865.47 440.113C860.308 440.069 854.53 440.664 849.437 440.045C848.349 439.913 847.144 439.506 846.295 438.796C845.38 438.032 845.415 437.887 845.362 436.775C847.415 434.809 851.039 435.421 853.711 435.273C865.385 434.689 876.992 435.651 888.653 435.719C896.782 435.767 904.898 434.973 913.037 435.338C915.023 435.427 917.067 435.526 918.91 436.343C920.004 436.828 920.075 436.766 920.549 437.921C920.173 438.476 920.19 438.509 919.625 439.021C918.144 440.363 915.946 440.213 914.097 440.2Z"/>
	<path d="M436.245 454.045C430.326 453.975 409.845 455.742 406.219 452.912C405.655 452.472 405.367 451.848 405.398 451.11C405.431 450.33 405.724 449.323 406.296 448.772C408.76 446.399 420.217 446.902 424.137 446.724C428.977 446.286 449.363 446.118 452.716 447.919C453.845 448.525 454.161 449.022 454.554 450.2C454.153 451.626 453.709 452.097 452.686 453.095C447.888 454.947 441.348 454.13 436.245 454.045Z"/>
	<path d="M570.96 451.906C569.423 451.922 567.815 451.995 566.289 451.794C564.459 451.554 562.018 450.849 560.919 449.302L561.135 448.363C562.279 447.585 563.278 447.189 564.567 446.732C566.576 446.67 568.908 446.417 570.872 446.864C572.439 447.221 574.415 447.736 575.343 449.116L575.068 450.047C573.671 450.889 572.516 451.419 570.96 451.906Z"/>
	<path d="M881.875 459.001C880.522 458.989 879.161 458.989 877.81 458.909C876.201 458.813 875.274 458.533 874.196 457.344C874.421 456.097 874.603 455.874 875.412 454.882C881.997 453.498 904.605 454.433 912.786 454.244C914.954 454.266 917.758 454.077 919.599 455.323C920.295 456.473 920.45 456.466 920.202 457.763C915.767 460.079 888.367 459.02 881.875 459.001Z"/>
	<path d="M539.401 476.598C534.227 476.46 520.007 478.872 516.153 476.094C515.254 475.446 514.644 474.75 514.673 473.578C514.697 472.599 515.121 471.734 515.734 471.004C516.912 469.599 519.945 469.526 521.681 469.399C529.895 468.795 538.262 469.377 546.498 469.44C563.363 469.568 580.592 469.785 597.412 468.785C603.269 468.408 614.859 467.333 620.207 469.199C621.705 469.722 622.41 470.375 623.105 471.77C622.948 473.259 622.57 473.704 621.645 474.804C613.142 477.653 591.514 476.096 581.402 476.169C567.398 476.269 553.407 476.61 539.401 476.598Z"/>
	<path d="M443.565 477.606C436.731 478.062 412.911 478.943 407.399 476.764C405.932 476.184 405.151 475.611 404.504 474.177C404.621 473.917 404.688 473.628 404.855 473.397C405.549 472.428 407.143 471.766 408.294 471.574C413.77 470.661 420.04 471.017 425.625 470.882L466.426 470.235C475.908 469.803 490.243 469.46 499.642 470.508C501.942 470.765 504.27 471.628 505.769 473.427C505.737 474.282 505.932 474.44 505.235 475.069C503.979 476.203 502.418 476.706 500.76 476.91C494.989 477.621 488.545 476.991 482.689 477.036Q463.125 477.163 443.565 477.606Z"/>
	<path d="M430.328 502.305C424.336 502.559 417.793 503.299 411.838 502.818C409.881 502.66 407.174 501.718 406.04 500.007C405.336 498.945 405.498 498.433 405.816 497.337C407.148 496.125 408.344 495.773 410.089 495.591C415.768 494.997 421.761 495.523 427.475 495.514C435.823 495.501 444.292 495.141 452.654 494.955C501.28 493.876 550.186 495.273 598.737 492.791C603.021 492.318 619.346 491.778 622.362 494.216C623.107 494.819 623.361 495.117 623.535 496.025C623.348 496.734 623.175 497.36 622.686 497.932C621.144 499.731 618.425 500.729 616.128 500.981C608.054 501.865 599.113 501.233 590.931 501.207L546.378 501.135Q488.343 500.691 430.328 502.305Z"/>
	<path d="M918.294 512.298C904.617 512.434 890.863 512.139 877.173 512.138C868.226 512.137 858.783 512.735 849.906 511.879C848.524 511.746 847.497 511.612 846.306 510.833C846.377 509.644 846.142 510.056 846.926 509.285C848.836 507.407 851.084 507.743 853.562 507.731C858.998 506.806 918.621 507.441 922.708 508.956L922.778 509.616C921.473 510.875 919.913 511.52 918.294 512.298Z"/>
	<path d="M434.875 526.996C429.026 527.084 409.782 528.706 405.58 525.187C404.929 524.642 405.11 524.32 405.058 523.546C405.366 523.061 405.785 522.297 406.248 521.916C408.05 520.433 410.844 520.209 413.076 520.065C425.121 519.29 437.572 520.107 449.681 519.931L531.51 518.276C539.018 517.924 553.754 517.021 560.779 518.45C561.864 518.67 562.986 519.486 563.381 520.546C563.854 521.818 563.553 522.421 563.089 523.582C562.104 524.554 561.175 524.942 559.804 525.049C555.05 525.419 550.02 525.188 545.231 525.299Q528.944 525.751 512.651 525.922L434.875 526.996Z"/>
	<path d="M900.875 533.421C894.495 533.515 882.863 534.5 877.07 532.424C876.085 532.071 876.014 532.089 875.568 531.104C875.649 530.96 875.711 530.803 875.811 530.671C878.57 527.042 892.278 528.579 896.805 528.229C903.252 528.147 910.084 528.022 916.481 528.787C918.547 529.034 921.193 529.255 922.52 530.965L921.938 531.92C917.441 534.779 906.561 533.394 900.875 533.421Z"/>
	<path d="M428.125 551.302C422.759 551.462 412.926 553.05 408.229 550.73C406.869 550.059 406.446 549.232 406.004 547.844C406.14 547.059 406.26 546.538 406.811 545.915C408.164 544.384 409.935 544.255 411.845 544.085C431.219 542.354 454.095 543.607 473.954 543.394L542.958 542.127C562.666 541.827 582.371 541.841 602.074 541.263C606.63 541.015 617.304 539.839 621.249 541.498C622.341 541.958 623.384 542.884 623.741 544.051C624.175 545.471 623.793 546.023 623.144 547.213C621.073 548.757 618.855 549.252 616.296 549.416C610.249 549.804 603.909 549.039 597.831 548.936C587.743 548.765 577.505 549.039 567.408 549.172L428.125 551.302Z"/>
	<path d="M76.6433 633.595C74.6016 633.571 72.2372 633.636 70.3794 632.637C69.1237 631.961 69.1344 631.777 68.7864 630.482L69.4 629.579C71.1909 628.575 72.8046 628.263 74.8514 628.104C84.8936 627.323 95.0959 627.817 105.17 627.358L188.213 623.262C190.141 623.167 191.54 623.662 193.058 624.817C193.741 626.102 193.821 626.11 193.545 627.522C191.944 629.042 190.126 629.416 187.996 629.716C180.115 630.825 171.68 629.938 163.71 630.383C144.838 631.438 126.001 632.663 107.098 633.242C96.9752 633.552 86.7798 633.413 76.6433 633.595Z"/>
	<path d="M840.375 672.866C838.802 672.842 837.081 672.757 835.527 672.486C834.206 672.255 833.831 671.906 833.118 670.821C833.269 669.546 833.328 668.889 834.346 667.947C836.454 665.999 841.94 667.151 844.584 667.281C895.188 669.771 946.306 667.744 996.928 666.225C998.227 666.182 999.591 666.099 1000.88 666.279C1002.73 666.537 1004.23 667.597 1005.35 669.041C1005.25 669.682 1005.37 669.796 1004.9 670.188C1003.01 671.735 999.568 672.113 997.211 672.33C984.854 673.467 971.011 672.704 958.41 672.99Q899.391 674.323 840.375 672.866Z"/>
	<path d="M227.639 700.063C233.296 699.64 239.092 699.912 244.775 699.843Q262.103 699.558 279.434 699.533L364.749 698.985Q473.553 697.191 582.369 696.693L693.044 696.528C719.615 696.492 746.186 696.702 772.747 695.724C783.192 695.087 795.299 694.582 805.665 696.158C816.021 704.175 828.801 720.076 838.058 730.3Q855.081 748.89 871.573 767.952C876.96 774.071 882.668 779.989 887.733 786.378C889.544 788.663 891.015 791.027 892.412 793.582C890.723 798.943 889.121 807.135 885.198 811.266C882.894 813.691 879.062 813.535 875.946 813.637C853.029 814.384 830.109 813.747 807.196 814.051L624.108 816.161L271.125 820.237C246.773 819.834 222.392 820.141 198.035 820.064C188.04 820.033 177.504 820.985 167.586 819.91C164.583 819.584 162.081 818.768 159.579 817.047C155.826 814.465 152.687 810.43 152.068 805.819C151.641 802.635 152.455 800.477 154.012 797.753C161.018 785.5 173.368 771.45 182.193 759.927C197.415 740.05 212.204 719.765 227.639 700.063ZM701.217 701.229C658.11 702.503 614.85 702.098 571.726 702.072C560.219 702.065 548.701 702.567 537.19 702.661L465.573 703.101L335.333 705.155L301.727 705.738C291.17 706.016 280.462 706.547 269.901 706.232C264.469 718.15 257.561 729.131 251.208 740.55C276.01 740.41 300.819 741.162 325.625 741.064Q391.561 741.739 457.492 740.682L622.25 737.103Q697.893 735.797 773.547 735.992C768.942 724.181 763.481 712.764 758.799 701.007Q743.023 701.284 727.244 701.264C718.623 701.186 709.815 700.666 701.217 701.229ZM765.746 701.055L765.975 701.657C769.79 711.482 780.598 730.571 781.074 740.772L780.615 741.736C776.614 743.114 729.599 741.985 720.82 742.119L497.928 745.579C470.757 745.936 443.579 746.802 416.408 746.958Q372.418 747.082 328.442 745.944C308.078 745.508 287.708 745.536 267.341 745.261C259.166 745.15 251.373 746.199 243.25 744.757C248.066 730.943 257.419 719.408 264.127 706.572C252.983 705.558 241.428 706.41 230.227 706.332C216.77 723.167 204.348 740.626 191.264 757.725C182.016 769.812 171.658 781.52 163.255 794.186C161.862 796.287 159.553 799.43 159.693 802.011C159.742 802.914 160.231 803.405 160.696 804.142C168.047 807.958 191.226 806.224 200.558 806.033L507.292 802.809L848.024 799.337C853.652 799.272 882.076 800.084 884.896 797.232C885.192 793.695 885.024 792.48 882.731 789.786C876.241 782.16 868.882 775.167 862.198 767.679C842.327 745.418 822.536 723.043 802.371 701.047Q784.058 700.811 765.746 701.055ZM870.869 804.264C849.33 805.504 827.435 804.915 805.862 805.025L715.341 806.058L487.75 809.187L251.362 811.231L192.378 811.53C184.326 811.537 176.081 811.909 168.048 811.493C164.941 811.332 162.083 810.692 159.704 808.568C158.156 807.186 156.793 805.524 155.446 803.948C157.388 807.572 159.152 811.307 162.351 814.006C173.564 816.583 193.611 814.657 205.701 814.535L271.393 814.437Q474.291 813.79 677.159 810.185L752.162 809.477C754.808 809.429 757.374 808.607 760.054 808.605C775.872 808.598 876.739 810.157 882.668 806.513C882.857 806.396 883.036 806.265 883.221 806.141L883.203 805.296C879.827 803.079 874.725 804.007 870.869 804.264Z"/>
	<path d="M35.625 734.962C33.0063 734.976 30.0584 735.299 27.4886 734.828C25.6292 734.487 23.5807 733.643 22.542 732.021L22.8404 731.05C24.9153 729.462 27.723 729.079 30.2727 728.969C44.0663 728.373 58.1592 729.453 71.9691 729.705C97.0943 730.164 124.861 730.028 149.865 727.771C152.617 727.514 156.137 727.035 158.846 727.65C160.484 728.021 162.231 728.658 163.125 730.146C162.984 731.144 163.189 731.018 162.538 731.619C161.287 732.776 159.521 733.256 157.873 733.524C150.42 734.734 134.877 734.516 126.736 734.726Q81.1822 735.473 35.625 734.962Z"/>
	<path d="M442.597 753.078C446.65 752.604 450.882 752.791 454.965 752.75C469.177 752.267 483.521 752.762 497.749 752.818Q543.009 753.049 588.269 752.736C594.154 761.186 604.04 778.328 607.717 788.063C608.332 789.691 609.428 792.191 608.689 793.893C604.073 795.913 581.6 795.476 575.375 795.584C564.993 796.396 554.414 796.39 543.999 796.84C526.784 797.585 509.547 798.586 492.323 799.028C481.171 799.314 470.003 799.136 458.847 799.3C450.095 799.429 434.991 801.477 426.987 799.108C425.915 793.473 439.267 759.85 442.597 753.078ZM545.355 757.772C512.395 758.356 479.394 757.565 446.441 758.402C441.854 769.999 437.943 781.835 433.639 793.531C452.341 794.189 470.939 793.487 489.625 793.441L561.965 790.374C575.343 789.802 588.736 789.53 602.103 788.725C596.385 778.585 591.267 768.122 585.499 758.016C572.156 757.756 558.692 757.219 545.355 757.772Z"/>
</svg>
