<?xml version="1.0" encoding="utf-8" ?>
<svg xmlns="http://www.w3.org/2000/svg" xmlns:xlink="http://www.w3.org/1999/xlink" width="1024" height="1024">
	<path d="M262.849 372.705C265.72 338.31 265.25 303.587 266.111 269.101C266.721 244.694 268.939 220.345 268.951 195.926C268.962 174.347 269.675 152.79 269.758 131.226C269.829 112.956 268.868 93.5739 271.343 75.4749Q271.544 74.1008 271.828 72.7416Q272.112 71.3823 272.478 70.0429Q272.845 68.7034 273.292 67.3888Q273.739 66.0742 274.266 64.7892Q274.792 63.5042 275.396 62.2537Q276 61.0032 276.678 59.7918Q277.357 58.5804 278.109 57.4126Q278.86 56.2448 279.681 55.1249C285.42 47.1828 293.136 43.213 302.68 41.7113C334.695 41.3672 366.667 44.3204 398.703 44.048L594.198 42.9406L649.753 42.9222C660.869 42.9162 672.018 42.6722 683.126 43.11C694.096 43.5425 705.035 44.4689 715.993 45.0945C727.936 45.7761 740.674 45.3496 752.231 48.7546C757.665 50.3556 762.804 53.0806 766.604 57.3626C770.934 62.2429 773.017 68.8633 773.699 75.2637C774.94 86.9173 773.644 99.1633 773.296 110.867L771.781 172.491C771.574 183.569 773.283 194.312 773.383 205.299C773.459 213.616 772.219 221.98 772.086 230.31C771.716 253.42 772.161 276.658 771.182 299.742C787.642 299.535 804.202 301.04 820.635 301.944L891.627 305.764C917.32 307.324 943.28 307.111 968.864 309.906C973.604 310.424 981.276 311.057 985.222 313.905C988.97 316.609 991.765 321.889 992.592 326.354C994.766 338.092 991.891 354.649 991.124 366.736Q988.824 405.227 986.105 443.691L978.489 566.483C977.792 578.252 978.225 590.064 977.274 601.82C976.989 605.348 976.693 609.59 974.494 612.506C972.263 615.464 967.428 615.965 963.982 616.117C953.149 616.594 941.516 614 930.754 612.75C912.264 610.605 893.721 608.868 875.243 606.635C868.155 605.778 859.228 603.275 852.279 604.537C851.476 604.975 851.158 605.258 850.686 606.075C848.867 609.221 849.281 616.104 850.251 619.439C855.503 637.498 880.199 639.723 894.027 647.991C896.391 649.404 898.489 650.801 899.21 653.572C899.112 654.733 898.888 655.436 898.09 656.323C892.324 662.739 861.114 665.578 851.963 666.165C841.251 666.851 830.628 666.715 819.909 666.188C801.747 665.294 740.49 660.179 728.409 648.856C727.341 647.854 726.348 646.396 726.467 644.86C726.996 638.004 755.998 631.977 761.796 629.895C767.201 627.955 772.907 625.489 777.169 621.542C784.215 615.017 784.248 606.605 784.459 597.745C770.664 596.668 756.946 594.771 743.204 593.168Q718.614 590.523 694.058 587.577C678.177 585.631 659.931 584.281 644.455 581.535C642.566 581.2 640.442 580.84 639.055 579.386C637.199 577.44 637.377 574.192 637.345 571.634C637.169 557.558 639.078 543.129 640.297 529.099Q643.336 497.223 644.937 465.242C636.718 463.421 628.315 464.537 619.996 464.816C610.327 465.141 600.437 465.235 590.788 464.465L550.17 561.12C543.352 577.008 537.029 593.591 528.8 608.783C531.177 612.387 534.434 616.839 534.379 621.276C533.878 622.621 533.444 623.016 532.314 623.786C531.985 624.01 531.652 624.227 531.327 624.456C530.257 625.212 529.629 625.737 529.248 627.063C527.553 632.957 530.238 639.942 528.62 646.052C527.148 651.609 522.123 653.552 521.088 660.02C521.575 661.142 521.704 661.225 522.96 661.462C525.072 661.859 527.509 661.662 529.707 661.997C539.822 663.537 557.814 666.569 566.63 671.124C581.625 678.874 588.892 704.661 593.518 719.808C594.738 718.433 595.957 716.966 597.341 715.755C598.913 714.377 601.123 713.242 603.215 712.975C610.666 712.028 618.97 713.297 626.502 713.516C635.299 713.773 644.08 713.465 652.881 713.885C656.03 714.036 662.412 713.714 664.558 716.079C665.758 722.707 654.133 775.917 651.896 784.709C662.843 784.485 673.999 785.705 684.962 786.019C692.816 786.243 700.804 785.562 708.621 786.109C710.601 786.247 713.579 786.431 715.218 787.648C716.978 788.954 717.598 791.145 717.865 793.225C718.355 797.043 718.892 805.142 716.208 808.305C715.041 809.68 713.249 810.408 711.515 810.728C703.684 812.174 688.356 809.724 678.366 810.584Q676.782 861.56 677.025 912.559C677.018 920.305 678.562 962.334 675.769 966.992C675.197 967.945 675.027 968.14 673.965 968.399C667.763 969.91 659.649 968.646 653.262 968.482C638.994 968.116 624.675 967.485 610.411 967.347C591.036 967.159 571.676 967.929 552.308 968.004C532.432 968.082 512.539 967.035 492.649 966.933C464.535 966.789 436.429 967.503 408.311 966.855C397.951 966.617 387.597 965.463 377.252 964.852L322.247 962.089C315.999 961.786 298.239 963.531 293.665 960.781C291.047 956.448 294.696 877.24 294.864 867.043C295.218 845.558 293.906 823.779 295.848 802.369C288.712 801.748 260.031 803.58 256.052 799.658C253.829 797.466 253.363 794.226 253.351 791.25C253.336 787.358 252.889 781.23 256.035 778.329C257.889 776.618 261.17 776.375 263.555 776.224C273.773 775.578 284.462 776.795 294.693 777.214C309.728 777.831 324.742 778.012 339.783 778.32C345.625 766.771 356.302 755.184 368.013 749.451C376.491 745.3 384.337 745.311 393.142 748.394C396.334 741.343 401.061 734.983 404.3 727.95C405.819 724.653 405.819 720.756 407.438 717.517C415.907 700.576 444.554 678.47 461.381 669.414C466.743 666.528 472.151 664.393 477.936 662.511C477.997 660.766 478.171 659.036 478.336 657.297C469.554 652.813 464.525 647.412 460.459 638.45C455.034 626.494 457.441 613.005 453.531 600.709C447.695 582.358 440.107 564.443 433.522 546.337C423.211 517.981 413.548 489.457 402.612 461.324C393.276 460.343 384.489 460.002 375.122 460.481C373.772 472.194 374.988 484.26 375.062 496.037C375.187 515.718 374.804 535.413 375.131 555.091C375.293 564.85 376.416 574.935 375.449 584.646C375.081 588.347 374.523 592.082 372.084 595.042C369.956 597.626 367.018 598.991 363.775 599.575C355.503 601.064 346.069 599.825 337.63 600.152L275.755 602.192C263.794 602.602 251.531 602.619 239.655 604.08C239.967 610.987 239.405 621.129 243.008 627.195C248.159 635.867 275.484 640.396 285.517 643.357C288.87 644.347 294.007 645.668 295.769 648.912C295.878 649.826 295.983 650.543 295.576 651.416C293.608 655.628 284.314 657.907 280.197 659.126C268.87 662.479 256.788 664.505 245.026 665.508C224.613 667.248 136.538 667.118 122.8 658.929C121.48 658.142 121.119 657.402 120.74 655.956C122.884 645.92 159.694 636.546 168.452 628.465C173.588 623.726 172.95 611.329 173.001 604.819C160.97 603.592 148.476 604.648 136.396 604.832C107.603 605.27 78.8035 606.536 50.0194 606.887C46.6152 606.929 41.0111 607.381 38.4974 604.806C36.2589 602.513 35.6969 599.997 35.4953 596.903C34.7181 584.971 36.2791 572.393 36.6873 560.427C36.9493 552.747 36.3999 545.077 36.598 537.395C36.9355 524.305 38.0736 511.266 38.6786 498.192C39.2115 486.677 38.8493 475.121 39.1305 463.597L41.0285 398.502C41.1989 391.391 42.1844 382.9 47.7107 377.81C47.8893 377.645 48.0759 377.49 48.2545 377.325C48.4085 377.184 48.5511 377.03 48.7084 376.892C51.164 374.737 57.5406 374.678 60.7534 374.524C75.3974 373.821 90.151 375.761 104.847 375.305C122.031 374.773 139.188 373.612 156.379 373.198C179.448 372.643 202.561 372.933 225.637 372.93C237.796 372.929 250.865 372.209 262.849 372.705ZM312.557 66.2823C308.447 66.5911 303.567 66.9226 300.614 70.1857C297.515 73.6112 297.789 79.5431 297.479 83.9106Q351.725 84.9112 405.979 85.046L457.824 85.8291Q493.541 85.8016 529.255 86.2346L672.074 89.2356C692.597 89.4913 713.371 90.2858 733.875 89.5797C738.432 89.5135 743.067 89.6184 747.605 89.2011C747.407 84.078 747.307 77.9705 743.145 74.3078C737.856 69.6526 725.754 69.3752 719.04 69.0691C707.553 68.5454 695.957 69.1611 684.462 69.3784L637.246 69.9266C596.421 70.2812 555.503 69.5123 514.675 69.0792L391.63 67.3811C365.339 66.8109 338.856 65.0494 312.557 66.2823ZM297.583 92.059C295.511 115.664 295.534 139.57 294.793 163.251L290.775 271.752Q288.908 321.592 286.212 371.394C285.393 387.375 283.508 403.49 283.574 419.484C283.593 424.163 284.061 429.706 287.124 433.472C288.903 435.66 294.334 435.725 297.015 435.955C312.545 437.284 328.182 437.056 343.75 437.51C360.229 437.99 376.457 439.224 392.958 438.602C391.472 434.918 390.046 431.194 388.387 427.584C378.105 427.586 367.793 427.641 357.513 427.401C357.391 423.897 356.742 420.126 359.277 417.297C360.917 415.467 363.372 414.979 365.736 414.984C371.524 414.995 377.241 415.653 383.063 415.545Q380.786 409.97 378.253 404.506C371.537 403.855 364.793 403.572 358.056 403.226Q358.262 397.079 358.943 390.966C363.316 391.663 367.823 391.995 372.245 392.222L366.8 380.445C364.5 380.268 362.117 380.348 360.089 379.148C357.817 375.842 359.843 371.676 359.705 367.914C359.636 366.041 358.949 363.903 358.345 362.121C356.615 357.012 349.897 346.537 351.053 341.42C351.324 340.219 351.77 339.944 352.641 339.139C353.156 339.02 353.658 338.776 354.187 338.782C356.506 338.808 363.338 342.778 365.997 343.804Q370.246 345.461 374.717 346.366C384.005 348.203 393.268 346.333 402.523 347.474C402.563 350.301 403.283 355.061 401.412 357.387C400.123 358.989 397.975 359.106 396.088 359.377C418.686 364.373 441.499 367.272 464.515 369.477C478.531 370.819 492.673 372.496 506.75 372.917C530.603 373.63 555.523 370.494 578.643 364.696C581.507 353.616 580.916 341.724 581.256 330.352C581.549 320.531 582.105 310.71 582.515 300.893L588.411 159.492C589.013 145.873 588.056 123.76 591.404 111.396L603.763 111.948C604.033 117.089 604.464 122.35 603.233 127.401C600.052 127.687 597.341 127.494 595.195 130.227C594.791 130.742 594.602 131.237 594.436 131.861C594.747 133.326 595.361 134.294 596.649 135.128C597.932 135.958 599.012 136.046 600.491 136.062C601.338 136.071 602.183 136.086 603.03 136.083Q602.58 143.376 602.296 150.678C599.916 150.875 597.541 151.071 595.154 151.182C595.145 153.664 595.078 156.158 595.155 158.638C597.396 158.932 599.696 159.125 601.879 159.724C602.14 165.041 602.052 170.321 601.945 175.639C599.154 175.682 596.359 175.664 593.583 175.971C593.595 178.613 593.565 181.264 593.629 183.905L601.323 183.946Q601.136 191.533 600.855 199.117L592.619 199.046L592.078 207.878L600.485 208.04C600.508 212.264 601.464 219.268 599.3 222.949C596.87 224.804 593.98 222.741 591.627 225.272C591.483 227.973 591.463 230.74 591.026 233.411L599.476 233.791L598.551 247.412C595.954 247.788 593.326 248.095 590.75 248.596C590.521 250.701 590.215 252.827 590.137 254.944C593.826 256.206 596.31 256.73 598.105 260.54C598.978 262.393 599.16 264.555 598.389 266.475C597.668 268.273 596.118 270.489 594.217 271.159C593.665 271.354 593.094 271.461 592.53 271.607C591.774 271.803 591.025 272.033 590.272 272.242C589.869 274.418 589.124 276.778 589.83 278.929C591.732 280.678 594.527 280.556 597.014 280.786C597.14 284.713 598.233 291.147 595.241 294.15C593.541 295.857 591.115 295.892 588.86 296.151L587.992 304.685L596.364 304.936L595.916 318.984L588.091 319.441C587.856 321.573 587.049 325.04 588.512 326.847C589.871 328.525 592.3 328.462 594.237 328.6C594.633 328.629 595.029 328.669 595.425 328.703C595.416 333.417 595.438 338.106 595.018 342.806C592.446 343.564 589.504 343.946 587.426 345.704C586.478 347.778 585.847 349.927 586.535 352.185C588.172 353.427 592.761 352.376 594.933 352.266L595.497 361.018C608.492 356.657 621.803 352.538 631.66 342.515C632.118 339.173 632.016 331.603 634.907 329.597C637.262 327.963 641.216 328.607 643.941 328.706C644.054 342.67 640.605 341.369 636.261 352.214C638.591 352.665 640.781 352.772 642.285 354.843C644.541 357.949 642.475 364.791 642.349 368.505C639.475 368.393 635.718 368.746 633.048 367.871L631.569 365.856C629.554 366.64 626.94 373.817 625.939 376.097C620.454 388.586 615.884 401.505 610.83 414.174C607.038 423.679 602.014 433.405 599.799 443.425L663.001 442.58C678.162 442.415 728.969 443.842 739.375 439.727C741.555 437.158 742.277 432.403 742.688 429.1C743.413 423.272 743.511 417.301 743.826 411.437C744.247 403.609 744.891 395.763 745.046 387.926C745.25 377.649 744.923 367.361 745.147 357.084C745.345 347.957 746.068 338.848 746.28 329.723C746.577 316.938 746.16 304.097 746.286 291.299C746.43 276.744 747.098 262.16 747.047 247.613C747.003 235.163 746.376 222.709 746.119 210.261Q745.874 189.614 745.935 168.966C745.938 145.095 747.092 121.29 746.904 97.4184L554.217 96.3506C531.74 96.2686 509.296 96.6599 486.815 96.2515C440.776 95.415 394.76 93.1621 348.704 92.4248C331.772 92.1537 314.498 91.4515 297.583 92.059ZM771.696 317.089C770.911 320.638 770.806 324.298 770.579 327.916C784.702 329.21 798.954 329.476 813.116 330.183L886.445 333.978L937.333 336.869C951.153 337.735 965.192 338.927 979.037 338.647C978.47 335.296 977.829 332.639 974.9 330.568C969.243 326.569 951.23 325.407 943.762 324.839C929.916 323.785 915.889 324.069 902.006 323.615L826.484 320.791C809.13 320.171 788.573 320.044 771.696 317.089ZM770.888 336.819C770.923 339.492 771.036 342.188 770.948 344.86C783.209 345.848 795.545 346.474 807.779 347.565C807.925 350.245 808.701 354.742 807.069 356.95C794.99 357.728 782.707 355.327 770.591 355.448L770.479 362.95C775.919 362.12 781.709 362.728 787.198 362.924C786.816 365.687 786.835 369.779 785.606 372.166C784.461 372.859 783.824 373.13 782.459 372.868C778.935 372.193 774.734 369.221 771.337 371.172C769.807 373.115 769.866 375.245 769.985 377.606C775.148 378.857 781.415 378.699 786.729 379.019C801.895 379.931 818.204 379.898 833.112 381.984C832.512 384.983 832.227 387.963 831.956 391.006C811.29 389.922 790.289 387.507 769.619 387.479L769.557 393.766L775.498 394.687C775.003 397.692 774.493 400.688 774.179 403.719C772.611 403.941 770.649 403.968 769.415 405.036C769.007 406.215 769.142 406.811 769.436 408.008C770.496 409.461 771.62 409.975 773.354 410.206C776.384 410.611 779.488 410.193 782.542 410.522C782.544 412.841 783.106 417.802 781.565 419.628C781.123 420.152 780.031 420.162 779.385 420.137C776.155 420.013 771.926 418.339 769.032 420.236C768.372 421.66 768.486 422.07 768.627 423.591C769.748 425.195 771.15 425.476 773.022 425.825C779.724 427.075 786.843 426.529 793.635 427.006C793.058 429.927 792.433 432.824 792.219 435.8C784.441 435.498 776.445 434.815 768.676 435.266C768.334 442.902 768.735 451.606 765.581 458.721L786.07 460.071Q785.662 464.887 785.332 469.709C777.915 469.151 770.074 467.596 762.657 468.121C757.996 468.451 753.276 470.603 748.621 470.459C738.641 470.15 728.681 468.795 718.674 468.434C708.158 468.055 697.7 468.687 687.178 467.948C677.277 467.253 667.465 465.574 657.566 464.948C655.745 479.447 655.817 494.468 655.046 509.064C654.221 524.687 651.874 541.067 653.803 556.64C664.784 559.81 676.603 558.728 687.877 560.263L886.607 577.73L936.036 581.918C945.805 582.839 955.649 584.662 965.472 584.473Q969.309 505.966 974.575 427.541C976.269 401.384 976.622 373.534 979.511 347.694C961.446 343.152 939.896 344.918 921.243 343.859L825.254 339.336C807.181 338.487 788.987 336.619 770.888 336.819ZM361.14 352.576C372.399 378.83 385.564 404.211 396.788 430.479C412.807 467.969 426.449 506.701 440.102 545.112C445.512 560.33 452.513 576.925 456.937 592.19C461.419 583.418 466.542 578.574 476.013 575.52C484.023 572.937 515.281 566.582 521.818 570.248C524.882 571.967 526.123 576.165 526.85 579.37C527.936 584.157 528.487 589.162 529.212 594.019C532.717 584.818 536.859 575.824 540.745 566.778L560.054 521.183C583.806 466.087 605.47 410.189 628.049 354.612C619.373 359.366 610.615 363.729 601.206 366.886C544.037 386.066 453.305 383.944 395.797 367.176C383.563 363.608 372.231 358.917 361.14 352.576ZM166.481 390.207C141.981 392.411 117.383 392.374 92.8025 392.231C80.2783 392.158 67.242 390.758 54.8081 392.592C53.6896 400.533 53.9348 408.435 53.7545 416.423C53.521 426.764 53.093 437.111 52.6828 447.446L50.5634 515.711C50.0084 533.101 49.0436 550.583 49.3034 567.979C49.3294 569.722 49.15 572.613 50.2361 574.07C52.6006 577.242 67.8088 575.984 71.9871 575.848C102.522 574.853 133.064 573.355 163.618 572.958C190.323 572.611 217.11 573.419 243.785 572.221C282.509 571.188 321.158 572.511 359.85 569.276C362.685 556.713 361.182 539.966 361.192 526.899L361.424 460.228C353.274 459.802 345.077 460.073 336.916 459.962C326.632 459.822 316.331 459.305 306.053 458.904C297.344 458.565 288.076 458.931 279.68 456.308C274.971 454.837 270.897 452.061 267.603 448.42C255.187 434.699 261.281 407.868 261.501 390.535L195.978 390.575C186.213 390.517 176.211 389.521 166.481 390.207ZM813.284 579.392C811.13 581.102 809.151 582.937 808.785 585.829C808.626 587.089 808.714 588.328 809.526 589.372C810.852 591.074 812.803 591.482 814.837 591.59C816.838 590.609 818.4 589.873 819.117 587.598C819.615 586.016 819.531 584.233 818.721 582.77C817.966 581.408 816.478 580.114 814.985 579.639C814.417 579.459 813.867 579.44 813.284 579.392ZM205.348 582.047C203.305 583.801 201.725 585.471 201.602 588.306Q201.589 588.591 201.606 588.875Q201.623 589.16 201.67 589.441Q201.717 589.723 201.794 589.997Q201.871 590.272 201.976 590.537Q202.081 590.802 202.214 591.054Q202.347 591.307 202.506 591.543Q202.664 591.78 202.847 591.999Q203.03 592.218 203.235 592.416C205.115 594.242 207.321 594.283 209.792 594.155C211.576 593.071 213.137 592.155 213.7 589.985C214.159 588.219 213.729 586.435 212.638 585.005C211.441 583.437 209.528 582.245 207.544 582.082C206.805 582.021 206.087 582.004 205.348 582.047ZM791.297 598.132C789.531 609.516 791.024 619.1 780.378 626.801C767.616 636.032 751.788 638.57 737.793 645.136C761.185 654.508 788.598 657.401 813.55 658.996C820.59 659.446 827.645 659.489 834.682 659.993C852.99 659.106 870.29 657.3 888.134 652.991C875.039 646.999 849.356 638.995 844.205 624.172C841.871 617.455 842.513 610.132 841.285 603.212C824.794 600.348 807.861 600.415 791.297 598.132ZM519.512 602.568C516.709 604.37 514.055 606.057 510.916 607.232C511.024 610.805 511.536 614.624 509.979 617.944C509.319 618.315 509.126 618.663 508.343 618.411C506.109 617.695 504.62 615.191 502.243 615.047C501.075 616.003 500.856 617.235 500.738 618.721C500.522 621.44 500.975 624.269 501.188 626.979C501.795 634.683 499.567 639.645 496.266 646.359C495.224 648.479 494.413 650.711 496.027 652.685C496.806 652.789 497.591 652.934 498.377 652.953C505.31 652.602 515.639 653.21 520.678 647.634C524.309 643.617 524.356 637.517 523.926 632.414C523.679 629.476 523.388 626.528 522.777 623.641L527.466 619.794C525.599 615.854 523.186 612.171 521.525 608.145C520.961 606.775 520.451 603.462 519.512 602.568ZM183.159 604.374C181.693 604.768 181.086 604.689 180.272 606.055C178.266 609.423 178.712 618.773 177.895 623.021C177.379 625.699 176.663 628.941 174.959 631.11C167.228 640.949 144.021 648.45 132.563 653.899C154.221 658.486 175.882 658.953 197.935 659.148C207.733 659.235 217.583 659.507 227.375 659.163C245.117 658.51 263.231 657.003 280.208 651.426L279.597 651.083C269.25 645.326 249.001 642.146 241.656 636.174C238.616 633.702 236.805 630.342 235.71 626.629C233.594 619.447 233.61 611.384 233.496 603.937L202.277 603.894C196.003 603.893 189.368 603.496 183.159 604.374ZM511.41 657.72C503.739 657.976 490.65 657.166 484.391 662.224C484.106 662.848 483.699 663.285 483.915 663.987C484.251 665.084 485.283 666.112 486.312 666.594C487.172 666.996 488.148 667.209 489.077 667.385C497.83 668.05 506.562 668.617 515.098 666.069C515.097 663.559 515.456 660.632 514.332 658.341C513.248 657.416 512.798 657.677 511.41 657.72ZM523.26 667.905C512.625 675.493 500.54 675.478 487.996 673.314C483.663 672.566 479.521 671.355 475.338 670.028C454.438 680.305 424.456 700.277 413.994 721.224C421.44 729.942 430.532 735.987 440.984 740.669C442.246 737.471 447.741 723.862 450.324 722.71C451.092 722.367 451.461 722.629 452.234 722.814C453.137 723.729 453.59 724.584 453.571 725.893C453.506 730.389 444.866 740.748 447.982 744.358C452.014 749.029 467.236 747.59 472.918 747.427C475.779 747.346 478.675 747.345 481.528 747.126C496.846 746.683 512.245 746.844 527.571 747.009C537.569 747.116 547.572 747.539 557.562 746.863C560.575 744.737 562.48 742.55 564.395 739.419L564.328 738.687C563.631 731.528 557.738 714.336 560.121 708.471C561.281 708.681 561.384 709.049 562.04 709.979C566.655 716.525 567.989 726.047 569.842 733.7Q579.094 729.55 587.972 724.651C583.999 711.167 577.981 685.251 565.252 677.971C559.38 674.613 529.586 667.357 523.26 667.905ZM606.901 719.571C610.185 741.024 615.172 762.154 618.851 783.541C627.334 783.427 636.348 783.487 644.795 784.327L647.216 772.621Q653.086 746.972 658.088 721.139C642.325 720.518 622.304 718.742 606.901 719.571ZM599.152 722.292C597.741 723.947 596.783 725.437 595.9 727.425C599.804 741.029 604.315 754.057 605.412 768.301C605.626 771.085 602.423 781.032 604.169 782.491L606.114 782.566C607.457 782.688 610.312 783.345 611.387 782.673C610.426 772.816 608.186 763.003 606.506 753.241C605.025 744.634 604.08 735.358 601.643 726.991C601.125 725.215 600.577 723.555 599.152 722.292ZM411.621 729.266C404.148 740.602 388.467 764.057 391.131 777.616C392.065 782.366 394.415 785.018 398.34 787.606C404.55 787.523 409.96 786.117 415.889 784.45C417.617 784.055 419.015 783.757 420.038 782.139C425.41 773.638 413.55 753.951 432.42 748.636C434.533 748.04 436.74 747.705 438.904 747.341C428.69 742.068 420.233 736.931 411.621 729.266ZM588.64 731.535C579.694 735.818 572.277 739.824 565.747 747.395C569.719 749.421 571.844 751.281 573.328 755.596C575.501 761.911 572.789 789.769 575.637 791.029C575.779 791.091 575.947 791.054 576.101 791.067C582.324 789.972 590.932 788.657 594.81 783.042C600.521 774.772 598.638 766.93 596.684 757.799C595.568 752.578 592.217 734.754 588.863 731.658C588.8 731.601 588.714 731.576 588.64 731.535ZM380.831 751.158C367.918 752.874 358.941 761.18 351.19 771.107C349.728 772.979 348.386 775.956 348.667 778.349C349.655 778.294 349.567 778.143 350.21 777.403C351.775 775.602 352.389 773.54 353.57 771.534C359.726 763.679 367.738 756.393 378.069 755.176C380.059 754.942 388.753 756.143 389.322 755.795C389.728 755.546 389.929 755.061 390.233 754.694C390.439 753.454 390.526 753.344 389.961 752.241C387.043 751.202 383.912 750.969 380.831 751.158ZM380.122 763.642C374.461 764.428 369.852 766.727 365.06 769.754C367.146 769.994 369.282 770.354 371.375 770.464C375.626 770.527 379.821 770.649 384.054 771.055C384.561 769.032 385.217 767.153 384.813 765.061C384.051 764.065 383.84 763.831 382.511 763.611C381.777 763.489 380.87 763.604 380.122 763.642ZM260.934 782.88C260.955 786.82 260.91 790.775 261.065 794.711C313.999 795.886 366.985 798.853 419.94 798.444L420.565 792.909L420.209 790.842C418.773 790.047 417.843 790.259 416.287 790.706C409.581 792.635 402.142 796.891 395.291 793.267C392.254 791.66 389.752 788.828 387.618 786.184Q348.541 785.443 309.475 784.266C293.342 783.9 277.016 784.293 260.934 782.88ZM599.828 789.621C596.256 791.569 592.769 793.454 588.87 794.665C585.435 795.732 577.116 796.051 574.993 797.794C574.833 799.058 574.786 799.647 575.358 800.8C576.657 801.843 578.436 801.669 580.029 801.744C592.595 802.341 605.286 801.813 617.872 802.013L687.191 803.501C695.09 803.555 703.044 804.155 710.929 803.862C711.052 800.607 711.19 797.367 711.48 794.122C681 792.33 650.528 791.91 620.042 790.463C613.317 790.143 606.538 790.11 599.828 789.621ZM302.463 802.94C301.8 828.05 301.915 853.166 301.379 878.272C300.833 903.878 299.636 929.514 300.008 955.127L312.484 955.299L314.367 856.925L315.078 825.909C315.302 818.487 315.79 810.987 315.504 803.567C311.158 803.045 306.832 803.004 302.463 802.94ZM322.24 803.944C320.477 826.682 321.722 849.259 321.142 871.989L319.896 924.998C319.641 935.182 318.742 945.394 319.205 955.582Q359.344 956.713 399.433 959.025L400.401 943.625L403.122 900.998C403.653 891.637 403.126 881.481 405.364 872.381C406.613 867.305 408.157 863.475 412.166 859.924C413.941 858.352 415.882 856.944 417.78 855.525C418.659 839.033 419.138 822.541 419.918 806.049Q371.102 803.916 322.24 803.944ZM577.289 808.253L575.899 808.758C573.918 815.678 574.825 850.609 576.037 859.068C583.641 864.697 586.488 869.504 587.833 878.838C588.842 885.842 589.191 893.053 589.797 900.106L592.84 934.831C593.544 943.186 593.746 952.151 595.796 960.299L622.287 960.741C628.883 960.914 642.743 962.413 648.453 960.875C649.541 953.768 648.985 946.128 649.256 938.915C650.053 917.678 650.242 896.507 650.592 875.264C650.791 863.14 651.287 851.01 651.638 838.889C651.914 829.365 652.385 819.687 651.213 810.201C638.433 809.752 625.637 809.661 612.861 809.155C601.078 808.688 589.074 807.676 577.289 808.253ZM658.492 810.197C657.721 819.25 657.958 828.487 657.791 837.574L657.142 893.669C657.077 901.691 656.444 909.697 656.182 917.713Q655.434 939.64 655.878 961.574C660.369 961.677 664.875 961.707 669.36 961.944C669.578 961.647 669.896 961.402 670.013 961.053C670.861 958.501 670.158 948.848 670.232 945.61C670.433 936.878 670.911 928.16 670.993 919.423C671.197 897.421 670.759 875.419 671.046 853.404L671.597 828.178C671.71 823.807 672.355 818.648 671.64 814.34C671.394 812.858 670.918 811.392 669.505 810.63C666.965 809.259 661.376 810.111 658.492 810.197ZM416.577 863.779C413.785 867.033 411.991 869.829 411.009 874.07C408.537 884.754 409.389 898.004 408.697 909.12C407.942 921.257 407.013 933.383 406.492 945.533C406.338 949.134 405.663 952.68 405.85 956.298C405.896 957.191 406.047 957.856 406.349 958.686C406.984 958.947 407.438 959.121 408.124 959.22C410.025 959.272 411.955 959.4 413.854 959.329C413.808 949.099 419.226 866.495 417.304 864.322C417.183 864.184 417.079 864.027 416.932 863.917C416.83 863.841 416.695 863.825 416.577 863.779ZM576.014 867.219C575.869 882.768 576.969 898.411 577.697 913.939L579.538 960.188L588.75 960.353C587.789 942.295 585.719 924.277 584.195 906.257C583.399 896.847 583.45 884.905 581.374 875.903C580.657 872.797 579.475 870.128 577.062 867.983C576.564 867.54 576.636 867.624 576.014 867.219Z"/>
	<path d="M317.514 80.6776C315.303 80.9206 313.009 80.9338 311.285 79.2796C310.107 78.1487 309.695 76.562 309.851 74.9773C310.109 72.3704 311.529 71.0395 313.423 69.4009C315.696 69.3313 317.995 69.515 319.737 71.1644C320.652 72.0299 321.134 73.1874 321.137 74.4439C321.143 77.1441 319.351 78.9554 317.514 80.6776Z"/>
	<path d="M332.148 81.0379C331.361 81.0782 330.511 81.1536 329.728 81.0689C328.086 80.8911 326.2 79.9033 325.331 78.4271C324.61 77.203 324.347 75.9217 324.655 74.5285C325.165 72.2221 326.598 71.1991 328.489 69.9732C329.081 69.9134 329.648 69.8312 330.249 69.8948C331.761 70.0549 333.443 70.9412 334.39 72.137C335.387 73.3976 335.697 75.0116 335.428 76.5785C335.061 78.7163 333.83 79.8184 332.148 81.0379Z"/>
	<path d="M345.105 81.9606C344.766 81.9426 344.426 81.9303 344.087 81.9065C342.262 81.7788 340.419 81.0602 339.313 79.527C338.38 78.2337 338.223 76.7478 338.633 75.237C339.345 72.6119 341.009 71.7241 343.242 70.4704C343.574 70.4843 343.906 70.4929 344.238 70.5123C346.101 70.6216 347.889 71.2489 349.018 72.8245C349.906 74.0644 349.974 75.6547 349.58 77.08C348.88 79.611 347.303 80.7342 345.105 81.9606Z"/>
	<path d="M311.984 118.959C312.546 114.92 312.206 110.828 312.863 106.801C319.279 106.305 326.006 106.792 332.451 106.894C332.086 110.958 332.41 115.041 331.661 119.074Q321.82 119.389 311.984 118.959Z"/>
	<path d="M373.017 120.886C372.643 116.93 372.649 113.021 373.165 109.08C386.001 108.076 399.542 108.926 412.365 110.069C412.519 113.982 412.727 117.7 411.498 121.489C402.88 123.313 382.836 121.362 373.017 120.886Z"/>
	<path d="M423.716 121.554C423.877 117.689 423.871 113.812 423.914 109.944C435.081 109.92 446.247 110.25 457.411 110.211C469.983 110.167 482.837 109.645 495.344 111.083C494.97 114.558 494.821 118.054 494.423 121.536L494.125 122.607C492.49 123.359 429.966 121.983 423.716 121.554Z"/>
	<path d="M510.077 123.418C510.15 119.326 510.443 115.09 510.04 111.018L562.427 112.008L561.964 123.996C544.671 123.964 527.366 123.25 510.077 123.418Z"/>
	<path d="M641.284 127.737C640.963 122.773 640.601 116.81 642.294 112.06C645.854 111.969 649.443 112.103 653.005 112.144Q652.997 114.633 652.935 117.122C652.862 119.731 653.089 125.905 651.163 127.728C647.883 127.832 644.568 127.736 641.284 127.737Z"/>
	<path d="M694.016 124.751C693.988 121.233 694.159 117.921 694.727 114.448L724.976 114.554C725.04 118.359 724.656 122.158 724.349 125.947C714.228 126.219 704.024 126.487 694.016 124.751Z"/>
	<path d="M329.994 143.489C325.326 143.629 318.077 144.754 313.8 143.108C312.498 142.607 311.618 141.737 311.143 140.406C310.276 137.972 311.627 133.394 312.518 131.077C316.814 130.923 321.929 130.242 326.142 131.057C327.977 131.412 329.736 132.113 330.692 133.844C332.217 136.607 330.814 140.692 329.994 143.489Z"/>
	<path d="M372.285 144.942Q371.941 141.826 371.993 138.692Q372.045 135.558 372.492 132.455C400.427 133.463 428.469 133.181 456.423 133.862C456.126 137.717 456.073 141.609 455.933 145.473C428.296 146.883 399.911 146.61 372.285 144.942Z"/>
	<path d="M472.583 146.376C472.665 142.408 472.508 138.407 471.84 134.493Q501.436 134.606 531.022 135.415C531.053 139.454 531.108 143.487 530.899 147.523C511.486 147.598 491.999 146.046 472.583 146.376Z"/>
	<path d="M639.844 151.481C640.265 146.511 640.561 141.521 640.916 136.546C644.47 136.572 647.985 136.705 651.531 136.95C651.386 141.873 651.576 147.075 650.766 151.932Q645.308 151.635 639.844 151.481Z"/>
	<path d="M723.849 149.871C723.595 149.897 723.341 149.934 723.086 149.949C718.063 150.251 696.207 150.64 693.305 147.922C692.321 144.605 693.118 141.255 693.734 137.938C701.039 138.552 716.873 137.387 722.339 138.802C723.469 139.095 723.748 139.345 724.318 140.371C725.804 143.046 724.524 147.132 723.849 149.871Z"/>
	<path d="M329.043 167.409C325.823 167.627 322.595 167.88 319.37 168.004C316.852 168.102 313.958 168.037 312.094 166.092C309.577 163.467 310.905 158.24 311.267 155.038C315.748 155.003 320.528 154.291 324.961 154.841C326.766 155.065 328.555 155.651 329.548 157.302C331.206 160.06 329.758 164.468 329.043 167.409Z"/>
	<path d="M371.092 168.786C370.856 164.746 371.13 160.817 371.642 156.81C399.519 157.886 427.458 157.494 455.35 158.568C455.211 162.186 455.067 165.786 454.721 169.391C453.818 170.068 452.789 170.088 451.691 170.125C435.549 170.665 419.069 169.613 402.909 169.266C392.359 169.04 381.589 169.664 371.092 168.786Z"/>
	<path d="M493.759 171.159C486.596 170.951 475.891 171.782 469.297 169.489C467.494 166.885 468.446 161.347 468.595 158.223C476.823 159.097 485.495 158.531 493.785 158.604Q493.884 164.882 493.759 171.159Z"/>
	<path d="M508.088 170.859C508.08 167.169 507.765 163.128 508.889 159.584C516.883 159.136 550.385 158.983 556.673 160.784C557.515 161.025 558.086 161.138 558.416 161.971C559.486 164.666 558.872 169.066 557.877 171.707C541.538 172.586 524.436 171.688 508.088 170.859Z"/>
	<path d="M639.498 175.377C639.342 170.226 639.703 165.047 639.93 159.901C643.525 160.234 647.104 160.43 650.712 160.569C650.452 165.454 650.758 170.432 649.785 175.245C646.426 175.684 642.886 175.432 639.498 175.377Z"/>
	<path d="M692.041 173.442C692.061 169.626 692.3 165.829 692.53 162.02C703.021 161.787 713.586 162.049 724.083 162.075L723.266 173.873C719.699 174.135 715.878 173.692 712.29 173.612Q702.166 173.473 692.041 173.442Z"/>
	<path d="M309.72 191Q309.681 184.95 309.879 178.904C316.277 178.94 322.671 178.927 329.06 179.31C328.268 182.957 328.22 186.968 327.914 190.697C322.029 191.508 315.662 191.024 309.72 191Z"/>
	<path d="M370.087 191.598C369.816 187.85 369.142 183.561 370.53 180.001C383.692 180.983 396.806 180.626 409.97 181.261C409.823 185.12 410.213 190.033 408.148 193.41C395.509 192.606 382.661 193.478 370.087 191.598Z"/>
	<path d="M421.957 193.529C422.162 189.349 422.255 185.209 422.185 181.024Q466.479 181.351 510.759 182.506C510.663 186.139 511.194 191.325 509.872 194.667L509.048 194.941C497.15 193.969 485.064 194.049 473.132 193.799C456.039 193.442 439.05 192.992 421.957 193.529Z"/>
	<path d="M638.447 198.848C638.752 194.063 638.481 189.2 639.354 184.469C642.994 184.507 646.477 184.754 650.085 185.234C649.96 189.892 649.69 194.497 649.149 199.126L638.447 198.848Z"/>
	<path d="M691.42 197.673C691.439 193.724 691.478 189.813 691.816 185.877Q707.235 186.098 722.656 186.037C722.596 190.016 722.542 193.968 722.143 197.931C711.867 198.197 701.685 198.229 691.42 197.673Z"/>
	<path d="M308.45 214.334C308.493 210.476 308.209 206.254 309.177 202.511C315.458 202.466 321.709 202.423 327.984 202.762C327.524 206.672 327.251 210.599 326.953 214.524C321.34 215.753 314.077 215.422 308.45 214.334Z"/>
	<path d="M447.439 217.459C440.112 216.161 431.312 217.093 423.851 217.125C410.884 217.182 397.989 217.091 385.031 216.58C380.249 216.392 374.616 216.757 370.118 215.077C368.199 212.333 369.319 207.342 369.57 204.126C382.542 203.886 395.476 204.495 408.44 204.832C421.669 205.175 434.815 205.281 448.033 206.079Q447.839 211.774 447.439 217.459Z"/>
	<path d="M461.296 217.101C461.284 213.179 461.625 209.385 462.165 205.503Q475.599 205.837 489.037 205.924C488.83 210.287 488.742 214.697 488.175 219.029C479.335 218.801 469.945 219.031 461.296 217.101Z"/>
	<path d="M504.649 206.354L514.625 206.247C528.422 206.021 542.629 206.036 556.383 207.135C556.884 211.169 556.702 214.976 556.436 219.018L547.375 218.996C533.164 218.905 518.961 218.156 504.735 218.197C504.518 214.274 504.655 210.286 504.649 206.354Z"/>
	<path d="M637.055 223.152C636.963 218.232 637.322 213.332 637.879 208.448C641.579 208.763 645.346 208.783 649.059 208.926Q648.723 216.004 648.283 223.076L637.055 223.152Z"/>
	<path d="M690.427 221.946C690.945 217.944 690.861 213.945 690.839 209.919C701.047 210.307 711.273 210.135 721.484 209.955C721.164 213.793 721.345 217.649 720.925 221.481C710.773 221.972 700.59 221.898 690.427 221.946Z"/>
	<path d="M307.54 238.531C307.422 235.018 306.533 229.198 308.446 226.124C314.387 225.837 320.427 226.041 326.379 226.043C326.353 229.445 326.941 235.308 325.219 238.291C319.308 238.044 313.447 238.29 307.54 238.531Z"/>
	<path d="M367.973 240.054C367.857 236.068 367.783 231.984 368.295 228.024C381.951 228.096 395.658 228.746 409.326 228.918C422.33 229.083 435.355 228.78 448.352 229.269C448.016 233.143 447.924 237.01 447.478 240.882C444.602 242.623 376.614 240.618 367.973 240.054Z"/>
	<path d="M463.041 241.306C463.039 238.038 462.343 232.654 463.43 229.684Q494.69 230.521 525.96 230.422Q525.986 236.427 525.884 242.432C519.389 241.293 511.274 242.099 504.62 242.049Q483.826 241.935 463.041 241.306Z"/>
	<path d="M636.375 247.344C635.948 242.335 636.311 237.413 636.714 232.414L647.763 233.19C648 237.663 647.871 242.708 647.084 247.116Q641.731 247.295 636.375 247.344Z"/>
	<path d="M689.601 245.196C690.09 241.531 690.045 237.671 690.204 233.971Q705.372 234.041 720.532 234.52L720.041 245.516C709.885 245.106 699.763 245.141 689.601 245.196Z"/>
	<path d="M307.019 262.547C306.874 258.553 306.12 253.806 307.119 249.931C313.094 249.471 319.454 249.962 325.464 250.027C325.452 254.047 325.829 258.626 324.602 262.479C318.802 262.884 312.836 262.602 307.019 262.547Z"/>
	<path d="M366.902 263.948C366.849 259.996 366.592 255.722 367.728 251.908C380.597 253.444 393.633 250.774 406.407 253.432C406.395 257.278 406.165 261.101 405.935 264.939C392.925 264.38 379.906 264.759 366.902 263.948Z"/>
	<path d="M418.117 264.967C418.263 260.66 418.155 256.322 418.151 252.011C441.572 251.983 465.034 253.291 488.468 253.501C488.662 257.328 488.58 260.829 487.666 264.565C484.89 265.88 426.579 264.865 418.117 264.967Z"/>
	<path d="M501.497 266.017Q501.789 259.787 501.922 253.552C511.521 254.212 521.291 253.765 530.913 253.822C538.929 253.87 547.275 254.551 555.237 253.678C555.146 257.882 555.148 262.113 554.756 266.302C546.83 267.309 538.54 266.286 530.568 266.07C520.894 265.809 511.175 265.991 501.497 266.017Z"/>
	<path d="M635.51 270.91C635.546 265.904 635.812 260.894 635.859 255.882C639.534 256.309 643.174 256.479 646.87 256.591C646.381 261.244 646.607 265.924 646.048 270.595C642.588 271.018 638.996 270.883 635.51 270.91Z"/>
	<path d="M688.888 268.929C688.864 265.339 688.429 260.924 689.877 257.591C699.91 258.118 709.976 257.999 720.018 258.549C720.027 262.214 720.322 266.213 719.398 269.77C709.218 269.144 699.082 269.004 688.888 268.929Z"/>
	<path d="M323.711 285.81C320.874 286.7 312.107 286.454 309.145 285.881C307.625 285.588 306.32 284.888 305.622 283.442C304.568 281.258 305.995 275.811 306.583 273.551C312.518 273.733 318.464 273.755 324.401 273.878C324.273 277.858 324.228 281.858 323.711 285.81Z"/>
	<path d="M448.198 289.314C438.693 288.606 429.034 288.278 419.504 288.117C411.874 287.989 369.235 289.045 365.946 286.338C364.973 283.327 365.407 279.107 366.087 276.057C382.214 275.636 398.25 276.373 414.36 276.773C425.881 277.059 437.429 276.963 448.954 277.01C449.106 281.182 448.946 285.205 448.198 289.314Z"/>
	<path d="M458.832 289.568C458.85 285.533 458.482 280.926 459.553 277.032Q491.622 276.71 523.68 277.592C523.879 281.703 524.302 285.983 522.922 289.937C501.655 289.922 480.042 288.572 458.832 289.568Z"/>
	<path d="M634.58 294.892C635.093 290.197 635.117 285.396 635.311 280.676Q640.572 280.759 645.83 280.945C645.229 285.542 645.673 290.323 645.16 294.976C641.645 294.821 638.1 294.899 634.58 294.892Z"/>
	<path d="M687.83 292.875C688.426 289.232 688.597 285.611 688.77 281.928Q703.975 281.913 719.167 282.529C719.135 285.061 719.763 291.511 718.338 293.312C708.165 292.794 698.072 293.639 687.83 292.875Z"/>
	<path d="M305 309.914C304.963 305.415 304.583 300.726 306.124 296.431C312.073 297.615 318.248 297.482 324.29 297.567C324.426 301.673 324.253 305.952 323.208 309.936L305 309.914Z"/>
	<path d="M364.87 310.725C364.824 306.573 364.614 302.542 366.08 298.581C376.637 300.124 393.267 299.74 404.292 299.731C404.322 303.738 404.5 307.805 403.87 311.774C393.664 312.985 375.557 311.593 364.87 310.725Z"/>
	<path d="M416.689 312.126C416.99 308.106 416.901 304.056 416.893 300.027C428.506 299.859 440.273 300.548 451.89 300.842C461.931 301.095 472.421 300.813 482.385 302.044C482.034 305.646 481.873 309.489 480.904 312.975C459.494 313.048 438.101 312.281 416.689 312.126Z"/>
	<path d="M498.021 313.499C497.955 309.364 497.747 305.167 498.835 301.142C516.575 303.294 534.747 301.153 552.558 302.248C551.997 306.179 552.033 310.272 551.876 314.241C546.191 314.534 540.44 314.094 534.75 313.998L498.021 313.499Z"/>
	<path d="M633.43 319.188C633.919 314.459 633.95 309.653 634.123 304.902C637.733 304.667 641.405 304.863 645.023 304.932L644.407 319.192L633.43 319.188Z"/>
	<path d="M686.807 317.014C687.433 313.335 687.528 309.624 687.693 305.902C697.89 306.299 708.243 305.976 718.456 305.977C718.142 310.109 718.271 314.275 717.972 318.417C707.573 317.318 697.247 317.18 686.807 317.014Z"/>
	<path d="M322.265 333.384C321.871 333.745 321.48 333.962 320.939 334.073C318.542 334.564 306.732 334.638 305.357 333.158C302.965 330.582 304.337 323.67 304.656 320.513Q313.784 320.786 322.915 320.71Q322.75 327.055 322.265 333.384Z"/>
	<path d="M500.821 336.914C474.414 337.36 448.179 335.62 421.823 335.498Q406.23 335.561 390.639 335.842C383.29 335.956 374.606 336.699 367.416 335.192C366.591 335.019 365.92 334.997 365.494 334.232C363.891 331.348 364.963 325.571 365.73 322.476C370.171 323.207 374.926 322.986 379.427 323.167Q396.059 323.896 412.706 323.924Q457.086 323.88 501.462 324.512C501.63 328.682 501.842 332.832 500.821 336.914Z"/>
	<path d="M686.014 341.079C686.53 337.43 686.541 333.646 686.711 329.963C696.842 330.423 707.042 329.936 717.192 330.222C717.169 333.671 717.444 337.468 716.756 340.84L715.9 341.279Q700.956 341.345 686.014 341.079Z"/>
	<path d="M303.066 357.375C302.987 353.119 302.568 348.639 304.34 344.658C310.368 344.184 316.608 344.261 322.505 345.682C322.633 349.576 323.296 354.521 321.167 357.938C315.138 358.161 309.086 357.687 303.066 357.375Z"/>
	<path d="M416.394 358.572C416.209 356.216 415.71 353.328 416.165 351.011C416.566 348.964 417.393 348.176 419.076 347.121C439.457 346.67 459.737 347.601 480.101 347.846C480.123 350.937 480.904 356.266 479.091 358.858C478.534 359.654 477.77 359.531 476.876 359.706C468.867 360.127 460.67 359.682 452.643 359.585C440.569 359.439 428.438 359.486 416.394 358.572Z"/>
	<path d="M818.771 357.482L819.081 347.252C824.549 348.433 830.551 348.299 836.132 348.537C835.708 351.804 835.547 355.078 835.366 358.366C830.02 358.687 824.146 357.768 818.771 357.482Z"/>
	<path d="M494.555 359.777C494.325 355.948 494.138 351.734 495.134 348.008C502.393 347.686 545.162 346.706 549.726 349.76C550.416 352.431 550.85 357.657 549.86 360.241C531.557 360.313 512.821 360.673 494.555 359.777Z"/>
	<path d="M855.556 569.64C853.873 569.56 851.285 569.696 849.892 568.618C849.016 567.941 848.711 567.272 848.585 566.215C847.838 559.977 849.355 552.394 849.86 546.048Q851.3 527.537 852.479 509.008L859.254 404.548C860.28 389.261 860.524 373.703 862.203 358.496C862.598 354.922 862.955 352.24 865.33 349.393C865.912 349.44 866.494 349.488 867.071 349.575C868.68 349.818 869.843 350.493 870.764 351.841C871.713 353.23 871.827 355.293 871.783 356.909C871.389 371.22 869.753 385.743 868.816 400.053L861.711 504.516L858.982 547.5C858.616 553.698 859.191 561.108 857.637 567.06C857.244 568.564 856.876 568.887 855.556 569.64Z"/>
	<path d="M893.412 365.171C893.889 361.674 893.324 357.497 894.441 354.21C897.503 354.096 900.644 354.395 903.706 354.556L902.876 365.876L893.412 365.171Z"/>
	<path d="M685.531 366.016L686.133 354.519C696.111 355.467 706.559 354.862 716.564 354.634C716.616 358.206 717.092 362.65 715.895 366.034C705.754 365.699 695.673 365.855 685.531 366.016Z"/>
	<path d="M934.548 366.33C934.905 363.34 934.817 360.277 934.856 357.268C942.383 357.58 949.887 358.259 957.418 358.526C957.109 361.375 957.074 364.25 956.977 367.113C949.542 367.451 941.978 366.74 934.548 366.33Z"/>
	<path d="M801.442 373.43C801.92 370.102 801.88 366.733 801.934 363.378C815.744 363.487 829.648 364.746 843.343 366.482C843.049 369.553 843.164 372.658 843.194 375.74C829.274 375.032 815.387 373.693 801.442 373.43Z"/>
	<path d="M302.421 380.384C302.648 376.093 302.652 371.638 303.518 367.422C308.007 368.14 312.678 367.068 317.115 367.934C318.856 368.274 320.149 368.954 321.111 370.503C322.818 373.254 321.393 377.77 320.688 380.697C315.181 381.826 308.045 380.679 302.421 380.384Z"/>
	<path d="M892.743 382.461Q892.991 376.928 893.618 371.425C896.503 371.48 899.182 371.712 902.021 372.226C902.034 375.706 901.625 379.245 901.368 382.718L892.743 382.461Z"/>
	<path d="M933.156 383.885L933.608 374.389C941.21 375.424 948.871 375.976 956.479 377.01Q955.825 380.925 955.26 384.853C950.511 385.949 938.68 384.21 933.156 383.885Z"/>
	<path d="M641.687 393.013C637.911 392.951 632.926 393.543 629.796 391.204C627.561 387.66 629.358 380.887 629.84 376.843Q636.179 376.956 642.51 377.277C642.176 382.523 642.31 387.786 641.687 393.013Z"/>
	<path d="M685.232 389.652C685.2 386.036 685.267 382.486 685.548 378.881C692.6 378.998 708.482 377.935 714.487 379.426C715.531 379.685 715.676 379.751 716.145 380.72C717.179 382.856 716.591 387.75 715.949 389.975Q700.588 390.008 685.232 389.652Z"/>
	<path d="M891.452 399.818C891.47 395.964 891.458 392.166 891.981 388.341C895.099 388.497 898.169 388.746 901.269 389.118C900.666 392.904 900.573 396.776 900.372 400.601C897.429 400.009 894.443 399.959 891.452 399.818Z"/>
	<path d="M301.659 403.287C301.438 399.19 301.354 394.991 302.212 390.965Q311.418 390.591 320.603 391.314C320.611 395.213 321.049 399.847 319.8 403.569C313.9 404.575 307.591 403.765 301.659 403.287Z"/>
	<path d="M931.651 400.865L932.093 392.313C939.754 392.512 947.38 393.225 955.002 393.989C954.541 396.731 954.424 399.606 954.183 402.381C947.262 403.456 938.604 401.687 931.651 400.865Z"/>
	<path d="M790.972 405.397C791.158 402.009 791.497 398.652 791.858 395.279C797.376 395.334 802.623 395.811 808.066 396.745C808.012 400.006 807.606 403.228 807.598 406.504Q799.293 405.83 790.972 405.397Z"/>
	<path d="M627.401 417.515Q627.807 409.224 628.575 400.959Q634.898 401.427 641.236 401.587C641.204 404.572 641.683 415.416 640.334 417.249C636.018 417.264 631.712 417.278 627.401 417.515Z"/>
	<path d="M684.209 414.48C683.983 410.923 683.538 405.977 685.952 403.104Q701.008 402.84 716.064 403.111C716.065 406.266 716.543 411.259 714.999 414.049L714.014 414.306C704.156 414.007 694.056 413.902 684.209 414.48Z"/>
	<path d="M890.118 416.871C890.255 413.132 890.173 409.209 890.858 405.533L900.13 406.063C899.611 409.875 899.607 413.735 899.147 417.558C896.155 417.197 893.125 417.07 890.118 416.871Z"/>
	<path d="M929.96 417.854C930.112 414.881 930.37 411.905 930.577 408.934C938.249 409.762 946.05 409.905 953.675 411.098C953.263 413.973 953.074 416.874 952.84 419.768C945.598 420.611 937.161 418.76 929.96 417.854Z"/>
	<path d="M319.394 427.442C315.92 427.66 312.416 427.96 308.937 428.015C306.664 428.051 304.091 427.767 302.493 425.97C299.991 423.155 300.906 417.946 301.033 414.509C307.501 414.921 313.988 414.941 320.466 415.038C319.805 419.099 319.698 423.336 319.394 427.442Z"/>
	<path d="M888.965 434.027C889.042 430.333 889.365 426.62 889.592 422.931C892.617 422.932 895.432 423.215 898.419 423.691L897.994 434.575L888.965 434.027Z"/>
	<path d="M625.673 439.998Q626.242 432.808 627.085 425.644C631.545 425.834 636.034 425.814 640.499 425.895C640.515 428.842 640.588 431.825 640.405 434.766C640.301 436.434 640.19 438.152 638.883 439.324C634.491 439.935 630.098 439.937 625.673 439.998Z"/>
	<path d="M928.154 435.349C928.486 432.301 928.415 429.255 928.854 426.207C936.752 426.433 944.944 426.898 952.751 428.096L951.226 437.621C943.612 436.598 935.836 435.572 928.154 435.349Z"/>
	<path d="M806.415 436.569C806.957 433.212 806.941 429.789 807.038 426.396C816.91 427.087 826.535 428.285 836.477 428.567L836.219 438.036C826.321 438.122 816.24 437.797 806.415 436.569Z"/>
	<path d="M683.482 438.42C683.399 434.58 683.493 430.815 683.754 426.982L716.258 427.495L716.006 438.821C709.517 440.087 691.396 438.463 683.482 438.42Z"/>
	<path d="M888.02 451.443C887.977 447.736 888.081 444.09 888.327 440.391C891.408 440.561 894.518 440.546 897.603 440.608C897.177 444.31 897.036 448.036 896.614 451.743L888.02 451.443Z"/>
	<path d="M776.977 452.213Q777.469 447.314 778.216 442.447C783.544 443.4 789.355 443.26 794.765 443.506C803.223 443.891 811.655 444.443 820.123 444.576C820.143 447.423 820.743 452.692 819.352 455.153C806.9 452.817 789.836 452.853 776.977 452.213Z"/>
	<path d="M927.038 452.441Q927.35 447.89 927.809 443.352C935.58 443.606 943.559 444.089 951.269 445.096C950.836 448.244 950.552 451.424 950.213 454.583L927.038 452.441Z"/>
	<path d="M895.329 468.732C893.435 468.921 889.852 468.999 888.377 467.607C886.011 465.375 886.963 459.995 887.096 457.057L896.594 457.906L895.329 468.732Z"/>
	<path d="M925.957 469.382C926.049 466.41 926.363 463.437 926.608 460.473C934.451 461.108 942.376 461.492 950.172 462.553C950.059 465.468 949.702 468.4 949.431 471.306C941.6 471.216 933.73 470.277 925.957 469.382Z"/>
	<path d="M804.988 471.477Q805.376 466.471 805.879 461.475C816.402 461.612 826.933 462.665 837.457 463.05C837.191 466.414 837.166 469.71 837.235 473.083C826.487 472.594 815.749 471.571 804.988 471.477Z"/>
	<path d="M668.933 477.946C669.067 475.15 669.45 472.344 669.742 469.56L681.503 470.118C681.274 472.938 681.186 475.735 681.134 478.563C677.043 478.653 673.004 478.284 668.933 477.946Z"/>
	<path d="M708.016 479.479C708.02 476.48 708.279 473.685 708.747 470.723C722.245 473.754 738.309 472.263 752.546 474.796L751.694 482.385C745.133 483.814 717.838 479.563 708.016 479.479Z"/>
	<path d="M885.167 486.355C885.154 482.388 885.014 478.012 886.083 474.179C889.086 474.59 892.135 474.552 895.162 474.613C895.072 478.499 895.203 482.591 894.275 486.378C891.242 486.487 888.201 486.396 885.167 486.355Z"/>
	<path d="M761.948 484.256C761.702 481.162 761.855 478.092 761.971 474.995C776.505 474.866 792.041 475.814 806.444 477.693C806.433 480.84 806.108 484.021 805.889 487.161C797.341 488.524 772.097 485.01 761.948 484.256Z"/>
	<path d="M925.028 486.96C924.989 483.887 925.175 480.828 925.337 477.761Q937.286 478.492 949.198 479.687C948.795 482.584 948.554 485.474 948.328 488.388C940.67 488.355 932.634 487.828 925.028 486.96Z"/>
	<path d="M679.813 494.294C677.069 494.082 670.851 494.399 669.108 492.119C667.587 490.13 668.438 486.29 668.64 483.956C672.6 483.873 676.607 484.291 680.558 484.559C680.459 487.847 680.301 491.037 679.813 494.294Z"/>
	<path d="M707.475 494.919C707.41 492.101 707.522 489.272 707.577 486.453C720.062 486.779 732.624 488.739 745.061 489.901C757.046 491.021 769.073 491.43 781.046 492.537C781.088 495.728 780.724 498.89 780.419 502.061C771.55 501.286 762.731 499.685 753.862 498.815C738.415 497.299 722.919 496.388 707.475 494.919Z"/>
	<path d="M883.984 502.942C884.033 499.079 884.23 495.299 884.617 491.456C887.151 491.358 890.801 490.822 892.717 492.864C894.879 495.168 893.612 500.088 893.252 502.891C890.505 503.483 886.836 503.008 883.984 502.942Z"/>
	<path d="M797.986 503.414C797.975 500.084 798.275 496.802 798.567 493.489C808.15 494.408 817.891 494.486 827.507 495.216C827.583 498.499 827.658 501.685 827.051 504.927C817.383 504.709 807.635 504.061 797.986 503.414Z"/>
	<path d="M924.078 503.372C924.014 500.743 924.03 498.107 924.009 495.477C932.043 495.606 940.124 496.245 948.131 496.905C948.037 499.74 947.621 502.593 947.317 505.413C939.338 505.666 931.925 504.819 924.078 503.372Z"/>
	<path d="M679.299 509.295C677.723 509.427 676.203 509.454 674.626 509.367C672.557 509.254 670.286 509.051 668.968 507.193C667.239 504.757 667.978 501.669 668.317 498.91C671.205 499.022 676.426 498.566 678.574 500.866C680.596 503.03 679.65 506.672 679.299 509.295Z"/>
	<path d="M706.568 510C706.73 507.136 706.732 504.244 706.8 501.375Q710.558 501.394 714.315 501.49C716.869 501.567 719.582 501.736 721.28 503.947C722.912 506.072 722.114 508.943 721.802 511.386Q714.234 510.156 706.568 510Z"/>
	<path d="M731.483 511.84C731.796 508.868 731.866 505.843 732.018 502.857C748.014 504.83 764.196 505.573 780.152 507.673L779.014 516.395C773.696 517.611 760.672 514.665 754.826 514.025Q743.171 512.759 731.483 511.84Z"/>
	<path d="M882.924 519.432C883.009 515.716 883.205 512.045 883.529 508.342C886.555 508.473 889.509 508.76 892.512 509.146C892.36 512.668 892.095 516.192 891.884 519.711C888.903 519.924 885.903 519.62 882.924 519.432Z"/>
	<path d="M803.879 517.384C801.109 517.371 797.735 517.813 795.418 516.127C794.85 515.203 794.574 514.665 794.468 513.561C794.3 511.802 794.594 510.438 795.72 509.105Q800.349 509.381 804.961 509.866C805.079 512.19 805.211 514.37 804.849 516.683L803.879 517.384Z"/>
	<path d="M922.765 520.268L923.085 512.463C931.162 512.462 939.213 513.141 947.262 513.752C946.75 516.588 946.501 519.432 946.24 522.298C938.229 522.319 930.624 521.961 922.765 520.268Z"/>
	<path d="M666.987 523.104C667.017 520.162 667.256 517.342 667.636 514.425C671.477 514.681 675.301 514.97 679.128 515.397C679.131 518.263 678.877 521.167 678.723 524.031C674.773 524.003 670.907 523.559 666.987 523.104Z"/>
	<path d="M705.437 525.366Q705.82 521.224 706.128 517.075C711.93 517.479 748.014 520.048 750.613 521.787C750.966 522.023 751.203 522.398 751.499 522.704C752.296 524.979 751.76 527.22 751.451 529.554L705.437 525.366Z"/>
	<path d="M781.411 533.604C777.214 533.033 772.917 533.095 768.763 532.456C766.597 532.124 764.023 531.41 762.789 529.412C761.317 527.028 762.132 524.059 762.64 521.498C769.01 521.253 775.685 522.445 782.044 523.104C782.048 526.592 781.661 530.124 781.411 533.604Z"/>
	<path d="M795.81 534.375C796.147 531.183 796.518 528.095 797.263 524.97C807.371 524.931 817.209 525.672 827.264 526.54C827.165 529.087 827.52 534.353 825.86 536.272Q810.765 536.439 795.81 534.375Z"/>
	<path d="M890.276 537.281C887.801 537.249 884.258 537.657 882.547 535.477C880.69 533.109 881.916 528.171 882.268 525.393C883.601 525.391 884.957 525.362 886.288 525.453C888.019 525.571 889.829 526.017 890.894 527.529C892.652 530.025 891 534.569 890.276 537.281Z"/>
	<path d="M677.42 539.263C674.481 539.022 669.089 539.27 667.219 536.66C665.733 534.587 666.452 531.365 666.667 528.988C670.453 528.904 674.257 529.306 678.03 529.599C678.092 532.833 677.72 536.047 677.42 539.263Z"/>
	<path d="M920.921 538.092C921.295 535.242 921.375 532.342 921.541 529.473C929.553 529.721 937.604 530.461 945.6 531.051L945.047 540.073C937.424 540.577 928.574 538.815 920.921 538.092Z"/>
	<path d="M705.029 540.131C705.006 537.496 704.554 534.071 705.548 531.621C709.591 531.887 714.002 531.514 717.966 532.287C719.698 532.625 721.605 533.414 722.461 535.071C723.507 537.095 722.652 539.486 722.151 541.537C716.485 541.77 710.656 540.764 705.029 540.131Z"/>
	<path d="M733.601 543.768C733.478 540.983 733.564 538.174 733.576 535.387C743.096 535.278 752.806 536.933 762.331 537.512C772.422 538.126 794.216 538.214 802.971 540.153L803.029 549.314C797.589 549.877 789.077 548.417 783.333 547.994C766.816 546.779 750.016 545.998 733.601 543.768Z"/>
	<path d="M879.939 553.943C880.542 550.169 880.709 546.252 881.036 542.44Q882.654 542.605 884.27 542.788C886.164 542.986 888.296 543.026 889.566 544.707C891.217 546.893 889.975 551.941 889.684 554.5L879.939 553.943Z"/>
	<path d="M676.915 553.576C675.122 553.553 673.303 553.555 671.52 553.347C669.414 553.1 667.014 552.661 665.825 550.673C664.466 548.399 665.596 545.59 666.276 543.296C670.091 543.736 673.81 544.219 677.551 545.094C677.269 547.911 677.116 550.752 676.915 553.576Z"/>
	<path d="M919.51 555.11C919.726 552.09 919.823 549.011 920.507 546.054C928.36 546.981 936.314 547.437 944.196 548.109C944.036 551.28 943.554 554.469 943.178 557.623C935.322 556.946 927.219 556.808 919.51 555.11Z"/>
	<path d="M703.416 554.807C703.556 552.099 703.949 549.583 704.472 546.929C715.049 546.931 726.173 549.098 736.732 550.16C750.519 551.545 764.486 552.106 778.196 554.08L777.806 563.531C766.388 562.477 755.053 560.678 743.643 559.554C730.481 558.257 716.289 557.927 703.416 554.807Z"/>
	<path d="M796.382 565.156C796.94 561.943 796.942 558.665 797.058 555.412C807.287 556.278 817.348 555.982 827.427 558.359C827.569 561.806 827.566 565.158 827.149 568.586C817.132 567.94 806.156 567.516 796.382 565.156Z"/>
	<path d="M879.072 571.34C878.973 567.669 879.261 564.139 879.648 560.49C883.053 560.495 886.304 560.691 889.682 561.121C889.288 564.564 888.875 567.989 888.314 571.41C886.087 572.234 881.519 571.461 879.072 571.34Z"/>
	<path d="M918.15 572.808C918.194 569.811 918.511 566.833 918.781 563.849C926.787 564.703 934.825 565.343 942.844 566.075C942.497 568.803 942.053 571.479 941.527 574.178C933.935 575.146 925.752 573.581 918.15 572.808Z"/>
</svg>
