<?xml version="1.0" encoding="utf-8" ?>
<svg xmlns="http://www.w3.org/2000/svg" xmlns:xlink="http://www.w3.org/1999/xlink" width="1024" height="1024">
	<path fill="#3B3A3B" d="M151.479 410.508C176.632 380.272 204.543 352.114 230.803 322.829L426.707 104.667C443.66 85.633 461.018 66.8116 477.671 47.5305C481.725 42.8371 484.285 34.6774 490.182 32.4796C493.297 33.0711 495.439 34.3437 497.681 36.5752C507.307 46.1558 515.829 56.942 525.038 66.9273L593.653 140.99L788.47 351.1Q805.495 369.364 822.126 387.987C827.854 394.319 833.554 401.646 839.98 407.236C850.529 407.637 861.174 407.301 871.731 407.187C871.901 404.559 871.923 402.026 873.511 399.797C874.403 398.545 875.775 397.502 877.363 397.415C878.99 397.326 880.493 398.117 881.601 399.256C884.75 402.492 884.502 406.001 884.322 410.178C893.375 419.03 902.922 427.453 912.199 436.077L953.033 474.22C962.233 482.706 976.663 494.063 983.841 503.538C979.1 512.054 963.772 523.626 956.235 530.619Q920.825 563.814 884.346 595.83C885.01 600.43 885.361 605.598 882.432 609.571C881.551 610.766 880.484 611.626 878.962 611.796C877.964 611.909 876.941 611.483 876.182 610.838C872.503 607.708 872.797 602.084 872.651 597.739L840.262 597.968C836.029 601.989 832.321 606.764 828.52 611.198L806.528 637.106L732.368 725.051L593.393 888.906Q556.274 931.881 519.856 975.45C518.424 977.28 516.994 979.206 515.347 980.845C513.718 982.466 511.361 983.894 508.981 983.768C506.772 983.652 504.799 982.287 503.234 980.828C498.742 976.641 494.88 971.543 490.719 967.012L463.315 937.543L364.927 831.317L222.31 677.826L177.941 630.201C169.174 620.878 159.804 611.777 151.594 601.976C148.722 602.038 145.848 602.358 142.986 602.599C142.935 604.047 143.049 606.044 142.411 607.37C141.675 608.901 140.533 609.999 138.917 610.558C137.353 611.099 135.652 610.893 134.198 610.123C132.235 609.084 131.021 607.178 130.529 605.051C129.898 602.324 131.459 600.327 132.826 598.142C126.73 589.613 108.96 576.057 100.166 568.368C85.5851 555.617 71.3905 542.416 56.5841 529.925C50.2874 524.613 39.1895 516.897 34.5404 510.636C33.5331 509.28 32.9476 508.281 33.1927 506.591L32.976 506.88C37.3594 498.927 57.0621 482.562 64.5117 475.49L115.14 427.229C118.881 423.659 128.619 415.864 130.989 412.377Q130.531 410.734 130.133 409.075C129.728 407.356 129.493 405.578 130.67 404.065C131.693 402.751 134.142 401.56 135.799 401.508C137.282 401.461 138.408 401.889 139.519 402.85C141.513 404.574 141.465 406.538 141.711 408.987C145.101 410.356 147.883 410.539 151.479 410.508ZM489.88 54.9105C483.467 60.5018 477.933 67.2484 472.269 73.5925L444.246 105.24L348.044 213.013L227.392 347.075L189.713 388.694C183.492 395.593 176.435 402.399 170.996 409.933Q179.386 409.589 187.784 409.591C207.746 389.937 226.612 368.782 245.229 347.846L330.218 254.73L353.172 229.503C356.835 225.459 360.426 220.634 364.589 217.127C365.999 215.94 367.811 215.909 369.591 215.817C378.84 215.339 388.231 215.659 397.498 215.535Q431.226 214.848 464.961 215.01C475.919 214.996 487.085 215.376 498.023 214.798C497.49 201.927 497.522 188.862 496.578 176.034L446.656 176.58C439.338 176.643 431.703 177.222 424.423 176.832C422.594 176.734 421.062 176.341 419.4 175.597L418.753 174.586C419.378 173.107 420.217 172.48 421.702 171.864C423.542 171.102 425.547 170.743 427.529 170.654C434.201 170.354 441.073 171.065 447.805 170.955C463.997 170.691 480.39 169.781 496.571 170.308C496.073 162.88 496.285 155.353 495.493 147.962Q482.906 147.906 470.319 148.044C465.205 148.091 459.76 148.5 454.683 147.939C452.817 147.732 451.424 147.383 449.897 146.248C449.376 144.968 449.477 145.024 449.99 143.721C450.391 143.406 450.717 142.96 451.192 142.775C454.887 141.339 489.303 142.068 495.292 142.085C494.89 132.788 492.109 57.1019 489.88 54.9105ZM497.022 56.7687C498.673 85.1794 499.243 113.682 501.014 142.081Q512.223 142.066 523.429 141.842C528.393 141.704 533.861 140.979 538.76 141.656C540.722 141.928 542.214 142.374 543.728 143.661C544.127 144.777 544.103 144.69 543.606 145.772C538.296 149.1 509.055 147.634 501.439 147.885Q501.537 158.991 501.974 170.089Q519.616 170.127 537.257 169.887C545.244 169.725 553.538 169.001 561.502 169.527C563.232 169.642 565.684 169.905 567.14 170.97C567.577 171.29 567.772 171.629 568.064 172.05C567.816 173.276 567.521 173.725 566.398 174.361C563.157 176.2 510.232 175.933 502.458 175.931C502.595 188.778 502.425 201.962 503.364 214.764L622.562 213.738C626.916 216.916 630.75 221.249 634.508 225.112C643.926 234.794 652.801 244.989 662.044 254.837C694.824 289.764 727.133 325.216 760.381 359.69L790.688 392.787C795.221 397.808 799.496 403.121 804.094 408.068C810.282 408.047 816.5 408.149 822.683 407.958C791.822 376.436 762.72 343.402 732.795 311.018L558.599 122.931L512.781 72.9683C508.73 68.6023 501.685 59.5634 497.022 56.7687ZM578.521 219.746L503.621 220.243C504.003 229.484 505.99 262.198 504.127 268.3L503.188 269.088C501.778 268.939 501.607 268.847 500.481 267.978C497.912 262.912 498.155 228.621 498.125 220.56C491.318 219.751 484.247 220.21 477.403 220.332Q463.234 220.576 449.064 220.642L399.088 220.965C388.979 221.024 378.784 220.821 368.691 221.385C356.326 234.123 344.609 247.6 332.572 260.657C318.277 276.164 303.54 291.491 289.973 307.644C304.677 321.786 318.942 336.371 333.601 350.558C342.302 358.979 352.05 367.026 360.112 376.009C361.45 377.5 363.116 379.872 363.37 381.909C363.46 382.634 363.36 382.487 362.896 383.183C361.38 383.513 360.237 383.257 358.931 382.458C353.156 378.927 347.808 372.003 342.872 367.274Q321.195 346.683 300.178 325.419C295.56 320.826 290.677 316.484 286.163 311.795L228.769 374.664C218.158 386.229 207.325 397.616 197.029 409.464C208.826 409.715 220.964 410.479 232.721 409.441C233.801 408.298 234.86 407.104 235.979 406.002C240.042 406.294 248.159 409.067 251.437 406.42C252.404 405.64 253.066 404.445 253.714 403.402C256.393 404.317 258.596 405.451 261.014 406.891C263.509 406.541 264.877 406.554 267.231 407.375C277.853 411.081 288.579 405.492 298.598 402.271C302.905 403.556 306.027 402.916 309.402 403.733C311.718 404.293 311.219 406.169 315.452 406.908Q316.37 407.061 317.299 407.116Q318.229 407.172 319.158 407.13Q320.088 407.088 321.009 406.949Q321.929 406.81 322.83 406.576C326.247 405.715 329.225 403.458 332.447 402.067C335.764 400.635 339.394 399.817 342.574 398.088C346.017 396.217 348.475 393.197 351.174 390.43C354.491 391.744 357.797 393.107 361.146 394.338C364.054 392.258 366.947 389.982 370.05 388.211L376.244 391.822C378.195 389.169 379.299 387.161 379.862 383.863C383.944 379.832 388.173 375.887 391.827 371.456C395.716 374.471 399.325 378.238 403.388 380.953C405.101 380.069 406.807 379.164 408.533 378.307C408.396 373.401 407.922 369.118 406.778 364.36C406.498 363.194 405.142 359.51 405.327 358.505C405.396 358.131 405.752 357.875 405.965 357.559C406.82 357.239 409.585 356.438 409.919 355.606C410.928 353.091 408.931 350.815 412.208 349.171C413.662 348.442 415.655 349.422 417.066 349.919C418.032 349.548 418.053 349.431 418.715 348.702C420.429 346.819 422.091 346.952 424.465 346.878C427.471 346.785 447.874 346.46 449.053 347.582C449.846 348.337 450.098 349.768 450.413 350.795C451.333 351.435 452.236 351.928 453.245 352.415C455.556 355.399 454.574 363.612 454.595 367.375Q454.611 372.463 454.682 377.55C460.239 372.778 462.855 368.468 467.459 363.168C469.636 360.662 472.204 358.429 474.633 356.17C480.406 360.73 486.062 365.392 492.085 369.625C492.85 355.411 494.081 341.235 494.951 327.029C495.465 318.642 494.937 308.478 497.091 300.445C497.882 300.124 498.617 299.858 499.444 299.642C500.364 299.401 501.138 299.017 501.998 298.618C511.942 294.006 520.54 298.522 530.345 299.902C530.727 313.769 532.414 327.646 533.837 341.439C534.811 350.874 535.373 360.658 537.257 369.956C540.086 373.196 543.374 375.965 546.593 378.803C546.378 375.626 545.45 370.962 547.523 368.247C548.209 367.348 550.27 366.17 551.389 366.075C552.653 365.968 553.714 366.249 554.576 367.206C556.176 368.982 557.343 373.043 560.05 373.334C561.212 373.458 561.827 373.141 562.883 372.724C564.104 371.526 564.463 370.605 564.476 368.93C564.518 363.741 563.825 358.548 564.045 353.363C565.645 352.45 567.28 351.486 569.062 350.976C574.53 349.414 588.48 348.644 593.886 350.043C596.806 350.798 599.476 352.603 600.913 355.309C604.202 361.503 601.812 375.131 602.511 382.502L606.572 384.407C608.09 382.713 611.005 378.643 613.347 378.295C616.37 377.845 632.23 385.538 635.108 387.36Q635.259 390.457 635.374 393.556C639.111 395.405 642.789 397.294 646.409 399.362C648.067 398.14 649.709 396.814 651.473 395.752Q659.812 399.091 667.837 403.126L675.066 397.57C679.19 399.771 683.317 402.219 687.697 403.867C689.661 402.23 691.591 400.501 693.696 399.048C701.009 401.7 708.986 404.984 715.711 408.9C721.021 406.339 726.694 404.39 732.295 402.558C736.642 404.193 740.974 406.648 745.529 407.544C753.022 409.018 761.95 408.092 769.607 408.003C778.432 407.899 787.248 408.034 796.068 407.979C783.545 393.118 769.788 379.297 756.622 365.012C738.349 345.187 720.363 324.987 701.462 305.761C690.113 317.258 678.165 328.174 666.705 339.571C657.068 349.154 647.824 359.428 637.905 368.677C636.406 370.074 633.401 373.127 631.41 373.482C630.587 373.629 629.657 373.211 628.902 372.939C628.476 372.183 628.295 372.215 628.505 371.297C628.885 369.635 630.21 368.173 631.301 366.928C638.818 358.352 649.486 348.878 657.727 340.643C670.737 327.644 683.401 313.602 697.502 301.843Q674.465 276.726 651.067 251.946C640.936 241.362 629.617 231.227 620.768 219.527Q599.644 219.458 578.521 219.746ZM512.486 306.897C512.484 308.483 512.298 309.975 513.18 311.368C514.575 312.372 516.697 312.172 518.376 312.23C518.336 310.548 518.543 308.794 517.522 307.371C515.945 306.568 514.204 306.838 512.486 306.897ZM851.839 420.769L361.588 423.59L211.079 424.484L165.035 424.81C155.91 424.883 146.401 424.588 137.325 425.453C127.48 433.54 118.485 443.3 109.171 452.057C89.8618 470.213 70.2868 488.19 51.983 507.37C70.9727 525.101 90.8194 541.848 110.37 558.946C121.034 568.272 131.435 578.949 143.01 587.071L166.625 587.051L640.469 585.037L795.366 584.419L845.98 584.063C856.447 584.017 867.341 584.653 877.726 583.425C896.907 567.139 915.219 549.737 933.828 532.796C944.096 523.447 955.934 514.545 964.739 503.829Q934.264 474.914 903.498 446.308C894.288 437.734 884.59 429.458 875.696 420.58C867.743 420.396 859.79 420.61 851.839 420.769ZM729.478 598.233C700.84 599.471 672.03 599.165 643.367 599.038C643.194 601.098 643.301 604.519 641.535 605.93C636.86 609.665 615.612 608.67 608.904 609.537C607.708 614.849 606.467 620.179 604.625 625.312C613.067 630.957 623.364 636.643 629.895 644.475C628.915 650.511 620.506 665.646 615.49 669.152C613.451 670.577 611.209 670.904 608.796 670.384C602.34 668.992 593.232 663.203 586.526 660.581L575.685 671.427C580.69 680.093 586.473 689.64 588.368 699.548C584.28 704.792 570.939 713.97 564.412 714.75C562.197 715.015 560.829 714.019 559.22 712.654C552.478 706.934 546.642 698.803 540.895 692.022C535.659 693.399 530.504 695.069 525.337 696.682C524.533 703.911 524.84 718.019 522.629 723.908C522.111 725.29 521.186 726.269 520.044 727.183C519.859 727.331 519.664 727.466 519.474 727.607C513.139 728.927 497.072 731.644 491.531 727.762C488.478 725.622 487.536 721.575 487.079 718.089C486.174 711.182 485.591 704.205 484.854 697.277C479.541 696.076 474.156 695.006 468.906 693.555C462.54 701.479 455.776 711.897 447.114 717.262C440.692 715.084 428.361 709.121 425.17 702.835C423.425 699.396 424.35 695.642 425.605 692.213C427.978 685.733 430.985 679.424 433.796 673.125L423.713 663.004C418.428 664.972 398.087 673.91 393.573 671.883C389.565 670.083 381.823 657.869 380.551 653.447C379.865 651.06 379.981 648.803 381.225 646.622C384.832 640.298 396.663 633.708 402.506 628.984L399.24 614.458C389.036 612.435 376.492 612.407 367.303 607.356L366.374 600.561C356.314 599.554 346.06 600.249 335.964 600.436L297.681 600.765L238.845 600.889C228.884 600.877 207.48 599.738 198.984 602.009L198.084 602.786C198.59 604.944 200.602 607.099 202.069 608.766C214.152 622.496 227.631 635.242 240.196 648.552C258.836 668.298 277.039 688.786 296.535 707.694C305.31 703.794 321.275 686.612 328.47 679.155C333.335 674.49 354.637 652.214 359.161 651.638C360.398 652.09 360.346 652.137 361.002 653.293C361.054 655.036 360.759 656.255 359.569 657.595C354.13 663.722 347.006 669.142 341.066 674.867C327.855 687.602 314.885 700.592 301.594 713.244Q325.133 738.805 349.03 764.032C357.335 772.945 365.373 783.345 374.801 791.033Q417.048 791.144 459.291 790.653C473.593 790.53 488.409 791.204 502.65 790.107C502.979 782.087 499.885 749.496 504.484 744.801C505.57 745.115 505.186 744.808 505.808 745.861C509.739 752.518 508.136 780.532 508.655 790.045L580.498 789.196C596.086 789.045 611.734 789.181 627.307 788.45C640.873 774.275 653.987 759.628 667.187 745.111C678.371 732.81 689.816 720.57 700.547 707.874Q683.174 689.899 665.469 672.251C660.407 667.217 652.772 660.969 648.708 655.56C647.286 653.668 646.466 651.508 646.388 649.154L646.922 647.961C648.182 647.567 649.151 647.902 650.311 648.482C651.873 649.265 653.164 650.477 654.406 651.683C662.405 659.451 669.714 667.986 677.611 675.88C686.401 684.667 697.61 693.903 704.976 703.747C710.517 696.682 716.701 690.084 722.678 683.386L750.175 652.744C766.537 634.681 782.484 616.023 799.537 598.617C790.445 597.628 781.038 598.067 771.893 598.076Q750.685 598.039 729.478 598.233ZM807.265 598.536L692.597 725.823L653.63 769.265C645.952 777.774 638.417 786.589 630.122 794.502C620.515 793.911 610.85 794.353 601.231 794.502L557.846 795.102L529.167 795.394C522.329 795.426 515.265 795.074 508.496 796.082Q508.346 815.323 509.103 834.55Q532.982 833.98 556.866 833.857C563.259 833.856 570.022 833.399 576.37 834.03C578.006 834.193 579.956 834.36 581.232 835.51C581.83 836.05 581.631 836.457 581.647 837.196C580.842 838.318 580.446 839.12 579.003 839.363C571.876 840.56 563.266 839.654 555.977 839.653L509.245 840.007C509.402 847.969 509.426 855.962 510.006 863.905C517.087 863.242 545.871 861.727 550.646 865.87C550.78 865.987 550.886 866.133 551.006 866.264C550.799 867.456 551.087 867.112 550.225 867.756C548.426 869.1 545.583 869.536 543.402 869.721C539.234 870.076 534.782 869.404 530.592 869.204C526.031 868.986 521.441 869.065 516.875 869.092L510.264 869.62C510.129 900.882 511.985 932.173 512.523 963.425C519.175 954.874 526.911 947.042 533.887 938.729L591.034 870.746L745.935 686.976L794.543 629.951C803.426 619.676 813.429 609.665 821.412 598.702Q814.34 598.514 807.265 598.536ZM481.884 599.266C467.988 599.657 454.101 599.285 440.204 599.618C444.07 618.998 451.437 635.248 468.443 646.539Q469.726 647.387 471.048 648.171Q472.37 648.956 473.728 649.675Q475.087 650.395 476.479 651.048Q477.871 651.7 479.292 652.285Q480.714 652.87 482.163 653.385Q483.611 653.9 485.083 654.345Q486.554 654.789 488.046 655.162Q489.537 655.535 491.045 655.835Q492.553 656.135 494.073 656.361Q495.594 656.588 497.124 656.741Q498.653 656.893 500.189 656.972Q501.724 657.05 503.261 657.054Q504.799 657.059 506.335 656.988Q507.87 656.918 509.401 656.773Q510.931 656.628 512.453 656.41Q513.975 656.191 515.484 655.899C517.931 655.411 520.362 654.755 522.761 654.075C539.33 647.713 553.552 636.243 560.895 619.731C563.842 613.104 565.239 606.274 565.67 599.061Q534.241 598.966 502.813 599.325C495.849 599.403 488.833 598.944 481.884 599.266ZM575.712 598.999C572.403 620.618 564.303 639.15 546.25 652.488C530.222 664.329 510.898 668.304 491.317 665.301Q489.603 665.049 487.904 664.713Q486.205 664.376 484.525 663.955Q482.844 663.535 481.187 663.031Q479.53 662.527 477.899 661.942Q476.269 661.356 474.67 660.69Q473.071 660.025 471.507 659.28Q469.943 658.536 468.418 657.714Q466.892 656.893 465.41 655.997Q463.928 655.101 462.492 654.132Q461.056 653.164 459.67 652.125Q458.283 651.086 456.951 649.98Q455.618 648.873 454.342 647.702Q453.066 646.531 451.849 645.297Q450.633 644.064 449.48 642.772Q448.326 641.479 447.238 640.131Q446.15 638.783 445.131 637.383C436.918 626.191 432.938 613.582 432.204 599.807C412.039 599.871 391.911 599.901 371.755 600.506C378.302 602.06 404.211 603.569 406.973 608.341C407.448 609.162 407.617 610.19 407.787 611.107C408.17 613.17 408.272 615.337 408.899 617.344C409.875 620.463 411.401 623.478 412.08 626.681C412.36 628.003 412.566 629.407 412.132 630.712C410.14 636.693 394.452 647.098 389.147 651.31C391.562 655.501 394.197 659.439 397.023 663.362C402.607 660.875 421.098 652.309 426.238 653.957C430.43 655.302 441.829 667.782 444.431 671.596C441.435 678.384 434.174 692.644 432.771 699.054C437.093 701.974 441.372 705.02 445.894 707.622C452.12 699.67 458.509 689.797 466.715 683.888C472.553 684.748 487.723 687.032 491.321 691.675C494.7 696.036 495.861 714.151 497.035 720.485C502.803 720.651 508.634 720.216 514.373 720.483C514.659 713.474 514.296 693.96 519.553 689.484C522.898 686.635 538.323 682.968 543.086 682.364C550.869 687.314 559.242 699.005 564.667 706.611C568.992 703.716 573.607 700.662 578.299 698.41Q575.931 691.842 572.684 685.661C570.729 681.857 567.716 677.542 566.732 673.397C566.298 671.568 566.395 669.864 567.155 668.132C569.453 662.9 579.219 654.525 583.595 650.049C592.917 652.845 602.111 656.748 610.849 661.016C613.845 656.281 617.095 651.57 619.838 646.694C611.495 641.253 601.493 635.739 595.298 627.778C596.952 619.481 598.248 608.846 602.576 601.557C602.63 601.466 602.682 601.373 602.735 601.28C607.83 600.717 626.534 601.279 629.304 600.09L629.399 599.614C623.483 597.845 584.271 598.881 575.712 598.999ZM170.778 601.743C180.828 615.871 196.695 630.037 208.744 642.827L281.919 721.634L428.976 881.243Q456.395 911.469 484.354 941.199C491.529 948.73 498.546 956.625 506.182 963.687C505.862 932.358 504.677 901.098 503.865 869.786C493.463 868.771 483.12 869.262 472.699 869.584C469.418 869.62 461.881 870.533 459.552 868.146C458.696 867.268 458.586 866.747 458.568 865.619C459.872 864.033 461.958 863.829 463.89 863.62C469.139 863.051 474.604 863.635 479.875 863.754C487.853 863.934 496.064 863.961 504.032 863.57L503.919 840.597C492.093 839.913 434.152 842.01 428.399 839.653C427.572 838.572 427.673 838.539 427.755 837.161C428.846 835.868 429.688 835.315 431.406 835.117C437.136 834.456 443.582 835.074 449.385 835.098C460.032 835.141 470.677 834.816 481.325 834.79C488.712 834.772 496.6 835.31 503.932 834.522C503.376 821.657 503.308 808.792 502.963 795.921C492.703 795.314 482.278 795.785 471.993 795.877L407.991 796.458C396.281 796.586 384.292 797.261 372.605 796.699C365.804 790.34 359.535 783.32 353.145 776.55L319.575 740.747L222.817 638.59C211.043 626.344 200.21 613.065 187.684 601.572C182.106 601.523 176.296 602.082 170.778 601.743Z"/>
	<path fill="#3B3A3B" d="M462.619 544.357C462.972 533.444 460.955 465.67 462.594 462.191C464.112 461.14 465.971 461.295 467.75 461.23Q477.1 461.005 486.434 461.613C494.464 471.847 501.074 483.131 509.282 493.282C516.473 482.79 523.307 471.162 532.138 461.97C539.815 461.762 547.691 461.108 555.3 462.362C556.429 473.32 555.609 484.548 555.706 495.556Q555.956 510.343 555.971 525.133C555.987 530.506 556.486 536.563 555.374 541.813C554.379 542.792 553.168 543.027 551.83 543.243C548.011 543.861 537.029 544.842 534.045 542.602C530.365 537.488 532.172 524.802 532.341 518.375C532.047 512.312 532.347 506.099 532.373 500.021C527.744 506.166 517.424 522.501 512.014 526.171C510.931 526.907 509.697 527.366 508.383 526.972C504.247 525.733 489.682 502.503 486.283 497.589C486.141 513.112 485.805 528.762 486.421 544.272C478.56 543.862 470.489 544.053 462.619 544.357Z"/>
	<path fill="#3B3A3B" d="M584.495 462.225C588.016 461.495 591.662 461.417 595.244 461.211Q607.067 461.036 618.892 461.079C631.405 461.073 650.399 459.265 660.232 468.41C665.629 473.43 667.931 480.754 668.18 487.95C668.447 495.697 666.396 503.77 660.898 509.486C653.049 517.645 641.264 517.112 630.832 517.436Q619.61 517.519 608.392 517.807C608.257 523.582 610.466 536.617 607.898 541.301C607.218 542.543 606.374 543.17 604.972 543.447C600.416 544.348 588.895 544.407 585.171 542.001C582.821 536.466 583.723 471.767 584.495 462.225ZM608.447 482.19L608.462 497.93C617.248 497.83 634.666 500.072 642.206 495.679C643.593 493.593 645.051 491.013 644.507 488.396C644.108 486.472 642.627 485.214 640.971 484.341C633.167 480.231 617.217 481.891 608.447 482.19Z"/>
	<path fill="#3B3A3B" d="M758.372 543.421C749.058 544.211 699.133 545.559 692.652 543.732C692.554 543.537 692.448 543.345 692.357 543.146C690.487 539.066 690.606 465.232 692.104 461.085L715.437 461.164C716.089 481.211 715.927 501.393 715.862 521.452C721.08 520.881 726.567 521.128 731.824 521.098Q745.633 520.949 759.439 521.261C759.733 525.808 761.132 539.83 758.372 543.421Z"/>
	<path fill="#3B3A3B" d="M784.17 462.097C790.973 461.531 797.792 461.391 804.614 461.253C822.166 461.256 839.862 461.528 857.399 461.063C857.655 466.928 859.341 475.053 857.146 480.643C852.879 483.03 814.543 481.592 806.504 481.966Q806.554 487.389 806.364 492.809C812.268 492.369 842.619 490.636 845.994 493.853C848.565 496.303 846.992 508.77 846.573 512.225C833.692 514.147 819.542 512.837 806.508 512.447L806.504 522.57L806.604 523.148C808.852 524.04 812.919 523.468 815.432 523.436C822.815 523.339 853.138 521.711 858.115 523.703C859.56 525.849 859.613 528.32 859.657 530.84C859.712 534.073 859.963 541.045 857.645 543.436C852.038 545.148 838.243 544.178 831.911 544.174Q808 544.307 784.093 543.87C783.83 530.13 784.065 516.401 784.033 502.661C784.001 489.129 783.666 475.626 784.17 462.097Z"/>
	<path fill="#3B3A3B" d="M148.054 461.981L196.087 461.749Q208.054 461.406 220.025 461.559C221.202 468.408 220.694 475.616 220.526 482.533C204.355 482.439 188.156 482.82 171.983 482.934C172.288 485.967 172.266 489.022 172.308 492.068Q191.414 491.886 210.518 492.166C210.47 499.289 210.532 506.439 210.119 513.551C197.669 513.678 185.047 513.101 172.633 513.979C172.523 517.153 172.54 520.341 172.499 523.517C183.518 522.652 195.047 523.168 206.125 523.072L221.724 523.168C222.261 530.27 221.944 537.599 221.971 544.729Q198.843 545.143 175.711 545.128C166.572 545.151 157.339 544.855 148.219 545.453C148.183 533.985 148.724 522.535 148.856 511.071C149.043 494.818 148.746 478.221 148.054 461.981Z"/>
	<path fill="#3B3A3B" d="M303.724 462.104Q310.155 462 316.583 461.751C319.8 461.793 327.539 461.052 329.963 463.004C330.3 466.804 307.127 497.03 303.058 502.671C306.789 507.516 333.067 540.244 332.75 543.338C328.681 545.685 310.938 544.618 305.714 543.884C299.79 538.149 291.323 526.846 287.259 519.794C281.078 527.882 275.602 536.779 268.866 544.394C264.678 544.734 260.5 544.747 256.301 544.772Q248.574 544.57 240.844 544.56C244.192 538.359 248.952 532.621 253.124 526.934C259.04 518.869 264.847 510.665 271.078 502.841C262.596 490.391 247.513 475.589 241.176 462.726C250.205 461.767 259.265 462.22 268.32 462.497C274.861 469.614 280.576 478.022 286.521 485.674Q294.734 473.605 303.724 462.104Z"/>
	<path fill="#3B3A3B" d="M379.962 461.921C387.968 461.658 396.04 461.834 404.056 461.745C404.951 461.746 405.601 461.884 406.465 462.086C406.99 462.707 407.42 463.287 407.813 464.002C411.072 469.94 413.61 476.335 416.352 482.523L428.642 510.086C432.992 519.817 438.288 529.18 442.48 538.93C443.1 540.373 443.934 542.008 443.494 543.537C437.761 545.775 423.165 544.512 416.669 544.361C415.343 540.129 413.86 536.055 411.74 532.154C403.07 531.781 394.309 532.073 385.63 532.119L373.511 532.012C371.517 536.013 369.648 540.01 367.962 544.151C360.144 543.777 352.854 544.789 344.99 543.561C346.732 538.346 349.18 533.239 351.345 528.181L364.819 497.234C369.853 485.548 373.789 473.055 379.962 461.921ZM392.401 488.26C388.813 495.964 384.99 503.746 382.231 511.797L395.11 511.797C397.972 511.758 400.928 511.854 403.771 511.567C401.855 506.417 396.594 490.823 392.401 488.26Z"/>
</svg>
