<?xml version="1.0" encoding="utf-8" ?>
<svg xmlns="http://www.w3.org/2000/svg" xmlns:xlink="http://www.w3.org/1999/xlink" width="1024" height="1024">
	<path transform="matrix(0.991193 -0.00880652 0.00880652 0.991193 0 9.01782)" d="M505.416 284.116C505.208 284.491 504.902 284.825 504.792 285.239C504.045 288.044 504.762 297.993 504.763 301.473L504.956 363.947C504.94 369.126 504.097 388.938 505.417 392.906C505.6 393.458 505.705 393.533 506.022 393.929C506.798 401.664 506.342 409.913 506.35 417.699L506.387 461.911L506.573 513.473C506.798 530.798 507.367 548.032 507.069 565.368C504.824 563.113 502.626 560.84 500.498 558.473L500.017 284.138C484.956 284.781 469.945 286.489 454.942 287.912L405.23 292.396C367.931 295.904 330.489 298.687 293.238 302.575Q292.902 303.7 292.523 304.811C291.716 306.724 291.483 308.414 291.433 310.483C291.079 324.887 291.588 339.363 291.515 353.779L291.032 477.5Q290.654 504.467 290.727 531.437C290.729 537.838 289.848 545.773 291.013 552.009L291.354 552.351Q291.319 593.402 290.474 634.445C290.233 646.08 291.084 657.957 289.806 669.529C288.023 664.823 286.364 660.301 285.689 655.28C284.24 644.486 285.345 632.776 285.505 621.893C285.697 608.761 285.38 595.437 286.071 582.334L286.625 581.716C288.426 557.94 287.167 533.629 287.259 509.786C287.333 490.561 288.472 471.113 287.701 451.905C287.652 450.683 287.444 449.785 286.984 448.652C286.347 435.466 286.924 422.014 286.961 408.802L287.133 338.296Q287.169 327.219 287.339 316.144C287.434 311.683 287.942 306.971 287.557 302.532C287.371 300.393 286.993 298.825 285.48 297.27C284.107 296.845 283.984 296.827 282.612 297.244C280.499 299.493 280.323 302.496 280.189 305.451C279.437 322.006 280.072 338.829 280.061 355.416L279.939 458.248L279.006 595.343L278.916 627.774C278.868 632.975 278.519 638.24 278.671 643.428C278.676 643.603 278.687 643.777 278.695 643.951C276.236 639.605 274.134 635.39 274.008 630.274C275.496 626.188 274.709 575.729 273.923 568.806C272.961 562.65 273.865 553.948 273.892 547.547Q273.946 518.86 274.392 490.177L274.8 303.99C263.683 299.842 252.136 296.582 240.803 293.063L187.364 276.421Q145.759 263.061 103.749 251.034C88.2331 246.48 72.8547 241.632 57.1025 237.943C55.959 270.612 56.8384 303.627 57.1422 336.322L58.9426 507.139L59.9458 707.145C59.9701 748.575 59.1591 790.206 60.1506 831.616C69.4327 831.632 78.9688 830.05 88.1812 828.963C106.994 826.745 125.756 824.046 144.616 822.25C144.366 805.41 141.375 788.126 139.705 771.351C138.008 754.307 137.491 737.028 134.765 720.108C128.317 723.337 111.515 733.177 104.756 732.411C103.156 730.6 102.453 727.573 101.878 725.238C98.7199 712.433 97.0276 698.824 94.6553 685.831C92.7912 675.622 89.6959 664.645 89.1879 654.3C98.7984 647.911 114.673 643.874 125.866 640.106C125.912 622.805 125.811 605.621 126.747 588.33C128.1 563.359 130.954 538.455 133.236 513.556C134.83 496.161 135.213 478.907 138.265 461.661C124.691 459.885 111.011 458.866 97.3917 457.482C90.8868 456.821 82.8045 456.738 76.6517 454.531C74.2591 447.155 75.5434 421.131 75.5637 412.292Q75.5526 377.925 75.9309 343.561C76.7569 337.417 77.6639 321.994 75.9785 316.232C75.9394 314.736 76.2378 313.788 77.1733 312.626C83.4896 310.687 126.33 322.156 136.038 323.894C136.875 321.852 137.478 320.152 139.28 318.776C143.803 318.387 144.811 325.651 149.528 326.426C159.597 328.08 168.376 317.362 183.965 323.907C189.428 326.2 192.542 330.586 197.371 333.471C199.211 334.571 201.436 334.995 203.345 335.976C206.78 337.742 208.753 342.218 209.857 345.728C213.443 357.129 211.274 372.248 205.718 382.692C201.58 390.472 195.897 395.323 187.421 397.857L187.438 398.199C187.762 404.267 188.547 416.079 194.81 419.193C198.17 420.863 201.942 421.484 205.343 423.059C212.991 426.602 220.132 431.846 226.342 437.497C230.555 441.332 234.525 445.63 236.964 450.839C243.176 464.106 245.245 500.363 245.957 516.433C246.627 531.556 247.105 546.6 247.004 561.741C246.955 568.967 246.474 576.174 246.405 583.398C246.349 589.334 247.136 600.953 246.071 606C245.757 607.488 244.456 608.677 243.453 609.763L243.001 610.246C243.427 615.642 245.539 621.456 246.804 626.783C248.802 627.468 251.054 628.115 252.82 629.307C255.58 631.17 256.021 633.887 256.648 636.924C254.495 637.884 252.263 638.695 250.068 639.557C248.036 637.411 246.002 635.776 243.576 634.1C243.989 635.882 244.822 637.3 245.334 638.981C245.706 640.2 245.658 640.429 245.131 641.491C237.88 645.79 220.818 650.463 212.2 653.038C212.833 648.02 214.05 643.041 215.088 638.092C212.293 643.383 210.178 648.215 208.737 654.033Q207.796 654.289 206.867 654.587C201.131 656.368 186.294 659.846 183.73 665.246C178.968 675.273 188.374 739.433 193.056 751.506C204.413 754.907 216.182 753.383 227.785 752.355C227.593 757.364 227.964 762.48 228.058 767.499L229.124 807.419C243.029 805.417 257.367 804.406 271.373 803.228Q271.291 769.765 271.915 736.308C273.596 735.37 275.367 734.556 277.089 733.694L276.396 795.712C276.356 803.857 275.539 812.525 276.28 820.597C276.502 823.02 276.91 826.397 278.777 828.171C279.427 828.788 279.277 828.573 280.308 828.517C282.227 826.65 282.63 823.893 282.911 821.33C283.982 811.539 282.974 800.977 283.003 791.105L283.66 729.063L289.257 726.061Q287.95 761.973 288.649 797.902Q320.387 789.426 352.305 781.659C369.373 777.477 386.52 773.656 403.38 768.676C402.846 766.111 402.119 763.612 401.401 761.095C397.371 761.563 390.145 762.756 386.802 759.929C384.957 758.369 384.505 754.592 384.094 752.308C381.296 736.731 380.986 720.401 379.727 704.637Q375.581 656.431 373.467 608.093C381.948 611.217 390.038 615.276 398.503 618.47C401.319 619.532 410.412 623.715 412.88 622.601C411.245 618.212 333.447 593.052 322.233 583.285C324.981 575.615 353.933 529.3 359.739 525.643C365.096 524.764 370.978 528.645 375.619 531.027C373.873 503.605 371.273 478.88 380.472 452.109C384.503 440.375 390.076 429.298 393.911 417.441C392.091 413.651 391.151 410.388 390.869 406.185C388.219 405.299 385.824 404.232 383.335 402.971C381.771 399.029 380.983 394.616 379.968 390.496C373.581 387.758 371.941 382.199 369.515 376.181C367.989 375.499 365.794 374.745 364.765 373.341C364.672 373.214 364.195 372.295 364.208 372.028C364.328 369.486 370.411 359.851 371.826 356.691C372.859 354.384 373.485 352.059 374.036 349.599C353.014 353.578 331.217 355.88 309.914 357.792C310.162 364.475 310.9 371.158 311.321 377.836Q312.932 404.379 314.908 430.898C316.493 453.504 317.382 476.194 319.808 498.733C324.587 497.463 367.284 488.906 370.037 489.715C371.39 490.112 371.895 490.565 372.623 491.738L372.389 492.712C367.379 496.873 322.765 503.867 314.797 504.479C313.411 498.426 313.654 491.544 313.288 485.338C312.723 475.773 311.973 466.213 311.287 456.656L306.958 397.182C305.85 382.476 304.258 367.499 304.579 352.752C311.654 352.216 318.68 352.079 325.755 351.293C342.311 349.452 358.667 346.471 375.173 344.353C377.018 336.211 378.996 328.116 386.009 322.785C393.557 317.048 404.611 315.733 413.782 316.866Q414.831 316.988 415.872 317.163Q416.913 317.337 417.944 317.563Q418.976 317.789 419.994 318.067Q421.013 318.344 422.017 318.672Q423.02 318.999 424.006 319.377Q424.992 319.754 425.958 320.18Q426.924 320.606 427.868 321.08Q428.811 321.554 429.73 322.074Q430.648 322.594 431.54 323.159Q432.432 323.725 433.294 324.334Q434.156 324.943 434.987 325.594Q435.818 326.246 436.615 326.938Q437.413 327.63 438.174 328.361Q438.936 329.091 439.661 329.859Q440.385 330.627 441.07 331.431Q441.756 332.234 442.4 333.07C449.711 342.499 451.744 353.432 450.324 365.088C457.611 371.726 470.398 375.927 473.544 385.882C474.752 389.703 474.055 393.624 472.209 397.115C466.527 407.863 452.036 414.727 441.069 418.338C453.185 438.722 461.379 459.719 468.114 482.434C470.637 490.944 472.671 499.627 475.356 508.084C480.409 524.002 486.917 539.497 492.028 555.451L483.97 559.979L486.571 567.372C490.621 563.195 494.328 562.235 499.86 561.114C501.994 563.405 504.399 565.876 505.852 568.668C507.954 572.708 508.773 577.831 510.155 582.183C513.644 593.163 517.911 603.74 519.585 615.229C520.323 620.29 520.486 624.574 517.171 628.806C511.629 635.883 494.185 646.606 485.129 647.229C483.833 647.318 483.325 647.118 482.37 646.288C479.557 638.054 480.839 610.103 480.005 599.342C479.562 593.631 476.683 578.028 477.3 573.681C477.412 572.89 478.511 572.29 479.117 571.791C479.558 570.833 479.578 570.214 479.381 569.207C478.155 562.927 475.685 556.635 473.673 550.556C469.374 537.571 464.779 524.624 461.69 511.287C456.307 518.592 449.599 524.601 442.949 530.716C445.913 533.61 448.159 536.749 450.219 540.326C445.986 538.678 442.139 537.402 437.548 537.329L437.448 537.822C440.656 539.83 444.153 541.277 447.604 542.805C447.083 548.309 446.316 553.783 445.797 559.287C447.821 553.795 449.347 548.459 450.262 542.671C461.435 551.097 470.415 562.143 472.92 576.305C477.222 600.618 474.856 633.887 475.395 659.281C476.033 689.281 479.204 719.512 477.921 749.524C477.881 750.451 477.884 750.999 477.188 751.691C474.418 754.444 465.595 754.68 461.734 755.329C460.818 762.511 456.21 812.119 455.232 814.168C457.589 818.979 461.053 825.204 458.956 830.642C458.205 832.589 455.794 833.602 453.982 834.35C449.452 836.221 444.217 836.889 439.472 838.135C431.727 840.168 409.737 847.738 402.415 843.75C401.165 843.069 401.063 842.814 400.667 841.549C400.91 840.534 401.204 839.69 401.949 838.924C406.496 834.247 419.89 828.999 426.202 824.25C428.432 822.573 431.452 820.545 431.853 817.669L431.226 817.156C426.087 818.782 422.052 823.45 417.689 826.497C410.894 831.242 397.849 834.711 389.561 835.858C386.312 836.307 378.589 837.232 376.08 834.921C375.562 834.443 375.746 833.865 375.73 833.217C379.172 826.987 404.96 815.437 412.399 811.02Q409.247 792.599 404.686 774.475C384.049 780.308 362.867 784.91 342.059 790.15C324.052 794.685 306.156 799.999 288.043 804.036Q288.18 805.133 288.272 806.235C288.838 812.871 289.906 825.685 285.241 830.766C283.398 832.773 280.801 833.82 278.089 833.85Q277.792 833.855 277.496 833.829Q277.201 833.804 276.909 833.747Q276.618 833.691 276.334 833.605Q276.05 833.519 275.776 833.403Q275.502 833.288 275.242 833.145Q274.982 833.002 274.738 832.833Q274.494 832.664 274.269 832.47Q274.044 832.277 273.84 832.061C269.228 827.24 270.782 815.717 271.028 809.474C257.208 809.212 243.212 811.825 229.501 813.292C229.468 824.516 231.103 835.788 230.993 846.992C230.956 850.751 229.044 854.474 229.34 858.2C229.63 861.845 231.098 865.372 231.539 869.016C231.85 871.589 231.579 874.332 229.821 876.366C222.572 884.754 187.479 888.811 175.803 889.856C169.803 890.393 159.198 892.197 154.326 888.128C153.946 887.316 153.619 886.967 153.721 886.045C154.647 877.712 177.421 868.008 184.03 862.525Q175.533 865.873 166.593 867.739C157.568 869.617 116.06 874.784 109.636 869.107C108.521 868.122 108.568 867.744 108.464 866.356C111.453 858.365 139.422 849.259 147.46 842.205L148.021 841.707C147.945 841.523 147.873 841.337 147.793 841.154C145.916 836.859 145.667 833.019 145.421 828.41C136.537 828.54 127.402 830.017 118.569 831.026C106.714 832.382 94.8032 833.545 82.9806 835.155C82.9685 841.54 85.3599 855.349 80.6062 860.2C79.0586 861.779 76.8643 862.478 74.6858 862.426C72.0942 862.364 69.5769 861.115 67.8413 859.211C63.0473 853.952 63.9843 843.864 64.0975 837.2C61.0954 837.219 58.3708 837.597 55.8509 835.679C53.6888 832.401 54.2059 824.916 54.0981 820.89C53.8547 811.801 54.291 802.725 54.2416 793.638L53.9025 701.449L52.4565 443.454Q51.5275 372.173 51.3969 300.886Q51.3826 283.266 51.1826 265.648C51.0611 256.653 50.6673 247.521 51.1486 238.543C51.2811 236.073 51.595 233.571 53.5146 231.846C57.348 230.749 68.1898 234.197 72.3712 235.287C89.148 239.662 105.728 245.349 122.378 250.228Q198.884 272.658 274.682 297.373C277.503 295.083 280.616 291.242 284.649 291.636C287.861 291.949 290.391 294.718 292.353 297.014L415.68 285.285C445.73 282.701 475.89 280.525 505.89 277.456C523.382 275.667 540.784 273.088 558.214 270.788L621.999 262.862C656.147 258.749 690.064 253.908 724.112 249.078C728.024 248.524 732.097 247.727 736.035 247.47C739.574 247.239 742.533 248.349 746.198 247.657C756.793 245.659 767.349 241.803 777.708 238.761C789.678 235.246 801.835 232.394 813.908 229.261Q844.847 221.121 875.884 213.36L913.908 203.884C920.493 202.295 927.259 200.34 933.96 199.399C936.992 198.973 940.003 198.744 942.765 200.25C945.271 204.474 945.43 211.553 945.722 216.38C946.39 227.388 946.142 238.557 946.215 249.587Q946.468 279.398 946.337 309.209L947.148 433.156C955.876 434.566 966.246 435.214 973.98 439.831C971.287 444.332 967.829 448.485 964.839 452.804C960.221 459.477 955.958 466.448 951.602 473.295C948.851 477.62 945.707 481.992 943.852 486.789C944.05 488.208 945.967 488.042 947.023 489.273C947.659 493.066 946.986 497.108 946.988 500.966L947.202 527.297Q947.698 584.263 947.269 641.229C947.206 648.962 948.683 658.166 947.215 665.708C946.703 668.337 945.387 669.229 943.31 670.682C943.023 673.048 942.843 675.625 942.09 677.891C941.339 680.149 939.665 682.555 937.396 683.481C935.954 684.07 934.579 683.936 933.196 683.277C930.147 681.826 928.994 678.639 927.811 675.736C926.226 687.231 925.718 699.054 924.79 710.628C923.634 725.047 922.097 739.624 921.95 754.091C919.138 755.516 916.221 756.732 913.334 757.997C913.081 767.809 911.93 777.709 911.58 787.561C918.106 791.984 936.852 801.003 940.166 806.966C939.976 808.216 939.919 808.495 938.872 809.359C931.211 815.681 908.406 811.242 899.176 809.494C899.62 810.394 900.15 811.347 900.449 812.305C900.804 813.444 900.539 814.62 899.846 815.582C898.715 817.152 896.213 817.731 894.417 817.946C884.364 819.148 862.749 816.119 854.874 809.931C853.443 808.806 852.531 807.668 852.117 805.869C851.008 801.046 851.507 795.647 851.418 790.7C851.248 781.302 851.166 771.293 849.831 761.994L849.708 761.17C847.631 760.206 846.121 758.958 844.425 757.455C841.134 749.447 841.769 732.541 841.313 723.388Q840.481 705.819 839.397 688.263Q799.535 699.532 759.424 709.878C759.426 714.677 760.732 724.183 757.652 728.038C756.195 729.862 753.861 730.86 751.57 731.047C749.287 731.233 746.885 730.682 745.155 729.118C741.41 725.731 742.073 717.733 742.004 713.032C719.104 717.183 696.261 722.317 673.441 726.944C673.566 752.155 676.058 777.358 676.046 802.608C661.657 802.971 648.338 802.261 635.214 795.786C630.736 778.668 629.104 760.316 626.283 742.818L611.342 654.145C609.683 644.278 608.361 624.539 603.714 616.505L602.982 616.589C601.697 618.516 601.759 620.266 601.9 622.533C602.68 635.086 606.092 649.826 608.079 662.523Q615.694 711.053 624.267 759.423L628.342 782.46C629.011 786.212 630.336 790.768 630.24 794.567C630.201 796.128 629.208 796.18 628.972 797.637C629.149 797.804 629.321 797.977 629.503 798.139C636.391 804.254 666.851 804.974 675.989 804.33Q676.383 810.451 676.503 816.583C657.734 824.369 625.445 832.796 605.555 830.476C603.344 830.218 599.922 829.903 598.573 827.932C598.161 827.331 598.139 826.698 598.343 825.995C600.063 820.042 624.804 809.047 631.122 805.414C625.64 807.271 620.119 808.902 614.42 809.956C605.232 811.656 578.733 813.628 570.807 808.223C570.127 807.014 570.078 807.056 570.361 805.709C575.143 799.604 594.802 793.052 602.657 789.234C608.604 792.112 617.729 796.89 624.331 794.711C621.266 792.42 607.764 791.619 601.526 787.606C601.38 787.512 601.237 787.413 601.092 787.317C596.155 772.125 595.695 755.621 592.773 739.983C568.862 744.678 545.073 750.147 521.132 754.639C521.777 759.59 522.312 765.756 519.11 769.959Q518.807 770.354 518.465 770.716Q518.122 771.077 517.744 771.401Q517.366 771.725 516.956 772.008Q516.546 772.29 516.109 772.529Q515.672 772.767 515.212 772.959Q514.752 773.151 514.275 773.293Q513.798 773.436 513.309 773.528Q512.819 773.62 512.323 773.661C510.074 773.862 507.596 773.227 505.877 771.717C502.368 768.637 502.783 761.461 502.482 757.106C495.756 758.388 486.72 761.994 480.103 761.728C478.536 761.666 477.412 761.34 476.315 760.156L476.437 759.109C480.828 754.628 496.018 752.385 502.507 750.843C502.517 732.987 501.716 715.152 501.561 697.3Q501.5 681.583 501.124 665.87C501.025 659.309 501.176 652.629 500.597 646.094L506.073 643.188C505.679 663.561 507.128 683.978 507.45 704.35C507.622 715.198 507.918 726.065 507.983 736.912C508.022 743.514 507.044 759.292 508.68 765.063C509.154 766.734 510.129 767.439 511.603 768.193C513.053 768.242 513.234 768.194 514.491 767.469C515.661 765.807 516.005 764.524 516.067 762.482C516.452 749.848 515.241 737.066 514.993 724.421Q514.066 679.636 513.955 634.841L518.673 630.168C518.293 634.69 518.633 639.221 518.721 643.75C518.949 655.424 519.552 667.098 519.748 678.76L520.045 721.681C520.128 730.812 519.987 740.204 521.064 749.275C544.662 743.665 568.439 739.315 592.157 734.301C589.425 721.476 588.173 707.93 586.289 694.917Q579.937 650.929 574.26 606.849C571.913 589.066 570.09 571.146 567.452 553.411C566.51 547.074 564.076 541.091 563.557 534.666C562.433 520.768 565.974 507.585 566.379 493.853C566.678 483.721 564.439 473.728 563.028 463.739C561.901 455.766 561.112 447.747 559.742 439.81C556.479 440.336 553.21 440.885 549.93 441.291C546.537 441.712 540.761 442.151 538.228 439.3C536.793 437.684 536.181 432.656 535.885 430.5C533.382 412.247 532.463 393.586 530.733 375.234C529.613 363.344 526.1 338.584 527.297 327.709C527.542 325.488 527.578 324.611 529.466 323.232C536.979 317.744 554.525 318.386 563.877 315.87C567.545 314.884 570.708 312.172 574.501 311.594C577.076 311.202 579.747 311.695 582.307 312.038C583.574 309.899 585.013 307.738 586.987 306.186C588.853 304.719 591.261 303.628 593.68 303.998C597.064 304.515 599.48 307.599 601.324 310.22C603.99 308.621 607.152 306.803 610.379 307.231C614.118 307.727 616.263 310.614 618.471 313.336C621.178 312.547 623.977 311.57 626.831 311.999C628.637 312.27 630.064 312.95 631.06 314.563C632.622 317.089 631.651 320.29 630.944 322.907C633.382 323.614 635.935 324.247 638.289 325.195C640.209 325.969 642.177 327.273 642.746 329.382C643.484 332.119 641.604 334.8 640.24 337.001C642.258 339.516 644.07 342.145 645.886 344.808C641.693 348.661 641.25 351.926 640.38 357.381C637.571 358.925 634.726 360.063 631.689 361.066C631.467 366.314 631.706 370.115 626.677 372.782C625.402 373.459 623.839 374.255 622.869 375.344C622.117 376.188 622.117 376.416 622.141 377.477C627.393 383.762 656.865 381.27 665.285 388.502C668.42 391.195 670.407 395.36 672.073 399.078C676.669 409.333 679.232 420.457 682.997 431.032C686.217 440.076 690.586 448.76 693.617 457.843C695.344 463.019 695.888 468.672 697.893 473.728C700.144 479.402 704.947 484.038 707.781 489.452C717.195 507.439 727.528 536.033 728.905 556.239C729.596 566.388 726.742 575.201 719.979 582.836C706.646 597.89 687.096 604.97 667.467 606.1C667.139 612.357 667.844 619.016 668.195 625.283L669.632 653.983L671.465 692.586C671.876 702.053 671.988 711.596 673.086 721.014C696.082 717.269 718.864 711.58 741.769 707.219C740.7 697.891 741.349 687.759 741.153 678.335L739.697 616.966L733.888 369.428L731.514 291.738C731.082 279.606 731.401 266.987 729.979 254.951C716.651 257.117 703.143 258.625 689.758 260.448Q634.605 268.002 579.287 274.242C557.971 276.751 536.784 280.155 515.465 282.648L517.361 518.753C517.496 545.882 519.257 573.095 518.413 600.218C516.161 594.882 513.979 589.339 513.206 583.566C511.206 568.627 512.542 552.708 512.379 537.617L511.03 370.739C510.85 343.641 511.785 316.305 510.548 289.253C510.467 287.473 510.593 284.762 509.294 283.426C507.641 283.083 506.975 283.542 505.416 284.116ZM940.176 214.602L939.334 204.553C927.078 206.446 915.036 209.419 902.994 212.346Q871.104 220.276 839.386 228.872C808.556 236.92 775.082 243.927 745.306 254.825C747.733 273.769 746.989 293.402 747.734 312.497L748.774 336.902C748.918 340.428 749.494 344.64 749.021 348.098C748.53 349.356 748.368 350.314 748.34 351.663C748.255 355.796 748.966 394.357 749.764 396.333C749.98 396.868 750.135 397.082 750.445 397.615C752.291 420.128 751.84 443.058 752.581 465.648Q754.728 554.943 757.778 644.21Q758.387 662.905 758.599 681.609C758.741 689.154 758.691 696.873 759.558 704.371C786.217 697.451 812.617 689.408 839.367 682.873C839.356 662.89 838.964 642.981 839.678 623C840.388 603.09 842.228 583.567 844.224 563.763C842.501 563.04 840.645 562.222 839.663 560.571C839.171 557.579 839.517 554.519 839.916 551.534C841.105 542.616 843.556 533.812 845.246 524.969C846.51 518.357 846.804 510.702 849.039 504.416C844.169 506.724 837.995 509.853 832.547 507.97C827.987 506.394 824.728 501.774 822.755 497.594C815.329 481.862 824.13 461.542 829.766 446.501L838.102 424.372C828.275 426.496 782.866 435.329 775.259 434.645C774.021 434.533 773.326 434.248 772.564 433.226C771.279 431.505 771.143 427.629 770.931 425.518C769.976 416.018 769.753 406.396 769.256 396.859L766.736 351.357C765.815 334.813 762.873 317.003 764.622 300.514C765.994 299.944 767.379 299.477 768.808 299.072C779.623 296.005 840.23 284.367 847.114 288.216C849.398 293.143 851.204 342.906 851.061 351.355C853.233 345.007 855.257 337.933 859.19 332.411C865.71 323.255 877.361 317.599 888.241 315.825C898.382 314.171 908.879 315.599 917.317 321.772C932.589 332.945 929.05 349.363 931.362 365.751C932.14 371.26 935.234 376.081 936.204 381.509C936.736 384.484 936.482 387.452 934.626 389.932C929.034 397.404 913.326 398.734 904.649 400.231C909.426 403.127 914.556 406.051 918.485 410.087C923.936 415.687 924.646 421.423 924.633 428.833C930.092 430.161 935.612 431.099 941.143 432.069C942.268 405.447 940.454 378.776 940.914 352.148C942.218 344.277 941.565 335.494 941.553 327.497L941.545 286.344L941.619 241.206C941.636 232.685 942.339 223.295 941.034 214.881L940.176 214.602ZM744.412 595.316C745.134 609.041 745.036 622.781 745.354 636.517L747.143 693.254Q747.438 701.902 747.444 710.554C747.437 714.082 747.081 718.02 747.494 721.508C747.594 722.349 747.833 723.21 748.277 723.94C748.925 725.003 749.198 725.31 750.462 725.465C751.665 725.613 752.877 725.303 753.811 724.557C754.541 722.19 754.513 719.733 754.494 717.277C754.251 684.633 752.262 651.902 751.372 619.261Q748.273 492.974 743.767 366.729C743.338 353.624 741.695 260.934 739.618 255.686C739.149 254.501 738.789 254.088 737.628 253.625L736.773 254.275C736.148 255.706 735.819 257.021 735.793 258.594C735.724 262.775 736.274 267.07 736.374 271.269L737.872 320.289L741.507 466.97L742.563 500.075C742.775 506.307 743.267 512.644 743.074 518.869L743.053 519.411C742.182 529.282 741.498 587.623 744.412 595.316ZM145.574 566.664C145.25 558.693 146.708 549.644 148.177 541.801C143.973 532.278 142.293 522.926 139.464 513.014C137.298 526.483 136.622 540.129 135.498 553.713C133.494 577.917 131.387 602.288 132.536 626.588C136.796 630.195 141.487 632.893 146.82 634.602C146.907 624.655 144.591 613.54 145.566 603.835C146.651 601.207 146.71 570.019 145.574 566.664ZM839.346 293.194Q815.773 295.916 792.375 299.872C784.743 301.11 776.811 302.057 769.317 303.967C769.667 326.155 771.88 348.606 773.305 370.766C774.556 390.21 774.978 409.79 776.719 429.188C781.108 428.424 785.569 427.799 789.926 426.888Q807.648 424.068 825.328 420.999C830.825 420.022 836.645 419.267 842.02 417.759Q845.103 413.915 848.403 410.256C845.098 406.298 844.206 403.226 843.829 398.191C841.144 397.21 838.076 396.413 836.798 393.559C835.813 391.358 836.197 388.996 837.087 386.835C839.545 380.868 844.502 375.221 848.019 369.786C846.18 352.177 845.523 334.07 844.663 316.37C844.339 309.704 844.945 299.223 843.237 293.001C841.889 292.966 840.683 293.021 839.346 293.194ZM81.6134 318.776C81.0451 326.063 81.3542 333.442 81.3724 340.75L81.387 374.284L81.4399 424.696C81.4531 433.203 81.1874 441.805 81.5099 450.301C100.807 451.725 120.071 453.928 139.357 455.575C142.898 442.798 145.309 427.663 156.917 419.683C156.968 416.855 157.05 414.024 156.999 411.196L151.977 410.102C145.553 408.509 139.088 406.94 132.876 404.63C130.729 398.148 129.723 391.037 129.257 384.224C123.993 382.607 120.492 380.218 116.836 376.099C111.051 376.008 94.8636 374.828 90.5974 371.173L90.6176 370.476C95.244 367.887 111.788 371.988 117.5 372.793C117.636 372.624 117.77 372.454 117.908 372.286C121.005 368.532 125.633 366.265 128.414 362.324C132.899 355.967 132.648 347.436 136.646 340.659C134.118 337.04 133.018 333.563 132.257 329.278L103.005 322.982C95.9057 321.433 88.8485 319.586 81.6134 318.776ZM562.007 322.2C551.89 323.569 541.971 325.046 532.259 328.334C533.547 345.944 535.695 363.456 537.139 381.053C538.635 399.288 539.229 417.773 542.578 435.79C549.572 435.458 556.52 434.492 563.465 433.639C566.054 445.168 568.063 457.106 569.464 468.837C574.584 448.799 575.655 416.92 584.285 399.375L586.566 393.73C581.066 393.025 575.216 391.586 571.71 386.891C568.766 382.949 569.881 377.136 567.097 373.369C566.895 373.373 566.693 373.38 566.491 373.379C564.956 373.371 563.059 373.493 561.74 372.627C561.784 371.59 561.796 371.523 562.546 370.841C563.828 369.679 566.037 368.941 567.64 368.253L567.38 360.126C560.557 361.398 552.617 363.562 545.715 362.186L545.205 361.551C548.711 357.51 562.319 356.262 567.481 355.344L567.517 348.059C560.393 349.827 549.55 352.924 542.377 351.027L542.462 350.366C549.375 345.986 559.941 345.462 567.902 344.136Q568.261 340.024 568.548 335.906C563.932 337.035 544.584 342.344 540.973 340.312C540.83 340.232 540.713 340.111 540.583 340.011C540.646 339.335 540.512 339.01 541.063 338.52C547.068 333.166 567.457 336.109 570.593 328.15C570.591 326.735 570.456 326.023 569.512 324.92C568.359 323.573 565.699 321.983 563.904 321.992C563.248 321.995 562.641 322.054 562.007 322.2ZM584.325 329.711C581.208 329.971 578.024 330.125 574.932 330.584C573.417 343.127 568.933 373.639 576.899 383.702C579.337 386.782 582.878 388.221 586.716 388.569C595.248 389.342 603.631 385.548 610.655 381.082C614.426 378.3 617.377 375.555 620.194 371.81L617.187 364.779C620.23 361.909 622.509 359.858 622.657 355.374C622.72 353.462 622.194 351.39 620.773 350.03C619.44 348.753 617.563 348.398 615.782 348.599C612.984 348.915 611.029 351.065 609.007 352.829C605.338 346.373 604.409 338.896 600.246 332.707C595.317 330.145 589.902 328.823 584.325 329.711ZM905.455 332.271C896.367 344.759 885.097 355.8 877.444 369.22C879.249 375.22 885.705 398.006 890.781 400.221C891.449 400.513 892.677 400.074 893.389 399.938C903.198 397.002 912.559 392.978 917.781 383.582C923.92 372.535 921.796 355.287 918.229 343.754C917.539 341.524 916.693 339.5 915.586 337.44C912.318 335.414 909.006 333.749 905.455 332.271ZM380.435 343.136C378.141 352.821 376.469 361.224 370.284 369.368L370.368 369.857L371.729 370.11C374.374 374.749 375.802 380.076 378.753 384.511C382.185 383.592 384.875 383.044 388.447 383.763L389.351 384.536C389.132 385.741 388.656 386.336 387.616 387.03C386.632 387.686 385.487 388.191 384.426 388.713C385.36 392.431 386.214 396.071 387.777 399.589C387.87 399.797 387.957 400.008 388.047 400.217C390.555 401.01 392.763 401.318 395.371 401.468C396.698 401.442 399.244 401.701 400.332 401.08C400.342 396.271 400.034 391.375 401.563 386.763C403.974 379.495 407.685 373.401 412.174 367.227C409.184 365.277 406.098 363.332 403.414 360.968C395.413 353.923 390.772 347.388 380.435 343.136ZM138.941 345.402C136.361 359.129 134.571 366.459 122.613 375.135C124.666 376.873 126.189 378.067 128.76 378.974C130.484 379.583 132.819 380.158 133.667 381.942C134.845 384.415 133.413 388.825 136.525 390.116C139.194 391.224 142.384 390.699 144.876 392.351L145.261 393.311C144.679 394.247 144.636 394.409 143.481 394.631C141.057 395.097 137.997 394.248 135.585 393.763C135.95 395.856 136.255 397.982 136.74 400.05C141.316 401.954 145.848 403.704 150.728 404.655C153.101 405.117 156.051 405.045 158.286 405.781C159.325 406.122 159.831 406.419 160.268 407.42C161.813 410.955 162.08 423.166 163.55 428.574L166.799 425.799C172.282 421.078 177.787 416.453 183.808 412.417L181.233 397.993C178.367 395.511 173.762 392.408 172.562 388.76C175.767 384.074 186.146 386.914 183.582 374.578C183.341 373.418 182.974 372.701 182.143 371.834C175.986 369.621 174.922 376.084 168.69 368.7C168.047 363.642 167.772 356.482 163.577 352.981C159.912 349.923 150.502 351.565 145.356 349.554C143.019 348.64 140.93 346.908 138.941 345.402ZM617.023 382.466C610.768 386.681 605.247 389.383 598.306 392.187C598.555 396.117 602.601 401.782 604.567 405.303L606.026 407.106C607.301 406.894 608.503 404.834 609.273 403.76C613.327 398.103 617.857 391.713 620.628 385.339C619.44 384.378 618.265 383.354 617.023 382.466ZM626.298 385.705C620.678 394.999 615.402 404.556 608.757 413.171C610.288 415.64 611.485 417.797 612.016 420.711L610.887 421.934L611.096 421.141L612.044 421L610.638 421.826C606.594 419.08 604.786 415.397 602.678 411.12C601.084 413.263 599.435 415.377 598.021 417.645C600.667 437.556 600.943 458.325 601.949 478.395C602.427 487.922 604.417 500.214 602.819 509.397C601.709 515.781 598.023 521.211 594.157 526.247C592.958 527.809 592.149 528.962 590.24 529.592C588.138 529.358 587.163 528.256 585.915 526.678C582.888 522.85 579.446 516.944 578.747 512.059C578.119 507.667 579.596 501.305 580.062 496.812Q582.317 473.797 585.279 450.862C587.064 437.682 589.088 424.521 589.88 411.23Q587.092 413.298 584.212 415.238C583.154 422.393 581.752 429.632 580.254 436.709C577.522 455.262 574.46 473.746 571.882 492.328C570.289 503.815 568.251 515.6 568.624 527.231C568.849 534.256 570.153 540.745 572.357 547.398C590.396 551.67 610.223 548.282 628.605 547.817C633.957 535.579 640.104 523.794 645.931 511.784Q641.87 500.735 638.569 489.436Q635.268 478.137 632.741 466.639Q630.214 455.142 628.474 443.5Q626.734 431.857 625.788 420.124C625.247 413.261 624.591 406.162 624.942 399.282C625.033 397.509 627.492 386.503 627.353 386.313C627.113 385.986 626.65 385.907 626.298 385.705ZM650.217 390.089C645.739 392.8 643.549 397.271 642.32 402.222C636.715 424.791 644.949 450.321 651.008 472.12C652.584 477.789 653.687 483.856 655.799 489.338C659.356 483.568 662.953 476.983 664.769 470.416C665.518 467.71 665.575 464.349 666.695 461.832C667.221 460.65 667.699 460.098 668.943 459.721C669.755 459.475 670.014 459.859 670.719 460.233C672.288 463.226 670.648 467.453 669.691 470.493C667.005 479.023 662.809 487.11 659.053 495.205C651.412 511.676 643.24 527.949 636.059 544.624L633.089 552.412C638.107 556.29 642.808 559.869 648.627 562.507C662.705 546.435 692.352 494.278 690.974 473.543C690.107 460.492 681.835 449.8 677.814 437.704C674.071 426.445 672.246 414.651 667.486 403.705C665.82 399.874 663.666 396.014 660.532 393.191C657.545 390.5 654.122 389.806 650.217 390.089ZM596.438 392.092C594.172 392.339 592.693 392.575 591.194 394.473C588.727 397.597 587.022 401.81 586.514 405.76L587.065 406.476C588.905 403.705 596.331 394.366 596.714 392.329L596.438 392.092ZM899.695 401.457Q890.542 404.84 881.479 408.456C884.837 410.534 888.389 412.9 891.261 415.61L901.374 423.269C901.811 417.062 903.086 407.38 900.616 401.693L899.695 401.457ZM398.5 405.948C397.324 406.568 396.173 406.806 395.917 408.295C395.708 409.52 396.071 410.954 396.901 411.88C397.916 413.013 398.29 413.02 399.685 412.996C401.204 412.216 402.049 412.021 402.937 410.532C402.992 409.15 403.158 408.528 402.211 407.395C401.202 406.189 399.94 406.096 398.5 405.948ZM907.784 408.758C910.898 414.177 914.357 419.83 916.379 425.768C916.872 427.217 917.232 430.236 918.541 430.833L918.884 430.779C919.966 425.638 919.891 420.694 916.993 416.136C915.061 413.096 911.214 409.95 907.784 408.758ZM876.833 409.997L869.467 412.239C877.208 419.265 884.958 426.615 891.215 435.037C899.011 434.207 906.941 433.659 914.663 432.311L913.308 428.876C910.862 423.699 908.005 418.464 906.084 413.084C905.992 417.923 906.486 424.287 903.333 428.275C901.86 428.877 901.021 428.853 899.554 428.177C893.641 425.455 878.711 410.431 877.671 410.062C877.407 409.969 877.112 410.019 876.833 409.997ZM855.936 413.006C842.56 425.565 826.028 463.723 825.336 482.531C825.097 489.027 826.712 496.972 831.412 501.725C832.443 502.768 833.699 503.414 835.194 503.415C846.12 503.424 884.746 478.463 895.809 471.801C893.566 467.867 892.952 464.219 892.311 459.821C878.287 465.138 864.406 470.325 850.915 476.911C847.144 479.008 838.821 484.706 834.548 483.843C833.687 483.669 833.781 483.39 833.416 482.697C834.645 479.036 838.516 476.947 841.78 475.306C845.334 473.521 849.107 472.014 852.811 470.562C854.752 463.855 858.573 449.244 863.732 444.788L864.741 444.614C866.039 446.427 865.69 448.722 865.335 450.846C864.434 456.245 862.291 462.725 860.046 467.738C867.639 464.685 875.113 461.35 882.704 458.292C889 455.756 901.993 452.486 906.709 448.367C909.786 445.679 911.911 440.784 913.843 437.231C905.944 438.588 896.881 440.777 888.896 440.14C879.473 430.246 871.101 414.255 855.936 413.006ZM405.953 414.917C401.824 417.585 398.077 421.31 397.019 426.328C396.985 426.488 396.972 426.651 396.949 426.812L396.826 426.284L398.044 426.695L398.158 426.599C400.688 424.239 407.24 418.869 407.373 415.291C406.837 415.067 406.544 414.912 405.953 414.917ZM432.376 418.195C425.447 419.083 418.689 419.503 411.744 418.515C404.615 427.551 395.031 437.554 389.264 447.122C378.548 464.901 379.026 486.099 379.332 506.144C379.432 512.676 379.234 519.446 379.99 525.937C380.34 528.95 380.749 531.855 383.188 533.879C384.503 534.231 385.265 534.197 386.58 534.017L387.215 533.356C386.633 530.6 383.604 529.131 382.908 526.421C383.535 525.506 383.143 525.728 384.211 525.509C386.303 525.08 388.823 525.868 390.863 526.364C406.13 513.083 421.551 500.628 433.394 484.003C431.927 477.092 424.725 449.532 428.414 444.256C428.896 443.567 429.256 443.581 429.997 443.309C431.548 444.344 431.868 445.713 432.227 447.492C433.354 453.092 433.508 458.855 434.631 464.489C435.704 471.049 437.335 477.873 437.678 484.489C429.859 500.502 408.689 519.414 393.716 529.655C395.909 536.541 401.616 542.212 406.921 546.854C425.501 539.086 452.931 521.777 460.757 502.343C462.641 497.665 462.993 492.904 462.545 487.925C461.258 473.638 452.181 450.735 446.305 437.262C444.499 433.121 438.618 420.613 435.175 418.164C434.131 417.993 433.416 417.998 432.376 418.195ZM187.886 420.225C183.84 434.358 179.374 448.285 174.93 462.292C171.889 471.879 169.141 481.333 165.452 490.711C166.76 492.044 168.035 493.469 169.505 494.624L170.462 494.892C172.615 492.766 173.498 487.193 174.492 484.251C179.663 468.955 190.337 441.621 190.141 425.728C190.12 424.064 189.854 421.592 188.418 420.489C188.261 420.369 188.064 420.313 187.886 420.225ZM180.571 420.875C175.847 424.349 171.056 427.758 166.487 431.435C167.993 435.073 169.307 439.053 171.417 442.381C171.981 443.185 172.917 445.038 173.803 445.327C175.798 441.412 182.123 425.338 181.242 421.529C181.116 420.984 181.101 421.126 180.571 420.875ZM156.634 425.275C153.093 430.986 150.642 437.101 148.693 443.522C144.666 456.79 139.045 488.097 142.008 501.436C142.026 501.516 142.048 501.596 142.068 501.675C143.71 499.644 144.372 485.799 144.785 482.305C146.235 470.054 148.452 457.041 151.818 445.188C153.19 440.356 157.623 431.019 157.04 426.324C156.978 425.827 156.85 425.664 156.634 425.275ZM197.867 425.186C196.645 431.131 195.782 437.149 194.378 443.056C192.274 451.913 189.347 460.443 186.588 469.105C183.225 479.663 180.036 490.009 175.559 500.178C172.496 507.137 169.506 514.186 166.085 520.977C161.457 530.161 155.156 539.037 152.862 549.194C147.795 571.633 151.339 610.685 153.037 634.263C172.568 637.938 190.231 637.783 209.735 634.32C211.496 625.854 213.451 617.765 216.523 609.662C209.499 589.442 207.629 567.266 203.108 546.386C199.619 529.897 196.065 513.399 196.05 496.466C200.709 506.381 202.234 517.804 204.703 528.416C210.461 553.176 216.499 578.29 220.266 603.437Q230.095 603.947 239.931 604.272C240.474 585.118 241.555 565.97 241.474 546.801Q241.259 516.039 237.831 485.467C236.864 476.37 236.453 466.357 233.394 457.679C231.642 452.709 228.781 448.791 225.182 445.011C217.499 436.94 207.816 430.16 197.867 425.186ZM921.837 434.186C919.276 438.698 916.634 443.183 914.221 447.776C917.68 448.235 924.993 449.781 927.039 452.792C927.821 453.942 927.823 454.301 927.641 455.583C926.674 456.504 925.836 456.87 925.719 458.244C925.59 459.747 925.521 460.966 924.346 462.022C922.889 463.331 920.6 463.622 918.763 464.1C917.746 464.364 918.127 464.209 917.264 464.86C916.396 469.337 909.751 471.346 906.705 474.649C902.38 479.34 899.51 486.543 897.377 492.503C906.031 493.941 916.223 493.332 924.975 492.781L934.243 492.291C943.39 475.565 954.119 459.112 964.8 443.324C950.802 439.425 936.353 435.539 921.837 434.186ZM161.735 435.347C153.332 459.63 147.652 487.794 148.263 513.561C148.367 517.937 148.465 524.363 150.548 528.3C150.615 528.427 150.717 528.531 150.802 528.647C158.995 510.35 161.364 475.502 163.169 455.097C162.039 453.532 160.988 452.064 160.169 450.311C161.33 445.185 162.729 440.621 161.735 435.347ZM169.059 450.717C168.575 453.648 166.422 466.6 167.54 468.578C167.717 468.326 167.964 468.102 168.044 467.805C169.346 464.127 172.761 456.483 171.106 452.721C170.692 451.78 169.919 451.204 169.059 450.717ZM910.799 453.06C906.688 454.704 902.526 456.272 898.457 458.014C898.531 461.197 898.255 466.24 900.86 468.47C901.76 469.24 902.88 469.321 904.008 469.101C905.432 468.824 906.944 467.745 908.184 467.017C911.362 463.724 913.442 460.433 918.262 459.917L918.433 459.242C917.167 458.746 915.993 458.636 915.322 457.414C916.066 455.802 917.83 454.982 919.315 454.131C916.478 453.563 913.71 452.898 910.799 453.06ZM899.435 474.892C884.541 484.129 869.671 493.773 854.126 501.889C852.552 520.225 847.4 540.083 844.426 558.5C858.71 558.667 872.39 556.631 886.48 554.646C898.777 553.114 911.091 551.725 923.311 549.652C924.263 532.442 924.548 515.382 924.542 498.153C917.064 498.122 885.779 500.308 881.657 494.403C881.543 494.24 881.019 493.158 880.921 492.959C881.341 491.747 881.445 491.527 882.704 490.956C885.413 489.728 889.528 491.049 892.283 491.742C894.635 487.401 899.733 480.288 900.103 475.423L899.435 474.892ZM696.489 480.837C694.36 487.416 692.47 494.109 690.002 500.57C683.167 518.46 673.658 536.545 663.629 552.843C661.386 556.489 658.973 560.575 656.067 563.729C655.128 564.749 651.104 567.268 650.746 568.127C649.255 571.702 654.868 584.999 656.658 588.514C658.717 592.555 661.898 598.433 666.458 599.871C669.748 600.909 673.656 600.716 676.991 600.002C692.151 596.33 711.158 588.409 719.603 574.384C726.497 562.936 722.992 548.997 719.89 536.912C715.054 518.074 707.444 497.001 696.489 480.837ZM941.429 489.944C938.872 493.871 936.692 496.906 931.765 497.842C930.691 498.047 929.597 498.163 928.51 498.28L928.366 537.207C928.331 543.088 927.834 549.15 928.128 555.011C928.409 560.601 929.921 566.11 930.166 571.718C931.105 593.213 929.91 614.81 929.106 636.285C928.729 646.341 928.983 660.739 927.377 670.308C931.773 670.608 937.863 667.786 941.895 666.104L941.423 524.337C941.438 520.306 942.317 491.069 941.429 489.944ZM163.98 498.881C162.668 503.897 161.106 509.357 161.105 514.573L161.486 515.126L161.919 514.538C163.844 510.653 167.151 505.504 165.993 501.016C165.321 500.207 164.781 499.574 163.98 498.881ZM361.557 530.041Q351.803 544.485 342.603 559.289C337.93 566.835 333.488 574.912 328.179 582.004C338.053 586.091 348.154 589.642 358.133 593.463C368.452 597.414 378.661 601.65 389.022 605.491C392.93 599.653 396.865 593.866 401.033 588.209Q407.221 578.663 413.753 569.348C416.994 564.689 420.572 560.091 423.169 555.035C398.331 550.584 387.158 561.289 365.791 561.379C365.647 561.242 365.506 561.102 365.358 560.969C362.819 558.676 358.092 558.797 356.84 555.908C357.217 552.354 361.664 548.937 364.326 546.801C368.919 543.113 374.078 540.431 379.339 537.844C373.487 534.92 367.66 532.404 361.557 530.041ZM390.599 537.527C381.031 542.085 371.348 545.872 363.453 553.164C368.452 551.824 376.398 548.833 381.226 551.477C381.415 551.581 381.577 551.726 381.753 551.85C379.038 553.165 375.592 553.337 372.625 553.795C370.728 554.342 369.115 554.695 367.622 556.036L367.645 556.708C373.594 558.757 393.635 551.401 399.807 548.555C397.733 545.683 393.731 538.802 390.599 537.527ZM427.376 556.853C417.133 574.464 404.245 590.358 393.973 607.923C399.993 610.318 405.949 612.734 411.785 615.557C422.511 598.75 434.044 582.175 443.973 564.909C438.539 561.664 433.412 558.868 427.376 556.853ZM631.185 558.809C629.304 560.822 627.457 562.882 625.46 564.782C627.854 570.397 630.808 579.204 636.823 581.832C638.493 582.562 639.868 582.396 641.608 582.045C644.332 580.263 646.191 578.741 646.8 575.399C647.195 573.227 646.874 570.789 646.727 568.595C643.366 566.7 633.785 559.587 631.185 558.809ZM223.358 610.721C220.247 613.413 218.449 621.301 218.196 625.289C217.981 628.699 218.956 631.173 220.304 634.242C219.255 636.06 218.467 637.629 217.995 639.681L218.507 640.022C220.697 638.048 221.852 635.7 223.332 633.196L230.639 633.588C231.092 631.918 231.295 630.894 232.742 629.783L233.368 629.959C233.44 631.493 233.147 632.754 232.79 634.227C235.596 632.215 238.129 627.054 239.748 623.989C238.947 619.385 237.985 614.881 236.6 610.414C232.189 610.547 227.771 610.735 223.358 610.721ZM128.886 645.511C117.781 649.709 106.492 654 95.1715 657.556C99.3637 678.371 102.676 699.409 107.216 720.142C107.516 722.138 107.773 724.15 108.171 726.128C116.852 721.919 125.552 717.38 134.599 714.016C134.225 706.762 131.348 648.545 129.601 645.587L128.886 645.511ZM935.982 672.151C934.741 673.066 933.544 673.714 933.118 675.287C933.236 677.086 934.629 678.447 935.701 679.813C936.868 678.094 937.683 676.803 938.134 674.762C937.874 673.641 937.873 672.907 936.715 672.346C936.488 672.235 936.227 672.216 935.982 672.151ZM163.145 690.28C161.37 697.932 163.933 710.279 164.753 718.265Q167.946 752.74 173.051 786.984L179.144 826.092C180.158 832.634 181.573 839.26 182.137 845.847C176.654 846.114 171.279 846.292 165.799 845.755C160.149 845.201 154.535 844.02 148.884 843.612C160.25 849.185 170.335 850.194 182.831 850.016Q184.433 855.843 185.836 861.722C188.325 860.476 190.419 859.1 192.626 857.414C203.758 859.142 218.944 859.377 228.895 853.217L228.092 853.204C214.452 853.061 203.396 856.638 190.077 850.66C185.216 836.618 184.034 820.152 181.843 805.519Q176.011 768.736 171.498 731.768C170.077 720.239 169.241 708.628 167.769 697.118C167.44 694.539 167.473 691.935 164.803 690.802C164.35 690.609 163.636 690.419 163.145 690.28ZM450.781 755.698C442.858 756.544 434.72 757.069 426.888 758.503C429.789 777.846 434.381 797.853 435.657 817.322C440.341 819.424 445.521 818.758 450.398 817.765Q452.691 799.056 454.764 780.322C455.677 772.159 456.989 763.632 456.875 755.419C454.891 755.459 452.723 755.316 450.781 755.698ZM418.47 759.216C414.267 759.582 410.094 759.975 405.918 760.587C408.468 770.279 410.805 779.836 412.596 789.693C413.807 796.353 414.333 804.139 416.411 810.542C416.79 811.708 417.285 812.268 418.329 812.881C418.891 813.21 419.471 813.498 420.057 813.783C423.629 814.146 427.202 814.548 430.787 814.753L425.99 779.846C425.073 773.188 424.584 765.86 422.643 759.445C421.226 758.887 419.946 759.092 418.47 759.216ZM906.484 759.701L895.676 762.149C895.48 773.629 896.098 785.096 896.088 796.577Q900.55 798.131 905.107 799.381C907.597 799.638 910.965 800.492 913.09 798.875C913.231 797.505 912.87 796.945 912.047 795.846C910.435 793.693 908.129 792.251 906.541 790.1C906.347 784.507 908.177 762.93 906.484 759.701ZM855.596 762.005C854.573 774.372 856.753 787.271 857.254 799.65Q862.366 801.282 867.549 802.673L873.502 799.951L873.96 799.312C872.173 796.692 869.27 794.927 866.937 792.809C866.971 783.09 867.832 773.406 867.932 763.701Q861.775 762.772 855.596 762.005ZM887.514 762.729Q880.514 763.057 873.532 763.654C871.976 772.185 872.234 781.64 872.033 790.322C875.092 792.254 878.054 794.232 880.948 796.405C883.921 798.511 886.863 800.661 889.994 802.528Q890.137 789.669 890.113 776.81C890.106 772.343 890.404 767.617 889.805 763.195C888.728 762.442 888.748 762.648 887.514 762.729ZM73.6949 835.617C72.2998 835.855 70.7614 835.799 69.8008 836.996C67.4793 839.888 68.4127 845.497 69.2543 848.798C70.2248 852.604 71.4202 854.958 74.3814 857.504C75.5633 857.174 76.3114 857.123 76.9978 855.981C79.0736 852.53 78.6068 840.189 77.1241 836.544C77.0311 836.315 76.9252 836.092 76.8257 835.866C75.7048 835.539 74.8557 835.548 73.6949 835.617Z"/>
	<path transform="matrix(0.991193 -0.00880652 0.00880652 0.991193 0 9.01782)" d="M940.176 214.602L941.034 214.881C942.339 223.295 941.636 232.685 941.619 241.206L941.545 286.344L941.553 327.497C941.565 335.494 942.218 344.277 940.914 352.148C939.548 341.869 940.478 325.981 940.472 314.979L940.476 252.436C940.479 239.858 940.836 227.162 940.176 214.602Z"/>
	<path transform="matrix(0.991193 -0.00880652 0.00880652 0.991193 0 9.01782)" d="M506.022 393.929C505.705 393.533 505.6 393.458 505.417 392.906C504.097 388.938 504.94 369.126 504.956 363.947L504.763 301.473C504.762 297.993 504.045 288.044 504.792 285.239C504.902 284.825 505.208 284.491 505.416 284.116C506.475 290.164 505.509 302.386 505.611 308.994Q506.244 337.809 506.071 366.63C506.09 375.6 506.677 385.015 506.022 393.929Z"/>
	<path transform="matrix(0.991193 -0.00880652 0.00880652 0.991193 0 9.01782)" d="M781.374 315.23C780.167 315.116 779.731 314.886 778.795 314.121C778.759 313.253 778.556 313.284 779.105 312.756C779.944 311.951 781.073 311.658 782.195 311.474Q808.133 307.24 834.295 304.732C835.959 304.594 835.948 304.777 837.317 305.782L837.181 306.663C831.787 310.446 789.938 314.839 781.374 315.23Z"/>
	<path transform="matrix(0.991193 -0.00880652 0.00880652 0.991193 0 9.01782)" d="M291.354 552.351L291.013 552.009C289.848 545.773 290.729 537.838 290.727 531.437Q290.654 504.467 291.032 477.5L291.515 353.779C291.588 339.363 291.079 324.887 291.433 310.483C291.483 308.414 291.716 306.724 292.523 304.811L292.114 467.03L291.502 520.835C291.419 531.277 291.87 541.938 291.354 552.351Z"/>
	<path transform="matrix(0.991193 -0.00880652 0.00880652 0.991193 0 9.01782)" d="M783.788 326.298C783.418 326.359 782.865 326.469 782.5 326.431C781.411 326.316 781.05 325.879 780.369 325.133L780.694 324.278C786.594 320.358 816.562 317.862 825.183 316.67C825.662 316.586 826.559 316.405 827.024 316.421C828.228 316.464 828.475 316.808 829.071 317.698L828.661 318.708C824.083 322.008 791.485 325.358 783.788 326.298Z"/>
	<path transform="matrix(0.991193 -0.00880652 0.00880652 0.991193 0 9.01782)" d="M75.9309 343.561C75.1306 335.739 74.4065 323.888 75.9785 316.232C77.6639 321.994 76.7569 337.417 75.9309 343.561Z"/>
	<path transform="matrix(0.991193 -0.00880652 0.00880652 0.991193 0 9.01782)" d="M786.116 336.41C784.815 336.552 783.274 336.836 782.085 336.171C781.068 335.602 780.953 335.636 780.664 334.473C780.746 334.366 780.814 334.247 780.909 334.151C783.469 331.57 819.094 327.991 825.073 327.196C825.269 327.159 825.464 327.115 825.662 327.085C827.383 326.831 828.453 326.847 829.898 327.863L829.931 328.764C825.849 332.2 793.945 335.374 786.116 336.41Z"/>
	<path transform="matrix(0.991193 -0.00880652 0.00880652 0.991193 0 9.01782)" d="M129.778 344.984C122.193 344.418 97.1802 339.865 90.5244 337.123C89.9022 335.896 90.2296 335.099 90.3826 333.769C97.208 334.533 124.424 338.422 128.613 341.96C129.899 343.046 129.729 343.395 129.778 344.984Z"/>
	<path transform="matrix(0.991193 -0.00880652 0.00880652 0.991193 0 9.01782)" d="M783.982 348.291C783.269 347.851 782.829 347.35 782.258 346.744L782.396 345.772C785.29 343.837 826.996 337.594 833.927 336.72C834.924 337.149 835.222 337.482 835.805 338.392L835.439 339.085C828.721 343.072 793.579 346.901 783.982 348.291Z"/>
	<path transform="matrix(0.991193 -0.00880652 0.00880652 0.991193 0 9.01782)" d="M126.83 355.153C119.404 354.764 97.0142 351.471 90.7406 348.368C89.9009 347.008 90.0918 346.451 90.142 344.885C96.3237 345.243 123.856 348.899 126.736 352.343C127.192 352.888 126.87 354.439 126.83 355.153Z"/>
	<path transform="matrix(0.991193 -0.00880652 0.00880652 0.991193 0 9.01782)" d="M908.713 349.184C907.08 349.419 905.591 349.841 904.052 349.057L903.819 348.253C904.791 346.642 906.122 346.163 907.776 345.375C908.55 345.587 909.482 345.791 910.176 346.196C911.137 346.756 911.544 347.505 911.762 348.554C910.596 349.403 910.124 349.204 908.713 349.184Z"/>
	<path transform="matrix(0.991193 -0.00880652 0.00880652 0.991193 0 9.01782)" d="M588.506 355.45C587.406 355.324 586.129 355.261 585.172 354.656C584.191 354.035 583.57 352.949 583.469 351.804C583.274 349.59 584.462 348.004 585.777 346.377C587.786 346.527 588.806 346.57 590.407 347.882C590.857 348.689 591.238 349.312 591.202 350.277C591.122 352.387 589.814 353.931 588.506 355.45Z"/>
	<path transform="matrix(0.991193 -0.00880652 0.00880652 0.991193 0 9.01782)" d="M750.445 397.615C750.135 397.082 749.98 396.868 749.764 396.333C748.966 394.357 748.255 355.796 748.34 351.663C748.368 350.314 748.53 349.356 749.021 348.098C749.877 354.645 749.746 361.517 749.921 368.128C750.18 377.941 750.552 387.798 750.445 397.615Z"/>
	<path transform="matrix(0.991193 -0.00880652 0.00880652 0.991193 0 9.01782)" d="M614.567 361.147C613.512 361.151 612.453 361.26 611.505 360.72C610.869 360.358 610.837 359.728 610.602 359.083C611.062 355.922 613.289 353.615 615.331 351.308C616.416 352.066 617.111 352.801 617.958 353.797C618.362 356.592 615.811 355.526 614.707 357.467C614.932 358.903 614.865 359.76 614.567 361.147Z"/>
	<path transform="matrix(0.991193 -0.00880652 0.00880652 0.991193 0 9.01782)" d="M391.233 359.526C390.239 359.35 389.156 359.196 388.235 358.77C385.937 357.71 385.17 355.483 384.347 353.28C385.765 353.403 387.504 353.583 388.727 354.359C390.595 355.545 390.865 357.531 391.233 359.526Z"/>
	<path transform="matrix(0.991193 -0.00880652 0.00880652 0.991193 0 9.01782)" d="M910.586 364.046C908.959 363.684 907.666 363.035 906.805 361.561C905.283 358.956 906.286 355.791 907.082 353.135C907.541 353.243 908.004 353.342 908.455 353.483C910.009 353.968 911.069 354.858 911.765 356.332C912.915 358.764 911.549 361.822 910.586 364.046Z"/>
	<path transform="matrix(0.991193 -0.00880652 0.00880652 0.991193 0 9.01782)" d="M124.123 366.087C117.112 365.958 95.9227 363.212 90.5094 360.192C89.9134 358.737 90.1703 358.069 90.3923 356.536C98.4744 358.098 116.052 359.201 122.494 363.08C123.862 363.904 123.83 364.58 124.123 366.087Z"/>
	<path transform="matrix(0.991193 -0.00880652 0.00880652 0.991193 0 9.01782)" d="M147.319 370.406C146.484 370.031 145.929 369.786 145.417 368.987C143.997 366.772 144.718 363.916 145.355 361.58C146.513 361.905 147.072 362.241 147.966 363.043C149.238 365.725 148.245 367.753 147.319 370.406Z"/>
	<path transform="matrix(0.991193 -0.00880652 0.00880652 0.991193 0 9.01782)" d="M583.56 369.488C583.302 369.421 583.043 369.358 582.787 369.286C581.088 368.812 580.023 368.107 579.141 366.527C578.924 364.891 579.208 364.101 579.858 362.658C581.245 363.454 582.816 364.215 583.571 365.706C584.275 367.097 583.958 368.104 583.56 369.488Z"/>
	<path transform="matrix(0.991193 -0.00880652 0.00880652 0.991193 0 9.01782)" d="M593.871 375.883C589.743 376.116 583.907 377.175 580.302 374.872C579.473 373.52 579.676 373.442 579.984 371.858C584.195 371.907 589.574 370.855 593.425 372.789C594.374 374.088 594.086 374.341 593.871 375.883Z"/>
	<path transform="matrix(0.991193 -0.00880652 0.00880652 0.991193 0 9.01782)" d="M903.75 378.336Q904.934 374.962 906.219 371.626C907.656 372.094 909.153 372.598 910.081 373.888C910.537 374.521 910.711 375.21 910.572 375.964C910.206 377.954 908.563 379.345 906.884 380.316C902.512 382.843 899.353 382.386 894.8 381.017C894.288 380.748 893.772 380.475 893.285 380.161C892.082 379.387 891.04 378.251 890.754 376.823L891.371 376.351C895.327 376.243 899.837 377.62 903.75 378.336Z"/>
	<path transform="matrix(0.991193 -0.00880652 0.00880652 0.991193 0 9.01782)" d="M113.509 387.227C108.137 387.1 95.8544 386.645 91.6876 383.305C90.9623 382.724 91.0782 381.943 90.9299 381.08C96.879 380.965 104.598 381.844 110.189 383.93C112.176 384.672 112.663 385.306 113.509 387.227Z"/>
	<path transform="matrix(0.991193 -0.00880652 0.00880652 0.991193 0 9.01782)" d="M331.934 396.013C331.836 396.026 331.738 396.038 331.641 396.052C330.841 396.166 330.041 396.29 329.234 396.349C327.344 396.488 326.371 395.662 325.048 394.506L325.036 393.788C329.901 389.884 358.79 387.626 366.451 386.695C367.396 386.51 368.552 386.421 369.49 386.702C370.678 387.059 371.434 387.447 371.98 388.543C371.904 388.654 371.844 388.777 371.754 388.877C368.739 392.182 337.888 395.311 331.934 396.013Z"/>
	<path transform="matrix(0.991193 -0.00880652 0.00880652 0.991193 0 9.01782)" d="M327.729 407.301L325.869 406.786C324.965 405.879 324.801 406.099 324.799 404.734C329.067 401.277 365.182 398.153 372.685 397.202L374.213 397.104C375.25 397.867 375.463 397.735 375.798 399.045C372.67 402.838 334.24 406.477 327.729 407.301Z"/>
	<path transform="matrix(0.991193 -0.00880652 0.00880652 0.991193 0 9.01782)" d="M327.471 419.432C325.991 418.973 325.152 418.714 324.319 417.413L324.873 416.554C331.923 412.407 365.392 408.982 375.353 408.221C376.525 408.569 377.462 408.778 378.427 409.563L378.281 410.292C373.78 413.806 336.059 418.182 327.471 419.432Z"/>
	<path transform="matrix(0.991193 -0.00880652 0.00880652 0.991193 0 9.01782)" d="M329.113 430.487C328.054 430.575 327.246 430.489 326.206 430.275C325.489 429.276 325.447 429.253 325.485 428.031C326.439 426.871 327.569 426.464 328.993 426.112C334.364 424.784 340.167 424.323 345.644 423.479L380.289 418.196L381.745 418.033C382.962 418.685 382.883 418.66 383.334 419.975L382.734 421.036C377.691 424.289 337.911 429.117 329.113 430.487Z"/>
	<path transform="matrix(0.991193 -0.00880652 0.00880652 0.991193 0 9.01782)" d="M332.946 441.356C329.776 441.863 328.302 441.853 325.451 440.403L325.282 439.674C330.305 435.719 363.14 431.785 371.034 430.688C372.154 430.536 373.366 430.315 374.496 430.354C375.695 430.395 376.596 430.668 377.366 431.588C377.294 431.729 377.239 431.88 377.15 432.011C376.371 433.154 374.762 433.779 373.478 434.174C369.508 435.395 364.917 435.687 360.813 436.407Q346.898 438.987 332.946 441.356Z"/>
	<path transform="matrix(0.991193 -0.00880652 0.00880652 0.991193 0 9.01782)" d="M286.984 448.652C287.444 449.785 287.652 450.683 287.701 451.905C288.472 471.113 287.333 490.561 287.259 509.786C287.167 533.629 288.426 557.94 286.625 581.716L286.071 582.334C284.961 568.965 286.365 554.33 286.369 540.819C286.379 510.13 285.957 479.324 286.984 448.652Z"/>
	<path transform="matrix(0.991193 -0.00880652 0.00880652 0.991193 0 9.01782)" d="M743.053 519.411C744.358 529.18 743.531 539.768 743.621 549.639L744.412 595.316C741.498 587.623 742.182 529.282 743.053 519.411Z"/>
	<path transform="matrix(0.991193 -0.00880652 0.00880652 0.991193 0 9.01782)" d="M145.574 566.664C146.71 570.019 146.651 601.207 145.566 603.835C144.619 591.651 144.356 578.838 145.574 566.664Z"/>
	<path transform="matrix(0.991193 -0.00880652 0.00880652 0.991193 0 9.01782)" d="M274.008 630.274C272.263 623.282 273.388 610.515 273.439 602.961C273.516 591.638 273.163 580.098 273.923 568.806C274.709 575.729 275.496 626.188 274.008 630.274Z"/>
	<path transform="matrix(0.991193 -0.00880652 0.00880652 0.991193 0 9.01782)" d="M186.89 666.358C192.158 663.102 199.62 660.077 205.654 658.645C207.528 658.199 209.205 658.832 211.063 658.224L211.471 656.671C213.853 654.169 255.75 640.704 262.22 639.622C264.524 639.354 266.953 639.462 269.277 639.422C277.865 657.857 283.963 675.712 287.387 695.796C288.661 703.271 289.415 710.819 290.604 718.306C273.158 734.955 239.912 746.538 215.888 749.081C209.532 749.966 203.042 749.242 196.764 748.149C194.447 740.526 193.433 731.848 192.336 723.953Q188.432 695.267 186.89 666.358ZM246.197 680.476Q240.793 682.358 235.434 684.366L238.702 689.747C241.467 688.887 246.721 687.908 248.206 685.136C248.824 683.982 248.626 682.643 248.141 681.478C247.961 681.048 247.788 680.894 247.506 680.576L246.197 680.476Z"/>
</svg>
