<?xml version="1.0" encoding="utf-8" ?>
<svg xmlns="http://www.w3.org/2000/svg" xmlns:xlink="http://www.w3.org/1999/xlink" width="1024" height="1024">
	<path fill="#2B292B" d="M395.584 211.608C396.294 210.217 397.02 208.447 398.036 207.26C399.124 205.991 400.978 205.66 402.544 205.667C402.596 205.667 403.745 205.69 403.846 205.68C403.949 205.671 404.918 205.509 404.967 205.439C405.343 204.911 405.165 182.46 405.399 179.546C406.998 159.619 416.889 139.344 429.709 124.262C452.331 97.6485 481.151 85.855 515.297 83.2159C519.331 82.7782 523.861 82.9135 527.904 83.1273C557.984 84.7183 582.639 100.211 602.384 122.158C617 138.404 628.544 159.72 629.797 181.884C630.284 190.501 629.283 199.032 628.84 207.628C630.815 207.223 633.108 206.655 635.012 207.636C637.314 208.824 638.318 212.333 639.282 214.582C641.992 213.783 645.183 212.459 647.989 213.486C651.374 214.726 652.758 219.289 654.096 222.294C655.737 221.6 657.427 220.824 659.159 220.394C661.381 219.842 663.656 219.744 665.589 221.12C667.917 222.779 667.924 225.933 668.102 228.484C670.528 227.025 673.24 225.332 676.183 226.099C679.844 227.053 681.754 231.222 683.435 234.263C690.98 213.157 694.582 175.444 695.912 152.505C696.424 143.687 695.634 131.07 697.935 122.792C698.328 121.379 699.216 119.959 700.609 119.361C704.53 117.677 728.777 124.398 735.186 125.346C750.795 127.657 766.616 128.103 782.2 130.524C811.984 135.151 841.374 141.819 871.084 146.803C881.737 148.59 892.559 149.463 903.257 150.97C918.235 153.081 933.319 155.887 948.158 158.828C954.048 159.996 961.832 160.807 967.249 163.419C968.087 163.824 969.018 164.396 969.257 165.348C969.711 167.157 969.328 169.209 969.016 171.022C967.886 177.584 965.877 184.052 964.45 190.565C962.429 199.791 961.043 209.1 959.761 218.451C956.102 245.133 954.565 272.048 950.997 298.728C949.671 308.643 948.3 318.601 946.493 328.439C944.553 339 942.168 349.414 940.897 360.09C938.86 377.191 939.233 394.813 936.548 411.771C934.967 421.751 931.96 431.583 929.847 441.469C928.563 447.482 928.082 453.693 926.626 459.656C926.054 461.998 925.407 464.277 924.204 466.38C916.514 467.342 892.327 460.341 882.928 458.519C875.023 456.987 867.054 456.026 859.114 454.731C863.111 463.229 866.753 472.08 868.992 481.218C873.824 481.587 878.696 482.575 883.388 483.76C912.383 491.083 934.776 512.806 949.575 538.058C964.824 564.078 968.324 596.128 960.616 625.137Q960.273 626.382 959.899 627.618Q959.526 628.854 959.122 630.081Q958.719 631.308 958.286 632.524Q957.853 633.741 957.39 634.946Q956.927 636.152 956.435 637.346Q955.943 638.54 955.422 639.721Q954.901 640.903 954.351 642.071Q953.802 643.24 953.224 644.395Q952.646 645.549 952.04 646.69Q951.434 647.83 950.8 648.955Q950.167 650.081 949.506 651.19Q948.845 652.299 948.157 653.392Q947.47 654.485 946.756 655.561Q946.042 656.637 945.301 657.695Q944.561 658.754 943.796 659.793Q943.03 660.833 942.239 661.854Q941.448 662.875 940.633 663.876Q939.817 664.877 938.978 665.858Q938.138 666.84 937.275 667.8Q936.411 668.76 935.525 669.699Q934.638 670.638 933.729 671.555Q932.82 672.472 931.889 673.367Q930.958 674.262 930.005 675.133Q929.052 676.005 928.078 676.853Q927.105 677.701 926.111 678.526Q925.116 679.35 924.103 680.149Q923.089 680.949 922.056 681.724Q921.022 682.499 919.971 683.248Q918.919 683.997 917.849 684.721Q916.78 685.444 915.693 686.142Q914.606 686.839 913.502 687.509Q912.399 688.18 911.279 688.823C891.663 700.165 867.77 706.725 845.049 704.299C835.74 703.306 826.61 700.896 817.576 698.515C817.218 700.084 816.757 701.744 815.704 702.996C813.265 705.898 809.459 706.001 805.963 706.248L808.837 712.7C806.197 716.419 802.34 718.949 798.743 721.67C798.665 723.601 798.699 725.731 798.207 727.611C797.139 731.69 792.643 733.523 789.315 735.511C788.922 738.209 788.917 741.501 787.95 744.031C786.417 748.039 782.788 749.102 779.148 750.599C778.831 753.427 778.707 756.958 777.052 759.365C775.121 762.173 771.075 762.226 768.025 762.643C767.652 764.469 767.269 766.378 766.611 768.122C764.602 773.447 759.241 775.316 754.476 777.459L754.224 784.337C751.311 788.306 748.549 789.492 743.959 790.835C743.389 793.212 742.922 796.069 741.503 798.095C739.189 801.397 734.422 801.606 730.775 802.206C730.467 804.273 730.263 806.545 729.617 808.532C729.13 810.029 728.211 811.509 726.706 812.143C724.277 813.168 721.156 811.652 718.972 810.669C718.198 813.062 717.528 815.451 715.776 817.343C712.764 820.597 708.145 820.818 704.005 821.074C703.369 824.13 702.775 827.898 700.735 830.36C697.98 833.685 693.505 833.591 689.574 833.888C686.477 836.866 682.517 841.354 677.955 841.556C676.579 841.616 676.147 841.289 675.156 840.398C673.801 835.799 678.242 831.412 680.186 827.582C681.129 825.725 681.793 823.65 682.513 821.695C685.942 819.298 690.134 820.333 692.779 818.101C696.461 814.993 696.945 808.931 700.807 806.487C703.584 804.73 706.901 806.039 709.746 806.861C710.572 804.144 711.486 800.424 713.652 798.487C715.834 796.534 718.558 796.853 721.263 796.961C722.23 794.385 723.224 791.285 725.042 789.193C727.797 786.021 731.53 786.136 735.383 785.941C736.306 782.866 736.995 779.043 738.665 776.303C740.762 772.862 743.407 772.133 747.053 771.138C748.102 768.425 748.669 765.558 749.857 762.893C750.607 761.21 751.429 759.37 753.254 758.694C754.077 758.896 755.105 759.233 755.966 759.09C761.889 758.102 759.803 750.213 761.722 747.714C763.554 745.328 767.215 745.429 769.931 745.208C770.614 742.511 771.123 738.744 772.646 736.411C774.668 733.314 777.612 732.893 780.968 732.186C781.053 729.325 780.868 725.629 782.103 723.015C783.653 719.734 786.769 718.832 789.926 717.693C789.62 715.063 789.315 712.185 789.937 709.583C790.786 706.03 792.932 704.51 795.885 702.696C797.264 699.171 799.096 696.279 801.546 693.425C793.087 689.306 785.526 685.25 778.325 679.088C756.405 660.329 740.499 632.951 738.291 603.933C736.109 575.248 739.728 543.961 759.109 521.465C782.513 494.301 818.619 483.643 853.259 481.209C849.624 471.231 846.91 460.788 841.752 451.445C834.472 449.912 826.773 449.407 819.384 448.489C809.673 447.283 800.155 445.704 790.549 443.819C767.235 439.244 744.498 431.659 720.825 429.109C710.074 427.95 658.585 424.079 652.251 420.188C651.653 418.741 651.685 417.434 651.98 415.916C653.163 409.836 655.466 403.688 656.927 397.62C661.278 379.545 665.397 361.229 668.998 342.991C673.24 321.501 675.177 299.947 677.904 278.263C679.302 267.147 681.711 256.14 682.738 244.989C680.37 245.032 677.376 245.203 675.28 243.916C672.724 242.347 672.196 239.547 671.492 236.849C669.283 237.818 666.966 238.585 664.7 239.415C662.75 238.623 660.383 237.821 658.991 236.148C657.336 234.158 657.526 231.703 657.673 229.282C655.927 230.027 654.088 230.781 652.214 231.13C650.47 231.454 648.555 231.362 647.074 230.292C644.754 228.617 644.408 225.942 643.955 223.323L643.524 223.632C640.969 225.448 637.417 228.123 634.082 227.35C630.935 226.62 629.961 221.153 628.666 218.491L628.021 218.325C625.082 226.434 624.366 235.772 621.654 244.2C614.709 265.778 594.893 287.085 576.583 300.125C552.986 316.931 524.25 322.096 495.891 317.348Q491.592 316.536 487.377 315.364Q483.162 314.192 479.061 312.67Q474.96 311.147 471.001 309.284Q467.043 307.42 463.256 305.23C441.681 293.003 420.639 270.932 413.021 246.963C409.78 236.765 408.584 226.102 405.719 215.806C403.877 218.565 402.404 222.709 399.304 224.259C396.069 225.875 392.171 223.949 389.07 222.826C388.579 224.715 388.139 226.831 387.091 228.496C386.137 230.012 384.712 231.295 382.864 231.507C379.903 231.847 377.819 229.847 375.739 228.09C375.069 230.802 374.362 233.596 372.602 235.838C371.393 237.377 369.83 238.371 367.848 238.49C364.956 238.665 362.857 237.025 360.753 235.274C359.696 238.57 358.094 243.971 354.644 245.498C353.414 246.043 352.404 245.738 351.206 245.366C349.935 244.971 348.985 244.412 347.741 245.031C346.751 249.484 344.965 252.363 341.72 255.473C344.677 266.453 345.714 277.101 347.462 288.249C348.645 295.798 350.1 303.301 351.177 310.867C353.795 329.257 355.955 347.793 359.379 366.053C361.773 378.822 365.005 391.584 367.923 404.251C369.17 409.666 370.996 415.145 371.714 420.654C371.963 422.564 372.126 424.677 371.23 426.448C371.15 426.606 371.04 426.748 370.935 426.891C369.348 429.019 366.613 429.628 364.169 430.21C352.336 433.029 340.115 433.688 328.15 435.73C315.567 437.878 303.196 441.247 290.576 443.137C252.634 448.82 214.1 452.482 176.873 462.176Q174.367 476.034 169.716 489.326Q178.434 490.105 187.014 491.836C211.172 496.82 230.873 508.103 248.848 524.812C255.108 530.63 261.113 536.793 265.779 543.992C281.27 567.893 283.762 603.558 277.731 630.809C270.658 662.766 251.035 683.729 224.189 700.968C226.137 702.419 228.131 703.874 229.691 705.755C232.887 709.608 232.801 713.786 232.469 718.479C235.537 719.505 239.139 720.776 241.106 723.505C243.347 726.614 242.609 730.086 242.014 733.571C244.023 734.359 246.117 735.241 247.868 736.521C251.783 739.381 252.394 743.568 253.201 748.01C254.802 748.736 256.555 749.437 258.015 750.421C261.798 752.974 262.142 757.29 262.744 761.409C264.958 762.404 267.449 763.139 269.525 764.397C273.279 766.671 273.8 770.802 274.818 774.712C276.884 775.162 279.214 775.308 281.067 776.4C284.518 778.433 285.14 782.74 286.152 786.289C287.782 786.505 289.728 786.633 291.251 787.28C294.552 788.683 295.801 793.239 297.087 796.268C299.423 796.574 302.339 796.896 304.35 798.173C307.719 800.313 308.187 804.402 309.003 807.983C311.532 808.359 314.111 808.762 316.484 809.759C320.045 811.254 319.239 813.177 320.525 816.161C322.836 821.52 327.091 818.296 331.226 820.352C334.66 822.059 336.071 825.805 337.242 829.19C341.415 830.116 345.274 830.96 348.363 834.179C350.218 836.112 351.33 838.668 351.254 841.365Q351.246 841.798 351.194 842.229Q351.143 842.659 351.049 843.082Q350.955 843.505 350.819 843.917Q350.684 844.329 350.508 844.725Q350.332 845.121 350.118 845.498Q349.904 845.875 349.653 846.228Q349.403 846.582 349.118 846.909Q348.834 847.236 348.518 847.533C347.1 848.847 345.31 849.558 343.366 849.42C339.841 849.168 337.607 845.568 335.54 843.091C326.846 842.036 330.429 839.318 326.235 834.943C324.268 832.891 321.107 833.216 318.476 833.104C316.715 831.096 315.293 828.817 313.804 826.604C311.25 826.108 307.544 825.823 305.653 823.866C303.807 821.955 303.972 818.753 303.814 816.272C302.286 816.084 300.733 815.919 299.22 815.63C296.657 815.141 293.833 814.327 292.369 811.972C290.679 809.253 291.369 806.451 292.015 803.537C290.102 803.563 288.133 803.646 286.233 803.411C274.563 801.968 282.649 797.055 278.202 792.931C277.082 791.892 275.969 792.035 274.569 792.049C273.068 792.065 271.934 792.23 270.682 791.153C268.172 788.992 267.854 784.593 267.393 781.532C264.175 780.35 257.782 779.745 256.156 776.321C255.063 774.018 256.206 771.328 256.889 769.06C251.75 767.814 248.767 766.113 245.457 761.875L247.736 755.782Q245.754 755.399 243.784 754.957C232.565 752.391 240.351 747.5 235.432 741.135C234.383 739.778 233.427 739.644 231.816 739.433C229.78 739.166 228.447 739.131 226.934 737.65C225.866 734.735 226.854 731.336 227.749 728.484C224.673 727.194 220.727 725.533 219.2 722.343C217.907 719.641 218.86 716.851 219.877 714.243C215.739 712.313 212.984 710.616 210.103 707.016C201.54 709.738 192.622 711.891 183.704 712.988C153.991 716.64 113.306 710.104 89.5132 691.202C66.9652 673.289 55.172 641.143 52.1596 613.125C49.0126 583.854 58.0016 555.756 76.4722 532.985C97.3189 507.285 121.909 492.089 155.102 488.636C157.115 481.051 160.15 473.778 162.043 466.119L126.173 473.367C119.166 474.839 111.746 477.153 104.642 477.8C102.874 477.962 100.611 478.26 99.1527 477.065C97.9649 475.25 97.2958 473.416 96.7454 471.334C94.4884 462.794 93.4832 453.641 91.987 444.927C89.7362 431.819 87.1201 418.819 85.6001 405.596C84.337 394.607 84.0145 383.542 82.5931 372.566C81.4527 363.759 79.4877 354.994 77.8879 346.257Q75.0899 330.802 73.0305 315.231C69.1879 286.261 67.3851 257.079 63.5083 228.111C62.5194 220.722 61.4635 213.312 59.9498 206.009C57.988 196.544 55.0281 187.132 55.2729 177.383C56.0963 176.252 56.6467 176.171 57.9811 175.691C63.9196 173.552 70.8038 172.674 76.9798 171.344C96.9107 167.051 116.846 163.949 136.952 160.667C161.558 156.65 185.755 150.616 210.348 146.624C232.049 143.102 254.031 141.588 275.749 138.195C282.823 137.09 316.078 127.895 320.922 130.837C322.398 131.733 322.983 136.232 323.245 137.958C324.6 146.895 324.883 156.117 325.809 165.12C328.126 187.659 330.97 211.163 336.404 233.182C336.856 235.016 337.435 238.146 339.078 239.134C339.071 238.253 339.064 237.36 339.154 236.483C339.338 234.666 339.858 232.612 341.463 231.524C342.468 230.843 343.662 230.728 344.83 230.89C347.383 231.246 348.839 232.474 350.356 234.462C351.229 231.583 352.002 228.663 353.841 226.221C355.2 224.416 356.818 223.193 359.131 223.007C361.98 222.779 364.307 224.669 366.287 226.44C367.18 223.537 368.102 220.41 370.064 218.028C371.214 216.632 372.605 215.844 374.418 215.69C377.537 215.424 379.559 217.046 381.866 218.906C382.376 216.885 382.845 214.787 383.657 212.863C384.396 211.114 385.494 209.407 387.457 208.896C390.419 208.125 393.178 210.174 395.584 211.608ZM514.73 89.3025C483.349 92.4923 452.947 104.607 432.584 129.562C414.282 151.99 407.653 180.279 410.646 208.734C414.001 240.627 424.569 268.357 450.115 289.01C450.808 289.57 451.493 290.12 452.161 290.712C454.75 276.202 461.127 242.476 473.531 234.29C484.084 227.324 491.046 235.268 501.595 220.82C490.777 214.897 483.105 208.739 476.513 198.237C472.612 199.567 469.552 200.014 465.701 198.202C462.216 196.563 459.62 193.435 458.446 189.787C457.499 186.843 457.428 183.43 458.93 180.653C460.261 178.193 462.604 176.549 465.267 175.805C466.496 175.461 467.793 175.401 469.061 175.333C465.979 167.657 463.938 157.674 467.152 149.722C469.025 145.086 472.731 141.547 477.348 139.677C481.404 138.035 485.531 137.88 489.837 137.596C492.274 133.048 495.112 129.961 499.602 127.301C509.57 123.243 520.121 122.899 530.125 127.083C542.229 132.146 551.087 142.975 555.891 154.958C558.047 160.336 559.222 165.927 560.332 171.594C564.316 172.778 567.49 174.306 569.576 178.085C570.582 179.907 571.156 181.979 571.657 183.987C570.341 188.348 568.737 192.962 564.493 195.318C561.103 197.2 557.652 197.108 553.897 196.724C549.209 207.452 543.969 213.898 534.281 220.431C537.433 223.535 540.736 226.333 544.397 228.824C554.407 228.728 568.944 227.101 576.659 234.675C587.344 245.165 589.257 265.023 592.79 278.974C613.093 254.842 619.712 239.881 622.568 207.964C623.268 200.131 624.155 192.109 623.462 184.25C621.023 156.574 605.913 131.75 584.75 114.267C565.978 98.7591 541.64 86.651 516.644 89.084C516.005 89.1463 515.367 89.2219 514.73 89.3025ZM705.151 125.511C702.789 147.392 702.229 169.387 699.36 191.246C695.868 217.856 690.042 244.037 686.46 270.597C683.974 289.027 682.046 307.529 679.135 325.901C676.621 341.768 673.24 357.452 670.011 373.183C667.066 387.526 664.461 401.765 659.997 415.745C686.358 418.425 713.294 420.143 739.356 425.011C749.311 426.87 759.14 429.788 768.992 432.145Q790.149 437.052 811.507 440.994C838.138 445.834 865.147 448.485 891.727 453.617C901.274 455.46 910.542 459.319 919.816 461.027C922.195 454.254 922.393 446.708 923.873 439.699C925.662 431.228 928.718 422.953 930.069 414.41C933.343 393.704 933.523 372.407 935.863 351.549C938.857 324.857 943.603 298.371 947.362 271.779C952.263 237.114 956.081 202.698 964.927 168.745C956.687 166.53 948.195 165.103 939.818 163.505C928.152 161.279 916.468 158.866 904.73 157.072C892.231 155.161 879.65 153.793 867.172 151.73C838.056 146.917 809.228 140.117 780.015 135.967C754.859 132.393 729.959 131.571 705.151 125.511ZM314.305 137.147C300.786 139.6 287.502 143.041 273.885 145.007C252.714 148.064 231.306 149.527 210.224 153.237L101.252 172.546C87.694 175.037 74.1289 178.727 60.5531 180.837C62.4211 190.729 64.5484 200.575 66.1296 210.518C68.6488 226.361 70.4247 242.32 72.7928 258.186C74.7554 271.335 77.4712 284.357 79.3787 297.518C82.7939 321.081 85.3839 344.9 88.404 368.534C90.1803 382.435 90.2323 396.504 92.2215 410.374C93.725 420.855 96.1267 431.2 98.1316 441.593C100.071 451.646 101.592 461.8 103.346 471.89L109.378 469.864C136.136 462.082 163.308 457.074 190.703 452.161Q215.471 447.482 240.344 443.401C253.424 441.371 266.6 439.883 279.644 437.646C293.843 435.212 307.809 431.74 321.905 428.806C335.85 425.904 350.137 425.72 363.788 421.198C358.739 401.792 353.64 382.12 350.354 362.336C347.524 345.302 345.752 328.139 343.472 311.031C342.553 304.137 341.178 297.308 340.22 290.42C339.296 283.775 338.878 277.057 337.797 270.433C335.711 257.644 331.593 244.854 328.722 232.18C326.638 222.979 325.325 213.668 323.75 204.374C322.578 197.461 321.104 190.598 319.981 183.678C318.382 173.832 317.265 163.68 316.577 153.729C316.28 149.439 316.352 145.11 315.925 140.832C315.797 139.555 315.716 138.361 315.12 137.196L314.305 137.147ZM493.96 148.362C487.678 157.415 478.969 163.591 474.344 173.889C474.834 176.188 475.908 179.425 474.65 181.593C474.274 182.241 473.877 182.197 473.217 182.415C470.767 181.78 468.411 180.161 465.896 180.233C464.778 180.967 464.392 181.431 464.093 182.774C463.558 185.18 463.809 188.629 465.241 190.707C466.256 192.18 467.73 192.985 469.474 193.28C472.732 193.832 474.786 192.618 477.442 190.894C486.366 203.126 495.334 215.021 511.318 217.492C517.323 218.421 524.084 218.15 529.818 216.059C541.328 210.692 545.067 200.329 551.647 190.341C555.173 190.948 559.288 191.696 562.39 189.345C563.854 188.236 564.801 186.333 564.986 184.526C565.193 182.519 564.783 180.565 563.486 178.989C562.64 177.96 561.982 177.527 560.615 177.465C558.418 177.365 556.741 178.282 554.529 177.518C552.229 175.301 553.17 171.576 550.428 169.471C549.115 168.462 546.612 167.84 545.013 167.34C526.911 161.679 510.87 163.885 495.363 149.633L493.96 148.362ZM505.882 223.094C504.741 225.023 503.63 226.978 502.446 228.88C507.153 235.38 513.017 241.281 519.211 246.377C521.173 243.835 523.248 241.328 525.101 238.709C527.936 235.209 530.774 231.748 533.28 227.999L530.085 222.92C521.695 224.963 514.244 225.857 505.882 223.094ZM536.996 230.775Q531.321 240.497 524.416 249.388L532.319 256.616Q534.209 258.64 536.036 260.721L536.119 259.924C536.619 255.352 542.022 234.986 540.004 232.576C539.345 231.79 537.924 231.137 536.996 230.775ZM497.355 232.176C495.635 239.664 501.208 250.235 504.065 257.087C505.298 255.462 506.553 253.849 507.761 252.204L512.139 247.512C508.967 243.527 501.711 234.253 497.355 232.176ZM556.528 234.22C556.051 259.47 549.503 283.836 545.153 308.529L552.39 305.97C556.686 304.278 560.887 302.518 565.063 300.541C565.838 282.027 565.762 263.946 561.697 245.765C561.006 242.672 559.759 236.997 557.438 234.794C557.085 234.459 556.922 234.409 556.528 234.22ZM563.091 234.946C569.533 258.406 570.689 272.879 571.235 296.708Q576.045 293.108 580.771 289.398L588.461 282.749L588.236 282.086C582.983 266.352 582.718 248.569 570.295 235.979L563.091 234.946ZM480.432 236.633C473.375 253.967 479.262 287.948 481.721 306.864C487.316 309.002 492.868 310.673 498.735 311.878L500.29 311.76C501.662 308.841 489.512 264.578 488.01 258.303C486.539 252.158 485.694 245.355 483.733 239.398C483.411 238.418 482.886 237.651 481.947 237.176C481.449 236.924 480.959 236.795 480.432 236.633ZM473.726 239.859C464.453 252.937 461.14 278.008 457.003 293.715L466.779 300.25C469.945 301.96 473.102 303.81 476.359 305.333C472.971 289.423 471.916 272.213 472.397 255.984C472.548 250.906 474.844 244.784 473.726 239.859ZM514.176 251.276C513.144 268.568 515.298 295.787 519.116 312.654C522.275 312.334 525.431 311.979 528.604 311.841C530.653 301.336 528.451 274.855 527.258 263.658C523.21 258.466 520.421 254.17 514.176 251.276ZM853.636 486.783C819.931 488.858 788.077 497.089 764.8 523.259C754.664 534.654 748.8 547.099 744.87 561.751C761.278 564.534 774.21 570.521 789.779 574.943C803.719 572.374 813.45 555.281 835.451 553.051C840.896 553.79 845.682 554.866 850.691 557.191C860.717 561.846 873.37 573.916 885.304 571.689C895.113 569.858 904.408 564.993 913.806 561.776C924.327 558.175 936.403 555.943 945.366 549.029Q946.721 547.973 948.014 546.842C942.841 539.819 938.685 532.071 933.397 525.167C918.111 505.206 896.949 491.438 871.962 487.572C865.819 486.622 859.831 486.262 853.636 486.783ZM148.731 496.191C121.17 499.228 98.0934 515.522 81.0698 536.715Q80.2521 537.714 79.4598 538.733Q78.6675 539.751 77.9011 540.79Q77.1347 541.828 76.3946 542.886Q75.6545 543.943 74.9413 545.019Q74.228 546.095 73.542 547.188Q72.856 548.281 72.1977 549.392Q71.5394 550.502 70.9093 551.628Q70.2791 552.755 69.6775 553.897Q69.0758 555.039 68.5031 556.195Q67.9303 557.352 67.3868 558.523Q66.8433 559.693 66.3295 560.877Q65.8156 562.061 65.3316 563.258Q64.8477 564.454 64.394 565.663Q63.9402 566.871 63.5171 568.09Q63.0939 569.31 62.7015 570.539Q62.3091 571.769 61.9477 573.008Q61.5863 574.247 61.2562 575.495Q60.9261 576.743 60.6275 577.999Q60.3289 579.254 60.0619 580.517Q59.795 581.78 59.5598 583.049Q59.3247 584.318 59.1216 585.593Q58.9184 586.867 58.7474 588.147Q58.5763 589.426 58.4375 590.709Q58.2987 591.992 58.1922 593.279Q58.0857 594.565 58.0115 595.854Q57.9374 597.142 57.8957 598.432Q57.854 599.722 57.8447 601.013Q57.8354 602.304 57.8586 603.594Q57.8818 604.885 57.9374 606.174Q57.993 607.464 58.081 608.751Q58.169 610.039 58.2894 611.324Q58.4098 612.609 58.5624 613.891C61.4755 639.786 71.8021 668.89 92.9295 685.497C99.6246 690.76 107.617 694.209 115.481 697.322C136.833 705.774 158.053 710.858 181.117 707.883C209.127 704.269 236.894 690.48 254.316 667.822C272.301 644.432 277.658 613.438 273.806 584.639C269.983 556.058 255.389 535.038 232.647 517.86C227.196 513.742 220.235 508.811 213.794 506.478C197.265 498.904 175.852 494.606 157.59 496.512C156.224 502.96 155.504 509.767 155.435 516.357C157.39 515.534 159.388 514.76 161.288 513.819C161.791 511.769 162.088 509.475 163.409 507.784C167.167 506.7 190.181 520.481 195.064 523.18C201.547 526.764 211.6 531.251 216.42 536.573C216.778 539.856 216.967 543.38 217.681 546.597C219.941 556.783 224.115 567.227 227.245 577.252Q234.536 600.53 241.364 623.948C243.007 629.544 246.095 635.544 246.962 641.219C247.313 643.518 247.064 645.729 245.513 647.548C243.865 649.48 241.284 650.557 238.957 651.418C217.038 659.521 194.07 664.776 171.832 671.849C157.761 676.325 144.326 683.295 129.82 686.197C128.434 685.668 127.753 684.797 127.17 683.476C124.846 678.205 123.257 672.369 121.508 666.883C114.423 644.653 110.08 621.874 104.151 599.362C99.2826 580.877 92.2576 562.748 88.7712 543.926C105.632 532.684 129.868 524.902 149.351 518.731C148.84 510.738 150.67 504.369 151.836 496.598C150.742 496.293 149.866 496.189 148.731 496.191ZM168.817 513.825C169.612 525.543 173.555 539.435 179.115 549.787C184.8 546.283 190.959 543.085 197.311 540.979C200.457 539.943 203.647 538.973 206.753 537.825C194.614 528.846 182.298 520.678 168.817 513.825ZM162.929 519.989Q144.872 526.737 126.719 533.223C116.4 536.87 105.776 540.154 95.9857 545.128C100.266 563.805 105.934 582.202 110.856 600.723C117.769 626.733 123.986 652.708 133.215 678.035C147.018 673.824 160.733 669.105 174.385 664.422C196.223 657.87 217.741 649.303 240.214 645.257C232.906 624.003 227.091 602.115 220.965 580.494C217.331 567.668 213.099 554.869 209.742 541.996C204.913 543.962 200.192 546.04 195.517 548.351C190.909 550.628 185.949 553.883 180.961 555.109C179.75 555.407 178.786 555.331 177.662 554.789C168.699 550.465 166.549 522.768 162.929 519.989ZM833.091 557.536C814.67 562.441 805.508 576.104 788.804 581.899C790.154 595.987 788.92 610.553 788.098 624.673C790.4 623.256 792.474 621.671 794.59 619.997C810.899 622.121 820.628 620.718 834.126 610.375C840.533 605.466 844.128 599.391 847.314 592.086C848.135 590.204 848.851 587.643 850.172 586.076C851.349 586.33 851.995 586.729 852.966 587.431C857.168 590.343 861.393 592.811 866.055 594.919C873.52 598.293 891.627 603.497 896.616 609.005C898.361 610.93 898.654 613.786 899.107 616.248L899.249 617.046C901.988 616.394 904.7 615.769 907.351 614.806C902.336 601.571 897.056 588.376 893.688 574.604C881.689 577.985 872.355 576.258 861.552 570.196C853.573 565.719 842.716 557.07 833.091 557.536ZM744.62 567.387C742.67 588.587 741.612 608.151 749.174 628.507C757.621 625.744 765.367 629.656 772.74 628.243L772.97 627.537Q774.112 602.247 776.622 577.056Q772.818 575.288 768.899 573.794Q764.979 572.299 760.964 571.086Q756.949 569.873 752.858 568.947Q748.766 568.021 744.62 567.387ZM902.262 570.298C900.999 571.056 899.668 571.642 898.97 573.001C899.197 581.69 911.995 617.938 916.662 625.436C917.322 625.791 917.658 625.983 918.414 626.076C919.863 625.584 920.995 625.487 921.947 624.261C919.122 613.89 914.538 603.828 910.934 593.698C908.468 586.764 906.771 579.148 903.881 572.448C903.489 571.541 903.061 570.88 902.262 570.298ZM853.476 594.317C847.418 607.61 839.121 614.4 826.268 620.919Q828.095 625.15 829.819 629.424C833.256 628.417 838.35 626.261 841.738 628.312C844.405 629.926 845.072 633.346 845.85 636.128C848.759 635.273 852.723 634.096 855.514 635.935C858.012 637.581 858.62 640.958 859.318 643.655C862.033 643.49 864.353 643.265 866.998 644.098C868.321 644.982 869.639 645.833 870.842 646.881C878.619 640.859 893.073 629.419 894.522 619.088C894.85 616.749 894.328 614.511 892.813 612.678C886.958 605.595 862.871 599.679 853.476 594.317ZM954.283 619.985C941.154 623.963 927.063 629.718 913.796 632.103C912.252 628.826 910.779 625.572 909.515 622.176Q903.644 623.666 897.694 624.798C891.785 636.613 882.994 645.882 871.724 652.762C871.314 656.314 870.504 659.53 867.496 661.795C860.494 667.066 848.459 660.929 839.759 662.738C836.878 661.585 834.768 660.095 832.351 658.19C828.358 659.095 825.004 659.399 821.379 657.089C819.62 655.967 818.003 654.415 816.536 652.931C813.683 653.407 810.934 653.648 808.044 653.75C805.536 652.411 803.348 650.852 801.074 649.16C796.058 649.156 790.978 649.284 787.113 645.499C784.752 643.186 783.654 640.291 782.755 637.182Q767.055 634.646 751.232 633.05C753.795 638.858 756.381 644.398 759.985 649.659C778.779 675.935 800.527 691.259 832.874 696.693C860.728 701.372 891.33 695.832 914.467 679.249C931.214 667.246 943.858 652.333 951.251 632.879C952.582 629.374 954.259 625.504 954.918 621.808C955.09 620.843 955.205 620.937 954.673 620.066L954.283 619.985ZM820.8 624.607L812.802 626.159C811.057 630.647 803.372 641.083 804.861 645.088C805.416 646.582 807.53 647.639 808.88 648.355C810.775 648.714 812.172 649.147 813.857 647.922C818.67 644.423 822.598 635.617 823.293 629.789C823.505 628.021 823.414 626.593 822.356 625.091C821.798 624.836 821.424 624.578 820.8 624.607ZM793.201 626.364C791.353 629.971 787.689 635.314 789.12 639.44C789.718 641.167 791.35 642.788 793.041 643.466C794.282 643.963 795.648 643.946 796.835 643.296C797.456 642.956 798.121 642.198 798.598 641.669C801.388 636.987 803.963 632.268 805.979 627.196C801.739 626.824 797.46 626.313 793.201 626.364ZM835.435 632.404C829.5 635.402 824.937 639.948 822.854 646.486C822.328 648.137 822.094 650.106 822.936 651.697C823.817 653.359 826.127 654.17 827.811 654.762C832.243 653.323 836.111 646.862 838.139 642.79C839.171 640.717 840.664 637.405 839.756 635.041C839.29 633.828 838.514 633.223 837.346 632.741C836.823 632.526 835.974 632.477 835.435 632.404ZM849.731 639.334C844.932 641.057 839.67 651.011 836.647 655.312C838.323 655.912 840.021 656.615 841.765 656.969C843.543 657.205 844.435 657.362 845.9 656.237C849.368 653.572 852.365 648.493 852.816 644.113C852.936 642.939 852.822 641.387 852.015 640.453C851.45 639.8 850.514 639.594 849.731 639.334ZM860.129 647.864C857.429 650.029 853.479 653.063 853.014 656.706C852.905 657.564 853.221 657.903 853.573 658.644C855.169 659.895 857.3 660.073 859.277 660.017C862.105 659.028 864.384 657.926 865.709 655.085C866.378 653.651 866.807 652.068 866.075 650.554C865.349 649.05 863.831 648.347 862.291 648C861.564 647.837 860.868 647.838 860.129 647.864Z"/>
	<path fill="#2B292B" d="M773.129 251.822C762.124 252.929 750.813 251.604 741.048 246.132C730.895 240.442 721.954 230.398 718.866 219.031C716.376 209.867 717.993 200.546 722.78 192.43C730.546 179.261 746.913 168.282 761.587 164.599C774.542 163.601 786.288 166.43 797.023 173.875C806.666 180.562 815.187 190.646 817.161 202.509C818.717 211.863 814.852 221.095 809.493 228.588C801.054 240.388 787.552 249.473 773.129 251.822ZM765.01 170.191C752.337 171.372 738.947 179.53 730.883 189.216C725.76 195.37 722.549 203.094 723.388 211.214C724.464 221.626 731.053 230.991 739.108 237.344Q742.132 239.731 745.384 241.797C747.662 233.44 749.294 219.328 756.487 214.052C761.931 213.878 766.717 214.612 772.019 215.783C773.802 216.53 774.783 216.948 775.555 218.857C778.467 226.052 777.51 238.311 778.008 246.209C791.052 239.622 804.493 232.093 809.491 217.284C811.857 210.274 810.868 203.457 807.538 196.969C801.505 185.216 788.947 175.547 776.421 171.696C772.788 170.579 768.814 169.972 765.01 170.191Z"/>
	<path fill="#2B292B" d="M493.561 176.37C492.269 176.422 490.569 176.402 489.395 175.784C488.173 175.141 488.01 174.731 487.52 173.537C487.693 172.61 487.837 171.994 488.485 171.256C490.095 169.421 492.551 169.452 494.798 169.23C495.477 169.261 496.159 169.289 496.835 169.356C498.492 169.52 499.318 169.879 500.371 171.16L500.236 172.422C498.435 175.115 496.511 175.549 493.561 176.37Z"/>
	<path fill="#2B292B" d="M530.122 176.922C529.064 176.944 528.003 176.984 526.96 176.774C525.755 176.532 525.614 176.639 524.884 175.591C524.983 175.087 524.966 174.976 525.285 174.478C526.874 171.989 530.847 170.897 533.498 170.098C534.935 170.038 536.396 169.892 537.719 170.55C538.5 170.939 538.408 171.16 538.696 171.899C538.529 172.526 538.544 172.634 538.127 173.259C536.311 175.979 533.077 176.515 530.122 176.922Z"/>
	<path fill="#2B292B" d="M521.489 190.662C520.765 190.433 519.992 190.198 519.331 189.819C517.598 188.827 516.165 186.24 515.74 184.347C515.008 181.085 515.614 178.551 517.258 175.728C520.228 178.126 522.089 181.73 522.697 185.489C523.06 187.731 522.853 188.84 521.489 190.662Z"/>
	<path fill="#2B292B" d="M107.875 301.709C106.43 301.713 104.781 301.822 103.505 301.031C101.513 299.798 100.434 297.115 99.8089 294.967C97.0992 285.651 97.1467 271.939 95.7299 261.941C94.4442 252.868 84.4515 204.528 87.2995 199.986C88.2989 198.392 89.9594 197.333 91.7202 196.757C99.0759 194.35 107.537 193.831 115.171 192.448C135.15 188.829 155.26 185.658 175.16 181.659C176.619 181.463 178.212 181.344 179.53 182.143C181.745 183.487 182.68 186.568 183.163 188.942C184.066 193.393 184.015 198.135 184.631 202.65C186.009 212.765 187.665 222.856 189.094 232.967C190.38 242.06 191.546 251.208 193.123 260.255C194.128 266.018 195.535 271.749 196.276 277.552C196.504 279.331 197.023 282.055 196.001 283.582C186.293 290.87 121.639 301.295 107.875 301.709ZM175.583 189.197C163.66 191.013 151.828 193.706 139.951 195.836C124.57 198.594 109.014 200.883 93.7918 204.418C95.9322 218.523 98.5198 232.659 100.21 246.818C101.785 260.018 101.605 274.85 105.609 287.51C107.533 277.33 108.981 268.881 116.115 260.923C118.933 257.781 122.287 254.904 124.602 251.358C124.018 245.338 123.026 240.287 120.928 234.613C119.028 228.997 120.118 223.385 122.693 218.174C125.626 212.237 130.518 206.856 136.974 204.82C140.306 203.769 143.85 203.86 146.934 205.603C151.806 208.357 154.37 214.144 155.654 219.367C157.84 228.253 156.828 237.812 158.103 246.874C167.131 247.743 175.113 252.392 180.819 259.376C184.09 263.379 186.513 267.898 188.827 272.496Q186.176 255.625 183.863 238.704C182.757 230.459 179.039 194.375 176.462 189.346L175.583 189.197ZM146.369 214.417C140.704 223.167 136.2 229.605 127.21 235.248Q129.437 243.425 130.671 251.81Q134.196 256.117 137.77 260.382C140.234 262.275 142.732 263.556 145.594 264.747C151.834 252.08 154.596 234.85 150.033 221.198C149.22 218.765 148.035 216.381 146.369 214.417ZM167.724 262.723C169.229 268.467 169.602 274.195 170.037 280.091C172.48 279.155 174.915 278.185 177.397 277.356C178.117 276.638 178.31 276.769 178.296 275.67C178.254 272.278 175.082 268.308 172.65 266.116C171.142 264.757 169.523 263.653 167.724 262.723ZM122.707 271.347C119.999 275.226 116.975 280.313 117.858 285.257C118.068 286.431 118.537 287.061 119.359 287.88C120.276 288.211 120.845 288.394 121.821 288.288L127.106 286.852C126.33 283.698 124.616 273.351 122.707 271.347Z"/>
	<path fill="#2B292B" d="M766.913 208.448C763.413 207.833 759.669 207.251 757.473 204.145C756.28 202.458 756.03 200.505 756.383 198.502C757.568 191.788 764.241 185.51 769.717 181.901C771.27 181.811 772.353 181.894 773.634 182.871C777.667 185.946 780.223 192.469 780.591 197.384C780.798 200.142 780.217 202.974 778.305 205.06C775.314 208.326 771.014 208.382 766.913 208.448Z"/>
	<path fill="#2B292B" d="M532.396 195.654C532.081 196.786 531.745 197.91 531.261 198.984C529.479 202.941 526.395 205.983 522.237 207.352C517.884 208.786 512.906 208.22 508.873 206.101C505.255 204.199 502.027 200.815 500.968 196.789C500.067 193.367 500.545 190.383 502.346 187.413C503.325 187.683 504.749 187.832 505.468 188.564C507.343 190.476 506.607 194.211 506.486 196.673C507.213 197.84 507.946 199.027 508.912 200.015C511.029 202.18 514.424 203.534 517.442 203.547C528.442 203.594 523.848 192.713 527.54 189.755C528.125 189.286 528.424 189.566 529.092 189.709C531.239 191.426 531.973 192.972 532.396 195.654Z"/>
	<path fill="#2B292B" d="M210.586 215.008C209.049 215.088 207.201 214.847 205.744 214.325C204.682 213.943 204.337 213.409 203.944 212.418L204.439 211.628C208.692 209.062 215.858 209.503 220.784 208.642C231.607 206.75 242.343 204.304 253.158 202.353C267.091 199.839 282.3 197.779 296.369 196.239C297.342 196.223 298.382 196.163 299.347 196.291C300.618 196.459 301.171 196.849 301.94 197.819L301.695 199.044C300.06 200.886 297.918 201.872 295.559 202.489C285.356 205.158 271.44 205.76 260.683 207.266C243.941 209.61 227.382 212.905 210.586 215.008Z"/>
	<path fill="#2B292B" d="M931.791 220.807C923.8 221.733 890.514 217.139 880.94 215.75C872.403 214.511 863.994 212.394 855.513 210.826C850.27 209.857 844.467 209.599 839.43 207.886C838.252 207.485 837.605 207.035 836.85 206.016C836.47 204.495 837.157 203.433 837.783 202.091C853.493 201.271 870.521 207.805 886.196 209.992Q897.569 211.497 909 212.467C914.421 212.92 919.999 213.097 925.349 214.118C927.839 214.594 931.131 215.034 932.637 217.267C932.871 218.882 932.526 219.43 931.791 220.807Z"/>
	<path fill="#2B292B" d="M210.218 235.185C208.608 235.293 206.602 235.333 205.317 234.226C204.383 233.421 203.978 232.365 203.932 231.164C205.181 229.598 207.68 229.098 209.614 228.649C217.957 226.709 226.872 226.038 235.352 224.647L296.376 214.671C298.159 214.367 300.248 213.978 301.896 214.887L302.001 215.772C295.413 224.443 224.727 232.825 210.218 235.185Z"/>
	<path fill="#2B292B" d="M928.612 246.536C920.306 246.586 838.659 236.439 834.767 234.505C833.523 233.887 833.444 233.458 833.01 232.251C833.2 230.594 833.756 229.525 834.561 228.078C848.287 227.953 862.381 231.733 875.979 233.561L912.236 238.329C916.993 238.957 923.66 239.05 928.03 240.761C929.282 241.251 929.399 241.624 929.969 242.744C929.883 244.371 929.479 245.171 928.612 246.536Z"/>
	<path fill="#2B292B" d="M210.508 261.848C209.988 261.879 209.514 261.93 208.989 261.852C207.56 261.641 206.898 260.876 206.001 259.874C205.69 258.793 205.439 258.261 206.079 257.199C207.163 255.403 210.176 254.646 212.04 254.153C223.572 251.106 238.233 249.598 250.33 247.456C268.069 244.316 286.157 240 304.067 238.223C304.743 238.149 305.392 238.128 306.054 238.349C307.268 238.753 308.707 240.118 309.075 241.364C309.268 242.015 308.824 242.57 308.567 243.152C306.476 244.894 304.011 245.599 301.399 246.204C292.528 248.26 283.114 248.979 274.101 250.332C264.342 251.796 254.676 253.757 244.947 255.398C233.405 257.345 221.877 259.009 210.508 261.848Z"/>
	<path fill="#2B292B" d="M750.126 376.389Q749.2 376.475 748.272 376.522Q747.344 376.568 746.414 376.575Q745.485 376.581 744.556 376.548Q743.627 376.515 742.7 376.442Q741.773 376.369 740.851 376.257Q739.928 376.144 739.011 375.992Q738.094 375.84 737.184 375.649Q736.275 375.458 735.374 375.228Q734.473 374.998 733.583 374.73Q732.693 374.462 731.816 374.156Q730.938 373.849 730.074 373.506Q729.21 373.163 728.362 372.783Q727.514 372.402 726.683 371.986Q725.851 371.57 725.039 371.119Q724.226 370.668 723.434 370.182Q722.641 369.696 721.87 369.177C712.376 362.89 703.5 352.966 701.275 341.501C699.492 332.311 702.283 323.541 707.49 315.983Q708.422 314.649 709.418 313.362Q710.415 312.075 711.473 310.839Q712.531 309.602 713.648 308.419Q714.766 307.236 715.94 306.108Q717.114 304.981 718.341 303.913Q719.569 302.845 720.848 301.838Q722.126 300.831 723.453 299.888Q724.779 298.945 726.15 298.068Q727.521 297.191 728.933 296.382Q730.346 295.574 731.796 294.835Q733.246 294.096 734.731 293.43Q736.215 292.763 737.731 292.17Q739.246 291.576 740.789 291.058Q742.332 290.54 743.898 290.098Q745.464 289.656 747.05 289.291Q748.636 288.926 750.238 288.639C759.443 287.208 768.815 291.526 776.05 296.845C784.817 303.291 797.12 313.618 798.665 325.17C800.101 335.898 794.109 346.904 787.617 354.967C777.975 366.941 765.515 374.755 750.126 376.389ZM748.541 294.586C734.235 297.615 720.526 304.964 712.378 317.484C708.228 323.86 705.499 331.688 707.138 339.322C709.563 350.619 718.535 359.113 727.853 365.155C728.842 358.448 729.703 351.689 732.755 345.535C739.378 341.768 746.932 340.366 754.378 342.34C756.784 343.139 758.515 344.026 759.709 346.37C762.84 352.513 761.371 361.378 763.086 368.175C773.669 364.447 785.046 352.503 789.801 342.473C792.43 336.929 793.705 330.601 791.596 324.666C787.702 313.701 773.666 301.966 763.327 297.301C758.657 295.194 753.678 294.081 748.541 294.586Z"/>
	<path fill="#2B292B" d="M104.959 314.615C114.903 310.769 137.331 308.757 148.709 307.009C164.266 304.618 179.752 301.568 195.221 298.661C196.44 298.468 197.9 298.401 199.026 299.005C200.365 299.725 200.974 301.05 201.433 302.417C203.664 309.052 203.903 316.808 204.824 323.77C206.128 333.636 207.916 343.422 208.949 353.325C209.961 363.036 210.25 372.812 211.375 382.511C212.209 389.703 213.7 396.84 215.044 403.95C202.796 411.52 168.239 414.802 152.989 416.893C143.251 418.228 133.557 419.852 123.79 420.974C122.684 420.712 121.561 420.421 120.672 419.663C119.021 418.255 118.408 415.558 118.484 413.48C118.649 408.979 120.158 404.588 119.852 400.032C119.432 393.796 117.376 387.026 116.126 380.85Q111.952 360.725 108.445 340.473C106.947 331.932 105.043 323.311 104.959 314.615ZM193.84 306.085Q172.456 310.447 150.917 313.962C137.862 315.981 124.717 317.389 111.733 319.862C116.338 345.047 119.793 370.396 124.599 395.558C127.351 384.587 131.49 374.923 141.533 368.773C142.936 367.914 144.435 367.218 145.927 366.529C144.776 361.066 143.533 355.475 143.385 349.879C143.37 349.73 143.359 349.581 143.342 349.433C143.077 347.107 142.217 346.008 140.797 344.202C140.005 343.194 138.689 341.852 138.706 340.486C138.738 337.703 145.989 328.064 147.997 325.494C150.621 322.137 154.468 319.369 158.803 318.924C162.555 318.539 166.065 319.994 168.839 322.472C174.893 327.88 176.987 336.007 177.266 343.825C177.495 350.207 176.568 356.539 176.479 362.901C189.101 366.217 195.591 369.76 204.504 379.501C203.36 361.392 201.506 343.66 199.156 325.665C198.349 319.487 198.027 312.277 196.15 306.339C195.022 305.732 195.035 305.912 193.84 306.085ZM168.791 334.35C162.264 339.25 155.315 343.091 147.882 346.436C149.113 356.744 150.327 366.997 156.79 375.539C158.808 377.553 160.818 379.404 163.065 381.162C165.316 377.079 167.619 373.024 169.17 368.609C172.09 360.295 172.954 346.273 170.692 337.692C170.299 336.199 170.121 335.135 168.791 334.35ZM188.218 380.167C189.252 386.062 189.974 391.789 190.125 397.778L196.293 395.52C197.331 394.068 197.788 393.255 197.495 391.444C196.917 387.874 193.934 383.618 190.915 381.64C190.06 381.08 189.133 380.619 188.218 380.167ZM133.852 391.832C132.319 397.084 131.723 401.843 132.052 407.321C134.144 407.135 136.352 407.078 138.403 406.632L139.158 405.713C138.671 401.744 136.549 394.744 133.852 391.832Z"/>
	<path fill="#2B292B" d="M865.266 386.609C853.408 386.712 843.629 384.746 833.706 378.033C824.617 371.884 815.987 363.209 814.015 351.982C812.337 342.432 816.024 334.216 821.488 326.668C831.706 312.552 845.079 303.454 862.34 300.675C875.601 299.27 886.57 306.288 896.436 314.293C903.939 320.38 911.863 328.485 912.656 338.654C913.517 349.7 906.393 361.316 899.361 369.25C890.025 379.783 879.399 385.761 865.266 386.609ZM859.7 306.125C845.761 308.297 833.93 316.801 825.754 328.116C821.498 334.007 817.576 341.656 818.914 349.123C821.128 361.477 832.549 370.121 842.273 376.654C843.589 369.913 846.005 355.714 852.246 351.718C856.496 348.998 863.523 349.824 868.209 351.035C868.626 351.143 869.041 351.263 869.451 351.395C872.326 353.904 872.701 356.278 872.938 359.969C873.386 366.96 873.188 374.023 873.467 381.03C886.222 375.895 898.962 367.063 904.457 353.916C907.059 347.692 907.18 341.488 904.488 335.281C899.406 323.566 885.392 312.434 873.676 307.972C869.347 306.323 864.306 305.325 859.7 306.125Z"/>
	<path fill="#2B292B" d="M750.92 335.002C749.534 334.879 748.081 334.799 746.716 334.526C744.441 334.073 742.558 332.781 741.367 330.779C739.7 327.979 739.941 324.388 740.697 321.343C742.236 315.14 745.541 310.037 751.013 306.66C752.685 307.186 754.107 307.86 755.518 308.919C759.364 311.806 761.719 316.422 762.34 321.14C762.791 324.565 762.295 328.096 760.095 330.859C757.57 334.032 754.684 334.463 750.92 335.002Z"/>
	<path fill="#2B292B" d="M226.624 332.505L225.893 332.561C223.691 332.714 220.737 333.301 219.014 331.584C218.444 331.016 218.652 330.736 218.677 329.998C219.763 328.57 221.132 328.099 222.814 327.633C231.949 325.1 242.251 324.316 251.634 322.818L309.291 313.691C310.03 313.505 310.941 313.49 311.701 313.464C313.362 313.408 314.388 313.737 315.585 314.868L315.3 315.85C307.397 322.122 240.007 331.196 226.624 332.505Z"/>
	<path fill="#2B292B" d="M863.443 345.621C863.273 345.602 863.102 345.584 862.932 345.563C859.231 345.097 854.621 343.78 852.327 340.621C850.734 338.426 850.549 335.605 851.115 333.024C852.592 326.284 858.409 321.629 863.799 317.964C865.224 317.854 866.587 317.812 867.893 318.502C873.31 321.361 875.343 329.369 876.781 334.824C876.184 337.177 875.579 339.373 874.028 341.297C871.361 344.604 867.375 345.112 863.443 345.621Z"/>
	<path fill="#2B292B" d="M225.639 351.098C224.88 351.095 224.115 351.093 223.357 351.032C221.742 350.901 220.184 350.338 219.144 349.054L219.637 348.089C225.467 344.689 266.028 339.74 275.142 338.12Q292.88 334.981 310.351 330.592C311.864 330.476 312.829 330.496 314.289 330.9C315.346 331.773 315.681 332.232 316.091 333.542C315.875 334.387 315.886 334.722 315.281 335.399C309.486 341.882 237.991 350.269 225.639 351.098Z"/>
	<path fill="#2B292B" d="M231.4 377.591C230.26 377.599 228.914 377.69 227.829 377.3C226.625 376.865 225.365 375.762 224.781 374.635C224.394 373.89 224.627 373.691 224.825 372.942C226.697 371.229 229.095 370.73 231.533 370.269C240.276 368.615 249.354 368.257 258.18 366.726C278.721 363.16 299.131 358.589 319.668 355.158C320.377 355.093 320.471 355.068 321.251 355.079C322.447 355.096 323.826 355.403 324.581 356.413C325.394 357.5 325.261 358.016 325.037 359.232C323.491 361.108 321.561 361.84 319.276 362.539C310.198 365.314 300.1 366.19 290.749 367.853C271 371.364 251.32 375.162 231.4 377.591Z"/>
	<path fill="#2B292B" d="M581.195 528.74Q580.898 527.235 580.745 525.709C579.895 517.363 581.278 507.423 586.823 500.812C591.344 495.424 597.092 493.894 603.774 493.199C604.265 493.158 604.758 493.129 605.251 493.122C614.88 492.988 625.228 496.736 631.978 503.729C638.523 510.508 638.952 517.865 638.912 526.74C640.433 527.207 641.916 527.698 643.255 528.582C645.553 530.098 647.139 532.792 647.638 535.474C648.332 539.204 647.378 543.298 645.217 546.399C642.62 550.124 640.115 550.881 635.891 551.655C634.21 555.852 632.589 559.384 629.762 562.954C630.72 569.692 631.1 576.504 632.181 583.219C637.84 583.878 643.691 583.369 649.292 584.529C653.138 585.325 655.621 586.881 657.684 590.244C660.308 594.52 661.929 599.568 663.098 604.417C666.482 618.458 667.287 633.073 669.903 647.268C673.752 668.159 693.217 746.931 688.995 762.892C688.038 766.512 685.53 769.783 682.197 771.513C676.036 774.711 669.177 772.923 662.954 771.003C663.42 826.258 665.761 881.539 666.844 936.785C675.861 937.766 697.95 943.178 705.05 948.341C706.668 949.518 707.605 950.665 707.89 952.681C707.537 954.29 706.885 955.191 705.5 956.041C697.585 960.894 667.906 955.12 657.719 954.361C652.478 953.971 646.357 954.827 641.299 953.638C638.928 953.081 637.246 951.76 636.396 949.451C634.855 945.269 635.398 938.562 634.895 933.986C633.919 925.109 627.217 859.778 625.331 856.57L625.682 858.163L624.957 857.667C624.678 871.312 629.129 946.059 626.585 952.357C625.696 954.558 623.256 955.715 621.18 956.589C612.29 960.333 573.797 967.064 565.113 962.712C563.848 962.078 563.601 961.542 563.153 960.253C563.279 959.502 563.433 958.856 563.842 958.199C568.475 950.757 586.266 943.775 594.804 941.696C591.791 929.373 591.61 916.048 590.639 903.416Q588.603 877.183 586.276 850.975Q578.374 765.156 568.864 679.5C561.456 688.643 553.838 697.607 546.364 706.694C540.06 714.36 534.112 722.073 527.16 729.185C529.51 734.628 532.436 740.513 532.34 746.573C532.287 749.921 531.183 753.736 528.616 756.033C525.915 758.45 521.956 758.748 518.509 758.382C509.975 757.478 505.515 752.526 499.639 747.023C496.257 743.857 492.201 741.469 489.112 737.983C484.43 732.702 480.84 726.175 477.037 720.232C470.597 710.168 464.045 699.921 456.539 690.612C458.989 702.506 459.27 714.806 461.802 726.716C464.231 738.144 468.503 749.115 471.291 760.453Q476.118 780.688 479.497 801.215Q482.877 821.742 484.792 842.457C485.356 848.173 487.22 860.601 486.25 866.003C485.967 867.583 484.883 867.894 483.65 868.718C476.781 870.348 470.016 870.706 462.996 871.075C462.855 891.171 462.899 911.077 463.533 931.169C463.78 939.003 463.404 947.271 464.631 955.002C469.944 954.915 475.381 955.504 480.636 956.244C485.365 956.91 494.927 958.321 497.609 962.738C498.291 963.863 498.258 964.902 497.844 966.109C497.165 968.083 494.888 969.683 493.125 970.593C485.438 974.559 445.859 974.474 437.685 971.687C436.171 971.171 434.828 970.483 434.216 968.912C432.177 963.673 433.071 953.167 432.833 947.235C432.295 933.855 431.017 920.487 430.52 907.135C430.177 897.956 430.665 888.659 430.076 879.516C429.962 877.74 429.802 875.614 428.909 874.039C428.368 873.085 428.181 873.082 427.186 872.844L426.417 873.405C425.663 874.983 425.434 876.445 425.334 878.19C424.911 885.535 425.629 893.312 425.775 900.694C426.035 913.784 426.044 926.855 426.571 939.944C426.847 946.804 428.213 957.775 427.172 964.153C426.867 966.02 426.026 967.224 424.508 968.323C417.284 973.555 384.578 981.171 374.91 982.137Q371.678 982.477 368.43 982.362Q365.182 982.248 361.982 981.682C359.957 981.311 357.084 980.625 356.045 978.613C355.357 977.281 355.723 975.614 356.351 974.333C359.804 967.29 386.442 959.692 394.278 956.896C392.617 947.28 392.5 937.234 391.634 927.516Q389.096 901.279 386.858 875.015C381.11 875 372.577 876.131 367.829 872.386C365.114 866.175 367.629 808.66 367.856 798.047Q368.057 783.686 368.037 769.324Q367.547 769.571 367.054 769.812C363.094 771.758 359.512 772.953 355.146 771.3C350.818 769.66 347.938 765.659 346.195 761.538C344.253 756.944 343.518 752.039 343.166 747.095C341.601 725.11 344.353 702.492 346.516 680.624C348.429 661.293 350.236 641.841 352.932 622.602C354.096 614.298 356.579 605.941 357.278 597.635C357.865 590.651 354.914 584.037 356.29 575.608C357.859 566.001 363.149 557.475 364.552 547.831C366.268 536.039 363.243 523.735 368.031 512.413C371.204 504.911 378.019 499.216 385.477 496.236C393.318 493.103 403.418 492.734 411.191 496.29C422.124 501.291 426.371 514.353 430.426 524.647L430.95 524.855L431.819 525.212C433.594 525.923 435.176 526.57 436.67 527.801C439.376 530.032 441.225 533.09 441.42 536.639C441.679 541.341 439.323 544.486 436.439 547.841C439.531 556.267 451.293 578.073 449.884 585.511C446.524 590.052 440.8 590.625 435.642 591.782Q458.096 621.072 480.925 650.072C491.822 664.114 502.294 678.498 513.584 692.228C522.096 681.017 529.665 669.116 537.696 657.562C546.01 645.602 554.748 633.931 563.045 621.953C571.984 609.049 579.951 595.38 591.003 584.12C588.846 573.667 589.091 562.465 587.962 551.843C585.344 552.667 582.93 553.229 580.213 552.495C576.944 551.612 574.098 549.456 572.537 546.431C571.14 543.722 570.704 540.419 571.662 537.495C573.194 532.821 577.165 530.874 581.195 528.74ZM430.301 530.272C429.25 533.766 430.36 536.791 432.045 539.911C432.81 541.327 433.531 542.37 434.817 543.333L435.801 543.313C436.889 540.417 438.264 536.5 436.677 533.5C435.874 531.982 434.498 530.701 432.755 530.393C431.958 530.252 431.109 530.268 430.301 530.272ZM638.49 531.843C637.141 534.941 634.023 541.429 635.857 544.66C636.425 545.66 637.103 545.938 638.186 546.077C638.537 546.122 639.024 546.101 639.387 546.093C641.219 543.446 643 540.406 642.488 537.052C642.185 535.065 641.127 533.635 639.532 532.469C639.086 532.143 638.93 532.076 638.49 531.843ZM580.711 533.708C578.297 535.704 577.184 537.309 576.811 540.476C576.542 542.751 577.009 544.959 578.538 546.719C579.679 548.032 580.869 548.309 582.482 548.602C583.995 547.614 585.543 546.657 587.011 545.603C586.05 541.552 585.555 537.409 582.634 534.262C581.978 534.03 581.401 533.812 580.711 533.708ZM593.287 558.166C594.569 566.925 595.293 575.755 596.567 584.496C606.816 584.955 616.95 585.481 627.17 584.262C626.655 577.506 626.463 570.469 625.209 563.818C612.754 566.097 604.168 564.641 593.287 558.166ZM428.842 592.674C408.033 596.111 382.622 599.852 361.675 599.871C360.954 604.817 358.573 615.03 360.204 619.32C361.052 619.916 361.771 620.236 362.736 620.575C363.74 620.927 364.215 621.137 364.856 622.039C365.087 623.293 365.183 624.469 364.515 625.636C363.919 626.677 362.918 627.055 361.774 627.065C360.837 627.074 359.85 626.893 358.922 626.766L358.239 627.173C356.16 639.285 355.906 651.794 354.749 664.029C352.854 684.071 350.372 704.188 349.218 724.282C349.054 727.139 348.183 732.542 349.426 735.012C355.148 736.729 364.532 735.542 370.494 734.852Q370.95 702.251 368.643 669.728C368.194 663.305 368.266 656.256 367.045 649.979C366.762 648.525 366.088 647.45 365.379 646.178C364.864 645.253 364.76 644.57 364.651 643.534C365.067 642.266 365.209 641.588 366.47 640.884C367.675 640.21 368.304 640.452 369.534 640.765C374.461 644.948 374.934 657.406 375.43 663.608C375.903 669.514 376.006 675.457 376.543 681.351C378.041 682.4 379.064 683.172 380.026 684.743C380.129 686.294 380.168 686.375 379.084 687.581C378.98 687.697 378.26 688.35 378.158 688.448C377.124 689.43 376.862 689.93 376.834 691.391C376.604 703.64 377.921 715.931 378.017 728.193C387.346 727.459 396.607 726.048 405.937 725.255C422.273 723.866 438.812 723.169 455.194 722.413L453.667 709.991C449.544 670.838 443.96 677.68 424.948 647.226C423.566 645.013 420.984 641.372 422.696 638.94C424.08 638.594 424.428 638.399 425.747 639.169C429.201 641.185 433.055 647.388 435.514 650.576C439.129 655.261 471.692 700.271 471.886 700.336C471.904 700.175 471.919 700.014 471.939 699.853C472.099 698.546 472.232 697.35 473.281 696.407Q473.439 696.263 473.613 696.139Q473.788 696.015 473.975 695.912Q474.163 695.809 474.361 695.729Q474.56 695.649 474.766 695.593Q474.973 695.538 475.184 695.507Q475.396 695.476 475.61 695.47Q475.824 695.464 476.037 695.484Q476.25 695.503 476.459 695.548C477.745 695.814 478.998 696.709 479.646 697.867C480.197 698.852 480.509 699.957 480.114 701.066Q480.037 701.285 479.936 701.494Q479.834 701.702 479.71 701.898Q479.586 702.094 479.441 702.275Q479.296 702.456 479.131 702.62Q478.967 702.783 478.785 702.927Q478.603 703.071 478.406 703.194Q478.209 703.317 478 703.417Q477.79 703.516 477.571 703.592C476.144 704.08 475.14 703.677 473.841 703.155C474.603 707.011 492.106 732.806 495.518 736.466C505.49 733.475 516.722 728.623 522.521 719.438C518.419 712.169 513.41 705.339 508.683 698.465Q496.773 680.975 483.657 664.37C468.149 644.802 451.704 625.829 437.255 605.437C434.413 601.426 432.392 596.884 429.755 592.743L428.842 592.674ZM516.745 698.272C519.374 702.609 526.401 715.401 530.318 717.214C531.138 716.545 530.923 716.894 531.191 716.344C531.902 714.841 532.758 713.682 532.645 712.006C529.56 707.729 521.56 700.004 516.745 698.272ZM522.764 731.086C516.324 735.25 509.856 739.35 502.657 742.107C505.344 745.251 508.105 748.354 511.645 750.561C514.2 751.827 516.553 752.56 519.306 753.233C523.828 752.168 525.901 751.092 528.684 747.263C526.903 741.773 525.023 736.405 522.764 731.086ZM363.717 741.218C358.619 741.499 353.563 741.55 348.461 741.527C348.557 748.223 349.114 758.754 354.076 763.801C354.7 764.436 355.362 764.99 356.086 765.503C358.131 766.568 359.534 767.306 361.888 766.656C364.247 766.004 366.729 764.065 368.717 762.683Q369.063 751.94 368.913 741.192L363.717 741.218ZM683.122 744.204L661.71 745.594C661.927 750.145 662.053 754.72 662.427 759.26C664.821 760.713 666.823 761.849 667.984 764.498C668.692 766.187 668.856 767.043 670.329 768.177C674.112 768.579 678.049 768.844 681.17 766.27C683.972 763.96 684.992 760.096 685.224 756.622C685.416 753.749 685.27 746.807 683.57 744.335L683.122 744.204ZM650.592 745.693L582.719 750.072C583.986 761.08 584.688 772.171 585.785 783.202Q590.792 832.915 595.258 882.68L598.648 919.565C599.243 926.02 599.552 932.662 600.556 939.06C607.288 938.893 614.032 938.47 620.762 938.41C621.155 918.331 619.836 898.258 619.543 878.18L619.164 849.149C619.1 844.159 619.384 838.814 618.769 833.876C618.475 827.89 616.24 806.844 620.463 803.208C621.355 802.44 622.32 802.436 623.428 802.646C625.187 802.978 626.897 805.106 627.626 806.616C629.802 811.125 631.733 852.169 632.689 861.904C634.148 876.763 636.149 891.584 637.874 906.415C638.946 915.627 639.586 925.006 640.979 934.162C647.702 935.492 653.754 936.304 660.644 936.081C659.87 924.086 660.26 912.075 659.856 900.068C658.126 848.525 658.247 797.031 657.35 745.483C655.107 745.551 652.829 745.536 650.592 745.693ZM450.311 871.72Q443.147 872.113 435.989 872.595C437.669 883.599 436.952 895.259 437.279 906.392C437.738 922.022 438.739 937.535 439.655 953.137L446.55 953.91L457.489 954.213C456.819 926.654 456.774 899.094 456.312 871.542L450.311 871.72ZM413.818 873.715C407.079 874.216 400.268 874.441 393.55 875.113C393.974 883.699 399.084 952.563 401.045 954.623C407.569 954.316 414.098 953.913 420.63 954.017C419.788 927.201 418.272 900.28 418.076 873.466C416.723 873.541 415.141 873.481 413.818 873.715Z"/>
	<path fill="#2B292B" d="M119.648 553.522C117.381 553.633 116.686 553.617 114.996 552.104C114.824 551.324 114.534 550.944 114.969 550.2C117.56 545.768 145.852 538.632 152.208 537.065C152.801 537.046 153.125 537.014 153.745 537.101C155.137 537.295 155.741 537.804 156.579 538.854C156.561 539.606 156.705 540.092 156.229 540.728C152.681 545.465 126.232 551.914 119.648 553.522Z"/>
	<path fill="#2B292B" d="M122.794 570.439C121.188 570.829 119.359 571.186 117.708 571.136C116.277 571.093 115.902 570.565 115.06 569.51C114.796 568.201 114.658 567.25 115.239 565.99C115.702 564.985 116.604 564.673 117.574 564.317C123.138 562.277 129.214 561.199 134.931 559.584C140.827 557.918 146.59 555.808 152.482 554.115C155.528 553.878 157.948 553.791 160.455 555.675C160.599 556.248 160.856 556.575 160.516 557.12C158.147 560.912 129.273 568.648 122.794 570.439Z"/>
	<path fill="#2B292B" d="M175.113 574.394C174.151 574.549 172.981 574.758 172.01 574.59C170.656 574.356 169.937 573.767 169.095 572.754L169.333 571.635C173.556 566.794 194.936 561.443 201.607 559.591C203.299 559.474 204.353 559.409 205.899 560.157C206.847 561.313 207.064 561.392 207.122 562.86C206.167 564.457 204.859 565.236 203.185 565.967C198.378 568.069 192.7 569.072 187.633 570.461C183.425 571.614 179.296 573.131 175.113 574.394Z"/>
	<path fill="#2B292B" d="M185.072 647.908C183.199 648.052 181.959 648.031 180.455 646.688C179.002 645.392 178.307 642.907 177.701 641.112C173.628 629.048 171.141 616.335 167.978 604.007C165.419 594.035 159.348 577.51 159.402 567.703C160.545 567.965 161.44 568.281 162.346 569.031C163.809 570.241 164.373 572.222 164.943 573.965C168.901 586.056 171.488 598.789 174.941 611.064C177.694 620.849 184.215 638.672 185.072 647.908Z"/>
	<path fill="#2B292B" d="M793.612 594.312C792.614 594.007 792.148 593.713 791.31 593.127C790.898 591.841 790.878 591.678 791.217 590.373C793.428 588.588 796.793 589.188 799.47 589.376C811.83 590.242 824.224 577.387 833.243 570.352C833.799 570.432 834.127 570.443 834.669 570.699C835.251 570.973 836.351 572.02 836.345 572.659C836.317 575.355 831.907 579.18 829.972 580.906C824.013 586.223 814.598 592.324 806.724 594.003C802.445 594.916 797.938 594.555 793.612 594.312Z"/>
	<path fill="#2B292B" d="M181.614 588.532C180.558 588.833 179.133 589.207 178.045 589.227C177.244 589.242 176.828 588.847 176.28 588.321C175.617 587.684 175.807 587.589 175.793 586.742C178.669 582.48 185.728 581.033 190.245 579.164C194.209 577.525 198.365 576.356 202.46 575.086C204.944 575.051 205.998 575.609 207.834 577.238C208.173 578.286 208.187 578.273 207.778 579.293C203.885 582.879 187.217 586.758 181.614 588.532Z"/>
	<path fill="#2B292B" d="M131.47 633.6C130.574 629.946 129.941 626.215 129.038 622.547C126.823 613.542 122.516 601.464 127.436 592.723C129.697 588.706 133.385 586.405 137.703 585.092C139.478 585.009 141.268 585.037 143.026 585.322C148.948 586.282 153.793 590.417 157.137 595.204C161.095 600.868 168.489 617.919 166.829 624.518C165.954 627.998 160.562 630.083 157.739 632.043C159.304 632.567 160.877 633.094 162.408 633.71C166.96 635.543 173.254 640.049 175.057 644.702C175.631 646.184 175.536 647.434 174.824 648.845C172.498 653.449 161.745 655.161 157.088 656.394C151.581 658.211 145.776 660.553 140.042 661.473C137.931 661.811 135.378 661.82 133.67 660.327C132.029 658.892 131.768 656.446 131.816 654.408C131.986 647.009 135.983 641.74 141.068 636.842C137.808 635.881 134.598 634.94 131.47 633.6ZM138.491 600.465C136.903 601.488 135.554 602.356 134.343 603.819L134.153 604.875C134.958 605.837 135.761 606.495 136.748 607.252C136.968 607.916 137.297 608.299 136.953 608.984C136.32 610.242 134.832 610.979 133.697 611.745L133.067 612.175L132.686 612.427C134.431 616.109 138.302 621.418 142.235 622.984C143.343 623.426 145.251 622.955 146.398 622.724C147.187 621.919 147.373 621.975 147.55 620.809C147.69 619.89 147.906 619.02 148.161 618.126C149.087 617.461 149.996 616.826 150.812 616.024L150.58 615.087L150.441 614.495C150.319 614 150.136 613.523 149.981 613.037C149.587 611.805 150.131 610.496 150.407 609.291C150.643 608.262 150.603 608.684 150.375 607.57C147.733 606.537 144.945 608.011 142.433 606.738L142.145 605.92C143.235 604.877 145.14 603.909 145.242 602.452C143.434 600.584 140.937 600.585 138.491 600.465ZM152.571 632.614C149.107 633.413 145.726 634.107 142.524 635.705C144.076 637.088 145.652 638.446 147.102 639.938C148.111 641.002 149.193 642.049 150.103 643.197C151.156 640.511 153.765 635.671 152.984 632.812L152.571 632.614Z"/>
	<path fill="#2B292B" d="M183.21 603.811C181.926 603.494 181.251 602.897 180.234 602.095C180.024 601.424 179.692 601.009 180.02 600.328C181.982 596.263 205.276 589.797 210.758 588.002C212.168 588.207 212.625 588.8 213.452 589.836C213.533 590.6 213.758 591.116 213.347 591.814C210.464 596.711 189.142 602.011 183.21 603.811Z"/>
	<path fill="#2B292B" d="M373.404 608.961C372.085 609.01 370.787 608.843 369.653 608.105C368.571 607.4 367.845 606.307 367.717 605.009C367.558 603.386 368.433 602.259 369.283 600.984C370.947 601.1 372.98 601.123 374.311 602.276C375.215 603.059 375.643 603.969 375.575 605.173C375.487 606.711 374.365 607.876 373.404 608.961Z"/>
	<path fill="#2B292B" d="M417.318 613.275C415.767 612.692 414.435 612.255 413.568 610.726C412.92 609.585 412.667 608.439 413.156 607.169C413.85 605.362 415.221 604.698 416.871 604.015C418.138 604.382 419.463 604.815 420.28 605.921C421.023 606.928 421.237 608.141 420.879 609.34C420.313 611.236 418.922 612.284 417.318 613.275Z"/>
	<path fill="#2B292B" d="M186.818 622.885C185.443 622.357 185.2 622.173 184.245 621.05C184.169 620.25 183.97 619.977 184.471 619.267C187.619 614.805 209.646 608.957 215.484 607.639C217.135 608.075 217.629 608.383 218.523 609.785C218.542 610.613 218.705 611.155 218.261 611.898C215.102 617.182 193.322 621.337 186.818 622.885Z"/>
	<path fill="#2B292B" d="M391.568 617.157C389.915 617.398 388.397 617.62 386.996 616.437C385.928 615.536 385.626 614.404 385.64 613.056C385.661 611.019 386.798 609.658 388.228 608.367C388.891 608.328 389.594 608.257 390.258 608.355C391.562 608.547 392.876 609.379 393.612 610.458C394.353 611.543 394.508 612.805 394.21 614.068C393.84 615.635 392.802 616.309 391.568 617.157Z"/>
	<path fill="#2B292B" d="M433.167 626.577C431.486 626.162 429.779 625.914 428.665 624.438C427.942 623.479 427.593 622.491 427.843 621.292C428.146 619.837 429.214 619.006 430.275 618.109C431.696 618.303 433.167 618.468 434.271 619.502C434.909 620.1 435.327 620.818 435.413 621.681C435.628 623.836 434.514 625.087 433.167 626.577Z"/>
	<path fill="#2B292B" d="M407.541 630.278C406.296 630.035 405.097 629.754 404.068 628.981C403 628.178 402.319 627.171 402.22 625.802C402.06 623.592 403.233 622.365 404.631 620.87C405.797 621.014 407.101 621.224 408.075 621.935C409.177 622.74 409.717 623.863 409.874 625.191C410.121 627.292 408.875 628.846 407.541 630.278Z"/>
	<path fill="#2B292B" d="M379.896 635.667C378.425 635.618 377.108 635.563 375.763 634.886C374.663 634.333 373.886 633.232 373.675 632.029C373.378 630.331 374.326 628.822 375.116 627.409C376.464 627.46 377.854 627.459 379.088 628.07C380.137 628.589 381.178 629.576 381.441 630.739C381.902 632.781 381.011 634.076 379.896 635.667Z"/>
	<path fill="#2B292B" d="M449.128 643.288C448.297 643.402 447.644 643.296 446.846 643.066C445.36 642.636 444.238 641.938 443.526 640.502C442.582 638.599 442.986 636.846 443.633 634.933C444.908 634.953 446.398 634.886 447.61 635.332C448.706 635.735 449.772 636.351 450.228 637.476C451.096 639.616 450.058 641.381 449.128 643.288Z"/>
	<path fill="#2B292B" d="M400.011 652.756C397.799 652.461 395.361 651.916 393.839 650.124C393.016 649.157 392.718 648.08 392.929 646.814C393.183 645.293 394.566 644.307 395.676 643.392C397.156 643.359 398.644 643.615 399.91 644.434C401.116 645.214 402.084 646.582 402.164 648.05C402.268 649.956 401.244 651.444 400.011 652.756Z"/>
	<path fill="#2B292B" d="M466.34 664.237C465.054 664.416 463.494 664.658 462.257 664.094C461.042 663.539 460.075 662.772 459.663 661.45C459.057 659.511 459.72 658.089 460.663 656.455C462.248 656.431 463.751 656.404 465.226 657.071C466.567 657.677 467.615 658.708 467.881 660.203C468.164 661.797 467.2 663.029 466.34 664.237Z"/>
	<path fill="#2B292B" d="M419.55 667.432C417.793 667.476 416.015 667.163 414.543 666.154C413.254 665.271 412.422 664.067 412.27 662.491C412.104 660.766 412.88 659.75 413.86 658.433C415.689 658.402 417.454 658.506 419.1 659.394C420.279 660.031 421.145 660.886 421.416 662.252C421.825 664.321 420.64 665.832 419.55 667.432Z"/>
	<path fill="#2B292B" d="M363.67 667.361C362.676 667.094 361.69 666.739 360.861 666.106C359.933 665.397 359.444 664.201 359.512 663.055C359.605 661.466 360.969 660.263 362.002 659.192C363.157 659.431 364.267 659.79 365.077 660.721C365.644 661.374 365.991 662.158 366.004 663.013C366.035 665.063 365.048 666.055 363.67 667.361Z"/>
	<path fill="#2B292B" d="M391.806 671.681C390.928 671.572 390.057 671.473 389.209 671.207C387.79 670.763 386.424 669.911 385.922 668.422C385.29 666.545 386.157 664.93 387.074 663.365C388.515 663.46 389.985 663.443 391.289 664.145C392.368 664.725 393.265 665.568 393.522 666.816C393.922 668.758 392.872 670.206 391.806 671.681Z"/>
	<path fill="#2B292B" d="M434.195 679.811C432.826 679.556 431.044 679.091 430.073 678.022C429.2 677.06 428.611 676.02 428.746 674.675C428.96 672.537 430.358 671.538 432.001 670.466C433.189 670.742 434.436 671.083 435.375 671.902C436.461 672.85 437.23 674.102 437.142 675.598C437.022 677.64 435.667 678.668 434.195 679.811Z"/>
	<path fill="#2B292B" d="M482.404 683.752C481.235 683.646 480.006 683.505 478.962 682.933C477.583 682.177 476.407 681.061 476.121 679.439C475.74 677.283 476.816 675.897 478.063 674.316C478.807 674.387 479.529 674.461 480.243 674.699C481.667 675.176 482.994 676.067 483.527 677.544C484.328 679.764 483.325 681.761 482.404 683.752Z"/>
	<path fill="#2B292B" d="M406.606 686C405.29 685.779 403.356 685.414 402.377 684.447C401.479 683.561 400.871 682.522 400.986 681.216C401.163 679.207 402.535 677.994 403.95 676.766C405.489 677.268 407.147 677.812 408.23 679.098C409.068 680.094 409.55 681.112 409.302 682.442C408.997 684.08 407.814 684.99 406.606 686Z"/>
	<path fill="#2B292B" d="M466.973 686.1C465.636 686.017 464.144 685.577 463.037 684.8C461.843 683.962 460.95 682.642 460.909 681.151C460.854 679.177 461.978 678.059 463.29 676.811C465.034 677.112 466.958 677.473 468.223 678.837C469.141 679.826 469.614 680.823 469.463 682.202C469.272 683.952 468.173 684.944 466.973 686.1Z"/>
	<path fill="#2B292B" d="M362.704 688.578C361.213 688.565 359.535 688.658 358.314 687.64C357.303 686.797 356.806 685.889 356.82 684.559C356.837 682.998 357.857 681.885 358.814 680.787C360.315 680.849 361.59 680.903 362.911 681.709C363.923 682.327 364.614 683.507 364.648 684.688C364.694 686.281 363.672 687.448 362.704 688.578Z"/>
	<path fill="#2B292B" d="M442.548 700.346C441.257 700.087 439.967 699.902 438.895 699.076C437.883 698.298 437.159 697.262 437.081 695.952C436.955 693.838 438.203 692.649 439.578 691.296C440.81 691.467 442.161 691.65 443.157 692.471C444.168 693.305 444.811 694.185 444.888 695.536C445.009 697.641 443.873 698.91 442.548 700.346Z"/>
	<path fill="#2B292B" d="M494.656 700.83C493.586 700.891 492.305 700.911 491.315 700.423C490.092 699.819 489.35 699.128 489.011 697.765C488.484 695.644 489.341 694.231 490.409 692.503C491.627 692.409 493.138 692.188 494.257 692.787C495.404 693.401 496.217 694.184 496.474 695.508C496.891 697.659 495.872 699.181 494.656 700.83Z"/>
	<path fill="#2B292B" d="M420.014 702.064C418.19 702.034 416.486 701.989 414.962 700.814C413.99 700.065 413.344 698.945 413.345 697.7C413.346 695.542 414.69 694.299 416.139 692.939C417.678 692.943 419.163 693.1 420.439 694.02C421.473 694.764 422.158 695.761 422.272 697.062C422.461 699.229 421.335 700.539 420.014 702.064Z"/>
	<path fill="#2B292B" d="M395.42 703.769C394.301 703.676 393.014 703.624 392.045 702.995C390.973 702.298 390.252 701.528 390.072 700.213C389.782 698.094 390.878 696.757 392.158 695.261C393.244 695.369 394.501 695.444 395.453 696.03C396.477 696.66 397.271 697.486 397.441 698.71C397.749 700.931 396.762 702.17 395.42 703.769Z"/>
	<path fill="#2B292B" d="M360.493 710.471C359.362 710.382 357.979 710.184 356.989 709.565C355.951 708.915 355.347 707.976 355.278 706.738C355.18 704.999 356.497 703.634 357.51 702.375C359.117 702.496 360.784 702.555 361.966 703.819C362.815 704.727 363.115 705.73 362.972 706.956C362.792 708.5 361.562 709.493 360.493 710.471Z"/>
	<path fill="#2B292B" d="M434.688 717.43C433.371 717.587 431.943 717.516 430.791 716.793C429.673 716.092 429.102 715.083 429.036 713.77C428.931 711.672 430.007 710.417 431.305 708.952C433 709.098 434.758 709.256 436.033 710.536C436.878 711.385 437.299 712.438 437.176 713.637C437.011 715.255 435.777 716.361 434.688 717.43Z"/>
	<path fill="#2B292B" d="M490.719 719.694C489.504 719.38 488.017 719.095 487.064 718.225C486.151 717.391 485.477 716.483 485.469 715.193C485.455 713.04 486.963 711.718 488.397 710.365C489.58 710.688 490.981 711.007 491.934 711.819C493.04 712.762 493.852 714.059 493.729 715.564C493.563 717.593 492.22 718.601 490.719 719.694Z"/>
	<path fill="#2B292B" d="M507.389 719.195C506.008 719.375 504.552 719.245 503.348 718.493C502.226 717.793 501.536 716.818 501.293 715.516C500.86 713.205 501.749 712.024 503.111 710.316C504.979 710.549 506.836 710.934 508.155 712.416C509.008 713.374 509.489 714.419 509.365 715.728C509.211 717.347 508.461 718.121 507.389 719.195Z"/>
	<path fill="#2B292B" d="M413.128 721.347C411.713 721.254 410.026 721.258 408.743 720.606C407.631 720.041 406.927 719.117 406.705 717.897C406.438 716.432 407.447 714.761 408.159 713.571C409.771 713.492 411.243 713.405 412.73 714.149C413.778 714.673 414.551 715.728 414.68 716.897C414.854 718.467 413.863 720.045 413.128 721.347Z"/>
	<path fill="#2B292B" d="M387.009 722.719C385.893 722.801 384.581 722.966 383.542 722.457C382.417 721.905 381.572 721.186 381.21 719.942C380.609 717.878 381.496 716.109 382.424 714.319C383.219 714.378 383.983 714.424 384.743 714.685C386.14 715.164 387.45 716.112 387.958 717.556C388.628 719.463 387.862 721.058 387.009 722.719Z"/>
	<path fill="#2B292B" d="M362.117 730.378C360.585 730.534 359.995 730.337 358.732 729.564C358.145 728.673 357.831 728.144 357.726 727.053C357.524 724.953 358.537 723.399 359.813 721.862C361.372 722.055 362.362 722.288 363.72 723.091C364.242 723.868 364.71 724.254 364.731 725.23C364.78 727.457 363.501 728.813 362.117 730.378Z"/>
	<path fill="#2B292B" d="M499.399 734.625C498.529 734.445 497.587 734.279 496.764 733.938C495.54 733.431 494.994 732.489 494.585 731.287C494.591 729.36 495.238 728.376 496.246 726.771C497.541 727.118 498.633 727.453 499.708 728.321C500.622 729.059 501.28 730.287 501.206 731.469C501.111 732.986 500.408 733.641 499.399 734.625Z"/>
</svg>
