<?xml version="1.0" encoding="utf-8" ?>
<svg xmlns="http://www.w3.org/2000/svg" xmlns:xlink="http://www.w3.org/1999/xlink" width="1024" height="1024">
	<path d="M132.44 127.993L132.043 317.007L132.085 369.694C132.099 378.339 133.067 388.236 131.61 396.704C131.277 398.636 130.858 399.889 129.254 401.061C128.871 401.076 128.571 401.117 128.185 400.979C126.742 400.466 125.714 399.175 125.28 397.757C124.01 393.608 125.268 370.739 125.333 364.789Q125.393 332.791 125.836 300.796L125.946 170.726C125.918 162.141 123.806 128.825 126.768 122.59C129.317 121.398 132.288 121.236 135.075 121.193C140.448 121.11 145.891 121.66 151.261 121.896Q164.237 122.43 177.223 122.491L313.218 121.95Q378.697 122.074 444.163 120.788C491.954 119.743 539.775 117.534 587.569 116.963C604.637 116.76 621.713 116.399 638.782 116.388Q668.514 116.662 698.244 116.307Q770.525 114.21 842.747 110.603Q871.634 109.193 900.506 107.482C910.877 106.901 921.334 106.637 931.675 105.705C932.499 105.532 933.171 105.462 934.01 105.444C935.546 105.41 936.758 105.478 937.814 106.762C939.154 108.391 939.535 111.118 939.604 113.157C940.479 138.974 939.999 164.951 940.038 190.786L941.113 284.812C941.436 303.474 941.656 322.226 942.267 340.874C942.631 351.982 944.272 365.049 942.969 375.972C942.765 377.681 942.206 379.46 940.76 380.529C939.854 381.198 939.68 381.212 938.628 381.091C936.786 379.269 936.639 376.326 936.456 373.862C935.74 364.232 936.177 354.216 936.054 344.546L935.106 293.42Q933.138 202.924 932.8 112.406C913.989 112.292 894.905 114.012 876.103 114.934C844.887 116.465 813.691 117.761 782.521 120.09C782.219 168.694 785.027 217.314 783.842 265.926C788.716 266.499 800.573 266.381 803.905 270.02L803.794 270.983C799.243 274.157 789.218 271.527 784.05 270.756Q783.744 283.203 783.252 295.645C783.122 299.387 782.651 303.443 782.987 307.142C783.536 313.17 788.876 309.478 791.783 312.052C791.971 313.095 792.052 313.565 791.585 314.534C789.24 316.06 785.892 315.299 783.27 314.909C782.727 326.599 782.972 338.439 782.96 350.141C782.932 378.265 783.591 406.153 784.682 434.249C784.888 439.547 786.529 456.964 783.457 460.294C782.275 460.613 782.316 460.66 781.231 460.109C779.735 457.959 779.251 455.48 778.916 452.92C777.75 444.001 778.113 434.679 777.898 425.699C777.533 410.488 777.048 395.344 777.032 380.124Q776.937 330.042 777.374 279.966C777.491 264.312 777.964 248.627 777.861 232.977C777.612 195.322 775.985 157.658 775.976 120.001C773.39 120.065 770.801 120.228 768.216 120.352C767.419 165.661 768.438 211.081 768.425 256.405C768.41 307.391 767.525 358.385 768.912 409.367C769.091 415.953 770.497 454.967 769.464 457.472C768.981 458.646 768.378 459.016 767.267 459.485C766.573 459.361 765.994 459.235 765.453 458.731C764.773 458.098 764.476 457.309 764.238 456.437C761.835 447.623 763.185 431.088 762.988 421.467C762.728 408.799 762.061 396.14 761.986 383.467C761.793 351.195 762.626 318.983 762.881 286.728Q763.248 231.707 762.893 176.686C762.698 158.077 762.049 139.482 761.928 120.86C718.016 122.185 674.19 121.964 630.281 122.475C619.105 122.605 607.84 122.673 596.675 123.01C584.84 123.367 572.831 124.078 561 123.9C561.012 130.747 561.611 137.597 561.834 144.439L562.912 188.251L566.096 374.164C566.287 393.141 567.906 412.291 567.435 431.244C567.368 433.925 567.729 438.552 565.787 440.624C565.125 441.331 564.954 441.159 564.068 441.23C563.555 440.879 563.487 440.879 563.042 440.324C560.691 437.397 560.753 422.753 560.587 418.458C559.653 394.171 560.131 369.828 559.851 345.528C559.752 336.915 559.117 328.343 558.899 319.741L557.928 257.151L555.994 164.398C555.759 150.996 554.899 137.489 555.262 124.092L548.026 124.186C547.917 160.457 549.255 196.759 549.89 233.027L551.114 339.347C551.491 362.038 551.986 384.691 552.079 407.389C552.102 413.072 552.656 418.925 552.511 424.559C552.479 425.797 552.182 427.08 551.713 428.224C551.12 429.672 550.439 430.449 548.993 431.004L548.013 430.344C546.892 428.169 546.702 425.841 546.52 423.439C545.598 411.257 546.164 398.85 545.98 386.63C545.678 366.492 545.015 346.401 544.926 326.25C545.001 309.68 544.425 293.07 544.187 276.499L541.87 124.19C505.93 123.851 470.096 126.205 434.18 126.962C401.131 127.659 368.077 126.701 335.023 127.558Q334.86 158.181 335.09 188.802C335.265 201.684 335.875 214.557 335.984 227.439L337.067 384.023L338.086 457.615C338.171 465.432 339.587 473.666 338.884 481.409C338.664 483.829 337.889 486.202 335.932 487.75L335.128 487.65C333.138 485.055 332.755 481.57 332.579 478.387C331.866 465.48 332.165 452.541 332.159 439.623C332.15 418.348 332.178 397.051 331.854 375.78L328.421 127.911L321.58 127.988C322.275 145.686 321.974 163.429 322.091 181.139L323.071 279.618Q324.876 366.575 325.02 453.551C324.993 462.668 326.054 471.777 325.895 480.867C325.846 483.711 325.747 487.521 323.832 489.785C323.262 490.459 323.012 490.308 322.206 490.407C321.674 490.054 321.561 490.023 321.09 489.482C319.874 488.084 319.49 485.159 319.419 483.4C318.763 467.04 319.075 450.552 318.874 434.173L317.959 324.145L315.483 128.148C301.513 127.794 287.59 128.355 273.627 128.551L218.919 128.959C190.069 129.174 161.279 128.259 132.44 127.993Z"/>
	<path d="M646.998 202.55C632.132 202.262 617.228 203.008 602.369 203.459C596.047 203.65 589.496 204.204 583.184 203.839C581.419 203.737 579.415 203.539 577.869 202.615C577.142 202.182 577.364 202.246 577.109 201.32C578.427 200.064 580.37 199.718 582.121 199.466C588.432 198.56 595.183 198.816 601.568 198.675Q619.137 198.341 636.701 197.785C641.009 197.481 646.947 196.462 650.723 198.867C653.197 203.045 652.062 239.642 652.383 247.771C661.889 248.889 671.391 250.975 680.803 252.713Q700.164 256.212 719.563 259.488C727.008 260.751 741.332 261.702 747.776 263.756C749.368 264.264 750.365 264.764 751.182 266.302L750.73 267.133C741.395 270.272 668.104 254.507 652.448 252.855Q653.316 294.833 654.792 336.793L655.876 373.501C656.08 380.845 655.971 388.186 656.467 395.52C656.766 404.243 656.875 412.974 657.25 421.694C657.518 427.951 658.319 434.631 657.879 440.858C657.718 443.128 657.326 445.183 656.322 447.227L655.207 447.278C653.745 445.236 653.342 442.354 653.133 439.901C652.539 432.928 653.103 425.665 652.879 418.645L651.001 359.701L646.998 202.55Z"/>
	<path d="M452.864 245.358Q452.93 234.75 452.86 224.142C452.764 217.886 451.623 210.197 453.115 204.122L453.869 204.63L453.354 203.772C460.945 200.371 505.783 201.23 517.723 200.722C522.409 200.054 528.71 200.096 533.473 200.484C535.146 200.621 536.322 200.886 537.443 202.235C537.501 203.526 537.564 203.595 536.825 204.636C531.328 206.523 524.317 205.334 518.543 205.481C498.168 205.998 477.805 206.083 457.443 207.031C457.666 223.031 456.913 239.057 457.193 255.08Q458.079 288.159 458.061 321.25C458.103 330.699 458.438 340.17 458.101 349.614C462.781 342.594 468.292 337.262 475.393 332.684C483.788 327.271 496.966 319.968 507.38 322.531C516.271 324.72 527.835 332.024 532.359 340.171C533.794 342.754 534.055 345.557 533.996 348.473C533.847 355.763 531.774 363.339 530.32 370.467C528.357 380.094 526.66 389.939 523.724 399.327C520.75 408.839 517.345 415.205 508.265 419.935C511.619 420.52 514.871 421.292 518.06 422.496C523.446 424.529 528.025 427.478 532.233 431.396C544.246 442.579 565.875 474.901 572.873 490.179Q608.253 485.907 643.689 482.125C657.022 480.577 670.35 478.23 683.732 477.217C685.239 477.103 687.29 476.934 688.718 477.56C689.998 478.121 690.127 478.463 690.719 479.644C689.973 486.759 670.078 514.265 665.389 521.515C675.319 522.362 685.466 521.614 695.421 521.618C703.027 521.621 710.824 522.215 718.365 523.202C722.467 511.359 728.584 500.432 737.879 491.887C753.449 477.575 771.349 473.315 791.939 474.179Q795.074 466.634 799.364 459.681C808.788 444.34 820.524 435.557 837.974 431.443C839.09 428.125 840.441 424.982 841.89 421.797C838.266 419.049 834.601 416.314 831.197 413.293C815.263 399.151 815.406 380.034 814.322 360.247L812.713 359.412C809.488 357.741 807.027 356.062 805.72 352.501C804.212 348.391 805.702 343.789 807.535 340.045C814.207 326.417 827.421 314.406 841.793 309.481C848.179 307.292 854.581 306.355 861.137 308.454C863.788 309.303 866.509 310.452 869.277 310.816C876.078 311.71 881.079 309.956 887.676 313.229C895.506 317.113 901.941 323.741 904.748 332.093C909.545 346.362 906.234 366.556 898.181 379.131C895.363 383.533 890.792 386.709 888.507 391.495C886.127 396.48 887.372 402.096 889.209 407.05C894.906 422.415 899.675 423.69 913.436 429.942C933.751 439.171 943.272 444.381 951.414 466.006C959.333 465.962 967.887 464.43 975.601 466.735C981.403 468.469 985.839 472.411 988.62 477.74C1006.74 512.457 979.633 650.838 966.92 691.569C980.995 698.684 995.445 706.81 1008.44 715.744C1010.14 716.915 1012.14 718.812 1012.24 721.059C1012.31 722.465 1012.15 722.761 1011.29 723.74C1011.12 723.781 1010.95 723.84 1010.77 723.863C1010.04 723.961 1009.94 723.923 1009.2 723.728C1003.2 722.139 989.835 712.29 983.758 708.506Q976.058 703.723 968.095 699.393C948.149 688.342 927.596 678.415 907.359 667.919C900.977 679.153 893.662 682.816 881.873 686.896C900.089 719.705 910.663 747.313 916.696 784.455C934.519 783.287 956.295 782.972 972.973 789.703C980.534 792.754 986.492 797.788 989.673 805.45C992.074 811.233 992.742 817.787 992.91 823.99C993.205 834.86 989.264 877.477 985.139 886.223C984.497 887.584 983.813 888.222 982.398 888.658C980.423 887.636 979.995 886.23 979.867 884.086C979.566 879.015 981.368 872.798 982.169 867.756C984.609 852.386 989.764 822.225 983.288 808.09C980.142 801.222 973.994 797.185 967.082 794.802C935.67 783.968 807.64 794.09 777.034 809.43C771.564 812.172 766.28 815.703 762.186 820.291C748.146 836.022 741.328 866.246 736.234 886.828C734.949 892.022 734.115 897.622 732.321 902.658C731.785 904.165 730.899 905.398 729.256 905.872C728.031 906.225 727.575 905.767 726.636 905.122C726.175 904.101 725.882 903.27 725.854 902.137C725.582 891.179 743.377 839.123 748.866 827.984C751.298 823.048 754.447 818.341 758.286 814.387C763.491 809.026 770.402 804.332 777.282 801.442C804.857 789.857 864.453 785.003 895.563 784.5C892.352 769.762 890.045 754.788 886.921 740.009C883.248 722.626 878.763 705.45 874.721 688.153C853.813 690.795 831.345 690.505 810.533 686.968C800.427 685.25 791.043 681.606 780.648 681.712C767.238 681.849 739.259 683.832 728.047 690.449C707.905 702.335 687.652 756.191 674.882 777.705C663.038 797.659 650.16 816.131 636.663 834.94C633.416 839.464 629.192 848.654 625.655 851.903C624.668 852.809 624.168 852.928 622.862 852.898C621.987 852.226 621.646 851.648 621.387 850.561C620.526 846.95 622.938 843.861 624.678 840.923C617.786 833.923 610.153 827.461 602.98 820.735Q586.604 805.145 570.541 789.232C564.891 794.998 558.67 800.159 553.074 806.007C563.397 822.673 606.239 889.875 623.977 896.074C628.967 895.305 633.367 893.958 637.938 891.778C661.271 880.656 698.808 846.594 715.184 826.235Q719.979 820.192 724.09 813.665Q728.202 807.137 731.58 800.202C734.403 794.423 736.471 788.279 738.224 782.098C739.525 777.51 742.067 757.593 744.848 755.521L745.985 755.717C747.12 756.652 747.624 757.512 747.981 758.922C748.85 762.359 748.031 766.501 747.43 769.94C744.524 786.553 738.212 801.993 729.892 816.586C722.693 827.879 713.928 837.649 704.487 847.089C704.552 858.194 704.696 886.092 701.627 895.518C701.009 897.415 700.287 898.604 698.437 899.516C696.792 899.408 696.076 899.076 694.768 898.06C690.187 894.502 678.908 880.17 674.187 874.847C667.117 880.445 660.036 886.045 652.564 891.103C644.808 896.354 632.614 904.224 622.728 902.113C602.699 897.836 557.878 826.032 545.232 806.982L547.783 802.179C540.99 791.666 532.323 780.232 527.817 768.575C522.717 755.38 528.213 741.545 533.622 729.406C522.637 701.108 509.173 673.782 497.884 645.615C496.895 643.149 494.045 636.998 495.128 634.46C497.128 632.441 499.493 631.372 502.167 630.471C509.183 628.109 516.734 626.659 523.927 624.835L567.871 613.792Q600.152 605.496 632.687 598.263C644.303 595.572 656.284 591.586 668.229 591.02C669.77 592.5 670.846 594.353 671.779 596.258C679.115 611.245 685.028 627.417 691.573 642.792C697.488 656.685 704.446 670.26 708.987 684.676L718.737 688.657C734.631 676.704 756.296 677.613 775.077 675.493C766.414 665.07 760.471 654.562 754.497 642.474C746.534 638.947 740.061 634.527 734.661 627.6C716.944 604.871 714.073 556.514 717.484 528.495C699.015 527.228 680.223 527.52 661.714 527.526C655.975 537.588 644.177 556.734 636.186 564.576C627.343 566.791 617.955 567.642 608.942 569.003L564.957 575.906Q551.029 578.06 537.131 580.394C527.14 582.152 515.521 585.575 505.443 584.926C498.141 584.456 490.087 580.681 482.957 578.772L423.155 562.973C421.747 567.402 420.545 573.174 417.09 576.475C410.257 583.002 397.012 588.574 388.491 593.293Q364.083 606.791 339.982 620.829C332.585 625.116 324.814 629.07 317.74 633.858C290.778 633.816 263.836 632.541 236.865 633.312C225.135 644.178 211.653 653.86 199.019 663.671L143.814 706.592Q109.848 732.87 75.2533 758.315C63.5152 767.114 52.0961 776.592 39.8742 784.705C37.1127 786.538 33.2918 789.331 29.8494 788.641C29.003 787.775 29.0274 787.774 28.9266 786.563C30.0239 784.213 32.3332 782.396 34.2956 780.751C47.9631 769.292 63.0399 759.173 77.4271 748.639C94.1311 736.409 110.479 723.722 127.105 711.392C119.701 704.512 115.069 695.407 111.983 685.919C100.99 690.675 90.4095 696.311 79.7436 701.748L39.0025 722.406C33.8324 725.023 28.6443 727.61 23.5065 730.29C20.9919 731.601 18.2777 733.448 15.6411 734.368C13.2299 735.209 10.5414 735.553 8.20076 734.416C7.85556 733.644 7.6459 733.623 7.9677 732.747C8.54339 731.18 9.71292 730.282 11.0478 729.376C16.1402 725.918 22.2526 723.241 27.7565 720.491C40.0634 714.34 52.6091 708.563 64.6909 701.983C62.7128 694.644 61.8466 686.679 60.4932 679.193Q57.723 664.108 53.8305 649.273Q48.6722 629.071 42.8288 609.057C37.9916 592.626 32.8164 576.225 29.1243 559.49C25.1447 541.452 21.5016 520.734 32.2061 504.226C44.927 484.608 81.1807 479.732 102.543 475.107C110.41 460.602 103.204 444.404 112.97 430.127C120.743 418.762 134.267 415.712 146.973 413.273C142.236 397.371 140.439 381.224 147.083 365.517C153.103 351.287 164.536 340.911 178.784 335.242C194.371 329.039 213.918 326.901 229.645 333.798C238.284 337.587 244.612 344.346 247.979 353.146C255.97 374.026 250.469 397.431 241.829 417.047C246.691 425.596 255.004 438.715 251.587 448.844C250.122 453.187 247.493 456.919 246.423 461.462C245.053 467.276 244.979 475.907 246.526 481.671C248.525 489.122 252.914 496.145 256.246 503.073C261.53 514.055 266.333 525.762 272.89 536.044C280.918 535.059 289.239 535.157 297.335 534.687C309.646 533.973 321.933 532.895 334.242 532.21C336.026 523.841 336.825 514.564 340.578 506.804C346.453 502.336 354.322 501.347 361.33 499.662C360.103 484.406 358.736 465.071 367.013 451.482C370.717 445.401 376.241 440.418 382.514 437.087C390.506 432.842 399.031 433.011 407.37 430.25C412.482 428.557 417.186 425.819 422.226 423.929C428.254 421.668 434.451 420.011 440.587 418.087C447.559 415.901 454.462 413.54 461.579 411.858C461.474 408.452 461.798 398.408 460.174 395.875C459.098 394.196 457.451 394.18 455.691 393.558C453.992 391.717 453.741 389.296 453.509 386.891C452.121 372.482 452.988 357.364 452.947 342.874Q453.24 296.468 452.519 250.067C443.641 249.972 434.569 250.938 425.7 251.482L380.59 254.291C371.553 254.911 362.291 255.993 353.227 255.756C351.554 255.713 350.112 255.586 348.622 254.802C348.265 253.709 348.473 253.805 348.949 252.83C350.344 251.874 351.569 251.545 353.249 251.342C365.648 249.845 378.489 249.878 390.973 249.147C411.607 247.937 432.215 246.288 452.864 245.358ZM294.322 602.895C296.164 603.197 297.946 603.343 299.391 604.626C300.681 605.77 301.954 606.999 303.587 607.625C303.893 607.742 304.203 607.846 304.512 607.956C305.231 608.967 305.085 609.095 305.138 610.278C306.055 609.93 306.939 609.623 307.896 609.414L308.749 609.232C308.498 610.205 308.37 610.972 308.403 611.979C309.256 613.676 310.077 615.48 311.965 616.113C313.61 615.091 313.678 613.634 314.619 612.001L315.032 611.295L316.631 606.799C314.102 608.109 311.699 609.614 308.749 609.232C308.096 607.595 307.602 605.674 306.057 604.689L305.308 604.595C304.981 604.552 304.655 604.501 304.327 604.461C302.623 604.253 302.177 604.05 300.92 602.965C300.477 601.228 301.482 600.081 301.788 598.341C300.861 598.676 300.125 598.907 299.124 598.917C295.893 598.95 293.604 595.334 291.809 593.109C291.389 593.037 290.868 593.116 290.439 593.136C290.37 595.149 293.651 600.032 294.322 602.895ZM849.573 342.966C840.001 347.968 831.315 353.982 821.405 358.459C820.831 375.182 820.93 393.195 832.987 406.139C837.205 410.667 842.37 414.695 847.871 417.546C859.365 414.911 867.467 409.729 874.513 400.208C876.614 397.19 879.5 393.951 878.69 389.992C878.043 386.834 876.451 384.346 878.814 381.325C879.682 380.217 880.005 380.236 881.314 380.048C883.147 380.994 884.447 382.448 886.504 382.128C889.037 380.284 890.011 377.292 890.542 374.294C890.955 371.965 891.273 368.516 889.727 366.54C888.584 365.079 886.909 364.055 885.393 363.024C882.215 363.983 878.227 365.672 874.989 364.068C873.536 363.348 872.71 362.241 872.273 360.712C871.294 357.283 872.291 352.794 873.02 349.343C864.981 351.259 846.436 356.511 838.995 352.403L838.722 351.48C841.608 347.439 852.712 344.901 857.444 343.71C854.883 343.426 852.142 342.898 849.573 342.966ZM521.859 352.166C505.153 354.806 489.041 357.168 474.145 365.792C474.322 368.593 474.881 371.51 473.069 373.901C472.068 374.218 471.804 374.335 470.784 373.869C468.11 372.648 465.303 368.561 462.4 368.963C460.454 370.748 459.737 372.818 459.583 375.433C459.407 378.429 459.874 381.415 461.982 383.684C463.606 385.432 465.824 386.093 467.791 387.325C471.024 389.347 473.273 395.851 474.878 399.254C479.635 406.541 485.131 413.53 494.179 415.441C498.967 416.452 504.147 415.748 508.264 413.026C510.445 411.583 512.736 409.411 514.035 407.117C519.663 397.173 523.3 372.482 525.471 360.438C525.912 357.992 526.254 355.67 525.824 353.193C524.513 352.138 523.511 352.029 521.859 352.166ZM242.882 366.515C238.145 371.184 233.291 375.637 227.774 379.385C225.003 381.267 216.225 385.57 215.327 388.205C215.668 389.847 216.147 390.538 215.295 392.026C212.725 393.186 211.546 392.744 208.97 391.778L208.347 391.539C197.936 396.725 191.308 406.052 181.585 411.758C177.089 414.396 171.245 413.129 166.701 415.238C166.467 416.622 166.388 416.612 167.114 417.797C168.256 418.461 169.319 418.961 170.549 419.449C171.804 419.946 172.459 420.31 173.36 421.301C173.848 422.622 173.782 423.155 173.4 424.501C172.706 425.268 172.061 425.927 171.306 426.634C169.391 428.425 164.154 447.424 162.002 452.091C167.214 462.39 171.539 473.008 176.503 483.403C180.215 484.67 183.915 486.081 187.814 486.634C194.37 486.491 200.153 485.828 206.188 483.129C202.723 473.833 199.227 464.806 194.713 455.961C190.053 453.967 183.012 451.851 180.583 447.179L180.544 445.726C181.725 444.714 182.606 444.516 184.166 444.677C188.783 445.154 193.357 448.088 197.657 449.707C201.31 451.082 205.15 451.943 208.942 452.836C214.474 446.496 220.543 440.788 225.494 433.929C236.526 418.644 245.492 391.991 244.28 373.035C244.156 371.1 244.066 368.066 242.882 366.515ZM465.211 393.718C466.318 399.821 469.688 410.758 465.835 416.206C464.852 417.597 463.194 418.463 461.761 419.314C466.92 423.926 475.868 433.32 482.325 435.331C483.64 434.999 483.447 434.845 484.17 433.787C486.804 429.587 489.93 425.613 492.44 421.373C480.084 416.887 475.414 410.722 469.083 399.637C468.083 397.886 466.797 394.956 465.211 393.718ZM880.653 399.309C872.645 411.391 864.475 420.98 849.84 424.326C852.111 428.111 854.624 431.665 857.205 435.24L858.241 436.789C858.529 436.784 858.831 436.863 859.106 436.776C859.259 436.728 881.635 416.598 884.986 414.093C883.165 409.204 882.367 404.118 880.653 399.309ZM887.846 419.882C880.16 425.21 873.364 431.76 866.667 438.259C869.88 441.914 872.406 446.163 875.051 450.237L876.215 451.841L877 451.9C882.583 446.197 888.892 434.176 893.343 427.046C891.922 424.814 890.153 421.211 887.846 419.882ZM497.421 421.866Q496.004 424.919 494.66 428.005C495.727 430.228 496.714 433.012 498.423 434.798L499.254 434.791L499.979 433.597Q502.128 427.907 503.987 422.116C501.751 422.226 499.646 422.102 497.421 421.866ZM460.188 425.874C466.185 450.491 474.447 475.356 483.26 499.109C485.065 503.974 486.572 509.798 489.351 514.138L489.823 514.164L489.842 512.336C488.109 488.312 489.268 464.062 487.956 439.965C487.026 441.497 486.364 442.898 484.746 443.769C479.726 443.33 465.9 429.143 460.188 425.874ZM506.468 429.221C505.041 433.222 503.828 438.892 499.691 440.859Q498.543 441.391 497.365 441.852C500.786 464.693 505.286 486.896 505.221 510.124C505.305 511.992 505.127 514.193 506.139 515.819L507.021 515.985L507.938 515.223C508.973 503.526 510.945 436.02 506.468 429.221ZM845.258 429.754C843.664 433.75 841.501 439.445 842.58 443.761L843.265 443.855C843.933 442.906 844.359 442.086 844.763 440.999C846.695 439.516 848.606 438.171 850.695 436.91C849.152 434.334 847.777 431.503 845.258 429.754ZM898.352 430.038C892.529 440.606 885.892 452.78 877.512 461.479C872.292 456.711 868.599 451.225 864.509 445.513C861.806 447.865 858.975 450.158 856.416 452.662C856.026 458.68 855.186 482.472 851.058 486.135C850.582 486.558 850.515 486.544 850.005 486.751C848.862 486.157 848.492 485.639 848.048 484.412C845.4 477.095 853.89 452.575 849.003 448.22C844.766 449.197 843.115 458.482 838.278 455.876C834.933 451.228 836.01 444.668 836.866 439.372L837.139 437.727C820.602 442.858 809.666 453.318 801.653 468.552Q799.96 471.826 798.467 475.195C819.583 482.386 836.854 493.379 847.018 513.956C853.376 526.827 855.094 540.889 856.746 554.952Q880.889 555.239 904.991 553.814C905.055 542.897 906.058 531.904 906.724 521.005C907.022 516.12 906.795 510.351 907.72 505.602C908.02 501.179 907.434 492.319 910.85 489.175C911.394 488.674 911.368 488.749 912.03 488.449C912.872 488.694 912.972 488.53 913.445 489.356C914.74 491.621 914.615 495.41 914.605 497.992C914.576 505.071 913.506 511.996 912.868 519.012C911.851 530.199 910.932 541.989 910.922 553.212C915.16 552.533 925.64 549.7 929.056 552.906C929.386 553.216 929.492 553.506 929.676 553.887C929.207 555.296 928.397 555.895 927.069 556.543C914.165 562.844 873.396 559.394 857.209 560.711C858.255 569.099 860.784 578.687 864.405 586.311C882.314 589.02 929.785 595.256 945.31 591.723C948.223 584.38 948.765 575.867 949.733 568.076C953.582 537.09 955.624 491.046 942.927 461.984C935.147 444.179 915.111 436.986 898.352 430.038ZM399.363 437.145C387.045 441.295 377.449 445.776 371.295 457.989C366.624 467.259 366.352 477.157 366.305 487.31C366.292 490.265 366.086 494.29 367.142 497.055C367.232 497.292 367.338 497.522 367.437 497.756C368.015 497.889 368.467 498.015 369.063 497.983C375.805 495.703 382.745 494.168 389.57 492.179C390.914 478.395 392.453 465.059 395.887 451.621C396.913 447.606 401.627 440.844 401.216 437.138L399.363 437.145ZM156.842 455.973L152.081 460.635C152.649 467.996 153.245 475.45 153.259 482.834Q155.994 481.501 158.692 480.095L166.705 476.683C163.819 470.164 161.27 461.459 156.842 455.973ZM202.27 457.629C205.609 465.801 209.534 473.707 212.953 481.841Q222.007 503.477 228.063 526.136C230.699 536.379 232.396 547.008 233.77 557.485C235.419 570.054 235.257 582.935 241.231 594.435C242.13 587.412 242.39 580.45 242.365 573.375C241.967 560 244.591 528.85 239.969 517.814C239.245 516.087 237.724 514.483 236.354 513.247C232.389 509.669 225.187 507.208 222.849 502.353C222.888 500.821 223.045 499.961 224.247 498.914C226.071 497.324 229.146 496.478 231.393 495.606C228.127 492.611 217.809 484.988 217.549 480.682C217.446 478.981 218.812 477.365 220.02 476.31C222.024 474.558 225.22 473.56 227.607 472.302C220.792 466.357 211.262 459.606 202.27 457.629ZM959.796 471.717L952.823 472.17C959.915 508.636 959.755 534.591 955.702 571.334C954.928 578.345 954.495 589.835 950.312 595.602C948.968 597.455 946.802 598.546 944.568 598.894C942.043 599.287 939.219 599.105 936.669 599.05C936.331 608.714 937.197 628.32 933.648 636.996C932.88 638.874 931.62 640.294 930.193 641.698C929.89 651.556 929.319 661.397 928.981 671.249L955.003 684.948L961.827 688.695C975.005 633.222 987.555 577.78 988.048 520.424C988.157 507.716 988.898 491.44 981.998 480.263C979.285 475.869 975.257 473.414 970.281 472.28C966.851 471.498 963.287 471.521 959.796 471.717ZM232.773 476.423C230.131 478.113 227.432 479.353 224.558 480.594C227.741 483.86 238.676 493.348 239.639 496.914C237.439 499.184 233.746 500.466 230.994 502.071C239.329 507.61 245.318 512.637 247.461 522.971C249.539 532.993 248.77 544.288 248.469 554.493C252.425 560.363 257.313 565.959 264.59 567.467C270.681 568.729 277.461 566.828 283.39 565.547Q290.529 564.409 297.695 563.455C296.257 555.949 297.248 549.65 301.382 543.108C292.255 541.259 277.588 540.404 268.599 542.1C263.657 531.612 241.235 480.079 233.353 476.605C233.168 476.523 232.966 476.483 232.773 476.423ZM168.846 482.008Q161.39 485.987 153.785 489.674Q154.896 497.546 156.232 505.382C160.616 505.501 168.812 505.028 172.148 508.349C172.434 509.623 172.403 510.184 171.716 511.335C169.201 515.546 163.876 518.393 160.421 521.813C173.547 540.332 188.589 557.614 203.39 574.806C208.006 580.138 211.935 585.046 218.672 587.82C214.135 574.853 206.158 562.476 199.855 550.254Q186.153 523.883 174.817 496.412C172.954 491.924 171.505 486.014 168.846 482.008ZM97.4059 482.636C79.3235 486.228 47.7718 492.754 37.1115 508.832C28.7963 521.372 31.0823 538.762 34.0188 552.626C37.1106 567.224 41.5549 581.571 45.684 595.903C54.0436 624.919 62.6735 653.745 67.8879 683.539C68.7384 688.683 69.4161 693.93 70.848 698.949C84.271 693.119 96.9824 685.772 110.257 679.617C109.626 663.253 109.526 646.691 108.443 630.37C105.382 626.33 102.644 622.373 100.541 617.746C90.9692 596.69 91.1249 568.583 92.181 545.852C92.5315 538.309 93.499 530.705 93.5756 523.166C93.654 515.451 90.727 508.346 91.7783 500.5C92.6439 494.04 97.1833 487.033 97.768 482.89L97.4059 482.636ZM680.877 483.742C654.782 486.423 628.746 489.947 602.673 492.884C584.042 494.983 565.288 496.21 546.766 499.195C542.434 507.757 539.117 517.035 535.618 525.97C530.462 539.139 525.313 552.062 519.297 564.867C518.114 567.385 513.596 575.027 513.645 577.435C514.053 577.558 514.546 577.762 514.966 577.801C527.603 575.106 540.595 573.543 553.37 571.599C567.905 569.388 582.394 566.842 596.938 564.7C609.413 562.863 621.785 561.64 634.056 558.579Q642.358 544.903 651.223 531.584C656.06 524.295 680.826 489.124 681.936 483.92C681.122 483.575 681.479 483.547 680.877 483.742ZM442.613 484.082C432.465 486.425 422.416 489.468 412.374 492.239L373.684 502.805C364.288 505.45 354.992 508.717 345.424 510.688C341.658 526.165 338.388 541.756 334.595 557.226L323.893 601.803C322.243 608.736 318.742 617.766 318.976 624.791L319.52 625.289L319.776 625.266L382.867 589.636C393.067 583.856 403.867 578.358 413.66 571.939C417.119 561.321 444.176 487.412 443.048 484.123L442.613 484.082ZM208.847 488.037C198.748 493.206 190.262 494.117 179.379 490.676C190.872 518.202 204.342 544.76 217.797 571.364C220.296 576.146 223.944 585.645 229.041 587.908C230.433 587.641 230.336 587.587 231.181 586.427C232.273 580.185 229.865 571.674 228.858 565.358C225.207 542.458 221.452 520.934 213.36 499.133C212.059 495.629 210.857 491.128 208.847 488.037ZM147.337 492.91C142.88 498.455 137.574 504.034 138.5 511.71C139.551 520.427 145.243 529.339 139.08 537.705C136.521 541.178 131.571 543.669 127.343 544.177C120.26 545.027 113.411 540.869 108.16 536.531C105.141 534.038 102.387 531.169 99.6335 528.389C96.6527 552.374 95.6111 602.863 110.289 621.945C112.037 624.217 114.087 626.064 116.363 627.796C154.164 621.031 193.031 620.963 231.315 620.998C232.503 611.802 233.135 602.822 232.98 593.538C224.447 593.411 215.907 593.476 207.376 593.278Q192.729 592.944 178.078 592.938C171.048 593.002 150.441 595.195 145.146 593.26C143.34 591.129 143.797 586.325 144.018 583.643C144.601 576.561 145.02 569.599 145.031 562.484C145.041 556.567 144.452 549.992 145.273 544.167C145.55 542.206 145.947 540.558 147.29 539.072C148.119 538.91 148.171 538.704 148.935 539.236C150.668 540.444 151.311 542.095 151.514 544.123C152.915 558.124 151.231 574.059 149.54 587.979C168.562 586.165 187.687 588.167 206.695 587.411C193.934 573.654 182.214 559.241 170.379 544.697C163.937 536.779 156.962 529.063 151.379 520.5C154.956 517.134 159.195 514.771 162.989 511.704C159.392 511.276 152.996 511.119 150.6 507.87C148.208 504.628 150.589 497.145 147.337 492.91ZM530.667 519.085C523.351 520.749 489.201 528.601 485.213 531.273L486.081 531.392C492.908 529.84 499.741 528.193 506.647 527.029C510.05 526.455 528.927 524.54 530.172 523.503C530.753 522.209 531.158 521.136 531.432 519.746L530.667 519.085ZM724.672 523.809C720.224 552.379 722.01 599.158 739.1 622.804C742.324 627.265 746.151 630.624 750.726 633.64L751.457 633.542C750.583 624.092 743.63 611.449 739.994 602.408C736.099 592.724 732.355 582.597 729.894 572.452C728.052 564.855 726.644 557.259 726.165 549.443C725.704 541.908 726.974 530.744 724.672 523.809ZM434.217 528.324Q433.107 533.035 432.204 537.789C435.531 539.681 446.13 541.571 449.756 540.309C450.529 540.04 450.356 540.102 450.964 539.65L454.837 535.915C448.18 533.56 440.472 531.563 434.217 528.324ZM524.452 534.68C514.966 536.473 505.148 538.218 495.555 539.25C497.816 543.215 499.972 546.736 501.026 551.239C501.975 551.872 502.574 551.904 503.667 552.009C505.836 552.218 506.487 552.886 507.819 554.55Q508.298 555.154 508.762 555.771L511.371 556.708C512.917 557.795 513.063 558.846 513.477 560.633C514.744 559.868 516.169 558.024 516.43 556.528C516.554 555.818 516.136 555.562 515.749 555.026C513.791 554.195 509.999 553.992 508.579 552.686C508.905 551.276 509.25 551.079 510.294 550.042C513.628 549.142 518.128 551.933 519.322 549.87C520.4 548.008 524.732 536.865 524.686 534.864L524.452 534.68ZM469.073 539.225C466.2 539.308 463.296 539.314 460.432 539.522C457.529 542.042 454.171 544.691 454.005 548.87C453.909 551.266 455.181 553.312 456.862 554.912C459.554 557.475 466.864 561.785 470.694 561.789C471.904 561.791 474.5 559.537 475.576 558.784C477.826 559.532 480.085 560.385 482.372 561.005C484.655 561.079 486.225 559.466 487.793 558.003C488.961 556.914 489.693 556.393 490.154 554.812C489.325 553.004 487.878 552.134 487.664 550.156C488.059 549.626 488.248 549.046 488.948 548.927C491.09 548.563 493.213 550.277 495.334 549.589L495.851 548.766C494.635 545.322 492.462 543.232 489.141 541.726C482.82 538.861 475.824 539.362 469.073 539.225ZM307.351 546.065C304.804 549.115 301.016 554.948 301.729 559.083C301.948 560.359 302.773 561.252 303.842 561.903C306.251 563.371 310.387 562.421 312.82 561.502C315.347 560.548 317.82 559.128 320.183 557.818C321.883 556.791 323.608 555.805 325.199 554.613C321.72 554.162 316.625 554.636 313.938 552.24L313.587 551.376C314.822 549.692 320.13 549.345 320.317 548.296C316.58 546.82 311.352 545.766 307.351 546.065ZM491.997 559.827C491.067 560.723 490.259 561.227 489.872 562.485L490.64 563.223C490.836 563.194 491.031 563.138 491.23 563.136C493.588 563.121 499.613 567.106 501.031 569.057C501.774 570.079 501.854 570.173 501.614 571.392C500.333 572.262 498.839 572.239 497.364 571.887C491.991 570.602 490.1 563.753 480.969 564.062L479.897 564.632C480.129 565.678 479.865 565.352 480.728 565.952C483.248 567.706 487.539 567.157 489.514 569.346C489.724 570.646 489.826 570.648 489.124 571.741C485.785 572.917 480.484 570.76 477.119 569.829C474.345 569.197 471.704 568.899 468.876 568.69C480.981 572.822 493.8 574.913 506.024 578.869C507.469 576.116 509.397 572.781 509.73 569.66C508.787 569.528 507.97 569.507 507.023 569.514C501.556 566.91 499.87 561.076 491.997 559.827ZM438.046 560.529C445.079 563.24 461.38 568.437 468.767 568.489C458.52 562.316 450.057 559.948 438.046 560.529ZM326.31 562.991C323.045 564.636 319.528 566.714 315.98 567.594C310.531 568.946 304.863 568.111 299.314 568.766C286.514 570.277 272.178 576.618 259.37 572.328C254.93 570.841 251.728 568.208 248.516 564.894C248.383 570.074 248.324 575.217 248.469 580.4C248.579 583.343 248.668 586.254 249.106 589.171C259.743 584.57 269.771 577.683 280.743 574.099C288.7 571.5 297.943 573.171 306.218 572.669C312.572 572.284 318.881 571.267 325.219 570.721C325.766 568.296 326.782 565.459 326.31 562.991ZM285.955 577.684C275.593 582.198 265.018 586.8 255.466 592.905C260.701 593.257 265.877 593.171 271.105 593.375C283.447 591.447 292.95 584.79 302.926 577.585C297.275 577.414 291.586 577.055 285.955 577.684ZM317.423 579.183L314.9 579.581L314.44 580.315C315.512 582.245 318.821 583.647 320.742 584.735C321.687 584.732 321.67 584.914 322.413 584.237C322.26 582.144 322.233 581.426 320.769 579.864C319.645 579.557 318.578 579.335 317.423 579.183ZM311.465 580.975C308.591 582.088 305.793 583.29 302.997 584.588C305.158 585.178 307.262 585.728 309.316 586.638C310.178 588.216 311.154 590.627 312.929 591.276C313.63 591.533 314.495 591.543 315.232 591.62C315.859 591.687 316.485 591.771 317.112 591.842C317.783 593.106 318.277 594.504 319.63 595.151C320.54 594.422 320.327 594.854 320.489 593.726C320.691 592.32 320.389 591.372 319.475 590.265C316.036 586.101 312.998 588.668 312.278 581.627L311.465 580.975ZM301.132 586.558C298.225 587.986 296.339 589.695 294.24 592.122C296.187 592.448 300.016 592.586 301.114 594.322C301.472 594.888 301.724 595.739 301.95 596.347L303.122 597.247C304.678 596.88 304.043 595.657 305.739 596.777C308.581 598.654 309.201 603.005 313.113 602.662C314.633 602.859 316.559 603.429 317.928 602.774C317.905 601.366 317.976 601.068 316.878 600.04C314.962 598.246 310.805 598.639 309.499 596.616C309.521 595.563 309.82 594.803 309.04 594.022C305.701 590.679 302.979 592.527 301.595 586.692L301.132 586.558ZM868.04 593.426C873.154 604.023 881.378 612.47 888.733 621.521Q894.911 629.259 900.064 637.714C909.443 637.024 919.458 636.942 928.704 635.38C929.348 623.213 929.761 611.039 930.516 598.879Q912.023 597.991 893.593 596.222C885.07 595.393 876.565 594.164 868.04 593.426ZM664.099 597.101Q607.466 610.311 551.073 624.514C534.788 628.61 517.347 631.634 501.583 637.291C504.33 647.672 509.945 657.92 514.25 667.765L537.526 721.816C541.731 731.41 546.944 741.095 550.442 750.941C548.403 735.718 541.645 722.092 535.762 708.056L519.883 670.147C516.103 659.927 511.085 650.387 507.804 639.923C542.317 629.933 577.712 621.795 612.727 613.723C629.395 609.88 645.942 605.078 662.814 602.23Q673.705 624.499 683.064 647.455C686.68 656.219 689.722 665.75 694.024 674.163C695.153 676.371 696.517 678.69 698.796 679.837L699.505 679.578C699.761 677.835 699.25 676.338 698.656 674.717C697.302 671.021 695.392 667.432 693.85 663.799L681.726 635.159C678.045 626.555 674.533 617.886 670.796 609.299C669.123 605.456 667.634 601.084 665.305 597.595C664.987 597.454 664.436 597.142 664.099 597.101ZM243.351 598.751C242.036 598.876 240.339 598.671 239.42 599.633C238.555 605.448 238.484 611.625 238.499 617.503C247.606 614.392 260.156 608.865 269.548 608.182C268.799 606.78 268.574 606.691 268.876 605.159C271.577 602.169 278.937 602.692 282.805 601.511C277.692 600.881 272.806 599.373 267.689 598.8C259.767 597.913 251.319 598.496 243.351 598.751ZM291.429 605.474C290.13 606.228 288.888 606.729 288.311 608.207C290.015 610.56 292.973 612.228 294.132 614.909L295.867 615.397L299.211 614.937C299.716 613.929 299.516 612.55 299.118 611.512C298.863 610.845 298.745 610.71 298.397 610.167C296.527 609.795 295.028 610.08 293.403 609.064L291.429 605.474ZM279.033 611.455L277.155 612.394C276.933 613.109 276.664 613.291 277.108 613.999C278.128 615.626 280.513 616.904 282.09 618.001C283.31 616.859 283.601 616.602 284.141 614.951C283.851 613.685 283.576 612.838 282.433 612.069C281.383 611.362 280.235 611.448 279.033 611.455ZM264.093 614.215L263.721 615.344C265.505 617.701 270.526 617.433 270.112 620.824C269.126 622.063 268.433 622.859 266.768 622.985C262.91 623.277 258.019 620.427 254.618 618.757C248.282 620.1 242.625 622.015 237.888 626.671C253.868 627.876 269.951 626.559 285.874 627.569C294.813 627.854 304.068 628.279 312.995 627.836C313.082 626.06 313.925 620.946 313.174 619.731C311.483 619.486 310.731 620.391 309.207 620.948C306.582 621.908 298.822 620.738 294.621 621.609C292.758 623.124 290.749 625.2 288.426 625.893C286.826 625.071 284.52 622.733 282.683 622.745C278.904 622.77 277.641 625.746 275.868 620.346L275.711 619.856C274.453 618.977 274.13 618.943 272.588 618.794L271.698 619.227C270.505 617.892 270.461 617.46 270.093 615.751C270.028 615.446 269.822 614.794 269.717 614.455C267.973 613.517 265.986 614.004 264.093 614.215ZM283.851 616.548C284.479 618.195 284.857 619.369 286.268 620.48C288.149 621.077 289.284 620.797 291.098 620.083C290.963 619.04 291.131 618.182 290.247 617.502C288.442 616.114 285.998 616.495 283.851 616.548ZM632.946 627.588C609.562 634.217 585.639 639.391 562.483 646.743C565.744 658.051 571.39 669.124 576.047 679.929C582.009 693.764 587.526 707.957 594.324 721.4C600.95 719.342 607.683 717.438 614.218 715.116C610.653 707.176 605.033 699.2 603.087 690.726C603.835 689.195 605.652 689.217 605.892 687.538C606.723 681.721 597.139 652.907 601.452 650.242C605.038 651.888 606.838 658.35 608.146 661.882L609.075 664.407C612.714 673.273 616.187 682.264 620.279 690.931L625.909 687.922C622.43 679.941 612.058 655.577 612.184 648.033L612.763 647.546C618.415 650.211 636.953 681.487 640.762 688.801C642.823 692.757 644.583 697.209 646.117 701.405Q646.827 703.366 647.45 705.357L667.919 700.096C654.832 679.142 649.377 653.99 637.983 632.199C637.055 630.426 636.106 628.36 634.221 627.464L632.946 627.588ZM691.756 683.848C688.552 687.33 685.166 688.724 680.914 690.53C684.612 690.244 693.146 689.211 696.067 691.855C697.138 692.825 697.12 693.384 697.358 694.744C696.936 695.886 696.928 696.241 695.682 696.696C692.492 697.862 683.858 695.57 681.884 698.098C683.732 701.64 690.032 703.027 693.634 704.233C697.046 705.631 700.344 707.024 703.314 709.257C707.238 703.909 710.819 698.262 714.832 692.996C709.419 691.202 695.979 684.1 691.756 683.848ZM888.194 713.794C890.526 726.216 893.79 738.507 896.405 750.883C898.771 762.082 900.5 773.342 902.597 784.585L910.161 784.38C905.929 763.394 901.42 745.276 893.872 725.156C892.744 722.15 891.028 715.934 888.467 713.971C888.381 713.905 888.285 713.853 888.194 713.794ZM690.505 729.603L619.538 749.705Q603.043 754.257 586.7 759.33C582.011 760.746 577.113 761.93 572.541 763.684C571.326 764.151 570.049 764.581 569.389 765.792C568.7 767.057 568.82 767.977 569.024 769.316L569.613 770.017L570.317 770.049C592.266 762.43 615.127 756.508 637.542 750.389C654.927 745.643 672.262 740.479 689.719 736.026C690.648 734.143 691.387 732.488 691.842 730.433L691.52 729.601L690.505 729.603ZM557.459 736.625C557.394 736.804 557.327 736.982 557.264 737.162C554.658 744.607 557.23 758.952 552.725 764.571C551.601 764.557 551.463 764.481 550.65 763.614C545.011 757.601 540.679 744.771 537.363 736.993C534.011 745.402 531.981 754.217 531.969 763.319C533.601 766.251 535.476 769.204 536.888 772.239C541.957 780.614 546.811 789.327 552.239 797.461C556.456 793.576 560.844 789.975 565.172 786.224C562.958 775.541 560.983 764.052 560.098 753.169C559.713 748.435 560.087 743.689 559.494 738.961C559.363 737.921 559.368 737.626 558.425 737.029C558.164 736.864 557.756 736.732 557.459 736.625ZM679.438 754.117C655.452 761.54 631.187 768.123 607.145 775.393C596.931 778.482 585.893 781.144 576.106 785.345Q586.089 795.207 595.881 805.259C602.328 811.592 609.096 817.549 615.574 823.824C615.371 820.231 614.223 813.102 616.387 810.138C619.726 805.565 648.213 799.373 654.888 797.719C659.124 791.71 679.322 759.866 679.438 754.117ZM647.849 806.151C638.815 808.517 629.923 811.292 621.014 814.081C621.768 820.148 621.636 826.97 625.404 832.081C626.515 833.204 627.607 834.367 628.769 835.436C631.207 832.08 648.362 808.36 648.044 806.241L647.849 806.151Z"/>
	<path d="M513.686 319.267C512.094 318.703 510.759 318.324 509.74 316.882C507.989 309.259 509.044 283.413 508.953 273.824C508.778 255.508 507.52 237.218 508.068 218.889C508.109 217.515 508.297 216.473 508.758 215.177C508.966 215.221 509.175 215.26 509.382 215.31C510.974 215.692 511.942 215.926 512.847 217.336C513.611 226.689 512.889 236.273 513.083 245.667L514.126 297.225C514.198 304.062 515.33 312.675 513.686 319.267Z"/>
	<path d="M607.372 430.512C605.792 430.24 604.904 429.836 604.024 428.474C603.086 427.023 602.922 424.461 602.852 422.759C602.515 414.542 602.85 406.182 602.625 397.928L599.841 293.211C599.414 279.38 599.314 265.515 598.796 251.693C598.418 241.601 596.703 226.649 598.279 217.03C599.738 217.304 601.041 217.181 601.922 218.534C602.714 219.751 602.959 222.07 603.081 223.488C603.46 227.91 602.937 232.686 603 237.155C603.138 247.075 603.559 256.982 603.81 266.898L605.117 331.998L606.966 390.241C607.267 399.016 609.606 423.797 607.372 430.512Z"/>
	<path d="M158.625 266.348C155.836 266.479 152.935 266.721 150.153 266.412C148.511 266.23 147.571 265.866 146.552 264.573L146.859 263.729C148.5 262.719 150.267 262.427 152.162 262.204C160.382 261.236 168.794 261.094 177.06 260.604Q202.502 258.982 227.975 257.98C252.084 256.968 276.161 255.238 300.272 254.272C301.677 254.157 303.09 254.03 304.499 253.989C306.648 253.925 310.243 253.753 311.872 255.287L311.534 256.066C309.086 257.947 305.903 258.652 302.866 258.911C300.522 259.111 298.167 258.631 295.807 258.755L271.091 260.201C233.579 262.231 196.108 263.655 158.625 266.348Z"/>
	<path d="M366.386 298.625C363.79 299.122 359.479 299.578 356.95 298.87C355.683 298.515 355.323 298.066 354.639 296.989L355.061 295.98C356.434 295.123 357.871 294.86 359.454 294.644C368.02 293.479 377.227 293.485 385.892 292.945L435.481 289.795C437.659 289.595 440.051 289.287 442.229 289.438C444.064 289.565 446.11 290.393 447.228 291.814L446.662 292.699C444.889 293.437 443.143 293.94 441.225 294.158C433.826 294.997 426.188 294.997 418.745 295.43L366.386 298.625Z"/>
	<path d="M748.416 312.557C738.759 311.722 668.397 302.58 663.592 299.519C662.991 298.021 663.198 297.513 663.447 295.952C670.937 296.451 678.424 297.691 685.858 298.725Q705.635 301.374 725.301 304.753C732.453 305.961 741.283 306.56 747.998 309.242C748.933 310.577 748.614 310.984 748.416 312.557Z"/>
	<path d="M158.78 311.705C155.887 312.02 152.815 312.529 149.91 312.531C147.821 312.533 146.082 312.301 144.549 310.742C144.512 310.04 144.289 309.597 144.806 309.035C146.062 307.669 148.393 307.415 150.134 307.217C155.675 306.586 161.507 306.662 167.091 306.418L199.391 304.899L293.275 299.75Q295.794 299.549 298.316 299.401C300.728 299.268 304.144 299.344 306.024 301.017L305.84 301.926C304.257 303.25 302.496 303.675 300.479 303.91C295.123 304.535 289.547 304.171 284.151 304.406C272.459 304.915 260.693 305.85 248.987 306.479C218.914 308.095 188.865 310.285 158.78 311.705Z"/>
	<path d="M367.124 344.402C364.335 344.507 361.03 345.144 358.293 344.702C356.939 344.483 356.27 344.286 355.424 343.207L355.862 342.131C357.041 341.261 358.067 340.681 359.524 340.4C365.97 339.159 373.636 339.473 380.24 339.055C395.727 338.075 411.233 336.942 426.737 336.287C430.351 336.026 434.5 335.419 438.051 336.316C439.232 336.615 438.835 336.322 439.408 337.286C439.322 337.434 439.254 337.593 439.15 337.729C438.189 338.989 435.999 339.846 434.48 340.141C428.9 341.227 421.49 340.855 415.616 341.211C399.456 342.188 383.252 342.99 367.124 344.402Z"/>
	<path d="M269.125 350.289Q266.794 350.433 264.461 350.534C262.497 350.61 261.35 350.652 259.859 349.282C259.783 347.948 259.745 347.849 260.456 346.733C268.494 343.896 286.598 344.738 295.915 344.211C297.623 344.08 299.789 343.716 301.47 344.029C303.072 344.327 304.705 344.734 305.691 346.046C305.485 346.288 305.32 346.571 305.073 346.772C300.622 350.387 276.07 350.109 269.125 350.289Z"/>
	<path d="M743.117 357.528C736.237 357.028 671.904 349.773 669.041 348.033C668.422 346.624 668.822 345.95 669.151 344.474C678.294 344.393 738.445 351.255 743.058 354.397C743.58 355.721 743.371 356.158 743.117 357.528Z"/>
	<path d="M844.207 393.523C842.591 393.605 841.035 393.562 839.441 393.249C837.757 392.919 836.675 392.337 835.705 390.872C835.461 387.081 841.261 363.359 843.037 360.735C844.325 361.403 845.376 362.356 845.907 363.726C848.481 370.369 842.841 381.347 840.151 387.29C841.91 388.111 843.731 388.766 845.015 390.275C845.304 391.953 845.015 392.09 844.207 393.523Z"/>
	<path d="M829.792 371.096C829.096 370.79 828.335 370.478 827.717 370.032C826.692 369.292 826.26 368.235 826.001 367.042C826.243 365.657 826.443 365.026 827.366 363.956C828.325 364.162 829.255 364.441 830.196 364.713C831.215 365.787 831.414 365.977 831.737 367.406C831.36 369.123 830.951 369.771 829.792 371.096Z"/>
	<path d="M487.229 370.93C486.989 371.014 486.756 371.126 486.508 371.182C485.244 371.467 484.817 371.49 483.765 370.864L483.829 369.776C485.582 367.129 486.867 366.523 489.833 365.509C491.491 365.805 493.27 365.965 494.306 367.402L493.799 368.42C491.691 369.836 489.649 370.314 487.229 370.93Z"/>
	<path d="M857.979 373.158C856.757 373.168 855.552 373.118 854.508 372.376C853.84 371.9 853.416 371.29 853.235 370.505C852.721 368.276 853.692 366.923 854.891 365.167C855.999 365.367 857.631 365.729 858.532 366.485C859.43 367.239 859.929 368.002 859.969 369.197C860.021 370.774 858.894 372.004 857.979 373.158Z"/>
	<path d="M517.203 370.561C515.493 370.437 513.558 370.319 511.895 369.929C510.545 369.612 510.082 369.246 509.337 368.114L510.217 366.498C510.986 366.386 511.754 366.327 512.531 366.356C514.382 366.423 516.358 367.027 517.626 368.414C517.858 369.589 517.829 369.53 517.203 370.561Z"/>
	<path d="M494.684 383.286C492.899 382.742 491.332 382.321 490.481 380.459C489.549 378.42 490.402 376.301 491.078 374.33C491.738 374.508 492.398 374.675 493.043 374.905C494.348 375.37 495.406 376.143 495.844 377.534C496.461 379.492 495.463 381.54 494.684 383.286Z"/>
	<path d="M517.496 382.005C516.747 382.052 515.756 382.159 515.035 381.884C513.931 381.463 513.124 380.686 512.838 379.529C512.4 377.764 513.255 376.273 514.027 374.754C514.844 374.918 515.757 375.056 516.529 375.369C517.803 375.886 518.141 376.693 518.712 377.86C518.712 379.583 518.305 380.5 517.496 382.005Z"/>
	<path d="M504.458 394.456C504.229 394.414 503.993 394.401 503.772 394.331C502.466 393.92 502.056 393.738 501.436 392.6C502.813 389.822 504.043 386.847 505.013 383.901C505.835 381.406 506.157 378.787 507.435 376.469C508.234 376.782 508.91 377.022 509.47 377.718C510.731 379.288 511.049 381.45 510.842 383.393C510.352 387.995 507.97 391.631 504.458 394.456Z"/>
	<path d="M360.12 391.811C359.417 391.767 358.684 391.745 357.99 391.602C356.738 391.343 355.935 390.841 355.179 389.808L355.473 388.954C356.927 388.131 358.405 387.905 360.058 387.733C365.925 387.12 372.009 387.111 377.907 386.783C396.169 385.765 414.612 385.18 432.792 383.232C433.471 383.14 434.632 383.195 435.281 383.393C436.443 383.746 436.861 384.432 437.414 385.439L437.037 386.366C430.731 389.914 371.559 391.133 360.12 391.811Z"/>
	<path d="M266.891 396.097C265.15 396.241 263.273 396.503 261.53 396.384C259.851 396.27 257.639 395.527 256.544 394.28C256.623 394.162 256.687 394.032 256.782 393.925C260.242 390.043 288.52 389.602 294.727 389.201C297.511 388.971 301.86 388.054 304.218 389.792C304.577 390.917 304.559 391.078 304.271 392.229C299.079 395.501 273.96 395.758 266.891 396.097Z"/>
	<path d="M234.832 395.681C233.15 395.84 231.921 395.775 230.361 395.035C229.613 394.028 229.293 393.696 229.601 392.353C229.929 390.923 231.57 390.07 232.706 389.332C234.191 389.52 235.943 389.933 237.105 390.953C238.192 391.907 238.208 392.243 238.255 393.573C237.195 394.962 236.434 395.059 234.832 395.681Z"/>
	<path d="M746.808 403.343C736.736 402.916 726.584 401.319 716.532 400.398C703.782 399.229 690.775 398.611 678.111 396.77C676.065 396.472 673.719 396.227 671.958 395.101C671.464 393.73 671.732 392.84 672.054 391.484C680.995 391.948 743.028 397.08 747.103 399.857C747.526 401.299 747.19 401.914 746.808 403.343Z"/>
	<path d="M510.399 402.349C508.419 403.579 506.58 404.352 504.234 404.574C501.136 404.866 498.089 404.127 495.681 402.093C492.937 399.773 492.155 397.263 491.76 393.806C496.629 393.936 497.624 398.05 501.76 398.889C504.685 399.481 508.021 397.388 510.834 398.546C511.197 400.021 510.842 400.96 510.399 402.349Z"/>
	<path d="M843.168 406.142C842.24 405.877 841.077 405.532 840.301 404.96C839.277 404.205 839.11 403.775 839.092 402.624C841.065 399.737 848.632 399.412 851.88 397.81C853.55 396.986 855.093 395.514 856.507 394.31C856.996 394.363 857.526 394.399 857.995 394.558C859.186 394.962 859.595 395.881 860.118 396.924C860.025 397.778 859.916 398.229 859.386 398.937C856.106 403.318 848.215 405.305 843.168 406.142Z"/>
	<path d="M206.257 410.707C204.674 409.735 203.289 408.912 202.774 406.981C202.034 404.201 203.846 401.415 205.236 399.168C205.815 399.275 206.546 399.455 207.055 399.741C208.242 400.407 208.841 401.475 209.065 402.773C209.542 405.528 207.672 408.535 206.257 410.707Z"/>
	<path d="M229.141 415.361C228.038 415.354 227.391 415.134 226.388 414.687C225.698 413.907 225.339 413.417 225.067 412.383C224.202 409.086 226.459 404.94 228.115 402.234C228.946 402.314 229.742 402.368 230.499 402.77C231.654 403.383 232.184 404.385 232.455 405.621C233.151 408.786 230.858 412.886 229.141 415.361Z"/>
	<path d="M221.218 427.235C220.979 427.067 220.728 426.917 220.501 426.733C219.218 425.691 218.226 424.311 218.069 422.627C217.834 420.124 219.157 418.464 220.693 416.662C221.233 416.879 221.822 417.089 222.31 417.412C223.383 418.122 224.012 419.219 224.147 420.488C224.426 423.093 222.814 425.371 221.218 427.235Z"/>
	<path d="M221.642 435.722C217.311 438.67 211.068 439.405 205.921 438.748C203.485 438.437 200.971 437.572 199.554 435.438C198.623 434.035 199.036 432.324 199.243 430.763C203.039 431.034 206.605 432.654 210.487 432.879C214.332 433.102 217.898 431.757 221.669 431.587C222.732 431.539 222.608 431.478 223.448 432.256C223.143 433.743 222.537 434.553 221.642 435.722Z"/>
	<path d="M888.893 479.334C884.148 479.85 867.577 478.37 864.167 475.3C863.138 474.374 863.616 473.201 863.756 472.002C869.613 471.779 883.495 472.796 888.619 475.554C889.424 477.019 889.095 477.705 888.893 479.334Z"/>
	<path d="M887.154 489.135C881.395 490.656 869.526 489.591 864.215 486.867C862.317 485.893 861.992 484.66 861.399 482.761C868.401 483.061 878.127 482.527 884.459 485.516C886.325 486.396 886.572 487.307 887.154 489.135Z"/>
	<path d="M598.266 533.626C596.324 533.607 594.319 533.598 592.904 532.054C592.316 531.413 591.984 530.687 591.959 529.829C591.897 527.644 592.96 526.419 594.359 524.919C596.249 525.008 597.926 525.01 599.406 526.362C600.022 526.925 600.46 527.88 600.511 528.688C600.649 530.89 599.649 532.09 598.266 533.626Z"/>
	<path d="M392.134 546.741C390.684 546.612 389.201 546.411 388.108 545.339C387.149 544.399 386.935 543.336 387.093 542.043C387.353 539.916 388.968 538.539 390.565 537.336L391.44 537.614C392.56 537.957 393.593 538.173 394.462 539.033C395.26 539.823 395.787 541.048 395.63 542.169C395.316 544.399 393.855 545.494 392.134 546.741Z"/>
	<path d="M356.88 808.138Q341.721 798.164 326.416 788.413C316.772 782.33 273.462 757.094 269.557 751.404C269.719 750.406 269.631 750.267 270.326 749.436C271.21 748.378 272.311 747.595 273.492 746.899C278.231 744.102 283.355 741.822 288.17 739.105Q316.374 722.963 344.996 707.574C349.734 705.019 354.413 700.983 359.468 699.206C363.722 697.71 369.17 697.901 373.689 697.194C386.149 695.244 398.716 692.334 411.272 691.226C412.215 691.084 411.926 691.07 413.007 691.198C419.196 691.926 443.568 705.643 450.732 709.136C458.861 713.1 467.385 716.479 475.264 720.918C476.853 721.814 478.805 722.869 479.803 724.434C480.232 725.107 479.927 725.346 479.703 726.032C474.144 730.888 457.194 732.616 449.675 734.02C453.876 735.837 459.414 736.735 462.917 739.794C464.14 740.863 464.312 741.723 464.36 743.29C460.896 746.83 454.646 749.467 450.347 752.067Q421.876 769.596 394.5 788.791C383.726 796.253 372.999 804.697 361.499 810.967L356.88 808.138ZM408.869 697.674C397.892 699.198 387.012 701.373 376.045 702.898C396.696 712.608 418.642 719.105 439.292 728.925C442.951 730.82 463.129 725.539 468.571 724.416C456.969 717.941 444.812 712.34 432.856 706.544C426.652 703.536 419.845 699.355 413.211 697.647C411.803 697.284 410.292 697.502 408.869 697.674ZM362.491 703.885C343.994 715.068 325.136 725.52 306.287 736.086C297.379 741.08 288.071 745.768 279.476 751.273Q310.604 770.875 341.498 790.845C348.125 795.165 355.409 798.998 361.748 803.658C364.181 802.102 366.661 800.595 368.99 798.886C387.521 786.066 406.003 773.324 424.873 761C434.653 754.613 444.366 748.099 454.559 742.382C430.943 730.609 406.272 721.542 381.784 711.826C375.625 709.383 368.89 705.338 362.491 703.885Z"/>
</svg>
